<svg xmlns="http://www.w3.org/2000/svg" viewBox="0 0 3243.83691 1764.46177"><defs><style>.cls-1{fill:#fff;}.cls-2{fill:none;}</style></defs><title>ac alfa logo</title><g id="Layer_2" data-name="Layer 2"><g id="Layer_1-2" data-name="Layer 1"><g id="Layer_2-2" data-name="Layer 2"><g id="Layer_1-2-2" data-name="Layer 1-2"><path class="cls-1" d="M2345.77393,1003.711h3.76855q-.38305-4.199-.8125-8.38318Z"/><polygon class="cls-2" points="1255.874 334.355 1334.741 334.355 1294.902 227.093 1255.874 334.355"/><path class="cls-1" d="M679.165,172.941C304.0791,172.941,0,469.46128,0,835.23447c0,365.77393,304.0791,662.29419,679.165,662.29419,154.585,0,297.10351-50.37183,411.25152-135.19238a709.24271,709.24271,0,0,1-26.0083-68.009c-90.77783,42.57325-194.894,66.773-305.5874,66.773-352.88086,0-638.9541-245.89209-638.9541-549.20507,0-303.32789,286.07324-549.22,638.9541-549.22,115.82385,0,224.43512,26.51026,318.11108,72.82789l11.29407-28.99512C974.44806,222.66782,832.76172,172.941,679.165,172.941Z"/><path class="cls-1" d="M1006.67236,593.02644h124.90576l48.06446-132.509h233.11719l50.9082,132.509h128.16211L1485.0415,326.35725,1358.31543,9.90168h-124.5083L1111.33984,324.31232l-9.42041,24.186Zm287.95948-447.07937,80.37793,216.408H1215.89014Z"/><polygon class="cls-1" points="1372.637 647.25 1255.659 647.25 1255.659 1240.188 1663.515 1240.188 1663.515 1139.417 1372.637 1139.417 1372.637 647.25"/><path class="cls-1" d="M1708.32227,523.65559q74.72681,79.21362,190.88769,79.28723,93.88916,0,154.90576-46.29639a200.06444,200.06444,0,0,0,25.86377-23.538q6.345-6.86133,12.19629-14.41407,32.06982-41.457,49.24268-103.92822l-2.939-.93066-76.33008-24.17115-34.77734-11.01269q-8.001,34.39449-21.44092,58.96558-11.55395,21.093-27.16845,34.84985-33.79395,29.92635-80.77588,29.86719-63.54273,0-103.31934-46.97388-39.91626-46.8344-39.78369-157.499,0-2.99378.03613-5.93579,1.125-99.64859,40.29248-144.75562c26.87647-31.09009,62.04834-46.57641,105.22071-46.57641q46.834,0,79.6997,26.21313,32.97583,26.25732,43.17285,71.68408l116.62452-27.83369q-19.95777-70.06347-59.749-107.40113Q2013.38867-.06593,1906.40039.00007q-122.59936,0-197.68018,80.5105-69.42846,74.49243-74.75146,204.40893-.43653,10.70325-.4541,21.76807Q1633.51465,444.16206,1708.32227,523.65559Z"/><path class="cls-1" d="M2591.98975,1240.18757h127.35156l-232.041-597.80005h-123.727L2302.291,804.69831l-116.335,308.12232-48.08837,127.36694h124.10986l47.75537-135.83875h231.6582ZM2349.54248,1003.711h-3.76855l2.95605-8.38318,75.28467-213.47669,79.86181,221.85987Z"/><polygon class="cls-2" points="856.484 975.711 935.197 975.711 895.434 865.266 856.484 975.711"/><path class="cls-1" d="M1142.17236,962.4686c0-152.731,39.22608-293.68554,105.43213-407.13476-81.58276,77.26489-144.67883,175.561-181.61694,286.717l80.49316,207.35864A865.3809,865.3809,0,0,1,1142.17236,962.4686Z"/><path class="cls-1" d="M1747.693,642.38706v597.801H1864.79V986.1771H2106.7041V884.9791H1864.79V743.57016h268.8208a755.13006,755.13006,0,0,0-35.1167-101.1831Z"/><path class="cls-1" d="M2189.86591,959.4686c0-152.731-39.22608-293.68554-105.43213-407.13476,81.58276,77.26489,144.67883,175.561,181.61694,286.717l-80.49316,207.35864A865.3809,865.3809,0,0,0,2189.86591,959.4686Z"/><polygon class="cls-2" points="2385.339 975.711 2464.039 975.711 2424.285 865.273 2385.339 975.711"/><path class="cls-1" d="M2582.16211,136.73789c-200.11865,0-379.47217,89.00659-500.80322,229.63989l85.68139,27.13281C2270.49219,324.19785,2399.2,283.09726,2538.70947,283.09726c341.43164,0,618.22217,246.11329,618.22217,549.70655,0,303.59277-276.79053,549.69116-618.22217,549.69116-84.34179,0-164.73388-15.02564-237.98877-42.217q-9.98364,24.79321-21.72607,48.57178a657.907,657.907,0,0,0,303.16748,73.522c365.43408,0,661.6748-296.75635,661.6748-662.82422C3243.83691,433.49424,2947.59619,136.73789,2582.16211,136.73789Z"/><path class="cls-1" d="M2281.81348,1268.18735H2142.51172c-87.02905,221.53516-265.67908,373.46094-471.9541,373.46094-206.26465,0-384.91138-151.92578-471.9397-373.46094H1056.48633a711.01994,711.01994,0,0,0,33.93017,94.14893c105.09034,237.45483,334.45069,402.12549,600.48975,402.12549,256.01855,0,478.06689-152.50245,588.08838-375.61206q11.72094-23.76857,21.72607-48.57178a718.32124,718.32124,0,0,0,49.25782-207.929h-20.41016Z"/><path class="cls-1" d="M1176.93164,1205.22956,1052.93652,885.806,958.4458,642.38752h-123.727L609.01318,1240.18757H733.12354l47.76953-135.83875h231.64355l22.89063,61.45215,27.70849,74.3866H1190.502ZM816.91943,1003.711l78.24121-221.85987L975.03711,1003.711Z"/></g></g></g></g></svg>