<?xml version="1.0" encoding="utf-8"?>
<!-- Generator: Adobe Illustrator 22.0.0, SVG Export Plug-In . SVG Version: 6.00 Build 0)  -->
<svg version="1.1" id="Layer_1" xmlns="http://www.w3.org/2000/svg" xmlns:xlink="http://www.w3.org/1999/xlink" x="0px" y="0px"
	 width="547.2px" height="240.3px" viewBox="0 0 547.2 240.3" style="enable-background:new 0 0 547.2 240.3;" xml:space="preserve"
	>
<style type="text/css">
	.st0{fill:#fff;}
	.st1{fill:none;stroke:#fff;stroke-width:1.0001;stroke-miterlimit:10;}
	.st2{fill:none;stroke:#fff;stroke-width:1.0001;stroke-miterlimit:10;}
	.st3{fill:#fff;}
	.st4{fill:#fff;}
</style>
<path class="st0" d="M102.5,95.6l21.2,34.1l-10.6,9.7l-51.4-31.6L38,119.5c0,0-12.2,2.9-2.4-8.5l11.1-11.8c0,0,25.6-9.9,44.2,0
	c0,0,3.6,2.2,7.6-0.7L102.5,95.6z"/>
<polyline class="st1" points="102.5,95.6 123.6,129.7 113,139.4 61.6,107.8 38,119.5 "/>
<path class="st1" d="M38,119.5c0,0-12.2,2.9-2.4-8.5"/>
<line class="st1" x1="35.6" y1="111" x2="46.7" y2="99.2"/>
<path class="st1" d="M46.7,99.2c0,0,25.6-9.9,44.2,0c0,0,3.6,2.2,7.6-0.7"/>
<line class="st1" x1="98.5" y1="98.5" x2="102.5" y2="95.6"/>
<path class="st0" d="M20.1,96.8l6.8,4.6c0,0,3.5,1.3,9.8,0.7c0,0-23.6,26.2,3.1,21.2l21.2-11.1l47,31.5c0,0,4.4,10.3-7.2,6.5
	L79.1,137c0,0-9.2-1.7-3.1,4.4l21.2,13.1c0,0,3.5,6.5-4.1,7.2l-20.3-11.2c0,0-6.1-1.1-3.5,4.2l17.5,9.8c0,0,3.3,7.4-4.2,7L67,163.5
	c0,0-5.5-0.2-3.5,3.9l12.9,6.8c0,0-8.3,6.3-21.2,0.9c0,0,6.8-10.1-4.2-14.4c0,0,0.6-12.2-9-12.2c0,0-2-15.7-16.6-5.9
	c0,0-6.5-7.9-14.2-1.1L0.6,128.5L20.1,96.8z"/>
<line class="st1" x1="20.1" y1="96.8" x2="27" y2="101.4"/>
<path class="st1" d="M27,101.4c0,0,3.5,1.3,9.8,0.7c0,0-23.6,26.2,3.1,21.2"/>
<polyline class="st1" points="39.9,123.4 61.1,112.3 108.1,143.8 "/>
<path class="st1" d="M108.1,143.8c0,0,4.4,10.3-7.2,6.5"/>
<line class="st1" x1="100.9" y1="150.3" x2="79.1" y2="137"/>
<path class="st1" d="M79.1,137c0,0-9.2-1.7-3.1,4.4"/>
<line class="st1" x1="76" y1="141.4" x2="97.2" y2="154.5"/>
<path class="st1" d="M97.2,154.5c0,0,3.5,6.5-4.1,7.2"/>
<line class="st1" x1="93.1" y1="161.7" x2="72.9" y2="150.5"/>
<path class="st1" d="M72.9,150.5c0,0-6.1-1.1-3.5,4.2"/>
<line class="st1" x1="69.4" y1="154.7" x2="86.9" y2="164.5"/>
<path class="st1" d="M86.9,164.5c0,0,3.3,7.4-4.2,7"/>
<line class="st1" x1="82.6" y1="171.5" x2="67" y2="163.5"/>
<path class="st1" d="M67,163.5c0,0-5.5-0.2-3.5,3.9"/>
<line class="st1" x1="63.5" y1="167.4" x2="76.4" y2="174.2"/>
<path class="st1" d="M76.4,174.2c0,0-8.3,6.3-21.2,0.9c0,0,6.8-10.1-4.2-14.4c0,0,0.6-12.2-9-12.2c0,0-2-15.7-16.6-5.9
	c0,0-6.5-7.9-14.2-1.1"/>
<polyline class="st1" points="11.1,141.6 0.6,128.5 20.1,96.8 "/>
<path class="st0" d="M36,173.5c0,0-7,1-6.5-5.3l10.5-13.8c0,0,7-2.4,5.9,4.4L36,173.5z"/>
<path class="st1" d="M36,173.5c0,0-7,1-6.5-5.3"/>
<line class="st1" x1="29.5" y1="168.1" x2="40.1" y2="154.3"/>
<path class="st1" d="M40.1,154.3c0,0,7-2.4,5.9,4.4"/>
<line class="st1" x1="46" y1="158.8" x2="36" y2="173.5"/>
<path class="st0" d="M23.8,167.6l13.1-18.2c0,0,0.5-8.1-7.4-4.6l-11.6,17.1C17.9,161.9,16.6,169,23.8,167.6"/>
<line class="st1" x1="23.8" y1="167.6" x2="36.9" y2="149.4"/>
<path class="st1" d="M36.9,149.4c0,0,0.5-8.1-7.4-4.6"/>
<line class="st1" x1="29.5" y1="144.7" x2="17.9" y2="161.9"/>
<path class="st1" d="M17.9,161.9c0,0-1.3,7.2,5.9,5.7"/>
<path class="st0" d="M14.4,158.4l6.6-8.9c0,0,2.9-8.4-6.6-5.7l-6.3,9C8.2,152.8,7.4,160,14.4,158.4"/>
<line class="st1" x1="14.4" y1="158.4" x2="21.1" y2="149.5"/>
<path class="st1" d="M21.1,149.5c0,0,2.9-8.4-6.6-5.7"/>
<line class="st1" x1="14.4" y1="143.9" x2="8.2" y2="152.8"/>
<path class="st1" d="M8.2,152.8c0,0-0.7,7.2,6.3,5.5"/>
<path class="st0" d="M47.2,165.8c0,0,5.9-2,5.5,3.9l-5.5,7.7c0,0-5.2,0.8-5.2-3.8L47.2,165.8z"/>
<path class="st1" d="M47.2,165.8c0,0,5.9-2,5.5,3.9"/>
<line class="st2" x1="52.8" y1="169.6" x2="47.2" y2="177.3"/>
<path class="st2" d="M47.2,177.3c0,0-5.2,0.8-5.2-3.8"/>
<line class="st2" x1="42.1" y1="173.5" x2="47.2" y2="165.8"/>
<path class="st3" d="M127.7,91.7c0,0,44.8-35.2,80.1-89.7c0,0,12.8,20.8-5.6,44.8l-74.5,61.6c0,0,68-44.8,71.3-53.2
	c0,0,9.6,15.6-16,27.6l-55.2,30.4l47.2-20.8c0,0,8.8,16.8-25.6,20.8l-21.6,9.6l29.6-5.6c0,0,5.6,19.2-29.6,23.2h-14.4V90.9
	L127.7,91.7z"/>
<path class="st0" d="M102.5,95.6c0,0,3.1-5.1,10.8-4.7v21.4L102.5,95.6z"/>
<path class="st4" d="M236.5,141.8L236.5,141.8c-6.2,0.3-11.4,0.8-15.7,1.6c-4.2,0.8-7.6,1.8-10.2,3c-2.6,1.2-4.4,2.6-5.5,4.3
	c-1.1,1.6-1.7,3.4-1.7,5.3c0,3.8,1.1,6.5,3.3,8.1c2.2,1.6,5.1,2.4,8.7,2.4c4.4,0,8.2-0.8,11.4-2.4c3.2-1.6,6.4-4,9.4-7.3V141.8z
	 M187.2,103.1c10.3-9.4,22.6-14.1,37.1-14.1c5.2,0,9.9,0.9,14,2.6c4.1,1.7,7.6,4.1,10.4,7.1c2.8,3,5,6.7,6.5,10.9
	c1.5,4.2,2.2,8.9,2.2,13.9v56.4h-9.7c-2,0-3.6-0.3-4.7-0.9c-1.1-0.6-2-1.8-2.6-3.7l-1.9-6.4c-2.3,2-4.5,3.8-6.6,5.4
	c-2.1,1.5-4.4,2.8-6.7,3.9c-2.3,1-4.8,1.8-7.4,2.4c-2.6,0.6-5.6,0.8-8.7,0.8c-3.8,0-7.3-0.5-10.4-1.5c-3.2-1-5.9-2.5-8.3-4.6
	c-2.3-2-4.1-4.6-5.4-7.6c-1.3-3-1.9-6.5-1.9-10.5c0-2.3,0.4-4.5,1.1-6.7c0.8-2.2,2-4.4,3.7-6.4c1.7-2,3.9-3.9,6.7-5.7
	c2.7-1.8,6.1-3.4,10-4.7c4-1.3,8.6-2.4,13.9-3.3c5.3-0.8,11.3-1.3,18.1-1.5v-5.2c0-6-1.3-10.4-3.8-13.3c-2.6-2.9-6.2-4.3-11-4.3
	c-3.5,0-6.4,0.4-8.7,1.2c-2.3,0.8-4.3,1.7-6,2.7c-1.7,1-3.3,1.9-4.7,2.7c-1.4,0.8-3,1.2-4.7,1.2c-1.5,0-2.8-0.4-3.8-1.2
	c-1-0.8-1.9-1.7-2.5-2.7L187.2,103.1z"/>
<path class="st4" d="M354.6,90.6v89.3h-13.1c-2.8,0-4.6-1.3-5.4-3.9l-1.5-7.1c-3.7,3.7-7.7,6.7-12.1,9c-4.4,2.3-9.6,3.4-15.6,3.4
	c-4.9,0-9.2-0.8-12.9-2.5c-3.7-1.7-6.9-4-9.4-7c-2.6-3-4.5-6.6-5.8-10.7c-1.3-4.1-2-8.7-2-13.7V90.6h21.5v56.7
	c0,5.5,1.3,9.7,3.8,12.7c2.5,3,6.3,4.5,11.4,4.5c3.7,0,7.2-0.8,10.4-2.5c3.2-1.7,6.3-3.9,9.2-6.8V90.6H354.6z"/>
<path class="st4" d="M396.1,106.1c2.8-5.3,6.1-9.5,9.9-12.6c3.8-3,8.4-4.6,13.6-4.6c4.1,0,7.4,0.9,9.9,2.7l-1.4,16.1
	c-0.3,1-0.7,1.8-1.3,2.2c-0.6,0.4-1.3,0.7-2.2,0.7c-0.9,0-2.2-0.1-3.9-0.4c-1.7-0.3-3.4-0.4-5-0.4c-2.4,0-4.5,0.3-6.4,1
	c-1.9,0.7-3.5,1.7-5,3c-1.5,1.3-2.8,2.9-3.9,4.7c-1.1,1.9-2.2,4-3.2,6.4v55h-21.5V90.6h12.6c2.2,0,3.7,0.4,4.6,1.2
	c0.9,0.8,1.5,2.2,1.7,4.2L396.1,106.1z"/>
<path class="st4" d="M463,90.6L463,90.6v89.3h-21.6V90.6H463z M465.9,64.6c0,1.9-0.4,3.6-1.1,5.2c-0.8,1.6-1.8,3-3,4.3
	c-1.2,1.2-2.7,2.2-4.4,2.9c-1.7,0.7-3.5,1.1-5.4,1.1c-1.9,0-3.6-0.4-5.3-1.1c-1.7-0.7-3.1-1.7-4.3-2.9c-1.2-1.2-2.2-2.6-2.9-4.3
	c-0.7-1.6-1.1-3.4-1.1-5.2c0-1.9,0.4-3.7,1.1-5.4c0.7-1.7,1.7-3.1,2.9-4.4c1.2-1.2,2.7-2.2,4.3-2.9c1.7-0.7,3.4-1.1,5.3-1.1
	c1.9,0,3.7,0.4,5.4,1.1c1.7,0.7,3.1,1.7,4.4,2.9c1.2,1.2,2.2,2.7,3,4.4C465.5,60.9,465.9,62.7,465.9,64.6z"/>
<path class="st4" d="M539.3,108c-0.6,0.9-1.2,1.6-1.8,2c-0.6,0.4-1.4,0.6-2.4,0.6c-1,0-2.2-0.3-3.3-0.9c-1.2-0.6-2.6-1.2-4.1-2
	c-1.6-0.7-3.4-1.4-5.4-2c-2-0.6-4.4-0.9-7.1-0.9c-4.2,0-7.6,0.9-10,2.7c-2.4,1.8-3.6,4.1-3.6,7c0,1.9,0.6,3.5,1.9,4.8
	c1.2,1.3,2.9,2.4,5,3.4c2.1,1,4.4,1.9,7,2.7c2.6,0.8,5.3,1.6,8,2.6c2.7,0.9,5.4,2,8,3.2c2.6,1.2,4.9,2.7,7,4.5c2.1,1.8,3.7,4,5,6.6
	c1.2,2.6,1.9,5.6,1.9,9.2c0,4.3-0.8,8.3-2.3,11.9c-1.5,3.6-3.8,6.8-6.8,9.4c-3,2.6-6.7,4.7-11.2,6.2c-4.4,1.5-9.6,2.2-15.4,2.2
	c-3.1,0-6.1-0.3-9-0.8c-2.9-0.6-5.7-1.3-8.4-2.3c-2.7-1-5.2-2.1-7.5-3.5c-2.3-1.3-4.3-2.8-6-4.4l5-8.2c0.6-1,1.4-1.7,2.3-2.3
	c0.9-0.5,2-0.8,3.3-0.8c1.3,0,2.6,0.4,3.8,1.1c1.2,0.8,2.6,1.6,4.1,2.4c1.6,0.9,3.4,1.7,5.5,2.4c2.1,0.8,4.8,1.1,8.1,1.1
	c2.6,0,4.7-0.3,6.6-0.9c1.8-0.6,3.3-1.4,4.5-2.4c1.2-1,2.1-2.1,2.6-3.4c0.6-1.3,0.8-2.7,0.8-4c0-2.1-0.6-3.8-1.9-5.1
	c-1.2-1.3-2.9-2.5-5-3.5c-2.1-1-4.4-1.9-7-2.7c-2.6-0.8-5.3-1.6-8.1-2.6c-2.8-0.9-5.5-2-8.1-3.3c-2.6-1.2-5-2.8-7-4.7
	c-2.1-1.9-3.7-4.3-5-7c-1.2-2.8-1.9-6.1-1.9-10.1c0-3.7,0.7-7.1,2.2-10.4c1.5-3.3,3.6-6.2,6.4-8.7c2.8-2.5,6.3-4.4,10.5-5.9
	c4.2-1.5,9.1-2.2,14.6-2.2c6.1,0,11.7,1,16.8,3c5,2,9.3,4.7,12.6,8L539.3,108z"/>
<path class="st0" d="M521.1,225.3c0,3.6,0.9,6.4,2.8,8.5c1.8,2,4.2,3.1,7,3.1c2.8,0,5.2-1,7-3.1c1.8-2.1,2.8-5,2.8-8.9
	c0-2.4-0.4-4.5-1.2-6.3c-0.8-1.8-2-3.2-3.5-4.2c-1.5-1-3.2-1.5-5.1-1.5c-2.7,0-5,1-6.9,2.9C522.1,217.7,521.1,220.9,521.1,225.3
	 M517.2,225.2c0-4.9,1.3-8.8,3.8-11.6c2.6-2.8,5.8-4.2,9.9-4.2c2.6,0,5,0.7,7.2,2c2.1,1.3,3.7,3.2,4.8,5.5c1.1,2.4,1.7,5,1.7,8
	c0,3-0.6,5.7-1.8,8.1c-1.2,2.4-2.8,4.2-5,5.4c-2.2,1.2-4.5,1.8-7,1.8c-2.7,0-5.1-0.7-7.2-2c-2.1-1.3-3.8-3.2-4.8-5.5
	C517.7,230.4,517.2,227.9,517.2,225.2z M499.8,239.8L488.7,210h4.1l7.4,21.6c0.6,1.7,1.1,3.4,1.5,4.9c0.4-1.6,0.9-3.2,1.5-4.9
	l7.7-21.6h3.9l-11.2,29.8H499.8z M474.5,239.8v-26.3H465V210h22.7v3.5h-9.5v26.3H474.5z M450.7,205.9l2.2-3.5h4l-4.5,5.7h-3.7
	l-4.2-5.7h4L450.7,205.9z M439.2,230.2l3.6-0.3c0.2,1.5,0.6,2.7,1.2,3.7c0.6,1,1.6,1.7,2.9,2.3c1.3,0.6,2.8,0.9,4.4,0.9
	c1.5,0,2.7-0.2,3.8-0.7c1.1-0.5,1.9-1.1,2.5-1.9c0.5-0.8,0.8-1.6,0.8-2.5c0-0.9-0.2-1.7-0.8-2.5c-0.5-0.7-1.4-1.2-2.6-1.7
	c-0.8-0.3-2.5-0.8-5.1-1.5c-2.6-0.7-4.5-1.2-5.6-1.8c-1.4-0.7-2.4-1.7-3-2.8c-0.7-1.1-1-2.4-1-3.7c0-1.5,0.4-3,1.2-4.2
	c0.8-1.3,2-2.3,3.6-3c1.6-0.7,3.3-1,5.2-1c2.1,0,4,0.3,5.6,1.1c1.6,0.7,2.9,1.7,3.8,3.1c0.9,1.4,1.3,3,1.4,4.7l-3.6,0.3
	c-0.2-1.9-0.8-3.3-2-4.2c-1.2-1-2.8-1.5-5-1.5c-2.3,0-4,0.4-5,1.3c-1,0.9-1.6,2-1.6,3.2c0,1.1,0.4,2,1.1,2.7
	c0.7,0.7,2.6,1.4,5.7,2.1c3.1,0.7,5.2,1.4,6.3,1.9c1.7,0.8,2.9,1.8,3.7,3c0.8,1.2,1.2,2.7,1.2,4.2c0,1.6-0.4,3.1-1.3,4.5
	c-0.8,1.4-2.1,2.5-3.7,3.3c-1.6,0.8-3.5,1.2-5.5,1.2c-2.6,0-4.8-0.4-6.5-1.2c-1.8-0.8-3.1-2-4.1-3.6
	C439.8,234,439.2,232.2,439.2,230.2z M430.3,210h3.8v17.2c0,3-0.3,5.4-1,7.2c-0.7,1.7-1.8,3.2-3.5,4.3c-1.7,1.1-3.9,1.7-6.7,1.7
	c-2.7,0-4.9-0.5-6.6-1.5c-1.7-1-2.9-2.3-3.7-4.2c-0.7-1.8-1.1-4.3-1.1-7.5V210h3.8v17.2c0,2.6,0.2,4.5,0.7,5.7
	c0.5,1.2,1.3,2.2,2.4,2.8c1.1,0.7,2.5,1,4.1,1c2.8,0,4.7-0.7,5.9-2c1.2-1.3,1.8-3.9,1.8-7.6V210z M386.5,223.1h8.1
	c1.8,0,3.1-0.2,4.1-0.6c1-0.3,1.7-1,2.2-1.8c0.5-0.8,0.8-1.7,0.8-2.7c0-1.4-0.5-2.6-1.5-3.5c-1-0.9-2.5-1.4-4.6-1.4h-9.1V223.1z
	 M382.7,239.8V210h12.7c2.6,0,4.5,0.2,5.8,0.8c1.3,0.5,2.4,1.5,3.2,2.8c0.8,1.4,1.2,2.9,1.2,4.5c0,2.1-0.6,3.9-2,5.4
	c-1.3,1.4-3.4,2.3-6.1,2.7c1,0.5,1.8,1,2.3,1.5c1.1,1,2.2,2.4,3.1,4l5,8.1h-4.7l-3.8-6.2c-1.1-1.8-2-3.2-2.7-4.1
	c-0.7-1-1.4-1.6-1.9-2c-0.6-0.4-1.2-0.6-1.8-0.8c-0.4-0.1-1.1-0.1-2.1-0.1h-4.4v13.2H382.7z M357.5,236.3h6.1c1.9,0,3.4-0.2,4.4-0.5
	c1.1-0.4,1.9-0.9,2.6-1.5c0.9-1,1.6-2.2,2.1-3.8c0.5-1.6,0.8-3.5,0.8-5.7c0-3.1-0.5-5.5-1.5-7.2c-1-1.7-2.2-2.8-3.6-3.4
	c-1-0.4-2.6-0.6-4.9-0.6h-6V236.3z M353.7,239.8V210h9.9c2.2,0,3.9,0.1,5.1,0.4c1.6,0.4,3,1.1,4.2,2.1c1.5,1.3,2.6,3,3.4,5.1
	c0.8,2,1.1,4.4,1.1,7.1c0,2.2-0.2,4.3-0.8,6c-0.5,1.7-1.2,3.2-2,4.3c-0.8,1.1-1.6,2-2.6,2.7c-1,0.7-2.1,1.2-3.4,1.5
	c-1.4,0.3-2.9,0.5-4.6,0.5H353.7z M314.2,225.3c0,3.6,0.9,6.4,2.8,8.5c1.8,2,4.2,3.1,7,3.1c2.8,0,5.2-1,7-3.1c1.8-2.1,2.8-5,2.8-8.9
	c0-2.4-0.4-4.5-1.2-6.3c-0.8-1.8-2-3.2-3.5-4.2c-1.5-1-3.2-1.5-5.1-1.5c-2.7,0-5,1-6.9,2.9C315.1,217.7,314.2,220.9,314.2,225.3
	 M310.2,225.2c0-4.9,1.3-8.8,3.8-11.6c2.6-2.8,5.8-4.2,9.9-4.2c2.6,0,5,0.7,7.2,2c2.1,1.3,3.7,3.2,4.8,5.5c1.1,2.4,1.7,5,1.7,8
	c0,3-0.6,5.7-1.8,8.1c-1.2,2.4-2.8,4.2-5,5.4c-2.2,1.2-4.5,1.8-7,1.8c-2.7,0-5.1-0.7-7.2-2c-2.1-1.3-3.8-3.2-4.8-5.5
	C310.8,230.4,310.2,227.9,310.2,225.2z M282.4,239.8V210h3.9l15.1,23.4V210h3.6v29.8h-3.9l-15.1-23.4v23.4H282.4z M265.3,239.8
	v-26.3h-9.5V210h22.7v3.5h-9.5v26.3H265.3z M247.5,239.8V210h3.8v29.8H247.5z M221.8,236.3h6.1c1.9,0,3.4-0.2,4.4-0.5
	c1.1-0.4,1.9-0.9,2.6-1.5c0.9-1,1.6-2.2,2.1-3.8c0.5-1.6,0.8-3.5,0.8-5.7c0-3.1-0.5-5.5-1.5-7.2c-1-1.7-2.2-2.8-3.6-3.4
	c-1-0.4-2.6-0.6-4.9-0.6h-6V236.3z M218,239.8V210h9.9c2.2,0,3.9,0.1,5.1,0.4c1.6,0.4,3,1.1,4.2,2.1c1.5,1.3,2.6,3,3.4,5.1
	c0.8,2,1.1,4.4,1.1,7.1c0,2.2-0.2,4.3-0.8,6c-0.5,1.7-1.2,3.2-2,4.3c-0.8,1.1-1.6,2-2.6,2.7c-1,0.7-2.1,1.2-3.4,1.5
	c-1.4,0.3-2.9,0.5-4.6,0.5H218z M191.3,239.8V210H212v3.5h-16.9v9.2h15.8v3.5h-15.8v10.2h17.6v3.5H191.3z M166.2,223.1h8.1
	c1.8,0,3.1-0.2,4.1-0.6c1-0.3,1.7-1,2.2-1.8c0.5-0.8,0.8-1.7,0.8-2.7c0-1.4-0.5-2.6-1.5-3.5c-1-0.9-2.5-1.4-4.6-1.4h-9.1V223.1z
	 M162.4,239.8V210h12.7c2.6,0,4.5,0.2,5.8,0.8c1.3,0.5,2.4,1.5,3.2,2.8c0.8,1.4,1.2,2.9,1.2,4.5c0,2.1-0.6,3.9-2,5.4
	c-1.3,1.4-3.4,2.3-6.1,2.7c1,0.5,1.8,1,2.3,1.5c1.1,1,2.2,2.4,3.1,4l5,8.1h-4.7l-3.8-6.2c-1.1-1.8-2-3.2-2.7-4.1
	c-0.7-1-1.4-1.6-1.9-2c-0.6-0.4-1.2-0.6-1.8-0.8c-0.4-0.1-1.1-0.1-2.1-0.1h-4.4v13.2H162.4z M135.4,239.8V210h3.8v14.8l14.3-14.8
	h5.1l-12,12.1l12.5,17.7h-5l-10.2-15l-4.7,4.7v10.3H135.4z M107.2,225.3c0,3.6,0.9,6.4,2.8,8.5c1.8,2,4.2,3.1,7,3.1
	c2.8,0,5.2-1,7-3.1c1.8-2.1,2.8-5,2.8-8.9c0-2.4-0.4-4.5-1.2-6.3c-0.8-1.8-2-3.2-3.5-4.2c-1.5-1-3.2-1.5-5.1-1.5c-2.7,0-5,1-6.9,2.9
	C108.2,217.7,107.2,220.9,107.2,225.3 M103.3,225.2c0-4.9,1.3-8.8,3.8-11.6c2.6-2.8,5.8-4.2,9.9-4.2c2.6,0,5,0.7,7.2,2
	c2.1,1.3,3.7,3.2,4.8,5.5c1.1,2.4,1.7,5,1.7,8c0,3-0.6,5.7-1.8,8.1c-1.2,2.4-2.8,4.2-5,5.4c-2.2,1.2-4.5,1.8-7,1.8
	c-2.7,0-5.1-0.7-7.2-2c-2.1-1.3-3.8-3.2-4.8-5.5C103.8,230.4,103.3,227.9,103.3,225.2z M79.4,223.1h8.1c1.8,0,3.1-0.2,4.1-0.6
	c1-0.3,1.7-1,2.2-1.8c0.5-0.8,0.8-1.7,0.8-2.7c0-1.4-0.5-2.6-1.5-3.5c-1-0.9-2.5-1.4-4.6-1.4h-9.1V223.1z M75.6,239.8V210h12.7
	c2.6,0,4.5,0.2,5.8,0.8c1.3,0.5,2.4,1.5,3.2,2.8c0.8,1.4,1.2,2.9,1.2,4.5c0,2.1-0.6,3.9-2,5.4c-1.3,1.4-3.4,2.3-6.1,2.7
	c1,0.5,1.8,1,2.3,1.5c1.1,1,2.2,2.4,3.1,4l5,8.1h-4.7l-3.8-6.2c-1.1-1.8-2-3.2-2.7-4.1c-0.7-1-1.4-1.6-1.9-2
	c-0.6-0.4-1.2-0.6-1.8-0.8c-0.4-0.1-1.1-0.1-2.1-0.1h-4.4v13.2H75.6z M48.6,239.8V210h3.8v14.8L66.7,210h5.1l-12,12.1l12.5,17.7h-5
	l-10.2-15l-4.7,4.7v10.3H48.6z M38.3,239.8V210h3.8v29.8H38.3z M4.2,239.8V210h5.7l6.8,21.1c0.6,2,1.1,3.4,1.4,4.4
	c0.3-1.1,0.8-2.7,1.5-4.8l6.9-20.7h5.1v29.8h-3.6v-24.9l-8.4,24.9h-3.4l-8.3-25.4v25.4H4.2z"/>
<path class="st0" d="M521.1,225.3c0,3.6,0.9,6.4,2.8,8.5c1.8,2,4.2,3.1,7,3.1c2.8,0,5.2-1,7-3.1c1.8-2.1,2.8-5,2.8-8.9
	c0-2.4-0.4-4.5-1.2-6.3c-0.8-1.8-2-3.2-3.5-4.2c-1.5-1-3.2-1.5-5.1-1.5c-2.7,0-5,1-6.9,2.9C522.1,217.7,521.1,220.9,521.1,225.3
	 M517.2,225.2c0-4.9,1.3-8.8,3.8-11.6c2.6-2.8,5.8-4.2,9.9-4.2c2.6,0,5,0.7,7.2,2c2.1,1.3,3.7,3.2,4.8,5.5c1.1,2.4,1.7,5,1.7,8
	c0,3-0.6,5.7-1.8,8.1c-1.2,2.4-2.8,4.2-5,5.4c-2.2,1.2-4.5,1.8-7,1.8c-2.7,0-5.1-0.7-7.2-2c-2.1-1.3-3.8-3.2-4.8-5.5
	C517.7,230.4,517.2,227.9,517.2,225.2z M499.8,239.8L488.7,210h4.1l7.4,21.6c0.6,1.7,1.1,3.4,1.5,4.9c0.4-1.6,0.9-3.2,1.5-4.9
	l7.7-21.6h3.9l-11.2,29.8H499.8z M474.5,239.8v-26.3H465V210h22.7v3.5h-9.5v26.3H474.5z M450.7,205.9l2.2-3.5h4l-4.5,5.7h-3.7
	l-4.2-5.7h4L450.7,205.9z M439.2,230.2l3.6-0.3c0.2,1.5,0.6,2.7,1.2,3.7c0.6,1,1.6,1.7,2.9,2.3c1.3,0.6,2.8,0.9,4.4,0.9
	c1.5,0,2.7-0.2,3.8-0.7c1.1-0.5,1.9-1.1,2.5-1.9c0.5-0.8,0.8-1.6,0.8-2.5c0-0.9-0.2-1.7-0.8-2.5c-0.5-0.7-1.4-1.2-2.6-1.7
	c-0.8-0.3-2.5-0.8-5.1-1.5c-2.6-0.7-4.5-1.2-5.6-1.8c-1.4-0.7-2.4-1.7-3-2.8c-0.7-1.1-1-2.4-1-3.7c0-1.5,0.4-3,1.2-4.2
	c0.8-1.3,2-2.3,3.6-3c1.6-0.7,3.3-1,5.2-1c2.1,0,4,0.3,5.6,1.1c1.6,0.7,2.9,1.7,3.8,3.1c0.9,1.4,1.3,3,1.4,4.7l-3.6,0.3
	c-0.2-1.9-0.8-3.3-2-4.2c-1.2-1-2.8-1.5-5-1.5c-2.3,0-4,0.4-5,1.3c-1,0.9-1.6,2-1.6,3.2c0,1.1,0.4,2,1.1,2.7
	c0.7,0.7,2.6,1.4,5.7,2.1c3.1,0.7,5.2,1.4,6.3,1.9c1.7,0.8,2.9,1.8,3.7,3c0.8,1.2,1.2,2.7,1.2,4.2c0,1.6-0.4,3.1-1.3,4.5
	c-0.8,1.4-2.1,2.5-3.7,3.3c-1.6,0.8-3.5,1.2-5.5,1.2c-2.6,0-4.8-0.4-6.5-1.2c-1.8-0.8-3.1-2-4.1-3.6
	C439.8,234,439.2,232.2,439.2,230.2z M430.3,210h3.8v17.2c0,3-0.3,5.4-1,7.2c-0.7,1.7-1.8,3.2-3.5,4.3c-1.7,1.1-3.9,1.7-6.7,1.7
	c-2.7,0-4.9-0.5-6.6-1.5c-1.7-1-2.9-2.3-3.7-4.2c-0.7-1.8-1.1-4.3-1.1-7.5V210h3.8v17.2c0,2.6,0.2,4.5,0.7,5.7
	c0.5,1.2,1.3,2.2,2.4,2.8c1.1,0.7,2.5,1,4.1,1c2.8,0,4.7-0.7,5.9-2c1.2-1.3,1.8-3.9,1.8-7.6V210z M386.5,223.1h8.1
	c1.8,0,3.1-0.2,4.1-0.6c1-0.3,1.7-1,2.2-1.8c0.5-0.8,0.8-1.7,0.8-2.7c0-1.4-0.5-2.6-1.5-3.5c-1-0.9-2.5-1.4-4.6-1.4h-9.1V223.1z
	 M382.7,239.8V210h12.7c2.6,0,4.5,0.2,5.8,0.8c1.3,0.5,2.4,1.5,3.2,2.8c0.8,1.4,1.2,2.9,1.2,4.5c0,2.1-0.6,3.9-2,5.4
	c-1.3,1.4-3.4,2.3-6.1,2.7c1,0.5,1.8,1,2.3,1.5c1.1,1,2.2,2.4,3.1,4l5,8.1h-4.7l-3.8-6.2c-1.1-1.8-2-3.2-2.7-4.1
	c-0.7-1-1.4-1.6-1.9-2c-0.6-0.4-1.2-0.6-1.8-0.8c-0.4-0.1-1.1-0.1-2.1-0.1h-4.4v13.2H382.7z M357.5,236.3h6.1c1.9,0,3.4-0.2,4.4-0.5
	c1.1-0.4,1.9-0.9,2.6-1.5c0.9-1,1.6-2.2,2.1-3.8c0.5-1.6,0.8-3.5,0.8-5.7c0-3.1-0.5-5.5-1.5-7.2c-1-1.7-2.2-2.8-3.6-3.4
	c-1-0.4-2.6-0.6-4.9-0.6h-6V236.3z M353.7,239.8V210h9.9c2.2,0,3.9,0.1,5.1,0.4c1.6,0.4,3,1.1,4.2,2.1c1.5,1.3,2.6,3,3.4,5.1
	c0.8,2,1.1,4.4,1.1,7.1c0,2.2-0.2,4.3-0.8,6c-0.5,1.7-1.2,3.2-2,4.3c-0.8,1.1-1.6,2-2.6,2.7c-1,0.7-2.1,1.2-3.4,1.5
	c-1.4,0.3-2.9,0.5-4.6,0.5H353.7z M314.2,225.3c0,3.6,0.9,6.4,2.8,8.5c1.8,2,4.2,3.1,7,3.1c2.8,0,5.2-1,7-3.1c1.8-2.1,2.8-5,2.8-8.9
	c0-2.4-0.4-4.5-1.2-6.3c-0.8-1.8-2-3.2-3.5-4.2c-1.5-1-3.2-1.5-5.1-1.5c-2.7,0-5,1-6.9,2.9C315.1,217.7,314.2,220.9,314.2,225.3
	 M310.2,225.2c0-4.9,1.3-8.8,3.8-11.6c2.6-2.8,5.8-4.2,9.9-4.2c2.6,0,5,0.7,7.2,2c2.1,1.3,3.7,3.2,4.8,5.5c1.1,2.4,1.7,5,1.7,8
	c0,3-0.6,5.7-1.8,8.1c-1.2,2.4-2.8,4.2-5,5.4c-2.2,1.2-4.5,1.8-7,1.8c-2.7,0-5.1-0.7-7.2-2c-2.1-1.3-3.8-3.2-4.8-5.5
	C310.8,230.4,310.2,227.9,310.2,225.2z M282.4,239.8V210h3.9l15.1,23.4V210h3.6v29.8h-3.9l-15.1-23.4v23.4H282.4z M265.3,239.8
	v-26.3h-9.5V210h22.7v3.5h-9.5v26.3H265.3z M247.5,239.8V210h3.8v29.8H247.5z M221.8,236.3h6.1c1.9,0,3.4-0.2,4.4-0.5
	c1.1-0.4,1.9-0.9,2.6-1.5c0.9-1,1.6-2.2,2.1-3.8c0.5-1.6,0.8-3.5,0.8-5.7c0-3.1-0.5-5.5-1.5-7.2c-1-1.7-2.2-2.8-3.6-3.4
	c-1-0.4-2.6-0.6-4.9-0.6h-6V236.3z M218,239.8V210h9.9c2.2,0,3.9,0.1,5.1,0.4c1.6,0.4,3,1.1,4.2,2.1c1.5,1.3,2.6,3,3.4,5.1
	c0.8,2,1.1,4.4,1.1,7.1c0,2.2-0.2,4.3-0.8,6c-0.5,1.7-1.2,3.2-2,4.3c-0.8,1.1-1.6,2-2.6,2.7c-1,0.7-2.1,1.2-3.4,1.5
	c-1.4,0.3-2.9,0.5-4.6,0.5H218z M191.3,239.8V210H212v3.5h-16.9v9.2h15.8v3.5h-15.8v10.2h17.6v3.5H191.3z M166.2,223.1h8.1
	c1.8,0,3.1-0.2,4.1-0.6c1-0.3,1.7-1,2.2-1.8c0.5-0.8,0.8-1.7,0.8-2.7c0-1.4-0.5-2.6-1.5-3.5c-1-0.9-2.5-1.4-4.6-1.4h-9.1V223.1z
	 M162.4,239.8V210h12.7c2.6,0,4.5,0.2,5.8,0.8c1.3,0.5,2.4,1.5,3.2,2.8c0.8,1.4,1.2,2.9,1.2,4.5c0,2.1-0.6,3.9-2,5.4
	c-1.3,1.4-3.4,2.3-6.1,2.7c1,0.5,1.8,1,2.3,1.5c1.1,1,2.2,2.4,3.1,4l5,8.1h-4.7l-3.8-6.2c-1.1-1.8-2-3.2-2.7-4.1
	c-0.7-1-1.4-1.6-1.9-2c-0.6-0.4-1.2-0.6-1.8-0.8c-0.4-0.1-1.1-0.1-2.1-0.1h-4.4v13.2H162.4z M135.4,239.8V210h3.8v14.8l14.3-14.8
	h5.1l-12,12.1l12.5,17.7h-5l-10.2-15l-4.7,4.7v10.3H135.4z M107.2,225.3c0,3.6,0.9,6.4,2.8,8.5c1.8,2,4.2,3.1,7,3.1
	c2.8,0,5.2-1,7-3.1c1.8-2.1,2.8-5,2.8-8.9c0-2.4-0.4-4.5-1.2-6.3c-0.8-1.8-2-3.2-3.5-4.2c-1.5-1-3.2-1.5-5.1-1.5c-2.7,0-5,1-6.9,2.9
	C108.2,217.7,107.2,220.9,107.2,225.3 M103.3,225.2c0-4.9,1.3-8.8,3.8-11.6c2.6-2.8,5.8-4.2,9.9-4.2c2.6,0,5,0.7,7.2,2
	c2.1,1.3,3.7,3.2,4.8,5.5c1.1,2.4,1.7,5,1.7,8c0,3-0.6,5.7-1.8,8.1c-1.2,2.4-2.8,4.2-5,5.4c-2.2,1.2-4.5,1.8-7,1.8
	c-2.7,0-5.1-0.7-7.2-2c-2.1-1.3-3.8-3.2-4.8-5.5C103.8,230.4,103.3,227.9,103.3,225.2z M79.4,223.1h8.1c1.8,0,3.1-0.2,4.1-0.6
	c1-0.3,1.7-1,2.2-1.8c0.5-0.8,0.8-1.7,0.8-2.7c0-1.4-0.5-2.6-1.5-3.5c-1-0.9-2.5-1.4-4.6-1.4h-9.1V223.1z M75.6,239.8V210h12.7
	c2.6,0,4.5,0.2,5.8,0.8c1.3,0.5,2.4,1.5,3.2,2.8c0.8,1.4,1.2,2.9,1.2,4.5c0,2.1-0.6,3.9-2,5.4c-1.3,1.4-3.4,2.3-6.1,2.7
	c1,0.5,1.8,1,2.3,1.5c1.1,1,2.2,2.4,3.1,4l5,8.1h-4.7l-3.8-6.2c-1.1-1.8-2-3.2-2.7-4.1c-0.7-1-1.4-1.6-1.9-2
	c-0.6-0.4-1.2-0.6-1.8-0.8c-0.4-0.1-1.1-0.1-2.1-0.1h-4.4v13.2H75.6z M48.6,239.8V210h3.8v14.8L66.7,210h5.1l-12,12.1l12.5,17.7h-5
	l-10.2-15l-4.7,4.7v10.3H48.6z M38.3,239.8V210h3.8v29.8H38.3z M4.2,239.8V210h5.7l6.8,21.1c0.6,2,1.1,3.4,1.4,4.4
	c0.3-1.1,0.8-2.7,1.5-4.8l6.9-20.7h5.1v29.8h-3.6v-24.9l-8.4,24.9h-3.4l-8.3-25.4v25.4H4.2z"/>
<path class="st0" d="M521.1,225.3c0,3.6,0.9,6.4,2.8,8.5c1.8,2,4.2,3.1,7,3.1c2.8,0,5.2-1,7-3.1c1.8-2.1,2.8-5,2.8-8.9
	c0-2.4-0.4-4.5-1.2-6.3c-0.8-1.8-2-3.2-3.5-4.2c-1.5-1-3.2-1.5-5.1-1.5c-2.7,0-5,1-6.9,2.9C522.1,217.7,521.1,220.9,521.1,225.3
	 M517.2,225.2c0-4.9,1.3-8.8,3.8-11.6c2.6-2.8,5.8-4.2,9.9-4.2c2.6,0,5,0.7,7.2,2c2.1,1.3,3.7,3.2,4.8,5.5c1.1,2.4,1.7,5,1.7,8
	c0,3-0.6,5.7-1.8,8.1c-1.2,2.4-2.8,4.2-5,5.4c-2.2,1.2-4.5,1.8-7,1.8c-2.7,0-5.1-0.7-7.2-2c-2.1-1.3-3.8-3.2-4.8-5.5
	C517.7,230.4,517.2,227.9,517.2,225.2z M499.8,239.8L488.7,210h4.1l7.4,21.6c0.6,1.7,1.1,3.4,1.5,4.9c0.4-1.6,0.9-3.2,1.5-4.9
	l7.7-21.6h3.9l-11.2,29.8H499.8z M474.5,239.8v-26.3H465V210h22.7v3.5h-9.5v26.3H474.5z M450.7,205.9l2.2-3.5h4l-4.5,5.7h-3.7
	l-4.2-5.7h4L450.7,205.9z M439.2,230.2l3.6-0.3c0.2,1.5,0.6,2.7,1.2,3.7c0.6,1,1.6,1.7,2.9,2.3c1.3,0.6,2.8,0.9,4.4,0.9
	c1.5,0,2.7-0.2,3.8-0.7c1.1-0.5,1.9-1.1,2.5-1.9c0.5-0.8,0.8-1.6,0.8-2.5c0-0.9-0.2-1.7-0.8-2.5c-0.5-0.7-1.4-1.2-2.6-1.7
	c-0.8-0.3-2.5-0.8-5.1-1.5c-2.6-0.7-4.5-1.2-5.6-1.8c-1.4-0.7-2.4-1.7-3-2.8c-0.7-1.1-1-2.4-1-3.7c0-1.5,0.4-3,1.2-4.2
	c0.8-1.3,2-2.3,3.6-3c1.6-0.7,3.3-1,5.2-1c2.1,0,4,0.3,5.6,1.1c1.6,0.7,2.9,1.7,3.8,3.1c0.9,1.4,1.3,3,1.4,4.7l-3.6,0.3
	c-0.2-1.9-0.8-3.3-2-4.2c-1.2-1-2.8-1.5-5-1.5c-2.3,0-4,0.4-5,1.3c-1,0.9-1.6,2-1.6,3.2c0,1.1,0.4,2,1.1,2.7
	c0.7,0.7,2.6,1.4,5.7,2.1c3.1,0.7,5.2,1.4,6.3,1.9c1.7,0.8,2.9,1.8,3.7,3c0.8,1.2,1.2,2.7,1.2,4.2c0,1.6-0.4,3.1-1.3,4.5
	c-0.8,1.4-2.1,2.5-3.7,3.3c-1.6,0.8-3.5,1.2-5.5,1.2c-2.6,0-4.8-0.4-6.5-1.2c-1.8-0.8-3.1-2-4.1-3.6
	C439.8,234,439.2,232.2,439.2,230.2z M430.3,210h3.8v17.2c0,3-0.3,5.4-1,7.2c-0.7,1.7-1.8,3.2-3.5,4.3c-1.7,1.1-3.9,1.7-6.7,1.7
	c-2.7,0-4.9-0.5-6.6-1.5c-1.7-1-2.9-2.3-3.7-4.2c-0.7-1.8-1.1-4.3-1.1-7.5V210h3.8v17.2c0,2.6,0.2,4.5,0.7,5.7
	c0.5,1.2,1.3,2.2,2.4,2.8c1.1,0.7,2.5,1,4.1,1c2.8,0,4.7-0.7,5.9-2c1.2-1.3,1.8-3.9,1.8-7.6V210z M386.5,223.1h8.1
	c1.8,0,3.1-0.2,4.1-0.6c1-0.3,1.7-1,2.2-1.8c0.5-0.8,0.8-1.7,0.8-2.7c0-1.4-0.5-2.6-1.5-3.5c-1-0.9-2.5-1.4-4.6-1.4h-9.1V223.1z
	 M382.7,239.8V210h12.7c2.6,0,4.5,0.2,5.8,0.8c1.3,0.5,2.4,1.5,3.2,2.8c0.8,1.4,1.2,2.9,1.2,4.5c0,2.1-0.6,3.9-2,5.4
	c-1.3,1.4-3.4,2.3-6.1,2.7c1,0.5,1.8,1,2.3,1.5c1.1,1,2.2,2.4,3.1,4l5,8.1h-4.7l-3.8-6.2c-1.1-1.8-2-3.2-2.7-4.1
	c-0.7-1-1.4-1.6-1.9-2c-0.6-0.4-1.2-0.6-1.8-0.8c-0.4-0.1-1.1-0.1-2.1-0.1h-4.4v13.2H382.7z M357.5,236.3h6.1c1.9,0,3.4-0.2,4.4-0.5
	c1.1-0.4,1.9-0.9,2.6-1.5c0.9-1,1.6-2.2,2.1-3.8c0.5-1.6,0.8-3.5,0.8-5.7c0-3.1-0.5-5.5-1.5-7.2c-1-1.7-2.2-2.8-3.6-3.4
	c-1-0.4-2.6-0.6-4.9-0.6h-6V236.3z M353.7,239.8V210h9.9c2.2,0,3.9,0.1,5.1,0.4c1.6,0.4,3,1.1,4.2,2.1c1.5,1.3,2.6,3,3.4,5.1
	c0.8,2,1.1,4.4,1.1,7.1c0,2.2-0.2,4.3-0.8,6c-0.5,1.7-1.2,3.2-2,4.3c-0.8,1.1-1.6,2-2.6,2.7c-1,0.7-2.1,1.2-3.4,1.5
	c-1.4,0.3-2.9,0.5-4.6,0.5H353.7z M314.2,225.3c0,3.6,0.9,6.4,2.8,8.5c1.8,2,4.2,3.1,7,3.1c2.8,0,5.2-1,7-3.1c1.8-2.1,2.8-5,2.8-8.9
	c0-2.4-0.4-4.5-1.2-6.3c-0.8-1.8-2-3.2-3.5-4.2c-1.5-1-3.2-1.5-5.1-1.5c-2.7,0-5,1-6.9,2.9C315.1,217.7,314.2,220.9,314.2,225.3
	 M310.2,225.2c0-4.9,1.3-8.8,3.8-11.6c2.6-2.8,5.8-4.2,9.9-4.2c2.6,0,5,0.7,7.2,2c2.1,1.3,3.7,3.2,4.8,5.5c1.1,2.4,1.7,5,1.7,8
	c0,3-0.6,5.7-1.8,8.1c-1.2,2.4-2.8,4.2-5,5.4c-2.2,1.2-4.5,1.8-7,1.8c-2.7,0-5.1-0.7-7.2-2c-2.1-1.3-3.8-3.2-4.8-5.5
	C310.8,230.4,310.2,227.9,310.2,225.2z M282.4,239.8V210h3.9l15.1,23.4V210h3.6v29.8h-3.9l-15.1-23.4v23.4H282.4z M265.3,239.8
	v-26.3h-9.5V210h22.7v3.5h-9.5v26.3H265.3z M247.5,239.8V210h3.8v29.8H247.5z M221.8,236.3h6.1c1.9,0,3.4-0.2,4.4-0.5
	c1.1-0.4,1.9-0.9,2.6-1.5c0.9-1,1.6-2.2,2.1-3.8c0.5-1.6,0.8-3.5,0.8-5.7c0-3.1-0.5-5.5-1.5-7.2c-1-1.7-2.2-2.8-3.6-3.4
	c-1-0.4-2.6-0.6-4.9-0.6h-6V236.3z M218,239.8V210h9.9c2.2,0,3.9,0.1,5.1,0.4c1.6,0.4,3,1.1,4.2,2.1c1.5,1.3,2.6,3,3.4,5.1
	c0.8,2,1.1,4.4,1.1,7.1c0,2.2-0.2,4.3-0.8,6c-0.5,1.7-1.2,3.2-2,4.3c-0.8,1.1-1.6,2-2.6,2.7c-1,0.7-2.1,1.2-3.4,1.5
	c-1.4,0.3-2.9,0.5-4.6,0.5H218z M191.3,239.8V210H212v3.5h-16.9v9.2h15.8v3.5h-15.8v10.2h17.6v3.5H191.3z M166.2,223.1h8.1
	c1.8,0,3.1-0.2,4.1-0.6c1-0.3,1.7-1,2.2-1.8c0.5-0.8,0.8-1.7,0.8-2.7c0-1.4-0.5-2.6-1.5-3.5c-1-0.9-2.5-1.4-4.6-1.4h-9.1V223.1z
	 M162.4,239.8V210h12.7c2.6,0,4.5,0.2,5.8,0.8c1.3,0.5,2.4,1.5,3.2,2.8c0.8,1.4,1.2,2.9,1.2,4.5c0,2.1-0.6,3.9-2,5.4
	c-1.3,1.4-3.4,2.3-6.1,2.7c1,0.5,1.8,1,2.3,1.5c1.1,1,2.2,2.4,3.1,4l5,8.1h-4.7l-3.8-6.2c-1.1-1.8-2-3.2-2.7-4.1
	c-0.7-1-1.4-1.6-1.9-2c-0.6-0.4-1.2-0.6-1.8-0.8c-0.4-0.1-1.1-0.1-2.1-0.1h-4.4v13.2H162.4z M135.4,239.8V210h3.8v14.8l14.3-14.8
	h5.1l-12,12.1l12.5,17.7h-5l-10.2-15l-4.7,4.7v10.3H135.4z M107.2,225.3c0,3.6,0.9,6.4,2.8,8.5c1.8,2,4.2,3.1,7,3.1
	c2.8,0,5.2-1,7-3.1c1.8-2.1,2.8-5,2.8-8.9c0-2.4-0.4-4.5-1.2-6.3c-0.8-1.8-2-3.2-3.5-4.2c-1.5-1-3.2-1.5-5.1-1.5c-2.7,0-5,1-6.9,2.9
	C108.2,217.7,107.2,220.9,107.2,225.3 M103.3,225.2c0-4.9,1.3-8.8,3.8-11.6c2.6-2.8,5.8-4.2,9.9-4.2c2.6,0,5,0.7,7.2,2
	c2.1,1.3,3.7,3.2,4.8,5.5c1.1,2.4,1.7,5,1.7,8c0,3-0.6,5.7-1.8,8.1c-1.2,2.4-2.8,4.2-5,5.4c-2.2,1.2-4.5,1.8-7,1.8
	c-2.7,0-5.1-0.7-7.2-2c-2.1-1.3-3.8-3.2-4.8-5.5C103.8,230.4,103.3,227.9,103.3,225.2z M79.4,223.1h8.1c1.8,0,3.1-0.2,4.1-0.6
	c1-0.3,1.7-1,2.2-1.8c0.5-0.8,0.8-1.7,0.8-2.7c0-1.4-0.5-2.6-1.5-3.5c-1-0.9-2.5-1.4-4.6-1.4h-9.1V223.1z M75.6,239.8V210h12.7
	c2.6,0,4.5,0.2,5.8,0.8c1.3,0.5,2.4,1.5,3.2,2.8c0.8,1.4,1.2,2.9,1.2,4.5c0,2.1-0.6,3.9-2,5.4c-1.3,1.4-3.4,2.3-6.1,2.7
	c1,0.5,1.8,1,2.3,1.5c1.1,1,2.2,2.4,3.1,4l5,8.1h-4.7l-3.8-6.2c-1.1-1.8-2-3.2-2.7-4.1c-0.7-1-1.4-1.6-1.9-2
	c-0.6-0.4-1.2-0.6-1.8-0.8c-0.4-0.1-1.1-0.1-2.1-0.1h-4.4v13.2H75.6z M48.6,239.8V210h3.8v14.8L66.7,210h5.1l-12,12.1l12.5,17.7h-5
	l-10.2-15l-4.7,4.7v10.3H48.6z M38.3,239.8V210h3.8v29.8H38.3z M4.2,239.8V210h5.7l6.8,21.1c0.6,2,1.1,3.4,1.4,4.4
	c0.3-1.1,0.8-2.7,1.5-4.8l6.9-20.7h5.1v29.8h-3.6v-24.9l-8.4,24.9h-3.4l-8.3-25.4v25.4H4.2z"/>
</svg>
