<svg xmlns="http://www.w3.org/2000/svg" xmlns:xlink="http://www.w3.org/1999/xlink" viewBox="0 0 365.56 262.97"><defs><style>.cls-1{fill:#008a8c;opacity:0.1;isolation:isolate;}.cls-2{fill:#63c1c5;}.cls-3{fill:#fff;}.cls-4{fill:#01898c;}.cls-5{fill:#00666a;}.cls-6{fill:#ffd247;}.cls-7{fill:url(#_ÂÁ_Ï_ÌÌ_È_ËÂÌÚ_4);}.cls-8{fill:url(#_ÂÁ_Ï_ÌÌ_È_ËÂÌÚ_4-2);}.cls-9{fill:url(#_ÂÁ_Ï_ÌÌ_È_ËÂÌÚ_4-3);}.cls-10{fill:url(#_ÂÁ_Ï_ÌÌ_È_ËÂÌÚ_4-4);}.cls-11{fill:url(#_ÂÁ_Ï_ÌÌ_È_ËÂÌÚ_4-5);}.cls-12{fill:#11375b;}.cls-13{fill:#212b53;}.cls-14{fill:#f8b68f;}.cls-15{fill:#043c5e;}.cls-16{fill:#f4a086;}.cls-17{fill:url(#_ÂÁ_Ï_ÌÌ_È_ËÂÌÚ_4-6);}.cls-18{fill:url(#_ÂÁ_Ï_ÌÌ_È_ËÂÌÚ_4-7);}.cls-19{fill:url(#_ÂÁ_Ï_ÌÌ_È_ËÂÌÚ_4-8);}.cls-20{fill:url(#_ÂÁ_Ï_ÌÌ_È_ËÂÌÚ_4-9);}.cls-21{fill:url(#_ÂÁ_Ï_ÌÌ_È_ËÂÌÚ_4-10);}.cls-22{fill:url(#_ÂÁ_Ï_ÌÌ_È_ËÂÌÚ_4-11);}.cls-23{fill:url(#_ÂÁ_Ï_ÌÌ_È_ËÂÌÚ_4-12);}.cls-24{fill:#f59c42;}.cls-25{fill:#fab746;}.cls-26{fill:#e8375e;}.cls-27{fill:#f7a605;}</style><linearGradient id="_ÂÁ_Ï_ÌÌ_È_ËÂÌÚ_4" x1="140.55" y1="137.8" x2="244.94" y2="137.8" gradientUnits="userSpaceOnUse"><stop offset="0" stop-color="#e0f0eb"/><stop offset="1" stop-color="#c0e4ef"/></linearGradient><linearGradient id="_ÂÁ_Ï_ÌÌ_È_ËÂÌÚ_4-2" x1="213.18" y1="134.03" x2="289.36" y2="134.03" xlink:href="#_ÂÁ_Ï_ÌÌ_È_ËÂÌÚ_4"/><linearGradient id="_ÂÁ_Ï_ÌÌ_È_ËÂÌÚ_4-3" x1="62.19" y1="137.8" x2="143.36" y2="137.8" xlink:href="#_ÂÁ_Ï_ÌÌ_È_ËÂÌÚ_4"/><linearGradient id="_ÂÁ_Ï_ÌÌ_È_ËÂÌÚ_4-4" x1="275.67" y1="229.62" x2="316" y2="229.62" xlink:href="#_ÂÁ_Ï_ÌÌ_È_ËÂÌÚ_4"/><linearGradient id="_ÂÁ_Ï_ÌÌ_È_ËÂÌÚ_4-5" x1="61.39" y1="229.62" x2="101.72" y2="229.62" xlink:href="#_ÂÁ_Ï_ÌÌ_È_ËÂÌÚ_4"/><linearGradient id="_ÂÁ_Ï_ÌÌ_È_ËÂÌÚ_4-6" x1="9.27" y1="187.99" x2="20.16" y2="187.99" gradientTransform="matrix(-1, 0, 0, 1, 189.55, 0)" xlink:href="#_ÂÁ_Ï_ÌÌ_È_ËÂÌÚ_4"/><linearGradient id="_ÂÁ_Ï_ÌÌ_È_ËÂÌÚ_4-7" x1="15.06" y1="195.97" x2="30.27" y2="195.97" gradientTransform="matrix(-1, 0, 0, 1, 189.55, 0)" xlink:href="#_ÂÁ_Ï_ÌÌ_È_ËÂÌÚ_4"/><linearGradient id="_ÂÁ_Ï_ÌÌ_È_ËÂÌÚ_4-8" x1="3.96" y1="199.4" x2="37.38" y2="178.74" gradientTransform="matrix(-1, 0, 0, 1, 189.55, 0)" xlink:href="#_ÂÁ_Ï_ÌÌ_È_ËÂÌÚ_4"/><linearGradient id="_ÂÁ_Ï_ÌÌ_È_ËÂÌÚ_4-9" x1="1.6" y1="195.58" x2="35.02" y2="174.92" gradientTransform="matrix(-1, 0, 0, 1, 189.55, 0)" xlink:href="#_ÂÁ_Ï_ÌÌ_È_ËÂÌÚ_4"/><linearGradient id="_ÂÁ_Ï_ÌÌ_È_ËÂÌÚ_4-10" x1="136.12" y1="45.29" x2="149.01" y2="45.29" xlink:href="#_ÂÁ_Ï_ÌÌ_È_ËÂÌÚ_4"/><linearGradient id="_ÂÁ_Ï_ÌÌ_È_ËÂÌÚ_4-11" x1="125.22" y1="46.99" x2="138.37" y2="46.99" xlink:href="#_ÂÁ_Ï_ÌÌ_È_ËÂÌÚ_4"/><linearGradient id="_ÂÁ_Ï_ÌÌ_È_ËÂÌÚ_4-12" x1="119.19" y1="48.64" x2="131.04" y2="48.64" xlink:href="#_ÂÁ_Ï_ÌÌ_È_ËÂÌÚ_4"/></defs><title>Automobili</title><g id="Layer_2" data-name="Layer 2"><g id="_ÎÓÈ_1" data-name="—ÎÓÈ_1"><path class="cls-1" d="M355.77,239.72c-8.09,6.71-19.61,9.49-30.74,11.25l-1.87.29A351.94,351.94,0,0,1,288,254.47c-6.31.31-12.63.52-18.94.71l-4.95.15-19.31.56q-9.47.27-18.94.51-12.13.3-24.26.49-9.47.15-18.94.21-12.13.07-24.26,0-9.48-.1-18.94-.33-12.14-.31-24.26-.91-8.23-.4-16.45-1l-2.5-.18c-23.52-1.69-47.46-4.74-68-14.35l-.55-.26-.83-.4A74.48,74.48,0,0,1,16,233.32C9.88,229,4.85,223.68,2.2,217.39-2,207.54.24,196.46,5,186.82S16.88,168.48,23,159.41c1.81-2.66,3.52-5.42,5.12-8.25,10-17.74,14.91-38.26,4.46-55.35a76,76,0,0,0-4.46-6.31,59.84,59.84,0,0,1-6.89-10.33C17.19,70.61,18.07,61,19.56,51.84c2-12.16,5.65-25.26,17.07-32.85C48.49,11.09,65.31,11.49,80,14.33c22.87,4.38,44,13.56,65.3,21.83S189,52,212.39,52.82a107,107,0,0,0,15.08-.55h0a95.65,95.65,0,0,0,19.65-4.14c9.22-3,17.61-7.61,23.83-14,13.34-13.58,38.42-14.6,56.5-6.4C344.7,35.59,355.86,52.15,355,68.69c-.94,18.41-14.72,33.54-27.35,49.06-1.53,1.88-3,3.77-4.52,5.67q-1.23,1.59-2.42,3.19h0c-1.39,1.88-2.73,3.77-4,5.69-6.45,9.81-11,21.6-6.57,32.2,2.49,5.93,7.25,10.46,13,14.41,12.84,8.85,30.57,14.81,38.55,27.19C368.59,216.78,366,231.19,355.77,239.72Z"/><path class="cls-2" d="M188.06,130S234,59.4,198.7,8.8C95.62,34.11,120.78,135.43,120.78,135.43Z"/><path class="cls-3" d="M198.7,8.8l-1.07.27L166,103.1,134.75,49.69q-.58.86-1.13,1.72l31.6,54-9.13,27.13,2-.16,18.21-54.09h0l34.62-9.37c.09-.66.19-1.32.27-2L177,76.2,199.35,9.77c-.22-.32-.42-.65-.65-1Z"/><path class="cls-4" d="M171.77,106.46S163.56,22.89,109.09,0c-56,43.73-16.73,113.6-16.73,113.6l57.8,45.28Z"/><path class="cls-5" d="M154.58,47.17,129.53,74.72,110.36.57c-.43-.19-.85-.38-1.28-.57l-.64.52,10.27,39.72L87.85,24.6c-.16.29-.3.58-.45.87l-.39.77,32.32,16.37,17.11,66.19L81.4,83.1c.17.77.34,1.53.51,2.28L137,111.13l12.15,47,1,.77.7-1.69L130.09,76.86,155.45,49Q155,48.07,154.58,47.17Z"/><path class="cls-6" d="M143.23,134.73s-46-52.9-90.27-37c-20,94,98.18,126.09,98.18,126.09Z"/><path class="cls-3" d="M53,97.76c-.08.36-.15.72-.22,1.08l67.59,66.64L69,171.58q.66.86,1.33,1.7L122,167.14l26.4,26-.25-2.85-51.4-50.68-.48-39.28-1.86-.74.47,38.18L53.94,97.42l-1,.33Z"/><rect class="cls-4" x="247.09" y="193.07" width="47.7" height="6.56" rx="2.34" ry="2.34"/><rect class="cls-4" x="273.95" y="183.6" width="29.31" height="6.56" rx="1.83" ry="1.83"/><rect class="cls-5" x="43.73" y="187.37" width="291.02" height="30.57" transform="translate(378.49 405.32) rotate(180)"/><path class="cls-2" d="M62.19,156.88H331.73s14.55,0,24,18.89c8.18,16.36,2.19,47.46.44,54.88H334v-.51a38.16,38.16,0,0,0-76.32,0v.51H120v-.51a38.16,38.16,0,0,0-76.32,0v.51H37.94V191.08C37.94,168,62.19,156.88,62.19,156.88Z"/><polygon class="cls-3" points="244.94 156.88 140.55 156.88 148 118.72 208.52 118.72 244.94 156.88"/><path class="cls-4" d="M244.94,230.77v-73.9l-31.77-38.15H148l-7.4,38.16s-4.85,5.36-8.93,9.44-4.34,12.51-4.34,12.51v51.73Z"/><polygon class="cls-7" points="140.55 156.87 147.95 118.72 213.18 118.73 244.94 156.87 140.55 156.87"/><path class="cls-8" d="M289.36,156.88s-50.79-45.69-69.17-45.69c-3.83,3.83-7,7.54-7,7.54l31.77,38.15Z"/><polygon class="cls-5" points="220.19 111.19 95.12 111.19 85.29 118.72 213.29 118.72 220.19 111.19"/><path class="cls-9" d="M62.19,156.88a60.27,60.27,0,0,1,23.1-38.16h58.07L136,156.88Z"/><ellipse class="cls-5" cx="147.19" cy="179.85" rx="10.98" ry="2.04"/><circle class="cls-5" cx="81.08" cy="174.65" r="8.93"/><circle class="cls-4" cx="295.99" cy="229.62" r="31.91"/><circle class="cls-4" cx="81.55" cy="229.62" r="31.91"/><path class="cls-3" d="M339.29,169.12a3.74,3.74,0,0,1,2.55-.78l10.47,12.74a3.74,3.74,0,0,1-1.26,2.35c-2.31,1.9-6.82.24-10.07-3.72S337,171,339.29,169.12Z"/><circle class="cls-10" cx="295.83" cy="229.62" r="20.16"/><circle class="cls-11" cx="81.55" cy="229.62" r="20.16"/><polygon class="cls-2" points="143.28 118.72 148 118.72 140.55 156.88 135.96 156.88 143.28 118.72"/><polygon class="cls-2" points="247.74 156.88 213.86 117.25 209.49 118.31 242 156.88 247.74 156.88"/><ellipse class="cls-5" cx="241.46" cy="158.76" rx="8.93" ry="6.64" transform="translate(68.54 390.29) rotate(-86.57)"/><path class="cls-12" d="M39.09,259.93h7.21c1,.1,2,.37,2.21,1.2a4.82,4.82,0,0,1,.1,1.1c-.26.3-9.82,0-9.82,0l0,0A1.52,1.52,0,0,1,39.09,259.93Z"/><polygon class="cls-13" points="48.62 262.22 38.8 262.18 38.88 262.56 48.63 262.56 48.62 262.22"/><polygon class="cls-3" points="41.95 259.92 42.6 259.92 42.4 260.81 41.77 260.81 41.95 259.92"/><polygon class="cls-3" points="43.34 259.92 43.99 259.92 43.79 260.81 43.16 260.81 43.34 259.92"/><path class="cls-14" d="M38.6,257.52l.49,2.4h0A2.34,2.34,0,0,0,41,260l.11,0,.35-2.4Z"/><path class="cls-13" d="M22.23,259.93h7.21c1,.1,2,.37,2.21,1.2a4.83,4.83,0,0,1,.1,1.1c-.26.3-9.82,0-9.82,0l0,0A1.52,1.52,0,0,1,22.23,259.93Z"/><polygon class="cls-13" points="31.76 262.22 21.94 262.18 22.02 262.56 31.77 262.56 31.76 262.22"/><polygon class="cls-3" points="25.09 259.92 25.74 259.92 25.53 260.81 24.9 260.81 25.09 259.92"/><polygon class="cls-3" points="26.48 259.92 27.13 259.92 26.93 260.81 26.3 260.81 26.48 259.92"/><path class="cls-14" d="M22.54,257.52l-.31,2.4h0a2.34,2.34,0,0,0,1.93,0l.11,0,1.16-2.4Z"/><path class="cls-14" d="M33.31,176.72l-5.94,3.87,1.83,4.69c0,.07.06.13.09.19l.39,0h.13a4.58,4.58,0,0,1,3.79,2.3,7.9,7.9,0,0,0,2.8-.73,2.9,2.9,0,0,0,1.32-1C38.36,182.7,33.31,176.72,33.31,176.72Z"/><path class="cls-14" d="M40.87,177.93s.73,6.9-.74,11.29c.68.59,3.18,3.27,4-.2s-.88-12.3-.88-12.3Z"/><polygon class="cls-13" points="37.3 177.44 35.9 178.34 36.4 179.38 37.9 178.72 37.3 177.44"/><ellipse class="cls-13" cx="36.25" cy="178.8" rx="0.25" ry="0.63" transform="translate(-68.79 29.63) rotate(-23.69)"/><path class="cls-15" d="M54.17,172.36v0a14,14,0,0,0-1.35-2.43,12.19,12.19,0,0,1-1.3-2.12l-14.43,9.45L38,179l16.15-6A4.46,4.46,0,0,1,54.17,172.36Z"/><polygon class="cls-16" points="32 187.76 31.48 191 36.07 191 36.4 187.03 32 187.76"/><path class="cls-14" d="M43.86,195.8s5.42-1.73,7.12-4.05-1.18-15-1.18-15l.37-2.29A2.13,2.13,0,0,0,48.1,172H46.65a.83.83,0,0,0-.77,1.17l1.91,4.29s1.43,9.63-.57,10.36a22.58,22.58,0,0,1-5.09,1.06Z"/><path class="cls-12" d="M33.67,187.76l-1.4-3.09.91-.57a1.71,1.71,0,0,0,.71-2l-1-2.92s2.83-.35,2.74-3c0-1.36-1.87-1.36-1.87-1.36a2.71,2.71,0,0,1-2.29,1.36,4.5,4.5,0,0,0-4.16,2.58c-.93,1.62-.52,4.15.29,6A5.51,5.51,0,0,0,32,187.76Z"/><path class="cls-13" d="M28.15,213.76a102.06,102.06,0,0,0,1.72,13.75,12.29,12.29,0,0,1-.42,6.32c-3.24,9.62-7.78,24.09-7.78,24.09h4s9.15-17.1,11.51-25.59S40,221.16,40,221.16l-2.81-7.41Z"/><path class="cls-14" d="M31.52,183.22a1.31,1.31,0,0,0,.75,1.44c.58.31,1.19.16,1.35-.32a1.31,1.31,0,0,0-.75-1.44C32.29,182.59,31.69,182.73,31.52,183.22Z"/><path class="cls-6" d="M41.32,213.76H28.15v-16.9a7.17,7.17,0,0,1,6.5-7.14l9.16-1.11s1.08,1.65,4.08,5.48a30.93,30.93,0,0,1-7.78,3.26Z"/><path class="cls-15" d="M28.15,213.76S30,220.49,36.88,228a8.83,8.83,0,0,1,2.56,6.86l-1.42,23h4.1s5-19.12,3.92-28.55a43.26,43.26,0,0,0-4.71-15.62Z"/><ellipse class="cls-4" cx="52.82" cy="170.37" rx="0.96" ry="2.95" transform="translate(-68.74 39.84) rotate(-25.74)"/><path class="cls-14" d="M40.3,175.12l.12.06a1.84,1.84,0,0,0,1.37.09l.08,0a2.45,2.45,0,0,0,1.56-1.58h0a.46.46,0,0,0-.53-.58l-.91.19a1.37,1.37,0,0,0-.87.59Z"/><polygon class="cls-16" points="169 180.31 168.68 184.35 164.72 184.52 166.32 178.26 169 180.31"/><path class="cls-14" d="M170.7,181a2.17,2.17,0,0,0,1.21-.29c1.45-2.11-.2-7.79-.2-7.79l-2.32-1-2.94,1.84-.17,3.81a3.09,3.09,0,0,0,1.31,2.63h0A6,6,0,0,0,170.7,181Z"/><path class="cls-13" d="M166.91,176c.16-.64.08-2.12.73-2,.48.08,2.1.14,2.65.14,1.31,0,3.63-.51,3.63-2.5a2.56,2.56,0,0,0-3.46-2.13c-1.44.5-3.34,1.61-4.1,1.46-1.28-.26-2.56.49-2.54,1.58a10.87,10.87,0,0,0,1.2,4,6.1,6.1,0,0,0,1.3,1.71h0Z"/><path class="cls-14" d="M165.59,176.13a1,1,0,0,1,1.22.11c.38.32.45.78.16,1a1,1,0,0,1-1.22-.11C165.37,176.86,165.3,176.39,165.59,176.13Z"/><path class="cls-14" d="M180.14,183.44a4,4,0,0,1,1.45-1.67c1-.77,3.52-1.76,2.43-2.52-1.36.11-3,.07-3,.07a4.39,4.39,0,0,0-2.24,1.9l-1.18,2.46s.54,1.21.56,1.27l.57-.11A6.43,6.43,0,0,1,180.14,183.44Z"/><path class="cls-14" d="M180.2,182.74a1,1,0,0,1,0-.2l-.53.08c-.56.34-1.13.66-1.69,1,.24.29.57.71.59.74l4.12-1.46s0-.56-.87-.55A4.35,4.35,0,0,0,180.2,182.74Z"/><polygon class="cls-17" points="173.92 191.8 180.28 185.9 178.09 182.61 169.39 186.72 173.18 193.37 173.92 191.8"/><path class="cls-18" d="M166.86,181.94c-9.06-1.88-7.49,28.14-7.49,28.14h14.34s.21-5.23.73-11.85C174.89,192.61,171.74,186.26,166.86,181.94Z"/><path class="cls-13" d="M171.58,259.73a11.28,11.28,0,0,0,4.63,2.13c.71.18,1.47-.06,1.47,1.11h-3.91l-3.25-.56V263h-1.76s-.49-2.87.54-3.24Z"/><path class="cls-14" d="M171.39,257.67l.2,2.06h0a2,2,0,0,1-2.15.07l-.12-.07-.36-2.06Z"/><path class="cls-14" d="M191.91,191.35a4,4,0,0,0,2-1c1-.8,2.5-3,3-1.8-.41,1.3-.73,2.87-.73,2.87a4.39,4.39,0,0,1-2.36,1.76l-2.67.6s-1.06-.8-1.11-.83l.23-.53A6.43,6.43,0,0,0,191.91,191.35Z"/><path class="cls-14" d="M192.6,191.44a1,1,0,0,0,.2,0c-.07.16-.14.33-.19.5-.46.47-.9,1-1.35,1.43-.23-.3-.56-.72-.59-.74l2.35-3.69s.56.08.34,1A4.35,4.35,0,0,1,192.6,191.44Z"/><path class="cls-13" d="M157.79,256.85a11.28,11.28,0,0,0,4.63,2.13c.71.18,1.47-.06,1.47,1.11H160l-3.25-.56v.56H155s-.49-2.87.54-3.24Z"/><path class="cls-14" d="M157.59,254.79l.2,2.06h0a2,2,0,0,1-2.15.07l-.12-.07-.36-2.06Z"/><path class="cls-13" d="M159.38,210.08s1.15,6.08.12,18.66a23,23,0,0,1-1.5,6.48c-2.76,7.08-3.14,20.14-3.14,20.14H158l11.13-31.84Z"/><path class="cls-19" d="M164.72,191.85s2.48,9.24,9.2,10.09,17.78-7.66,17.78-7.66l-1.22-2.43-11.67,3.27a4,4,0,0,1-4.54-1.92l-3.51-6.47Z"/><path class="cls-15" d="M173.72,210.08l-2.09,48.14h-2.83s-3.17-11.22-2.93-20.07a20.48,20.48,0,0,0-1.45-8.2,75.59,75.59,0,0,1-5.05-19.87Z"/><polygon class="cls-3" points="198.39 186.72 188.24 194.36 176.63 185.29 186.11 178.26 198.39 186.72"/><path class="cls-20" d="M184.9,196.27a7.27,7.27,0,0,0-.61-2.68l6.2-1.74,1.22,2.43a58.66,58.66,0,0,1-7.09,4.54A9,9,0,0,0,184.9,196.27Z"/><path class="cls-2" d="M164.9,191.8c0,.09,2.53,9.13,9,10,6.08.77,15.93-6.34,17.44-7.47l.24.28c-1.46,1.09-10.4,7.61-16.7,7.61a8.16,8.16,0,0,1-1-.06c-6.76-.86-9.33-10.13-9.35-10.22Z"/><path class="cls-14" d="M193.64,193.17l-2.18.49a7.24,7.24,0,0,0-.8-1.48,6.54,6.54,0,0,0,1.25-.83,4,4,0,0,0,1.95-1,8.94,8.94,0,0,0-.25,2.41Q193.62,192.94,193.64,193.17Z"/><path class="cls-14" d="M190.81,192.41l2.2-3.47s.56.08.34,1a4.35,4.35,0,0,1-.75,1.53,1,1,0,0,0,.2,0c-.07.16-.14.33-.19.5-.44.45-.87.91-1.3,1.37A7.23,7.23,0,0,0,190.81,192.41Z"/><path class="cls-14" d="M180.84,181.45h.08a3.17,3.17,0,0,0-.86,1.16,6.67,6.67,0,0,0-.73.63c0-.23-.07-.44-.11-.66A7.5,7.5,0,0,0,180.84,181.45Z"/><path class="cls-14" d="M180.45,181.79a4.3,4.3,0,0,1,1.34-.26c.92,0,.87.54.87.54l-3.32,1.18c0-.23-.06-.45-.11-.67A7.35,7.35,0,0,0,180.45,181.79Z"/><polygon class="cls-3" points="169 184.09 169 182.11 165.69 180.73 164.49 182.25 169 184.09"/><path class="cls-13" d="M137.23,108.93s.63.87,3.61,1.63c.65.17,1.36.28,1.36,1.36h-2.94l-3-.52v.52h-1.62s-.45-2.65.5-3Z"/><path class="cls-14" d="M137.39,107l-.15,1.9h0a1.83,1.83,0,0,1-2,.07l-.11-.07V107Z"/><path class="cls-13" d="M122.18,109.31s.63.87,3.6,1.63c.65.17,1.36.28,1.36,1.36h-2.94l-3-.52v.52h-1.62s-.45-2.65.5-3Z"/><path class="cls-14" d="M122.33,107.41l-.15,1.9h0a1.83,1.83,0,0,1-2,.07l-.11-.07v-1.9Z"/><path class="cls-13" d="M138.58,60.22l-.73,47.84h-3.49s-5.3-38.62-4.17-47.84S138.58,60.22,138.58,60.22Z"/><path class="cls-12" d="M134.9,60.21s-1.21,14.7-4,22.83-7.82,25-7.82,25h-3.61s6-35.28,4.65-47.85H134.9Z"/><path class="cls-21" d="M138,35.87s4.3,10,5.39,10c.87,0-.33-8.18-.33-8.18h3.6s4.52,14,.93,16.58S136.12,47,136.12,47Z"/><path class="cls-14" d="M125.23,61.49l1.3,3.22c.63,1.26,2.93,1.3,4.46.89a.32.32,0,0,0,.15-.52,44.17,44.17,0,0,0-3.78-3.81Z"/><path class="cls-22" d="M136.12,33.8s2.24,1.52,2.24,3.27V60.21H125.22V38.57s.27-4.81,5-4.81S136.12,33.8,136.12,33.8Z"/><polygon class="cls-2" points="138.15 60.22 138.15 39.43 138.59 39.45 138.59 60.22 138.15 60.22"/><path class="cls-16" d="M131.36,28.63v5.46a3.34,3.34,0,0,0,2.55,1.25c1.64,0,1.64-1.18,1.64-1.18v-3.5L133.12,30Z"/><path class="cls-14" d="M135.76,31.69a2,2,0,0,0,1.22-.32c1.46-2.32-.2-8.58-.2-8.58l-5.28.95-.17,4.19a3.52,3.52,0,0,0,1.32,2.89h0A5.65,5.65,0,0,0,135.76,31.69Z"/><path class="cls-12" d="M134,23.85a11.31,11.31,0,0,0,3.6,0c1.85-.33.66-2.36.66-2.36a7.26,7.26,0,0,1-3.79.26c-1.64-.24-2.08-.56-3.13,0-1.43.76-1.08,3.34-1.08,3.34l.79,5.46h.29s.07-3.25.07-4.35c.31-.5.64-.5.9-.38a.83.83,0,0,1,.44.75v5.67s3.61,1.56,4.53,1.27.3-4.48.3-4.48a1.69,1.69,0,0,0-1.88.46c-.81.91-1.8,0-1.8,0Z"/><path class="cls-14" d="M146,37.7l-.13-.69a5.75,5.75,0,0,0-3.22-3.93h-1.53l.47,3.26,2.16,1.36Z"/><path class="cls-14" d="M131.83,25.68a.92.92,0,0,1,.87.87.79.79,0,0,1-.6,1,.92.92,0,0,1-.87-.87A.79.79,0,0,1,131.83,25.68Z"/><path class="cls-14" d="M142.24,36l3,1.72s-1.87,0-1.9,0l-3.15-2.63s.23-.46.94-.07A3.62,3.62,0,0,1,142.24,36Z"/><path class="cls-23" d="M126.62,35.21s-7.43,8.26-7.43,13.2,6,13.67,6,13.67l3-.87s-2.69-10.79-2.69-13.66S131,40.46,131,40.46"/><path class="cls-2" d="M125.73,47.54c0,2.47,2.19,11.51,2.7,13.61l-.44.11c-.63-2.6-2.7-11.29-2.7-13.72,0-2.94,5.38-7.08,5.61-7.25l.26.35C131.11,40.68,125.73,44.81,125.73,47.54Z"/><path class="cls-24" d="M140.25,30.58a7.88,7.88,0,0,0,1.36,5.77.86.86,0,0,0,.56.31,2.19,2.19,0,0,0,1-.17,1,1,0,0,0,.62-.45.41.41,0,0,0,0-.43c-.4-.6-1.64-2.65-1.07-4.46A3.23,3.23,0,0,0,140.25,30.58Z"/><path class="cls-25" d="M143.47,36.37a.63.63,0,0,0,.35-.33.41.41,0,0,0,0-.43c-.4-.6-1.64-2.65-1.07-4.46a2.73,2.73,0,0,0-1.17-.54C141.47,32.6,141.89,33.93,143.47,36.37Z"/><ellipse class="cls-24" cx="142.34" cy="33.15" rx="0.33" ry="0.85" transform="translate(-3.76 29.33) rotate(-11.61)"/><polygon class="cls-24" points="142.13 32.33 142.32 32.29 142.31 32.38 142.18 32.43 142.13 32.33"/><polygon class="cls-26" points="142.47 33.98 142.69 33.93 142.44 33.9 142.47 33.98"/><ellipse class="cls-6" cx="142.49" cy="33.12" rx="0.33" ry="0.85" transform="translate(-3.75 29.33) rotate(-11.6)"/><path class="cls-6" d="M139.45,27.88h-.35A1.2,1.2,0,0,0,137.87,29V30a1.2,1.2,0,0,0,1.22,1.17h.35Z"/><ellipse class="cls-12" cx="148.92" cy="28.8" rx="1.3" ry="4.58"/><polygon class="cls-3" points="147.56 27.11 148.59 27.78 148.59 29.26 147.53 30.22 147.16 28.3 147.56 27.11"/><path class="cls-27" d="M147.62,28.8c0-2.12.41-3.91,1-4.42h0a20.93,20.93,0,0,1-9.34,3.54v3.23s6.82-.38,9.34,2.08h0C148,32.71,147.62,30.93,147.62,28.8Z"/><ellipse class="cls-6" cx="148.59" cy="28.52" rx="0.14" ry="0.74"/><path class="cls-14" d="M144.35,35.33a3.51,3.51,0,0,1-1.66.27c-.87,0-1.25-1.06-1.4-1.64-.05-.2-.1-.49.16-.62l1.39-.19Z"/><path class="cls-5" d="M239.39,256.29a1.8,1.8,0,0,1,1,1.37c0,.86.14,2.86.14,2.86l-.86.16-.3-1.83c0-.12-1.54,1.93-2.57,3l-3.79.07s-.52-1.18,2.07-2.06A10,10,0,0,0,239.39,256.29Z"/><path class="cls-16" d="M236.31,241.15a16.42,16.42,0,0,0-.22-2.31,14.26,14.26,0,0,0-1.89-4.76c-.93-.34-1.82-.77-2.77-1.15a25,25,0,0,0-3.36-1l.14.38c5.55,14.65,8.66,21.31,9.14,22.88a1.82,1.82,0,0,1,.12.73,5.43,5.43,0,0,1-2.66,3.93c2.36.59,4.59-3.61,4.59-3.61S236.43,246.19,236.31,241.15Z"/><polygon class="cls-16" points="224.87 181.89 225.12 185.87 229.01 185.07 228.54 179.66 224.87 181.89"/><path class="cls-14" d="M224,181.93a2.29,2.29,0,0,1-1.37-.36c-1.64-2.61.23-9.65.23-9.65l5.95,1.07.19,4.72a4,4,0,0,1-1.49,3.25h0A6.36,6.36,0,0,1,224,181.93Z"/><path class="cls-5" d="M227.8,257.68a1.73,1.73,0,0,1,.67,1.46c-.15.82-.36,2.74-.36,2.74h-.84l0-1.79c0-.12-1.8,1.79-2.11,1.79h-4.45s-.3-1.21,2.32-1.6A9.64,9.64,0,0,0,227.8,257.68Z"/><path class="cls-14" d="M230.06,242.55a16.41,16.41,0,0,0,.59-2.25,24.5,24.5,0,0,0,.17-6.33c-.75-.65-1.74-.15-2.5-.83a25,25,0,0,0-2.82-2.06q0,.2,0,.41c.13,15.67.73,23,.64,24.63,0,.25-.76,3.49-3.38,4.17,2,1.37,5-2.62,5-2.62S228.42,247.32,230.06,242.55Z"/><path class="cls-6" d="M225.08,185.2l-3.74,6.1a4.78,4.78,0,0,0-.34,3.11l2.37,10.42a9.14,9.14,0,0,1,.23,1.84l.57,27.31h11.93a84.58,84.58,0,0,1-2.27-12.35c-.76-7,1.46-10,.84-13a15,15,0,0,0-2.94-5.94,5.78,5.78,0,0,1-1.24-3.48c-.13-5.16,5.28-19.42.12-16S225.08,185.2,225.08,185.2Z"/><path class="cls-14" d="M224.87,200.64l-.28,1a5.63,5.63,0,0,1-.8,1.51c-1.31,2.19-5.74,7.56-5.74,7.56l-3.58,2s.07.52.89.37a3.68,3.68,0,0,0,1.4-.59s.15.59-.59,1.77c-.55.88-2.32,2.39-1.11,2.66a20.49,20.49,0,0,0,2.47-1.36,2.39,2.39,0,0,0,1.2-1.69L219,212l7.6-6.21a5.75,5.75,0,0,0,1.82-2.64l0-.08Z"/><path class="cls-14" d="M204.2,194.44a3.36,3.36,0,0,1-1.86-.65c-.95-.58-2.53-2.4-2.87-1.19.49,1.12.92,2.51.92,2.51a3.66,3.66,0,0,0,2.29,1.25l2.46.15s.88-.89.93-.93l-.26-.45A5.38,5.38,0,0,1,204.2,194.44Z"/><polygon class="cls-27" points="228.59 203.37 224.67 200.73 226.16 190.28 226.53 190.33 225.07 200.55 228.38 202.78 230.82 194.46 231.18 194.56 228.59 203.37"/><path class="cls-13" d="M227,174.73a6.06,6.06,0,0,1-3.21.74,4.08,4.08,0,0,1-3.14-2.07c-.42-.9-.51-1.83.88-2.88a2.16,2.16,0,0,1,2.64.19,1,1,0,0,0,1.32,0,6.11,6.11,0,0,1,4-1.41c2.07,0,2,2,1.7,3.46a2.09,2.09,0,0,0,.93,2.23c1.23.76,2.79,2,2.47,3.24a7.34,7.34,0,0,1-1.37,2.58,1.83,1.83,0,0,0,0,2.24c.76,1,1.66,2.47,1.39,3.53a12.44,12.44,0,0,1-1.6,3.22,2,2,0,0,0,0,2.16,2.65,2.65,0,0,1,.42,2,4.64,4.64,0,0,1-.75,1.62,1.3,1.3,0,0,1-2.22-.17c-1.35-2.73-3.73-8.33-2.9-12.6.42-2.14,1-5.92,1-5.92S229.15,173.82,227,174.73Z"/><path class="cls-14" d="M223.92,197.85l-4.55,2.36a2.49,2.49,0,0,1-1.84.18l-12.52-4v-1.58l12.2,1.48,3.82-2Z"/><path class="cls-14" d="M229.32,175.84a1,1,0,0,0-1.38.13.89.89,0,0,0-.18,1.29,1,1,0,0,0,1.38-.13A.89.89,0,0,0,229.32,175.84Z"/><path class="cls-6" d="M224.87,197.4l-1.26-7.79-5.41,6.21,1.48,4.84,5.15-2.67C224.68,197.4,224.84,198,224.87,197.4Z"/><path class="cls-27" d="M222.63,201.55l.29-.2-1.7-7a4.57,4.57,0,0,1,.32-2.95l3.69-6c-.12-.09-.08-.07-.14-.18s-.17,0-.2,0l-3.73,6a5,5,0,0,0-.36,3.25"/><path class="cls-14" d="M203.58,194.63l-.18,0c.08.14.15.28.22.42.46.36.9.73,1.35,1.09.18-.31.44-.74.47-.77l-2.45-3s-.5.16-.22.94A3.68,3.68,0,0,0,203.58,194.63Z"/></g></g></svg>