<svg xmlns="http://www.w3.org/2000/svg" xmlns:xlink="http://www.w3.org/1999/xlink" viewBox="0 0 321.97 150.34"><defs><style>.cls-1{fill:none;}.cls-2{clip-path:url(#clip-path);}.cls-3{fill:#01898c;}.cls-4{fill:#63c1c5;}.cls-5{fill:#fff;}.cls-6{clip-path:url(#clip-path-3);}.cls-7{fill:url(#linear-gradient);}.cls-8{clip-path:url(#clip-path-4);}.cls-9{fill:url(#linear-gradient-2);}.cls-10{clip-path:url(#clip-path-6);}.cls-11{fill:url(#linear-gradient-3);}.cls-12{fill:#00666b;}.cls-13{fill:#212b53;}.cls-14{clip-path:url(#clip-path-8);}.cls-15{fill:url(#linear-gradient-4);}.cls-16{clip-path:url(#clip-path-9);}.cls-17{fill:url(#linear-gradient-5);}</style><clipPath id="clip-path" transform="translate(-189 -497)"><rect class="cls-1" x="189" y="497" width="321.97" height="150.34"/></clipPath><clipPath id="clip-path-3" transform="translate(-189 -497)"><polygon class="cls-1" points="291.61 542.68 396 542.68 364.23 504.55 299.01 504.54 291.61 542.68"/></clipPath><linearGradient id="linear-gradient" x1="353.41" y1="290.21" x2="354.41" y2="290.21" gradientTransform="matrix(104.39, 0, 0, -104.39, -36788.24, 30320.16)" gradientUnits="userSpaceOnUse"><stop offset="0" stop-color="#e0f0eb"/><stop offset="1" stop-color="#c0e4ef"/></linearGradient><clipPath id="clip-path-4" transform="translate(-189 -497)"><path class="cls-1" d="M364.23,504.54,396,542.69h44.41S389.62,497,371.24,497c-3.83,3.83-7,7.54-7,7.54"/></clipPath><linearGradient id="linear-gradient-2" x1="352.82" y1="288.95" x2="353.82" y2="288.95" gradientTransform="matrix(76.18, 0, 0, -76.18, -26702.31, 22035.05)" xlink:href="#linear-gradient"/><clipPath id="clip-path-6" transform="translate(-189 -497)"><path class="cls-1" d="M236.35,504.53a60.24,60.24,0,0,0-23.1,38.16H287l7.41-38.16Z"/></clipPath><linearGradient id="linear-gradient-3" x1="352.95" y1="289.24" x2="353.95" y2="289.24" gradientTransform="matrix(81.17, 0, 0, -81.17, -28623.96, 23503.21)" xlink:href="#linear-gradient"/><clipPath id="clip-path-8" transform="translate(-189 -497)"><path class="cls-1" d="M426.73,615.43a20.17,20.17,0,1,0,20.16-20.16,20.17,20.17,0,0,0-20.16,20.16"/></clipPath><linearGradient id="linear-gradient-4" x1="350.88" y1="284.83" x2="351.88" y2="284.83" gradientTransform="matrix(40.33, 0, 0, -40.33, -13912.78, 11604.94)" xlink:href="#linear-gradient"/><clipPath id="clip-path-9" transform="translate(-189 -497)"><path class="cls-1" d="M212.44,615.43a20.17,20.17,0,1,0,20.17-20.16,20.17,20.17,0,0,0-20.17,20.16"/></clipPath><linearGradient id="linear-gradient-5" x1="350.88" y1="284.83" x2="351.88" y2="284.83" gradientTransform="matrix(40.33, 0, 0, -40.33, -14127.03, 11604.91)" xlink:href="#linear-gradient"/></defs><title>auto</title><g id="Layer_2" data-name="Layer 2"><g id="Layer_1-2" data-name="Layer 1"><g class="cls-2"><rect class="cls-3" x="5.79" y="76.19" width="291.02" height="30.57"/><g class="cls-2"><path class="cls-4" d="M213.25,542.69H482.78s14.55,0,24,18.89c8.18,16.36,2.19,47.46.44,54.87H485.05v-.51a38.16,38.16,0,0,0-76.32,0v.51H271.06v-.51a38.16,38.16,0,0,0-76.32,0v.51H189V576.89c0-23.12,24.25-34.2,24.25-34.2" transform="translate(-189 -497)"/><polygon class="cls-5" points="207 45.69 102.61 45.69 110.06 7.53 170.58 7.53 207 45.69"/><path class="cls-3" d="M396,616.58V542.69l-31.77-38.15H299l-7.4,38.16s-4.85,5.36-8.94,9.44-4.33,12.51-4.33,12.51v51.73Z" transform="translate(-189 -497)"/></g><g class="cls-6"><rect class="cls-7" x="102.61" y="7.53" width="104.39" height="38.15"/></g><g class="cls-8"><rect class="cls-9" x="175.23" width="76.18" height="45.69"/></g><g class="cls-2"><polygon class="cls-3" points="182.24 0 57.17 0 47.35 7.53 175.35 7.53 182.24 0"/></g><g class="cls-10"><rect class="cls-11" x="24.25" y="7.53" width="81.17" height="38.16"/></g><g class="cls-2"><path class="cls-12" d="M287.27,565.66c0,1.13,4.91,2,11,2s11-.91,11-2-4.91-2-11-2-11,.91-11,2" transform="translate(-189 -497)"/><path class="cls-12" d="M223.2,560.46a8.94,8.94,0,1,0,8.94-8.93,8.94,8.94,0,0,0-8.94,8.93" transform="translate(-189 -497)"/><path class="cls-13" d="M415.14,615.43a31.91,31.91,0,1,0,31.91-31.9,31.91,31.91,0,0,0-31.91,31.9" transform="translate(-189 -497)"/><path class="cls-13" d="M200.7,615.43a31.91,31.91,0,1,0,31.91-31.9,31.91,31.91,0,0,0-31.91,31.9" transform="translate(-189 -497)"/><path class="cls-5" d="M490.35,554.93a3.77,3.77,0,0,1,2.55-.78l10.47,12.75a3.73,3.73,0,0,1-1.26,2.35c-2.31,1.9-6.82.23-10.07-3.72s-4-8.7-1.69-10.6" transform="translate(-189 -497)"/></g><g class="cls-14"><rect class="cls-15" x="237.73" y="98.27" width="40.33" height="40.33"/></g><g class="cls-16"><rect class="cls-17" x="23.45" y="98.27" width="40.33" height="40.33"/></g><g class="cls-2"><polygon class="cls-4" points="105.34 7.53 110.06 7.53 102.61 45.69 98.01 45.69 105.34 7.53"/><polygon class="cls-4" points="209.8 45.69 175.92 6.07 171.54 7.12 204.06 45.69 209.8 45.69"/><path class="cls-12" d="M385.89,544.17c-.29,4.93,2.44,9.1,6.09,9.32s6.87-3.6,7.16-8.52-2.43-9.1-6.09-9.32-6.86,3.6-7.16,8.52" transform="translate(-189 -497)"/></g></g></g></g></svg>