<svg version="1.1" id="el_mEAXbyQlb" xmlns="http://www.w3.org/2000/svg" xmlns:xlink="http://www.w3.org/1999/xlink" x="0px" y="0px" viewBox="0 0 430 394" style="enable-background:new 0 0 430 394.1;" xml:space="preserve"><style>@-webkit-keyframes kf_el_QMF7OZ0VWw_an_iP3T2LfT9 {0% {-webkit-transform: translate(275.1000061035156px, 114.80000305175781px) translate(-275.1000061035156px, -114.80000305175781px) translate(0px, 0px);transform: translate(275.1000061035156px, 114.80000305175781px) translate(-275.1000061035156px, -114.80000305175781px) translate(0px, 0px);}50% {-webkit-transform: translate(275.1000061035156px, 114.80000305175781px) translate(-275.1000061035156px, -114.80000305175781px) translate(14px, 0px);transform: translate(275.1000061035156px, 114.80000305175781px) translate(-275.1000061035156px, -114.80000305175781px) translate(14px, 0px);}100% {-webkit-transform: translate(275.1000061035156px, 114.80000305175781px) translate(-275.1000061035156px, -114.80000305175781px) translate(0px, 0px);transform: translate(275.1000061035156px, 114.80000305175781px) translate(-275.1000061035156px, -114.80000305175781px) translate(0px, 0px);}}@keyframes kf_el_QMF7OZ0VWw_an_iP3T2LfT9 {0% {-webkit-transform: translate(275.1000061035156px, 114.80000305175781px) translate(-275.1000061035156px, -114.80000305175781px) translate(0px, 0px);transform: translate(275.1000061035156px, 114.80000305175781px) translate(-275.1000061035156px, -114.80000305175781px) translate(0px, 0px);}50% {-webkit-transform: translate(275.1000061035156px, 114.80000305175781px) translate(-275.1000061035156px, -114.80000305175781px) translate(14px, 0px);transform: translate(275.1000061035156px, 114.80000305175781px) translate(-275.1000061035156px, -114.80000305175781px) translate(14px, 0px);}100% {-webkit-transform: translate(275.1000061035156px, 114.80000305175781px) translate(-275.1000061035156px, -114.80000305175781px) translate(0px, 0px);transform: translate(275.1000061035156px, 114.80000305175781px) translate(-275.1000061035156px, -114.80000305175781px) translate(0px, 0px);}}@-webkit-keyframes kf_el_CiAhMwiXwgs_an_uBtSIeOw- {0% {-webkit-transform: translate(18.399999618530273px, 4.099999904632568px) translate(-18.399999618530273px, -4.099999904632568px) translate(0px, 0px);transform: translate(18.399999618530273px, 4.099999904632568px) translate(-18.399999618530273px, -4.099999904632568px) translate(0px, 0px);}50% {-webkit-transform: translate(18.399999618530273px, 4.099999904632568px) translate(-18.399999618530273px, -4.099999904632568px) translate(14px, 0px);transform: translate(18.399999618530273px, 4.099999904632568px) translate(-18.399999618530273px, -4.099999904632568px) translate(14px, 0px);}100% {-webkit-transform: translate(18.399999618530273px, 4.099999904632568px) translate(-18.399999618530273px, -4.099999904632568px) translate(0px, 0px);transform: translate(18.399999618530273px, 4.099999904632568px) translate(-18.399999618530273px, -4.099999904632568px) translate(0px, 0px);}}@keyframes kf_el_CiAhMwiXwgs_an_uBtSIeOw- {0% {-webkit-transform: translate(18.399999618530273px, 4.099999904632568px) translate(-18.399999618530273px, -4.099999904632568px) translate(0px, 0px);transform: translate(18.399999618530273px, 4.099999904632568px) translate(-18.399999618530273px, -4.099999904632568px) translate(0px, 0px);}50% {-webkit-transform: translate(18.399999618530273px, 4.099999904632568px) translate(-18.399999618530273px, -4.099999904632568px) translate(14px, 0px);transform: translate(18.399999618530273px, 4.099999904632568px) translate(-18.399999618530273px, -4.099999904632568px) translate(14px, 0px);}100% {-webkit-transform: translate(18.399999618530273px, 4.099999904632568px) translate(-18.399999618530273px, -4.099999904632568px) translate(0px, 0px);transform: translate(18.399999618530273px, 4.099999904632568px) translate(-18.399999618530273px, -4.099999904632568px) translate(0px, 0px);}}@-webkit-keyframes kf_el_PSBY1AFEAdO_an_sIut5Om1l {0% {-webkit-transform: translate(318.8999938964844px, 394.0150146484375px) rotate(0deg) translate(-318.8999938964844px, -394.0150146484375px);transform: translate(318.8999938964844px, 394.0150146484375px) rotate(0deg) translate(-318.8999938964844px, -394.0150146484375px);}27.78% {-webkit-transform: translate(318.8999938964844px, 394.0150146484375px) rotate(2deg) translate(-318.8999938964844px, -394.0150146484375px);transform: translate(318.8999938964844px, 394.0150146484375px) rotate(2deg) translate(-318.8999938964844px, -394.0150146484375px);}47.78% {-webkit-transform: translate(318.8999938964844px, 394.0150146484375px) rotate(-10deg) translate(-318.8999938964844px, -394.0150146484375px);transform: translate(318.8999938964844px, 394.0150146484375px) rotate(-10deg) translate(-318.8999938964844px, -394.0150146484375px);}73.33% {-webkit-transform: translate(318.8999938964844px, 394.0150146484375px) rotate(6deg) translate(-318.8999938964844px, -394.0150146484375px);transform: translate(318.8999938964844px, 394.0150146484375px) rotate(6deg) translate(-318.8999938964844px, -394.0150146484375px);}100% {-webkit-transform: translate(318.8999938964844px, 394.0150146484375px) rotate(0deg) translate(-318.8999938964844px, -394.0150146484375px);transform: translate(318.8999938964844px, 394.0150146484375px) rotate(0deg) translate(-318.8999938964844px, -394.0150146484375px);}}@keyframes kf_el_PSBY1AFEAdO_an_sIut5Om1l {0% {-webkit-transform: translate(318.8999938964844px, 394.0150146484375px) rotate(0deg) translate(-318.8999938964844px, -394.0150146484375px);transform: translate(318.8999938964844px, 394.0150146484375px) rotate(0deg) translate(-318.8999938964844px, -394.0150146484375px);}27.78% {-webkit-transform: translate(318.8999938964844px, 394.0150146484375px) rotate(2deg) translate(-318.8999938964844px, -394.0150146484375px);transform: translate(318.8999938964844px, 394.0150146484375px) rotate(2deg) translate(-318.8999938964844px, -394.0150146484375px);}47.78% {-webkit-transform: translate(318.8999938964844px, 394.0150146484375px) rotate(-10deg) translate(-318.8999938964844px, -394.0150146484375px);transform: translate(318.8999938964844px, 394.0150146484375px) rotate(-10deg) translate(-318.8999938964844px, -394.0150146484375px);}73.33% {-webkit-transform: translate(318.8999938964844px, 394.0150146484375px) rotate(6deg) translate(-318.8999938964844px, -394.0150146484375px);transform: translate(318.8999938964844px, 394.0150146484375px) rotate(6deg) translate(-318.8999938964844px, -394.0150146484375px);}100% {-webkit-transform: translate(318.8999938964844px, 394.0150146484375px) rotate(0deg) translate(-318.8999938964844px, -394.0150146484375px);transform: translate(318.8999938964844px, 394.0150146484375px) rotate(0deg) translate(-318.8999938964844px, -394.0150146484375px);}}@-webkit-keyframes kf_el_so1ZLgiCbH3_an_hSE7el7_v {0% {-webkit-transform: translate(339.1000061035156px, 350.8999938964844px) rotate(0deg) translate(-339.1000061035156px, -350.8999938964844px);transform: translate(339.1000061035156px, 350.8999938964844px) rotate(0deg) translate(-339.1000061035156px, -350.8999938964844px);}27.78% {-webkit-transform: translate(339.1000061035156px, 350.8999938964844px) rotate(6deg) translate(-339.1000061035156px, -350.8999938964844px);transform: translate(339.1000061035156px, 350.8999938964844px) rotate(6deg) translate(-339.1000061035156px, -350.8999938964844px);}47.78% {-webkit-transform: translate(339.1000061035156px, 350.8999938964844px) rotate(-2deg) translate(-339.1000061035156px, -350.8999938964844px);transform: translate(339.1000061035156px, 350.8999938964844px) rotate(-2deg) translate(-339.1000061035156px, -350.8999938964844px);}73.33% {-webkit-transform: translate(339.1000061035156px, 350.8999938964844px) rotate(6deg) translate(-339.1000061035156px, -350.8999938964844px);transform: translate(339.1000061035156px, 350.8999938964844px) rotate(6deg) translate(-339.1000061035156px, -350.8999938964844px);}100% {-webkit-transform: translate(339.1000061035156px, 350.8999938964844px) rotate(0deg) translate(-339.1000061035156px, -350.8999938964844px);transform: translate(339.1000061035156px, 350.8999938964844px) rotate(0deg) translate(-339.1000061035156px, -350.8999938964844px);}}@keyframes kf_el_so1ZLgiCbH3_an_hSE7el7_v {0% {-webkit-transform: translate(339.1000061035156px, 350.8999938964844px) rotate(0deg) translate(-339.1000061035156px, -350.8999938964844px);transform: translate(339.1000061035156px, 350.8999938964844px) rotate(0deg) translate(-339.1000061035156px, -350.8999938964844px);}27.78% {-webkit-transform: translate(339.1000061035156px, 350.8999938964844px) rotate(6deg) translate(-339.1000061035156px, -350.8999938964844px);transform: translate(339.1000061035156px, 350.8999938964844px) rotate(6deg) translate(-339.1000061035156px, -350.8999938964844px);}47.78% {-webkit-transform: translate(339.1000061035156px, 350.8999938964844px) rotate(-2deg) translate(-339.1000061035156px, -350.8999938964844px);transform: translate(339.1000061035156px, 350.8999938964844px) rotate(-2deg) translate(-339.1000061035156px, -350.8999938964844px);}73.33% {-webkit-transform: translate(339.1000061035156px, 350.8999938964844px) rotate(6deg) translate(-339.1000061035156px, -350.8999938964844px);transform: translate(339.1000061035156px, 350.8999938964844px) rotate(6deg) translate(-339.1000061035156px, -350.8999938964844px);}100% {-webkit-transform: translate(339.1000061035156px, 350.8999938964844px) rotate(0deg) translate(-339.1000061035156px, -350.8999938964844px);transform: translate(339.1000061035156px, 350.8999938964844px) rotate(0deg) translate(-339.1000061035156px, -350.8999938964844px);}}@-webkit-keyframes kf_el_F2bVOh0eDCS_an_il4IcXkYd {0% {-webkit-transform: translate(322.4938049316406px, 344.5px) rotate(0deg) translate(-322.4938049316406px, -344.5px);transform: translate(322.4938049316406px, 344.5px) rotate(0deg) translate(-322.4938049316406px, -344.5px);}27.78% {-webkit-transform: translate(322.4938049316406px, 344.5px) rotate(2deg) translate(-322.4938049316406px, -344.5px);transform: translate(322.4938049316406px, 344.5px) rotate(2deg) translate(-322.4938049316406px, -344.5px);}47.78% {-webkit-transform: translate(322.4938049316406px, 344.5px) rotate(-4deg) translate(-322.4938049316406px, -344.5px);transform: translate(322.4938049316406px, 344.5px) rotate(-4deg) translate(-322.4938049316406px, -344.5px);}73.33% {-webkit-transform: translate(322.4938049316406px, 344.5px) rotate(6deg) translate(-322.4938049316406px, -344.5px);transform: translate(322.4938049316406px, 344.5px) rotate(6deg) translate(-322.4938049316406px, -344.5px);}100% {-webkit-transform: translate(322.4938049316406px, 344.5px) rotate(0deg) translate(-322.4938049316406px, -344.5px);transform: translate(322.4938049316406px, 344.5px) rotate(0deg) translate(-322.4938049316406px, -344.5px);}}@keyframes kf_el_F2bVOh0eDCS_an_il4IcXkYd {0% {-webkit-transform: translate(322.4938049316406px, 344.5px) rotate(0deg) translate(-322.4938049316406px, -344.5px);transform: translate(322.4938049316406px, 344.5px) rotate(0deg) translate(-322.4938049316406px, -344.5px);}27.78% {-webkit-transform: translate(322.4938049316406px, 344.5px) rotate(2deg) translate(-322.4938049316406px, -344.5px);transform: translate(322.4938049316406px, 344.5px) rotate(2deg) translate(-322.4938049316406px, -344.5px);}47.78% {-webkit-transform: translate(322.4938049316406px, 344.5px) rotate(-4deg) translate(-322.4938049316406px, -344.5px);transform: translate(322.4938049316406px, 344.5px) rotate(-4deg) translate(-322.4938049316406px, -344.5px);}73.33% {-webkit-transform: translate(322.4938049316406px, 344.5px) rotate(6deg) translate(-322.4938049316406px, -344.5px);transform: translate(322.4938049316406px, 344.5px) rotate(6deg) translate(-322.4938049316406px, -344.5px);}100% {-webkit-transform: translate(322.4938049316406px, 344.5px) rotate(0deg) translate(-322.4938049316406px, -344.5px);transform: translate(322.4938049316406px, 344.5px) rotate(0deg) translate(-322.4938049316406px, -344.5px);}}@-webkit-keyframes kf_el_k6SN4Mx3Wzo_an_ew25B3bdm {0% {-webkit-transform: translate(112.80000305175781px, 290.6000061035156px) rotate(0deg) translate(-112.80000305175781px, -290.6000061035156px);transform: translate(112.80000305175781px, 290.6000061035156px) rotate(0deg) translate(-112.80000305175781px, -290.6000061035156px);}27.78% {-webkit-transform: translate(112.80000305175781px, 290.6000061035156px) rotate(2deg) translate(-112.80000305175781px, -290.6000061035156px);transform: translate(112.80000305175781px, 290.6000061035156px) rotate(2deg) translate(-112.80000305175781px, -290.6000061035156px);}47.78% {-webkit-transform: translate(112.80000305175781px, 290.6000061035156px) rotate(-10deg) translate(-112.80000305175781px, -290.6000061035156px);transform: translate(112.80000305175781px, 290.6000061035156px) rotate(-10deg) translate(-112.80000305175781px, -290.6000061035156px);}73.33% {-webkit-transform: translate(112.80000305175781px, 290.6000061035156px) rotate(6deg) translate(-112.80000305175781px, -290.6000061035156px);transform: translate(112.80000305175781px, 290.6000061035156px) rotate(6deg) translate(-112.80000305175781px, -290.6000061035156px);}100% {-webkit-transform: translate(112.80000305175781px, 290.6000061035156px) rotate(0deg) translate(-112.80000305175781px, -290.6000061035156px);transform: translate(112.80000305175781px, 290.6000061035156px) rotate(0deg) translate(-112.80000305175781px, -290.6000061035156px);}}@keyframes kf_el_k6SN4Mx3Wzo_an_ew25B3bdm {0% {-webkit-transform: translate(112.80000305175781px, 290.6000061035156px) rotate(0deg) translate(-112.80000305175781px, -290.6000061035156px);transform: translate(112.80000305175781px, 290.6000061035156px) rotate(0deg) translate(-112.80000305175781px, -290.6000061035156px);}27.78% {-webkit-transform: translate(112.80000305175781px, 290.6000061035156px) rotate(2deg) translate(-112.80000305175781px, -290.6000061035156px);transform: translate(112.80000305175781px, 290.6000061035156px) rotate(2deg) translate(-112.80000305175781px, -290.6000061035156px);}47.78% {-webkit-transform: translate(112.80000305175781px, 290.6000061035156px) rotate(-10deg) translate(-112.80000305175781px, -290.6000061035156px);transform: translate(112.80000305175781px, 290.6000061035156px) rotate(-10deg) translate(-112.80000305175781px, -290.6000061035156px);}73.33% {-webkit-transform: translate(112.80000305175781px, 290.6000061035156px) rotate(6deg) translate(-112.80000305175781px, -290.6000061035156px);transform: translate(112.80000305175781px, 290.6000061035156px) rotate(6deg) translate(-112.80000305175781px, -290.6000061035156px);}100% {-webkit-transform: translate(112.80000305175781px, 290.6000061035156px) rotate(0deg) translate(-112.80000305175781px, -290.6000061035156px);transform: translate(112.80000305175781px, 290.6000061035156px) rotate(0deg) translate(-112.80000305175781px, -290.6000061035156px);}}@-webkit-keyframes kf_el_fNKJyJuxjtn_an_zCgdqomta {0% {-webkit-transform: translate(106.9000015258789px, 356.79998779296875px) rotate(0deg) translate(-106.9000015258789px, -356.79998779296875px);transform: translate(106.9000015258789px, 356.79998779296875px) rotate(0deg) translate(-106.9000015258789px, -356.79998779296875px);}27.78% {-webkit-transform: translate(106.9000015258789px, 356.79998779296875px) rotate(6deg) translate(-106.9000015258789px, -356.79998779296875px);transform: translate(106.9000015258789px, 356.79998779296875px) rotate(6deg) translate(-106.9000015258789px, -356.79998779296875px);}47.78% {-webkit-transform: translate(106.9000015258789px, 356.79998779296875px) rotate(-3deg) translate(-106.9000015258789px, -356.79998779296875px);transform: translate(106.9000015258789px, 356.79998779296875px) rotate(-3deg) translate(-106.9000015258789px, -356.79998779296875px);}73.33% {-webkit-transform: translate(106.9000015258789px, 356.79998779296875px) rotate(6deg) translate(-106.9000015258789px, -356.79998779296875px);transform: translate(106.9000015258789px, 356.79998779296875px) rotate(6deg) translate(-106.9000015258789px, -356.79998779296875px);}100% {-webkit-transform: translate(106.9000015258789px, 356.79998779296875px) rotate(0deg) translate(-106.9000015258789px, -356.79998779296875px);transform: translate(106.9000015258789px, 356.79998779296875px) rotate(0deg) translate(-106.9000015258789px, -356.79998779296875px);}}@keyframes kf_el_fNKJyJuxjtn_an_zCgdqomta {0% {-webkit-transform: translate(106.9000015258789px, 356.79998779296875px) rotate(0deg) translate(-106.9000015258789px, -356.79998779296875px);transform: translate(106.9000015258789px, 356.79998779296875px) rotate(0deg) translate(-106.9000015258789px, -356.79998779296875px);}27.78% {-webkit-transform: translate(106.9000015258789px, 356.79998779296875px) rotate(6deg) translate(-106.9000015258789px, -356.79998779296875px);transform: translate(106.9000015258789px, 356.79998779296875px) rotate(6deg) translate(-106.9000015258789px, -356.79998779296875px);}47.78% {-webkit-transform: translate(106.9000015258789px, 356.79998779296875px) rotate(-3deg) translate(-106.9000015258789px, -356.79998779296875px);transform: translate(106.9000015258789px, 356.79998779296875px) rotate(-3deg) translate(-106.9000015258789px, -356.79998779296875px);}73.33% {-webkit-transform: translate(106.9000015258789px, 356.79998779296875px) rotate(6deg) translate(-106.9000015258789px, -356.79998779296875px);transform: translate(106.9000015258789px, 356.79998779296875px) rotate(6deg) translate(-106.9000015258789px, -356.79998779296875px);}100% {-webkit-transform: translate(106.9000015258789px, 356.79998779296875px) rotate(0deg) translate(-106.9000015258789px, -356.79998779296875px);transform: translate(106.9000015258789px, 356.79998779296875px) rotate(0deg) translate(-106.9000015258789px, -356.79998779296875px);}}#el_mEAXbyQlb * {-webkit-animation-duration: 3s;animation-duration: 3s;-webkit-animation-iteration-count: infinite;animation-iteration-count: infinite;-webkit-animation-play-state: running;animation-play-state: running;-webkit-animation-timing-function: cubic-bezier(0, 0, 1, 1);animation-timing-function: cubic-bezier(0, 0, 1, 1);}#el_Se4c0gZMYS {fill: #FFD247;}#el_rNYqHfZTa9 {fill: #FFD247;}#el_MixYJVn1lV {fill: #FFD247;}#el_YbTZJpFSPr {fill: #FFD247;}#el_NI5j8sejwX {fill: #FFD247;}#el_lVilN6-DYE {fill: #FFD247;}#el_isnx3gpReP {fill: #FFD247;}#el_X5RMxkmqcY {fill: #FFD247;}#el_6Ya7MlFBaJ {fill: #FFD247;}#el_4ErTr5ZwkT {fill: #FFD247;}#el_27QaWgWgCg {fill: #FFD247;}#el_1sI6ANZxbM {-webkit-clip-path: url(#SVGID_2_);clip-path: url(#SVGID_2_);}#el_XwAKWjgCxxI {fill: url(#SVGID_3_);}#el_Cv1XhWHC3sh {-webkit-clip-path: url(#SVGID_5_);clip-path: url(#SVGID_5_);}#el_0t5E8DOiKTJ {fill: url(#SVGID_6_);}#el_H-ZqkYO5jj3 {-webkit-clip-path: url(#SVGID_8_);clip-path: url(#SVGID_8_);}#el_hTRegEH0J7M {fill: #63C1C5;}#el_04gxWlOxBcE {fill: #FFFFFF;}#el_7JO__a95Ss5 {fill: #01898C;}#el_yzAaeXLt2gv {fill: #00666B;}#el_ZRuYYw3QXJB {fill: #FFD247;}#el_zInxq73SPSv {fill: #FFFFFF;}#el_PRwOc5RG2wD {fill: #63C1C5;}#el_wOKc_pr6K3A {fill: #FFFFFF;}#el_BSDh9xi2un7 {fill: #01898C;}#el_lwJu9suRzwE {fill: #00666B;}#el_Hh-qCMpcUqa {fill: #FFD247;}#el_f4wY0HrU0Yv {fill: #FFFFFF;}#el_uetxqWOq2Ps {fill: #11375B;}#el_p6T3t7CYZVY {fill: #11375B;}#el_bCblWWskFYI {fill: #212B53;}#el_daPWENrCnCR {fill: #63C1C5;}#el_uziVcLtrxkw {fill: #01898C;}#el_hSLHgP37Toz {-webkit-clip-path: url(#SVGID_10_);clip-path: url(#SVGID_10_);}#el_vFAtU3cmxgO {fill: url(#SVGID_11_);}#el___ZTz5755ok {-webkit-clip-path: url(#SVGID_13_);clip-path: url(#SVGID_13_);}#el_rHc0CKut44K {fill: #11375B;}#el_Dbd_1UhVnlL {fill: #11375B;}#el_rcqP0bvDABw {-webkit-clip-path: url(#SVGID_15_);clip-path: url(#SVGID_15_);}#el_CclhpFeX85i {fill: url(#SVGID_16_);}#el_u6pG4kJ4rUb {-webkit-clip-path: url(#SVGID_18_);clip-path: url(#SVGID_18_);}#el_IZRGM9i1sgf {fill: #11375B;}#el_4nQTmcDPJz7 {fill: #11375B;}#el_Dz1RzXDbwaB {-webkit-clip-path: url(#SVGID_20_);clip-path: url(#SVGID_20_);}#el_m1RNHRIFp-R {fill: url(#SVGID_21_);}#el_3I-S1GizQeR {-webkit-clip-path: url(#SVGID_23_);clip-path: url(#SVGID_23_);}#el_YAIOgzLju35 {fill: url(#SVGID_24_);}#el_iU0pwOv2eVS {-webkit-clip-path: url(#SVGID_26_);clip-path: url(#SVGID_26_);}#el_OPnXh9rPiCD {fill: #11375B;}#el_po7Cor_ixPx {fill: #11375B;}#el_xHuBJ0245Bq {-webkit-clip-path: url(#SVGID_28_);clip-path: url(#SVGID_28_);}#el_OxU7f_Y11WE {fill: url(#SVGID_29_);}#el_BBabcMa4N8u {-webkit-clip-path: url(#SVGID_31_);clip-path: url(#SVGID_31_);}#el_Uet6r3FKhme {fill: #11375B;}#el_C1hKjvm2BIG {fill: #11375B;}#el_wjFuhgle8Mn {fill: #01898C;}#el_bRkM6cUoRPq {fill: #01898C;}#el_neo4A2LGE0n {fill: #01898C;}#el_aCCpyPC9PnJ {fill: #01898C;}#el_EMG6SAktf3V {fill: #01898C;}#el_5OL9XxbCByi {fill: #B0D9C8;}#el_LNPsFXRYCid {fill: #63C1C5;}#el_sD6LSJrLqPo {fill: #FFFFFF;}#el_9nUfJeGUik- {fill: #FFFFFF;}#el_ReT5lPHEyYS {-webkit-clip-path: url(#SVGID_33_);clip-path: url(#SVGID_33_);}#el_J6vTEsxdHMR {fill: url(#SVGID_34_);}#el_H90b69FwcPW {fill: #B0D9C8;}#el_ICOQaOq0YrX {fill: #63C1C5;}#el_foLon1l-JGZ {-webkit-clip-path: url(#SVGID_36_);clip-path: url(#SVGID_36_);}#el_mxRVYBv00Eh {fill: url(#SVGID_37_);}#el_Pn20OBv24Sl {-webkit-clip-path: url(#SVGID_39_);clip-path: url(#SVGID_39_);}#el_HnX9QNPeCgk {fill: #11375B;}#el_SNVl1U6vmvM {fill: #11375B;}#el_NZd1L290ZDV {fill: #11375B;}#el_fNKJyJuxjtn_an_zCgdqomta {-webkit-animation-fill-mode: backwards;animation-fill-mode: backwards;-webkit-transform: translate(106.9000015258789px, 356.79998779296875px) rotate(0deg) translate(-106.9000015258789px, -356.79998779296875px);transform: translate(106.9000015258789px, 356.79998779296875px) rotate(0deg) translate(-106.9000015258789px, -356.79998779296875px);-webkit-animation-timing-function: cubic-bezier(0, 0, 1, 1);animation-timing-function: cubic-bezier(0, 0, 1, 1);}.card-grafik-usluge:hover #el_mEAXbyQlb #el_fNKJyJuxjtn_an_zCgdqomta {-webkit-animation-name: kf_el_fNKJyJuxjtn_an_zCgdqomta;animation-name: kf_el_fNKJyJuxjtn_an_zCgdqomta;}#el_k6SN4Mx3Wzo_an_ew25B3bdm {-webkit-animation-fill-mode: backwards;animation-fill-mode: backwards;-webkit-transform: translate(112.80000305175781px, 290.6000061035156px) rotate(0deg) translate(-112.80000305175781px, -290.6000061035156px);transform: translate(112.80000305175781px, 290.6000061035156px) rotate(0deg) translate(-112.80000305175781px, -290.6000061035156px);-webkit-animation-timing-function: cubic-bezier(0, 0, 1, 1);animation-timing-function: cubic-bezier(0, 0, 1, 1);}.card-grafik-usluge:hover #el_mEAXbyQlb #el_k6SN4Mx3Wzo_an_ew25B3bdm {-webkit-animation-name: kf_el_k6SN4Mx3Wzo_an_ew25B3bdm;animation-name: kf_el_k6SN4Mx3Wzo_an_ew25B3bdm;}#el_F2bVOh0eDCS_an_il4IcXkYd {-webkit-animation-fill-mode: backwards;animation-fill-mode: backwards;-webkit-transform: translate(322.4938049316406px, 344.5px) rotate(0deg) translate(-322.4938049316406px, -344.5px);transform: translate(322.4938049316406px, 344.5px) rotate(0deg) translate(-322.4938049316406px, -344.5px);-webkit-animation-timing-function: cubic-bezier(0, 0, 1, 1);animation-timing-function: cubic-bezier(0, 0, 1, 1);}.card-grafik-usluge:hover #el_mEAXbyQlb #el_F2bVOh0eDCS_an_il4IcXkYd {-webkit-animation-name: kf_el_F2bVOh0eDCS_an_il4IcXkYd;animation-name: kf_el_F2bVOh0eDCS_an_il4IcXkYd;}#el_so1ZLgiCbH3_an_hSE7el7_v {-webkit-transform: translate(339.1000061035156px, 350.8999938964844px) rotate(0deg) translate(-339.1000061035156px, -350.8999938964844px);transform: translate(339.1000061035156px, 350.8999938964844px) rotate(0deg) translate(-339.1000061035156px, -350.8999938964844px);-webkit-animation-fill-mode: backwards;animation-fill-mode: backwards;-webkit-animation-timing-function: cubic-bezier(0, 0, 1, 1);animation-timing-function: cubic-bezier(0, 0, 1, 1);}.card-grafik-usluge:hover #el_mEAXbyQlb #el_so1ZLgiCbH3_an_hSE7el7_v {-webkit-animation-name: kf_el_so1ZLgiCbH3_an_hSE7el7_v;animation-name: kf_el_so1ZLgiCbH3_an_hSE7el7_v;}#el_PSBY1AFEAdO_an_sIut5Om1l {-webkit-animation-fill-mode: backwards;animation-fill-mode: backwards;-webkit-transform: translate(318.8999938964844px, 394.0150146484375px) rotate(0deg) translate(-318.8999938964844px, -394.0150146484375px);transform: translate(318.8999938964844px, 394.0150146484375px) rotate(0deg) translate(-318.8999938964844px, -394.0150146484375px);-webkit-animation-timing-function: cubic-bezier(0, 0, 1, 1);animation-timing-function: cubic-bezier(0, 0, 1, 1);}.card-grafik-usluge:hover #el_mEAXbyQlb #el_PSBY1AFEAdO_an_sIut5Om1l {-webkit-animation-name: kf_el_PSBY1AFEAdO_an_sIut5Om1l;animation-name: kf_el_PSBY1AFEAdO_an_sIut5Om1l;}#el_CiAhMwiXwgs_an_uBtSIeOw- {-webkit-animation-fill-mode: backwards;animation-fill-mode: backwards;-webkit-transform: translate(18.399999618530273px, 4.099999904632568px) translate(-18.399999618530273px, -4.099999904632568px) translate(0px, 0px);transform: translate(18.399999618530273px, 4.099999904632568px) translate(-18.399999618530273px, -4.099999904632568px) translate(0px, 0px);-webkit-animation-timing-function: cubic-bezier(0, 0, 1, 1);animation-timing-function: cubic-bezier(0, 0, 1, 1);}.card-grafik-usluge:hover #el_mEAXbyQlb #el_CiAhMwiXwgs_an_uBtSIeOw- {-webkit-animation-name: kf_el_CiAhMwiXwgs_an_uBtSIeOw-;animation-name: kf_el_CiAhMwiXwgs_an_uBtSIeOw-;}#el_QMF7OZ0VWw_an_iP3T2LfT9 {-webkit-animation-fill-mode: backwards;animation-fill-mode: backwards;-webkit-transform: translate(275.1000061035156px, 114.80000305175781px) translate(-275.1000061035156px, -114.80000305175781px) translate(0px, 0px);transform: translate(275.1000061035156px, 114.80000305175781px) translate(-275.1000061035156px, -114.80000305175781px) translate(0px, 0px);-webkit-animation-timing-function: cubic-bezier(0, 0, 1, 1);animation-timing-function: cubic-bezier(0, 0, 1, 1);}.card-grafik-usluge:hover #el_mEAXbyQlb #el_QMF7OZ0VWw_an_iP3T2LfT9 {-webkit-animation-name: kf_el_QMF7OZ0VWw_an_iP3T2LfT9;animation-name: kf_el_QMF7OZ0VWw_an_iP3T2LfT9;}#el_LIRZI2wom8G_an_5HoLl1FHM {-webkit-transform: translate(373.1000061035156px, 141.8000030517578px) translate(-373.1000061035156px, -141.8000030517578px) translate(0px, 0px);transform: translate(373.1000061035156px, 141.8000030517578px) translate(-373.1000061035156px, -141.8000030517578px) translate(0px, 0px);}#el_LIRZI2wom8G_an_UjEcq2O27 {-webkit-transform: translate(373.1000061035156px, 141.8000030517578px) rotate(0deg) translate(-373.1000061035156px, -141.8000030517578px);transform: translate(373.1000061035156px, 141.8000030517578px) rotate(0deg) translate(-373.1000061035156px, -141.8000030517578px);}</style><title>osiguranje imovine</title><g id="el_9la8D-T8vI"><g id="el_WR6MNYBaUV"><polygon points="239.2,0 196.5,132.9 198.9,132.9 241.7,0 &#x9;&#x9;" id="el_Se4c0gZMYS" /><polygon points="261.3,0 218.6,132.9 221,132.9 263.8,0 &#x9;&#x9;" id="el_rNYqHfZTa9" /><polygon points="228.2,34.5 228.2,36.5 251.1,36.5 251.5,34.5 &#x9;&#x9;" id="el_MixYJVn1lV" /><polygon points="232.9,21.6 232.9,23.6 255.8,23.6 256.2,21.6 &#x9;&#x9;" id="el_YbTZJpFSPr" /><polygon points="236.8,8.8 236.8,10.7 259.7,10.7 260.1,8.7 &#x9;&#x9;" id="el_NI5j8sejwX" /><polygon points="224,47.5 224,49.5 246.9,49.5 247.3,47.5 &#x9;&#x9;" id="el_lVilN6-DYE" /><polygon points="220.1,60.6 220.1,62.6 243,62.6 243.4,60.6 &#x9;&#x9;" id="el_isnx3gpReP" /><polygon points="216,74.1 215.1,76.1 238,76.1 238.4,74.1 &#x9;&#x9;" id="el_X5RMxkmqcY" /><polygon points="211.7,87.7 210.8,89.7 233.7,89.7 234.1,87.7 &#x9;&#x9;" id="el_6Ya7MlFBaJ" /><polygon points="207.7,100.9 206.8,102.9 229.7,102.9 230.1,100.9 &#x9;&#x9;" id="el_4ErTr5ZwkT" /><polygon points="204.4,114.5 203.5,116.4 226.4,116.4 226.8,114.5 &#x9;&#x9;" id="el_27QaWgWgCg" /><g id="el_QMF7OZ0VWw_an_iP3T2LfT9" data-animator-group="true" data-animator-type="0"><g id="el_QMF7OZ0VWw"><defs><path id="SVGID_1_" d="M346.1,116.5c-38.2,8.8-35.4,22.1-35.4,22.1s-22.4-12.3-29.9,5.3c-5.8,13.7,35.5,23.7,54.4,27.5&#xA;&#x9;&#x9;&#x9;&#x9;&#x9;c6.1,1.2,12.2,1.8,18.4,1.7c22.3-0.2,76.4-3.2,71.1-26.1c-6.6-28.8-40.6-10-40.6-10s0.1-22.1-25-22.1&#xA;&#x9;&#x9;&#x9;&#x9;&#x9;C354.8,114.9,350.4,115.5,346.1,116.5" /></defs><clipPath id="SVGID_2_"><use xlink:href="#SVGID_1_" style="overflow:visible;" /></clipPath><g id="el_1sI6ANZxbM"><linearGradient id="SVGID_3_" gradientUnits="userSpaceOnUse" x1="-749.1389" y1="346.205" x2="-748.1389" y2="346.205" gradientTransform="matrix(-144.78 0 0 144.78 -108035.2422 -49979.5117)"><stop offset="0" style="stop-color:#E0F0EB" /><stop offset="1" style="stop-color:#C0E4EF" /></linearGradient><rect x="275.1" y="114.8" width="154.9" height="58.4" id="el_XwAKWjgCxxI" /></g></g></g><g id="el_CiAhMwiXwgs_an_uBtSIeOw-" data-animator-group="true" data-animator-type="0"><g id="el_CiAhMwiXwgs"><defs><path id="SVGID_4_" d="M61.3,44.1c0.6,1.4-0.1,3-1.5,3.5c-0.5,0.2-1.1,0.3-1.6,0.1C50,46,34.8,43.8,28,49.1&#xA;&#x9;&#x9;&#x9;&#x9;&#x9;c-9.6,7.5-9.6,25-9.6,25h217.5c0,0,11.8-14.9,0-25c-6.5-5.5-14.2-5-19.8-3.3c-3.5,0.9-7-1.2-8-4.6c0-0.2-0.1-0.3-0.1-0.5&#xA;&#x9;&#x9;&#x9;&#x9;&#x9;c-1.3-6.1-5.4-14.2-17.1-18.9c-11.5-4.7-18.8,2.5-23,9.8c-0.9,1.6-2.9,2.1-4.4,1.3c-0.7-0.4-1.3-1-1.5-1.8&#xA;&#x9;&#x9;&#x9;&#x9;&#x9;c-3.6-11.6-16.4-26.9-58.2-26.9C50.7,4.1,56.6,32.3,61.3,44.1" /></defs><clipPath id="SVGID_5_"><use xlink:href="#SVGID_4_" style="overflow:visible;" /></clipPath><g id="el_Cv1XhWHC3sh"><linearGradient id="SVGID_6_" gradientUnits="userSpaceOnUse" x1="-740.6601" y1="345.39" x2="-739.6601" y2="345.39" gradientTransform="matrix(222.76 0 0 222.76 165007.8281 -76899.9922)"><stop offset="0" style="stop-color:#E0F0EB" /><stop offset="1" style="stop-color:#C0E4EF" /></linearGradient><rect x="18.4" y="4.1" width="229.3" height="70" id="el_0t5E8DOiKTJ" /></g></g></g><g id="el_IjYaSuvRXrg"><defs><rect id="SVGID_7_" width="425.1" height="394.1" /></defs><clipPath id="SVGID_8_"><use xlink:href="#SVGID_7_" style="overflow:visible;" /></clipPath><g id="el_H-ZqkYO5jj3"><g id="el_F2bVOh0eDCS_an_il4IcXkYd" data-animator-group="true" data-animator-type="1"><g id="el_F2bVOh0eDCS"><path d="M323.3,320.7c0,0-8.5-59.6,29.7-81.7c59.1,47.5,12.3,105.5,12.3,105.5L323.3,320.7z" id="el_hTRegEH0J7M" /><path d="M353,239l0.6,0.5l-7.9,70.5l36.3-25.2c0.1,0.5,0.1,1,0.2,1.5l-36.8,25.5l-2.3,20.3l-1.2-0.7l4.5-40.5&#xA;&#x9;&#x9;&#x9;&#x9;&#x9;&#x9;l-19.6-16.5c0.1-0.5,0.3-0.9,0.4-1.4l19.4,16.3l5.5-49.8L353,239" id="el_04gxWlOxBcE" /></g></g><g id="el_so1ZLgiCbH3_an_hSE7el7_v" data-animator-group="true" data-animator-type="1"><g id="el_so1ZLgiCbH3"><path d="M341,310.4c0,0,30.5-51.6,72.7-50c23,45.2-23.5,78.6-23.5,78.6l-51.1,11.9L341,310.4z" id="el_7JO__a95Ss5" /><path d="M370,277.2l7.9,25.4l34.8-42.2c0.3,0,0.7,0,1,0c0.1,0.2,0.2,0.4,0.3,0.5l-18.7,22.6l24.7-0.8&#xA;&#x9;&#x9;&#x9;&#x9;&#x9;&#x9;c0,0.2,0,0.5,0,0.7v0.6l-25.9,0.9l-31,37.7l43.4-0.1l-1,1.3H362l-22,26.8l-0.9,0.2l0.1-1.3l37.7-45.8l-8-25.7L370,277.2" id="el_yzAaeXLt2gv" /></g></g><g id="el_PSBY1AFEAdO_an_sIut5Om1l" data-animator-group="true" data-animator-type="1"><g id="el_PSBY1AFEAdO"><path d="M350.9,337.3c0,0,45.7-20.4,69.6,3.3c-15.4,66.9-101.6,52-101.6,52L350.9,337.3z" id="el_ZRuYYw3QXJB" /><path d="M420.5,340.6c-0.1,0.3-0.1,0.5-0.2,0.8l-63.9,22.8l31.4,19.4c-0.5,0.2-0.9,0.5-1.4,0.7l-31.6-19.6l-25,8.9&#xA;&#x9;&#x9;&#x9;&#x9;&#x9;&#x9;l1-1.8l48.6-17.3l12.2-25.3l1.4,0.1l-11.8,24.6l38.7-13.8L420.5,340.6z" id="el_zInxq73SPSv" /></g></g><g id="el_afk9RRklpFq"><path d="M126.9,265.5c0,0,39.6-60.9,9.2-104.5c-88.9,21.8-67.2,109.2-67.2,109.2L126.9,265.5z" id="el_PRwOc5RG2wD" /><path d="M136.1,161l-0.9,0.2l-27.3,81.1l-27-46.1c-0.3,0.5-0.7,1-1,1.5l27.3,46.6l-7.9,23.4l1.7-0.1l15.7-46.6l0,0&#xA;&#x9;&#x9;&#x9;&#x9;&#x9;&#x9;l29.9-8.1c0.1-0.6,0.2-1.1,0.2-1.7l-29.5,8l19.3-57.3C136.4,161.6,136.3,161.3,136.1,161" id="el_wOKc_pr6K3A" /></g><g id="el_k6SN4Mx3Wzo_an_ew25B3bdm" data-animator-group="true" data-animator-type="1"><g id="el_k6SN4Mx3Wzo"><path d="M112.8,245.3c0,0-7.1-72.1-54.1-91.8c-48.3,37.7-14.4,98-14.4,98l49.9,39.1L112.8,245.3z" id="el_BSDh9xi2un7" /><path d="M98,194.1l-21.6,23.8l-16.5-64l-1.1-0.5l-0.5,0.4l8.9,34.3l-26.6-13.5l-0.4,0.8l-0.3,0.7l27.9,14.1&#xA;&#x9;&#x9;&#x9;&#x9;&#x9;&#x9;l14.8,57.1l-47.5-22.2c0.1,0.7,0.3,1.3,0.4,2l47.6,22.2l10.5,40.5l0.8,0.7l0.6-1.5l-17.9-69.3l21.9-24.1&#xA;&#x9;&#x9;&#x9;&#x9;&#x9;&#x9;C98.5,195.1,98.3,194.7,98,194.1" id="el_lwJu9suRzwE" /></g></g><g id="el_fNKJyJuxjtn_an_zCgdqomta" data-animator-group="true" data-animator-type="1"><g id="el_fNKJyJuxjtn"><path d="M100.1,279.9c0,0-39.7-45.7-77.9-31.9C5,329.1,106.9,356.8,106.9,356.8L100.1,279.9z" id="el_Hh-qCMpcUqa" /><path d="M22.2,248c-0.1,0.3-0.1,0.6-0.2,0.9l58.3,57.5l-44.3,5.3l1.1,1.5l44.6-5.3l22.8,22.5l-0.2-2.5L60,284.1&#xA;&#x9;&#x9;&#x9;&#x9;&#x9;&#x9;l-0.4-33.9l-1.6-0.6l0.4,32.9l-35.3-34.8C22.8,247.8,22.5,247.9,22.2,248z" id="el_f4wY0HrU0Yv" /></g></g><path d="M95.3,52.9v73.2c0,4.1,4.9,7.5,11.1,7.6l20.4,0.2c4.5,0.1,8.1,2.5,8.1,5.6l0.4,63.7c0,3.1-3.6,5.6-8.1,5.6&#xA;&#x9;&#x9;&#x9;&#x9;&#x9;l-21.8,0.3c-6.2,0.1-11.1,3.5-11,7.7l1,177.4h186.7V52.9H95.3z" id="el_uetxqWOq2Ps" /><path d="M323.9,228.7l21.8-0.3c6.2-0.1,11.1-3.5,11-7.7l-0.8-143.1c-2.4,0.3-4.7,0.4-7.1,0.4&#xA;&#x9;&#x9;&#x9;&#x9;&#x9;c-9.7,0-18.9-6.2-25.1-13.1c-3-3.4-5.2-7.4-6.5-11.8H175.8v341h179.9v-82.8c0-4.2-4.9-7.5-11.1-7.6l-20.4-0.2&#xA;&#x9;&#x9;&#x9;&#x9;&#x9;c-4.5,0-8.1-2.5-8.1-5.6l-0.4-63.7C315.7,231.2,319.3,228.7,323.9,228.7" id="el_p6T3t7CYZVY" /><path d="M338.9,228.7l6.8-0.3c6.2-0.1,11.1-3.5,11-7.7l-0.9-167h-78.4v340.4h78.4v-82.8c0-4.2-4.9-7.5-11.1-7.6&#xA;&#x9;&#x9;&#x9;&#x9;&#x9;l-5.4-0.2c-4.5,0-8.1-2.5-8.1-5.6l-0.4-63.7C330.7,231.2,334.3,228.7,338.9,228.7" id="el_bCblWWskFYI" /><rect x="95.3" y="42.5" width="260" height="12.1" id="el_daPWENrCnCR" /><rect x="276.4" y="42.5" width="78.9" height="12.1" id="el_uziVcLtrxkw" /></g></g><g id="el_ZHOO1orFeW0"><defs><path id="SVGID_9_" d="M137.1,239h36.7c4,0,7.3,3.3,7.3,7.3v39.4c0,4-3.3,7.3-7.3,7.3h-36.7c-4,0-7.3-3.3-7.3-7.3v-39.4&#xA;&#x9;&#x9;&#x9;&#x9;&#x9;C129.8,242.3,133,239,137.1,239z" /></defs><clipPath id="SVGID_10_"><use xlink:href="#SVGID_9_" style="overflow:visible;" /></clipPath><g id="el_hSLHgP37Toz"><linearGradient id="SVGID_11_" gradientUnits="userSpaceOnUse" x1="-729.4943" y1="350.509" x2="-728.4943" y2="350.509" gradientTransform="matrix(51.29 0 0 51.29 37545.5391 -17711.6016)"><stop offset="0" style="stop-color:#E0F0EB" /><stop offset="1" style="stop-color:#C0E4EF" /></linearGradient><rect x="129.8" y="239" width="51.3" height="54" id="el_vFAtU3cmxgO" /></g></g><g id="el_nNoYD1AIQyj"><defs><rect id="SVGID_12_" width="425.1" height="394.1" /></defs><clipPath id="SVGID_13_"><use xlink:href="#SVGID_12_" style="overflow:visible;" /></clipPath><g id="el___ZTz5755ok"><rect x="152.8" y="239" width="7" height="54" id="el_rHc0CKut44K" /><rect x="120.5" y="263.4" width="71.5" height="5.3" id="el_Dbd_1UhVnlL" /></g></g><g id="el_I7WjilpqLe7"><defs><path id="SVGID_14_" d="M207.4,239h36.7c4,0,7.3,3.3,7.3,7.3v39.4c0,4-3.3,7.3-7.3,7.3h-36.7c-4,0-7.3-3.3-7.3-7.3v-39.4&#xA;&#x9;&#x9;&#x9;&#x9;&#x9;C200.1,242.3,203.3,239,207.4,239z" /></defs><clipPath id="SVGID_15_"><use xlink:href="#SVGID_14_" style="overflow:visible;" /></clipPath><g id="el_rcqP0bvDABw"><linearGradient id="SVGID_16_" gradientUnits="userSpaceOnUse" x1="-729.4944" y1="350.509" x2="-728.4944" y2="350.509" gradientTransform="matrix(51.29 0 0 51.29 37615.8516 -17711.6016)"><stop offset="0" style="stop-color:#E0F0EB" /><stop offset="1" style="stop-color:#C0E4EF" /></linearGradient><rect x="200.1" y="239" width="51.3" height="54" id="el_CclhpFeX85i" /></g></g><g id="el_-zLFHQcL1q7"><defs><rect id="SVGID_17_" width="425.1" height="394.1" /></defs><clipPath id="SVGID_18_"><use xlink:href="#SVGID_17_" style="overflow:visible;" /></clipPath><g id="el_u6pG4kJ4rUb"><rect x="223.1" y="239" width="7" height="54" id="el_IZRGM9i1sgf" /><rect x="190.8" y="263.4" width="64.1" height="5.3" id="el_4nQTmcDPJz7" /></g></g><g id="el_Jn5O2BeDP2d"><defs><path id="SVGID_19_" d="M173.2,128.7c-13.1,0-23.9,10.2-23.9,22.7v52.2h48.9v-52.2c0-12.5-10.8-22.7-23.9-22.7L173.2,128.7z" /></defs><clipPath id="SVGID_20_"><use xlink:href="#SVGID_19_" style="overflow:visible;" /></clipPath><g id="el_Dz1RzXDbwaB"><linearGradient id="SVGID_21_" gradientUnits="userSpaceOnUse" x1="-728.7946" y1="350.818" x2="-727.7946" y2="350.818" gradientTransform="matrix(48.93 0 0 48.93 35809.2305 -16999.4004)"><stop offset="0" style="stop-color:#E0F0EB" /><stop offset="1" style="stop-color:#C0E4EF" /></linearGradient><rect x="149.3" y="128.7" width="48.9" height="74.9" id="el_m1RNHRIFp-R" /></g></g><g id="el_hDQbqQRk8Dn"><defs><path id="SVGID_22_" d="M173.2,128.7c-13.1,0-23.9,10.2-23.9,22.7v52.2h48.9v-52.2c0-12.5-10.8-22.7-23.9-22.7L173.2,128.7z" /></defs><clipPath id="SVGID_23_"><use xlink:href="#SVGID_22_" style="overflow:visible;" /></clipPath><g id="el_3I-S1GizQeR"><linearGradient id="SVGID_24_" gradientUnits="userSpaceOnUse" x1="-728.7946" y1="350.818" x2="-727.7946" y2="350.818" gradientTransform="matrix(48.93 0 0 48.93 35809.2305 -16999.4004)"><stop offset="0" style="stop-color:#E0F0EB" /><stop offset="1" style="stop-color:#C0E4EF" /></linearGradient><rect x="149.3" y="128.7" width="48.9" height="74.9" id="el_YAIOgzLju35" /></g></g><g id="el_TY-of2cJEAC"><defs><rect id="SVGID_25_" width="425.1" height="394.1" /></defs><clipPath id="SVGID_26_"><use xlink:href="#SVGID_25_" style="overflow:visible;" /></clipPath><g id="el_iU0pwOv2eVS"><rect x="170.3" y="122.8" width="6.9" height="86.7" id="el_OPnXh9rPiCD" /><rect x="145.7" y="162.7" width="56" height="6.9" id="el_po7Cor_ixPx" /></g></g><g id="el_EEjhiKWaEyX"><defs><path id="SVGID_27_" d="M241.9,128.7c-13.1,0-23.9,10.2-23.9,22.7v52.2h48.9v-52.2c0-12.5-10.8-22.7-23.9-22.7L241.9,128.7z" /></defs><clipPath id="SVGID_28_"><use xlink:href="#SVGID_27_" style="overflow:visible;" /></clipPath><g id="el_xHuBJ0245Bq"><linearGradient id="SVGID_29_" gradientUnits="userSpaceOnUse" x1="-728.7946" y1="350.818" x2="-727.7946" y2="350.818" gradientTransform="matrix(48.93 0 0 48.93 35877.8516 -16999.4004)"><stop offset="0" style="stop-color:#E0F0EB" /><stop offset="1" style="stop-color:#C0E4EF" /></linearGradient><rect x="217.9" y="128.7" width="48.9" height="74.9" id="el_OxU7f_Y11WE" /></g></g><g id="el_GoY13MU63Lt"><defs><rect id="SVGID_30_" width="425.1" height="394.1" /></defs><clipPath id="SVGID_31_"><use xlink:href="#SVGID_30_" style="overflow:visible;" /></clipPath><g id="el_BBabcMa4N8u"><rect x="239" y="122.8" width="6.9" height="86.7" id="el_Uet6r3FKhme" /><rect x="213.8" y="162.7" width="56.3" height="6.9" id="el_C1hKjvm2BIG" /><path d="M163.7,79.4h-43c-1.3,0-2.3-1-2.3-2.3v-1.9c0-1.3,1-2.3,2.3-2.3h43c1.3,0,2.3,1,2.3,2.3v1.9&#xA;&#x9;&#x9;&#x9;&#x9;&#x9;C166.1,78.4,165,79.4,163.7,79.4" id="el_wjFuhgle8Mn" /><path d="M192.1,87.9h-43c-1.3,0-2.3-1-2.3-2.3v-1.9c0-1.3,1-2.3,2.3-2.3h43c1.3,0,2.3,1,2.3,2.3v1.9&#xA;&#x9;&#x9;&#x9;&#x9;&#x9;C194.5,86.8,193.4,87.9,192.1,87.9" id="el_bRkM6cUoRPq" /><path d="M223.3,348.4h-43c-1.3,0-2.3-1-2.3-2.3v-1.9c0-1.3,1-2.3,2.3-2.3h43c1.3,0,2.3,1,2.3,2.3v1.9&#xA;&#x9;&#x9;&#x9;&#x9;&#x9;C225.6,347.3,224.6,348.4,223.3,348.4" id="el_neo4A2LGE0n" /><path d="M258.2,101.2h-25.6c-1,0-1.8-0.8-1.8-1.8v-2.9c0-1,0.8-1.8,1.8-1.8l0,0h25.6c1,0,1.8,0.8,1.8,1.8&#xA;&#x9;&#x9;&#x9;&#x9;&#x9;c0,0,0,0,0,0v2.9C260,100.3,259.2,101.2,258.2,101.2" id="el_aCCpyPC9PnJ" /><path d="M232.3,338.9h-25.6c-1,0-1.8-0.8-1.8-1.8v-2.9c0-1,0.8-1.8,1.8-1.8h25.6c1,0,1.8,0.8,1.8,1.8v2.9&#xA;&#x9;&#x9;&#x9;&#x9;&#x9;C234.1,338.1,233.3,338.9,232.3,338.9" id="el_EMG6SAktf3V" /><g id="el_LIRZI2wom8G"><polygon points="403.3,148.8 407,155.9 399.3,154.2 373.1,145.9 &#x9;&#x9;&#x9;&#x9;&#x9;" id="el_5OL9XxbCByi" /><polygon points="407,155.9 394,155.1 397.1,153.5 &#x9;&#x9;&#x9;&#x9;&#x9;" id="el_LNPsFXRYCid" /><polygon points="403.3,148.8 405.6,141.8 373.1,145.9 &#x9;&#x9;&#x9;&#x9;&#x9;" id="el_sD6LSJrLqPo" /><polygon points="373.1,145.9 399.3,154.2 395.4,164.2 &#x9;&#x9;&#x9;&#x9;&#x9;" id="el_9nUfJeGUik-" /></g></g></g><g id="el_uEgguLkMeYh"><g id="el_Hg69DjegWjH"><defs><polygon id="SVGID_32_" points="108.3,98.6 148.4,111.2 127.2,99.5 116.4,97.4 &#x9;&#x9;&#x9;&#x9;&#x9;" /></defs><clipPath id="SVGID_33_"><use xlink:href="#SVGID_32_" style="overflow:visible;" /></clipPath><g id="el_ReT5lPHEyYS"><linearGradient id="SVGID_34_" gradientUnits="userSpaceOnUse" x1="-725.4695" y1="352.4024" x2="-724.4695" y2="352.4024" gradientTransform="matrix(40.15 0 0 40.15 29235.8613 -14044.6611)"><stop offset="0" style="stop-color:#F1F8F8" /><stop offset="1" style="stop-color:#C0E4EF" /></linearGradient><rect x="108.3" y="97.4" width="40.2" height="13.8" id="el_J6vTEsxdHMR" /></g></g><g id="el_0HdCHFUVFyK"><polyline points="148.4,111.2 108.8,101 108.3,98.6 &#x9;&#x9;&#x9;&#x9;" id="el_H90b69FwcPW" /><polygon points="107.6,107.8 107.7,107.9 109.3,114.1 148.3,111.2 &#x9;&#x9;&#x9;&#x9;" id="el_ICOQaOq0YrX" /></g><g id="el_pZaNlJKogiv"><defs><polygon id="SVGID_35_" points="100.1,104.2 111.6,110.1 148.1,111.2 105.7,99.6 &#x9;&#x9;&#x9;&#x9;&#x9;" /></defs><clipPath id="SVGID_36_"><use xlink:href="#SVGID_35_" style="overflow:visible;" /></clipPath><g id="el_foLon1l-JGZ"><linearGradient id="SVGID_37_" gradientUnits="userSpaceOnUse" x1="-728.529" y1="350.9773" x2="-727.529" y2="350.9773" gradientTransform="matrix(48.09 0 0 48.09 35135.0195 -16773.1094)"><stop offset="0" style="stop-color:#F1F8F8" /><stop offset="1" style="stop-color:#C0E4EF" /></linearGradient><rect x="100.1" y="99.6" width="48.1" height="11.5" id="el_mxRVYBv00Eh" /></g></g></g><g id="el_-b2KQkdBhVQ"><defs><rect id="SVGID_38_" width="425.1" height="394.1" /></defs><clipPath id="SVGID_39_"><use xlink:href="#SVGID_38_" style="overflow:visible;" /></clipPath><g id="el_Pn20OBv24Sl"><path d="M317.1,154.7h-25.6c-1,0-1.8-0.8-1.8-1.8V150c0-1,0.8-1.8,1.8-1.8h25.6c1,0,1.8,0.8,1.8,1.8v2.9&#xA;&#x9;&#x9;&#x9;&#x9;&#x9;C318.9,153.9,318.1,154.7,317.1,154.7" id="el_HnX9QNPeCgk" /><path d="M342.8,335.3h-25.6c-1,0-1.8-0.8-1.8-1.8v-2.9c0-1,0.8-1.8,1.8-1.8h25.6c1,0,1.8,0.8,1.8,1.8v2.9&#xA;&#x9;&#x9;&#x9;&#x9;&#x9;C344.6,334.5,343.8,335.3,342.8,335.3" id="el_SNVl1U6vmvM" /><path d="M345.2,166.1h-38.6c-1.3,0-2.3-1-2.3-2.3v-2.4c0-1.3,1-2.3,2.3-2.3h38.6c1.3,0,2.3,1,2.3,2.3v2.4&#xA;&#x9;&#x9;&#x9;&#x9;&#x9;C347.5,165,346.5,166.1,345.2,166.1" id="el_NZd1L290ZDV" /></g></g></g></g></svg>