<svg xmlns="http://www.w3.org/2000/svg" xmlns:xlink="http://www.w3.org/1999/xlink" viewBox="0 0 923.66 388.69"><defs><style>.cls-1{fill:#01898c;}.cls-2{fill:#00666a;}.cls-3{fill:#ffd247;}.cls-4{fill:#fff;}.cls-5{fill:#63c1c5;}.cls-6{fill:#043c5e;}.cls-7{fill:url(#_ÂÁ_Ï_ÌÌ_È_ËÂÌÚ_3);}.cls-8{fill:#212b53;}.cls-9{fill:url(#_ÂÁ_Ï_ÌÌ_È_ËÂÌÚ_3-2);}.cls-10{fill:url(#_ÂÁ_Ï_ÌÌ_È_ËÂÌÚ_3-3);}.cls-11{fill:url(#_ÂÁ_Ï_ÌÌ_È_ËÂÌÚ_3-4);}.cls-12{fill:url(#_ÂÁ_Ï_ÌÌ_È_ËÂÌÚ_3-5);}.cls-13{fill:url(#_ÂÁ_Ï_ÌÌ_È_ËÂÌÚ_3-6);}.cls-14{fill:url(#_ÂÁ_Ï_ÌÌ_È_ËÂÌÚ_3-7);}.cls-15{fill:url(#_ÂÁ_Ï_ÌÌ_È_ËÂÌÚ_3-8);}.cls-16{fill:url(#_ÂÁ_Ï_ÌÌ_È_ËÂÌÚ_3-9);}.cls-17{fill:url(#_ÂÁ_Ï_ÌÌ_È_ËÂÌÚ_3-10);}.cls-18{fill:url(#_ÂÁ_Ï_ÌÌ_È_ËÂÌÚ_3-11);}.cls-19{fill:url(#_ÂÁ_Ï_ÌÌ_È_ËÂÌÚ_3-12);}.cls-20{fill:url(#_ÂÁ_Ï_ÌÌ_È_ËÂÌÚ_3-13);}.cls-21{fill:url(#_ÂÁ_Ï_ÌÌ_È_ËÂÌÚ_3-14);}.cls-22{fill:url(#_ÂÁ_Ï_ÌÌ_È_ËÂÌÚ_3-15);}</style><linearGradient id="_ÂÁ_Ï_ÌÌ_È_ËÂÌÚ_3" x1="41.01" y1="309.03" x2="434.84" y2="309.03" gradientTransform="translate(475.85 618.06) rotate(-180)" gradientUnits="userSpaceOnUse"><stop offset="0" stop-color="#e0f0eb"/><stop offset="1" stop-color="#c0e4ef"/></linearGradient><linearGradient id="_ÂÁ_Ï_ÌÌ_È_ËÂÌÚ_3-2" x1="270.31" y1="216.16" x2="373.4" y2="216.16" gradientTransform="matrix(1, 0, 0, 1, 0, 0)" xlink:href="#_ÂÁ_Ï_ÌÌ_È_ËÂÌÚ_3"/><linearGradient id="_ÂÁ_Ï_ÌÌ_È_ËÂÌÚ_3-3" x1="65.99" y1="221.25" x2="175.83" y2="221.25" gradientTransform="matrix(1, 0, 0, 1, 0, 0)" xlink:href="#_ÂÁ_Ï_ÌÌ_È_ËÂÌÚ_3"/><linearGradient id="_ÂÁ_Ï_ÌÌ_È_ËÂÌÚ_3-4" x1="166.16" y1="278.16" x2="195.86" y2="278.16" gradientTransform="matrix(1, 0, 0, 1, 0, 0)" xlink:href="#_ÂÁ_Ï_ÌÌ_È_ËÂÌÚ_3"/><linearGradient id="_ÂÁ_Ï_ÌÌ_È_ËÂÌÚ_3-5" x1="79.46" y1="271.13" x2="103.64" y2="271.13" gradientTransform="matrix(1, 0, 0, 1, 0, 0)" xlink:href="#_ÂÁ_Ï_ÌÌ_È_ËÂÌÚ_3"/><linearGradient id="_ÂÁ_Ï_ÌÌ_È_ËÂÌÚ_3-6" x1="439.17" y1="273.33" x2="458.6" y2="273.33" gradientTransform="matrix(1, 0, 0, 1, 0, 0)" xlink:href="#_ÂÁ_Ï_ÌÌ_È_ËÂÌÚ_3"/><linearGradient id="_ÂÁ_Ï_ÌÌ_È_ËÂÌÚ_3-7" x1="299.59" y1="249.62" x2="317.58" y2="249.62" gradientTransform="translate(539.3 -73.35) rotate(86.57)" xlink:href="#_ÂÁ_Ï_ÌÌ_È_ËÂÌÚ_3"/><linearGradient id="_ÂÁ_Ï_ÌÌ_È_ËÂÌÚ_3-8" x1="1110.37" y1="309.03" x2="1504.2" y2="309.03" gradientTransform="matrix(-1, 0, 0, 1, 2006.16, 0)" xlink:href="#_ÂÁ_Ï_ÌÌ_È_ËÂÌÚ_3"/><linearGradient id="_ÂÁ_Ï_ÌÌ_È_ËÂÌÚ_3-9" x1="623.51" y1="221.25" x2="764.77" y2="221.25" gradientTransform="matrix(1, 0, 0, 1, 0, 0)" xlink:href="#_ÂÁ_Ï_ÌÌ_È_ËÂÌÚ_3"/><linearGradient id="_ÂÁ_Ï_ÌÌ_È_ËÂÌÚ_3-10" x1="1339.67" y1="216.16" x2="1442.76" y2="216.16" gradientTransform="matrix(-1, 0, 0, 1, 2006.16, 0)" xlink:href="#_ÂÁ_Ï_ÌÌ_È_ËÂÌÚ_3"/><linearGradient id="_ÂÁ_Ï_ÌÌ_È_ËÂÌÚ_3-11" x1="1135.35" y1="221.25" x2="1245.19" y2="221.25" gradientTransform="matrix(-1, 0, 0, 1, 2006.16, 0)" xlink:href="#_ÂÁ_Ï_ÌÌ_È_ËÂÌÚ_3"/><linearGradient id="_ÂÁ_Ï_ÌÌ_È_ËÂÌÚ_3-12" x1="1235.52" y1="278.16" x2="1265.22" y2="278.16" gradientTransform="matrix(-1, 0, 0, 1, 2006.16, 0)" xlink:href="#_ÂÁ_Ï_ÌÌ_È_ËÂÌÚ_3"/><linearGradient id="_ÂÁ_Ï_ÌÌ_È_ËÂÌÚ_3-13" x1="1148.82" y1="271.13" x2="1173" y2="271.13" gradientTransform="matrix(-1, 0, 0, 1, 2006.16, 0)" xlink:href="#_ÂÁ_Ï_ÌÌ_È_ËÂÌÚ_3"/><linearGradient id="_ÂÁ_Ï_ÌÌ_È_ËÂÌÚ_3-14" x1="1508.53" y1="273.33" x2="1527.96" y2="273.33" gradientTransform="matrix(-1, 0, 0, 1, 2006.16, 0)" xlink:href="#_ÂÁ_Ï_ÌÌ_È_ËÂÌÚ_3"/><linearGradient id="_ÂÁ_Ï_ÌÌ_È_ËÂÌÚ_3-15" x1="1368.95" y1="249.62" x2="1386.94" y2="249.62" gradientTransform="matrix(-1, -0.06, -0.06, 1, 2018.62, 82.88)" xlink:href="#_ÂÁ_Ï_ÌÌ_È_ËÂÌÚ_3"/></defs><title>kasko</title><g id="Layer_2" data-name="Layer 2"><g id="_ÎÓÈ_1" data-name="—ÎÓÈ_1"><path class="cls-1" d="M245.48,229.8s80.1-127.16,15.75-216.5C77.94,61.24,125.57,241.37,125.57,241.37Z"/><path class="cls-2" d="M261.23,13.3l-1.89.51-54,168.65L148.19,88q-1,1.54-2,3.1L204,186.63,188.47,235.3,192,235l31-97h0l61.53-17.65c.15-1.18.3-2.37.43-3.56l-60.76,17.42L262.41,15c-.4-.57-.77-1.14-1.18-1.71Z"/><path class="cls-3" d="M101.07,0C2.29,79.54,74.26,203.18,74.26,203.18l77.79,59.08A45.83,45.83,0,0,1,178.81,282l37-93.68S198.89,39.38,101.07,0Z"/><path class="cls-4" d="M54.87,153.09l99.05,44.47L176,278.11q1.47,1.86,2.77,3.86l1-2.56L140.6,136.6l44.51-50.45q-.78-1.59-1.59-3.18l-44,49.83L103.36,1c-.77-.33-1.52-.66-2.3-1-.39.31-.75.63-1.13.95l19.39,70.6L63.83,44.47c-.27.52-.52,1-.79,1.56l-.68,1.39,58.12,28.35,32.31,117.65L53.89,149C54.21,150.4,54.53,151.75,54.87,153.09Z"/><path class="cls-5" d="M62,318.33c11.2-31.12,40.11-52.1,72.27-57a43.83,43.83,0,0,1,34.55,9.47l-3.25-31.31S82.15,146.35,3.53,176C-10.59,247.58,19.66,298.51,59.06,333.4A50.73,50.73,0,0,1,62,318.33Z"/><path class="cls-4" d="M105,270.75,82.82,249.53l-1.92-70.08q-1.66-.66-3.34-1.28l1.86,68.11-74.16-71c-.58.21-1.16.4-1.74.61h0c-.13.65-.24,1.29-.36,1.94l98.77,94.5Q103.45,271.54,105,270.75Z"/><path class="cls-4" d="M69.77,302.49l-35.59,4.78q1.2,1.52,2.43,3l31-4.16Q68.66,304.27,69.77,302.49Z"/><path class="cls-3" d="M699.91,201.2s-56.34-123.72,12.21-196C870.58,70.47,806,226.14,806,226.14Z"/><path class="cls-4" d="M712.12,5.21l1.64.69,27.86,157.74,62.75-77.73q.72,1.51,1.4,3L742.3,167.54l8,45.52-3.16-.74-16-90.74h0l-53-23.3c0-1.08,0-2.16,0-3.24l52.34,23L710.85,6.6c.42-.46.83-.93,1.27-1.39Z"/><path class="cls-1" d="M731.58,167.6S764.83,36.17,857.3,12.76c78.87,83.31-.68,185.39-.68,185.39L753.43,256.51Z"/><path class="cls-2" d="M773.3,77.1l33.35,50L855.13,13.36c.73-.2,1.44-.41,2.18-.6.31.33.6.66.9,1l-26,60.93,53-17.52c.18.5.34,1,.52,1.5l.44,1.33L830.68,78.33,787.42,179.87l94.05-27.78c-.45,1.19-.91,2.36-1.37,3.52l-94.2,27.82-30.72,72.1-1.74,1-.7-2.86L805.25,130.4,771.49,79.76Q772.38,78.43,773.3,77.1Z"/><path class="cls-6" d="M881.19,295.06c26.53-26.16,45.15-62.49,42.15-112.71-66.87-36.1-153,37.27-153,37.27L752,295.06Z"/><path class="cls-2" d="M770.79,295.06l25.58-18.59L864,295.06H875.3l-75.83-20.84,124-90.09c0-.59-.05-1.18-.09-1.78h0c-.49-.27-1-.51-1.49-.76l-75.1,54.58,10-60.83q-1.58.35-3.15.74l-10.24,62.59-77.6,56.4Z"/><rect class="cls-7" x="41.01" y="288.35" width="393.83" height="41.37" transform="translate(475.85 618.06) rotate(180)"/><path class="cls-8" d="M66,247.07H430.74s19.69,0,32.47,25.56c11.07,22.14,3,64.23.6,74.26h-30v-.69a51.64,51.64,0,0,0-103.28,0v.69H144.22v-.69a51.64,51.64,0,0,0-103.28,0v.69H33.18V293.36C33.18,262.07,66,247.07,66,247.07Z"/><polygon class="cls-4" points="313.3 247.07 172.03 247.07 182.11 195.44 264.01 195.44 313.3 247.07"/><path class="cls-6" d="M313.3,347.07v-100l-43-51.62H182l-10,51.64s-6.56,7.25-12.09,12.78-5.87,16.93-5.87,16.93v70Z"/><polygon class="cls-5" points="172.03 247.07 182.05 195.44 270.31 195.46 313.29 247.07 172.03 247.07"/><path class="cls-9" d="M373.4,247.07s-68.74-61.83-93.61-61.83c-5.18,5.18-9.48,10.2-9.48,10.2l43,51.62Z"/><polygon class="cls-6" points="279.8 185.25 110.55 185.25 97.25 195.44 270.47 195.44 279.8 185.25"/><path class="cls-10" d="M66,247.07s3.45-30.91,31.26-51.64h78.58l-10,51.64Z"/><ellipse class="cls-11" cx="181.01" cy="278.16" rx="14.85" ry="2.76"/><circle class="cls-12" cx="91.55" cy="271.13" r="12.09"/><circle class="cls-8" cx="382.38" cy="345.52" r="43.18"/><circle class="cls-8" cx="92.19" cy="345.52" r="43.18"/><path class="cls-13" d="M441,263.64a5.06,5.06,0,0,1,3.45-1.05l14.16,17.24a5.06,5.06,0,0,1-1.7,3.18c-3.13,2.57-9.23.32-13.62-5S437.85,266.21,441,263.64Z"/><circle class="cls-1" cx="382.17" cy="345.52" r="27.29"/><circle class="cls-3" cx="382.17" cy="345.52" r="27.29"/><circle class="cls-3" cx="92.19" cy="345.52" r="27.29"/><polygon class="cls-6" points="175.72 195.44 182.11 195.44 172.03 247.07 165.81 247.07 175.72 195.44"/><polygon class="cls-6" points="317.09 247.07 271.24 193.46 265.32 194.88 309.32 247.07 317.09 247.07"/><ellipse class="cls-14" cx="308.59" cy="249.62" rx="12.09" ry="8.98" transform="translate(40.95 542.72) rotate(-86.57)"/><rect class="cls-15" x="501.96" y="288.35" width="393.83" height="41.37"/><path class="cls-1" d="M870.81,247.07H506.06s-19.69,0-32.47,25.56c-11.07,22.14-3,64.23-.6,74.26h30v-.69a51.64,51.64,0,0,1,103.28,0v.69H792.58v-.69a51.64,51.64,0,0,1,103.28,0v.69h7.77V293.36C903.63,262.07,870.81,247.07,870.81,247.07Z"/><polygon class="cls-4" points="623.5 247.07 764.77 247.07 754.69 195.44 672.79 195.44 623.5 247.07"/><path class="cls-5" d="M623.5,347.07v-100l43-51.62h88.27l10,51.64s6.56,7.25,12.09,12.78,5.87,16.93,5.87,16.93v70Z"/><polygon class="cls-16" points="764.77 247.07 754.75 195.44 666.49 195.46 623.51 247.07 764.77 247.07"/><path class="cls-17" d="M563.4,247.07s68.74-61.83,93.61-61.83c5.18,5.18,9.48,10.2,9.48,10.2l-43,51.62Z"/><polygon class="cls-1" points="657 185.25 826.25 185.25 839.55 195.44 666.33 195.44 657 185.25"/><path class="cls-18" d="M870.81,247.07s-3.45-30.91-31.26-51.64H761l10,51.64Z"/><ellipse class="cls-19" cx="755.79" cy="278.16" rx="14.85" ry="2.76"/><circle class="cls-20" cx="845.25" cy="271.13" r="12.09"/><circle class="cls-6" cx="554.42" cy="345.52" r="43.18"/><circle class="cls-6" cx="844.61" cy="345.52" r="43.18"/><path class="cls-21" d="M495.82,263.64a5.06,5.06,0,0,0-3.45-1.05L478.2,279.83a5.06,5.06,0,0,0,1.7,3.18c3.13,2.57,9.23.32,13.62-5S498.95,266.21,495.82,263.64Z"/><circle class="cls-1" cx="554.63" cy="345.52" r="27.29"/><circle class="cls-5" cx="554.63" cy="345.52" r="27.29"/><circle class="cls-5" cx="844.61" cy="345.52" r="27.29"/><polygon class="cls-1" points="761.08 195.44 754.69 195.44 764.77 247.07 770.99 247.07 761.08 195.44"/><polygon class="cls-1" points="619.71 247.07 665.56 193.46 671.48 194.88 627.48 247.07 619.71 247.07"/><ellipse class="cls-22" cx="628.21" cy="249.62" rx="8.98" ry="12.09" transform="translate(-13.81 38.03) rotate(-3.43)"/><path class="cls-3" d="M424.06,221.75a1.73,1.73,0,0,0,0-2.45L407.4,202.83a1.73,1.73,0,1,0-2.44,2.47l16.65,16.47A1.73,1.73,0,0,0,424.06,221.75Z"/><path class="cls-3" d="M497.18,221.36a1.73,1.73,0,0,1,0-2.45l16.47-16.65a1.73,1.73,0,1,1,2.47,2.44l-16.47,16.65A1.73,1.73,0,0,1,497.18,221.36Z"/><path class="cls-3" d="M465.83,215.45a1.73,1.73,0,0,0,1.73-1.74l-.13-23.42a1.74,1.74,0,1,0-3.47,0l.13,23.42A1.73,1.73,0,0,0,465.83,215.45Z"/></g></g></svg>