<svg version="1.1" id="el_NSyvL7YSP" xmlns="http://www.w3.org/2000/svg" xmlns:xlink="http://www.w3.org/1999/xlink" x="0px" y="0px" viewBox="0 0 1249 388" style="enable-background:new 0 0 1249.7 388.7;" xml:space="preserve"><style>@-webkit-keyframes kf_el_Q5VYXWOGA44_an_WHhuYcsIv{0%{opacity: 1;}23.33%{opacity: 0;}66.67%{opacity: 0;}73.33%{opacity: 1;}100%{opacity: 1;}}@keyframes kf_el_Q5VYXWOGA44_an_WHhuYcsIv{0%{opacity: 1;}23.33%{opacity: 0;}66.67%{opacity: 0;}73.33%{opacity: 1;}100%{opacity: 1;}}@-webkit-keyframes kf_el_lz1lkdVijzJ_an_1IRQOe3ss{0%{-webkit-transform: translate(196.1999969482422px, 185.1999969482422px) translate(-196.1999969482422px, -185.1999969482422px) translate(0px, 0px);transform: translate(196.1999969482422px, 185.1999969482422px) translate(-196.1999969482422px, -185.1999969482422px) translate(0px, 0px);}63.33%{-webkit-transform: translate(196.1999969482422px, 185.1999969482422px) translate(-196.1999969482422px, -185.1999969482422px) translate(-60px, 0px);transform: translate(196.1999969482422px, 185.1999969482422px) translate(-196.1999969482422px, -185.1999969482422px) translate(-60px, 0px);}73.33%{-webkit-transform: translate(196.1999969482422px, 185.1999969482422px) translate(-196.1999969482422px, -185.1999969482422px) translate(0px, 0px);transform: translate(196.1999969482422px, 185.1999969482422px) translate(-196.1999969482422px, -185.1999969482422px) translate(0px, 0px);}100%{-webkit-transform: translate(196.1999969482422px, 185.1999969482422px) translate(-196.1999969482422px, -185.1999969482422px) translate(0px, 0px);transform: translate(196.1999969482422px, 185.1999969482422px) translate(-196.1999969482422px, -185.1999969482422px) translate(0px, 0px);}}@keyframes kf_el_lz1lkdVijzJ_an_1IRQOe3ss{0%{-webkit-transform: translate(196.1999969482422px, 185.1999969482422px) translate(-196.1999969482422px, -185.1999969482422px) translate(0px, 0px);transform: translate(196.1999969482422px, 185.1999969482422px) translate(-196.1999969482422px, -185.1999969482422px) translate(0px, 0px);}63.33%{-webkit-transform: translate(196.1999969482422px, 185.1999969482422px) translate(-196.1999969482422px, -185.1999969482422px) translate(-60px, 0px);transform: translate(196.1999969482422px, 185.1999969482422px) translate(-196.1999969482422px, -185.1999969482422px) translate(-60px, 0px);}73.33%{-webkit-transform: translate(196.1999969482422px, 185.1999969482422px) translate(-196.1999969482422px, -185.1999969482422px) translate(0px, 0px);transform: translate(196.1999969482422px, 185.1999969482422px) translate(-196.1999969482422px, -185.1999969482422px) translate(0px, 0px);}100%{-webkit-transform: translate(196.1999969482422px, 185.1999969482422px) translate(-196.1999969482422px, -185.1999969482422px) translate(0px, 0px);transform: translate(196.1999969482422px, 185.1999969482422px) translate(-196.1999969482422px, -185.1999969482422px) translate(0px, 0px);}}@-webkit-keyframes kf_el_mTI-brhVnJU_an_RawG00YfP{0%{-webkit-transform: translate(630.8963012695312px, 185.1999969482422px) translate(-630.8963012695312px, -185.1999969482422px) translate(0px, 0px);transform: translate(630.8963012695312px, 185.1999969482422px) translate(-630.8963012695312px, -185.1999969482422px) translate(0px, 0px);}63.33%{-webkit-transform: translate(630.8963012695312px, 185.1999969482422px) translate(-630.8963012695312px, -185.1999969482422px) translate(60px, 0px);transform: translate(630.8963012695312px, 185.1999969482422px) translate(-630.8963012695312px, -185.1999969482422px) translate(60px, 0px);}73.33%{-webkit-transform: translate(630.8963012695312px, 185.1999969482422px) translate(-630.8963012695312px, -185.1999969482422px) translate(0px, 0px);transform: translate(630.8963012695312px, 185.1999969482422px) translate(-630.8963012695312px, -185.1999969482422px) translate(0px, 0px);}100%{-webkit-transform: translate(630.8963012695312px, 185.1999969482422px) translate(-630.8963012695312px, -185.1999969482422px) translate(0px, 0px);transform: translate(630.8963012695312px, 185.1999969482422px) translate(-630.8963012695312px, -185.1999969482422px) translate(0px, 0px);}}@keyframes kf_el_mTI-brhVnJU_an_RawG00YfP{0%{-webkit-transform: translate(630.8963012695312px, 185.1999969482422px) translate(-630.8963012695312px, -185.1999969482422px) translate(0px, 0px);transform: translate(630.8963012695312px, 185.1999969482422px) translate(-630.8963012695312px, -185.1999969482422px) translate(0px, 0px);}63.33%{-webkit-transform: translate(630.8963012695312px, 185.1999969482422px) translate(-630.8963012695312px, -185.1999969482422px) translate(60px, 0px);transform: translate(630.8963012695312px, 185.1999969482422px) translate(-630.8963012695312px, -185.1999969482422px) translate(60px, 0px);}73.33%{-webkit-transform: translate(630.8963012695312px, 185.1999969482422px) translate(-630.8963012695312px, -185.1999969482422px) translate(0px, 0px);transform: translate(630.8963012695312px, 185.1999969482422px) translate(-630.8963012695312px, -185.1999969482422px) translate(0px, 0px);}100%{-webkit-transform: translate(630.8963012695312px, 185.1999969482422px) translate(-630.8963012695312px, -185.1999969482422px) translate(0px, 0px);transform: translate(630.8963012695312px, 185.1999969482422px) translate(-630.8963012695312px, -185.1999969482422px) translate(0px, 0px);}}#el_NSyvL7YSP *{-webkit-animation-duration: 1s;animation-duration: 1s;-webkit-animation-iteration-count: infinite;animation-iteration-count: infinite;-webkit-animation-play-state: running;animation-play-state: running;-webkit-animation-timing-function: cubic-bezier(0, 0, 1, 1);animation-timing-function: cubic-bezier(0, 0, 1, 1);}#el_YZn6Dxl3He{fill: #01898C;}#el_uMkEBBbf0h{fill: #00666A;}#el_n7no1Mtt4u{fill: #FFD247;}#el_qzo6_JkLRD{fill: #FFFFFF;}#el_m4S5u6_JiC{fill: #63C1C5;}#el_F2J1pYtGW7{fill: #FFFFFF;}#el_8Ggeo5EKV0{fill: #FFD247;}#el_P8vCzs6VZ3{fill: #FFFFFF;}#el_-d6lt5G20Q{fill: #01898C;}#el_4U5g2JeQ81{fill: #00666A;}#el_l1Ps2Bb8pw{fill: #043C5E;}#el_yPUoUY0pHod{fill: #00666A;}#el_BBSIIZNmvSz{fill: #FFFFFF;}#el_L0JKW4_oov8{fill: url(#SVGID_1_);}#el_J7dyZH6LGkp{fill: #212B53;}#el_tkr8690Qw1I{fill: #FFFFFF;}#el_ghYoykSo1c8{fill: #043C5E;}#el_I7MVD5jaV2R{fill: #63C1C5;}#el_OywIQC8_dls{fill: url(#SVGID_2_);}#el_kZqeqdm443_{fill: #043C5E;}#el_-4dr04v0bW4{fill: url(#SVGID_3_);}#el_k9JUCupuGgt{fill: url(#SVGID_4_);}#el_WwMOGGCqz95{fill: url(#SVGID_5_);}#el_iUh-MFQqzSl{fill: #212B53;}#el_GQhGyXqh2K7{fill: #212B53;-webkit-transform: matrix(0.3827, -0.9239, 0.9239, 0.3827, -161.6742, 449.068);transform: matrix(0.3827, -0.9239, 0.9239, 0.3827, -161.6742, 449.068);}#el_M7gNK8ZsTsK{fill: url(#SVGID_6_);}#el_xAf2blBLVfh{fill: #01898C;}#el_9DVaBufGSAL{fill: #FFD247;}#el_Ft50neIlCNN{fill: #FFD247;-webkit-transform: matrix(0.9016, -0.4325, 0.4325, 0.9016, -124.3259, 144.3499);transform: matrix(0.9016, -0.4325, 0.4325, 0.9016, -124.3259, 144.3499);}#el_NvnVRpx4flq{fill: #043C5E;}#el_bXOW29CqU72{fill: #043C5E;}#el_8jHaZgHxH4I{fill: url(#SVGID_7_);}#el_mB8PzQ_N2cv{fill: url(#SVGID_8_);}#el_zJXwqHaOxES{fill: #01898C;}#el_1y-bHgmxi00{fill: #FFFFFF;}#el_L6CltvMyCUt{fill: #63C1C5;}#el_GCb2KBX4fB9{fill: url(#SVGID_9_);}#el_rVDSt83gC7L{fill: url(#SVGID_10_);}#el_1FbI3EJngBc{fill: #01898C;}#el_oedGFt4_6pz{fill: url(#SVGID_11_);}#el_8zTR7aWLkB9{fill: url(#SVGID_12_);}#el_w5YEwlHsZjY{fill: url(#SVGID_13_);}#el_RD8yJqEJOcJ{fill: #043C5E;}#el__9aSE60iGJ5{fill: #043C5E;}#el_cPe03jzK46X{fill: url(#SVGID_14_);}#el_EEJ4J5eP2kd{fill: #01898C;}#el_yqBgFSXRX3l{fill: #63C1C5;}#el_yZoTmkciuHh{fill: #63C1C5;}#el_XZeo_73H5VJ{fill: #01898C;}#el_sD798Ks58mP{fill: #01898C;}#el_6Eb_8frpQLU{fill: url(#SVGID_15_);}#el_wzY7_4VWv12{fill: #FFD247;}#el_NsywplXN-p1{fill: #FFD247;}#el_5KusELyxJeL{fill: #FFD247;}#el_mTI-brhVnJU_an_RawG00YfP{-webkit-animation-fill-mode: backwards;animation-fill-mode: backwards;-webkit-transform: translate(630.8963012695312px, 185.1999969482422px) translate(-630.8963012695312px, -185.1999969482422px) translate(0px, 0px);transform: translate(630.8963012695312px, 185.1999969482422px) translate(-630.8963012695312px, -185.1999969482422px) translate(0px, 0px);-webkit-animation-timing-function: cubic-bezier(0, 0, 1, 1);animation-timing-function: cubic-bezier(0, 0, 1, 1);}.card-body-grafik-usluge:hover #el_NSyvL7YSP #el_mTI-brhVnJU_an_RawG00YfP{-webkit-animation-name: kf_el_mTI-brhVnJU_an_RawG00YfP;animation-name: kf_el_mTI-brhVnJU_an_RawG00YfP;}#el_lz1lkdVijzJ_an_1IRQOe3ss{-webkit-animation-fill-mode: backwards;animation-fill-mode: backwards;-webkit-transform: translate(196.1999969482422px, 185.1999969482422px) translate(-196.1999969482422px, -185.1999969482422px) translate(0px, 0px);transform: translate(196.1999969482422px, 185.1999969482422px) translate(-196.1999969482422px, -185.1999969482422px) translate(0px, 0px);-webkit-animation-timing-function: cubic-bezier(0, 0, 1, 1);animation-timing-function: cubic-bezier(0, 0, 1, 1);}.card-body-grafik-usluge:hover #el_NSyvL7YSP #el_lz1lkdVijzJ_an_1IRQOe3ss{-webkit-animation-name: kf_el_lz1lkdVijzJ_an_1IRQOe3ss;animation-name: kf_el_lz1lkdVijzJ_an_1IRQOe3ss;}#el_Q5VYXWOGA44{-webkit-animation-fill-mode: backwards;animation-fill-mode: backwards;opacity: 1;-webkit-animation-timing-function: cubic-bezier(0, 0, 1, 1);animation-timing-function: cubic-bezier(0, 0, 1, 1);}.card-body-grafik-usluge:hover #el_NSyvL7YSP #el_Q5VYXWOGA44{-webkit-animation-name: kf_el_Q5VYXWOGA44_an_WHhuYcsIv;animation-name: kf_el_Q5VYXWOGA44_an_WHhuYcsIv;}</style><title></title><g id="el_18MsUgJ_PH"><g id="el_x9Dp5l2sgb"><g id="el_QuDizOtdps"><path d="M408.5,229.8c0,0,80.1-127.2,15.7-216.5C241,61.2,288.6,241.4,288.6,241.4L408.5,229.8z" id="el_YZn6Dxl3He"/><path d="M424.2,13.3c-0.6,0.2-1.3,0.3-1.9,0.5l-54,168.7L311.2,88c-0.7,1-1.3,2.1-2,3.1l57.8,95.5l-15.6,48.7&#10;&#9;&#9;&#9;&#9;l3.6-0.3l31-97v0l61.5-17.6c0.2-1.2,0.3-2.4,0.4-3.6l-60.8,17.4L425.4,15C425,14.4,424.6,13.9,424.2,13.3L424.2,13.3z" id="el_uMkEBBbf0h"/><path d="M264.1,0c-98.8,79.5-26.8,203.2-26.8,203.2l77.8,59.1c11.1,3,20.6,10,26.8,19.7l37-93.7&#10;&#9;&#9;&#9;&#9;C378.8,188.3,361.9,39.4,264.1,0z" id="el_n7no1Mtt4u"/><path d="M217.9,153.1l99.1,44.5l22.1,80.5c1,1.2,1.9,2.5,2.8,3.9l1-2.6l-39.2-142.8l44.5-50.5&#10;&#9;&#9;&#9;&#9;c-0.5-1.1-1.1-2.1-1.6-3.2l-44,49.8L266.4,1c-0.8-0.3-1.5-0.7-2.3-1c-0.4,0.3-0.8,0.6-1.1,0.9l19.4,70.6l-55.5-27.1&#10;&#9;&#9;&#9;&#9;c-0.3,0.5-0.5,1-0.8,1.6l-0.7,1.4l58.1,28.4l32.3,117.7L216.9,149C217.2,150.4,217.5,151.8,217.9,153.1z" id="el_qzo6_JkLRD"/><path d="M225,318.3c11.2-31.1,40.1-52.1,72.3-57c12.3-1.9,24.9,1.5,34.6,9.5l-3.3-31.3c0,0-83.5-93.2-162.1-63.6&#10;&#9;&#9;&#9;&#9;c-14.1,71.6,16.1,122.6,55.5,157.4C222.3,328.3,223.3,323.2,225,318.3z" id="el_m4S5u6_JiC"/><path d="M268,270.8l-22.2-21.2l-1.9-70.1c-1.1-0.4-2.2-0.9-3.3-1.3l1.9,68.1l-74.2-71c-0.6,0.2-1.2,0.4-1.7,0.6l0,0&#10;&#9;&#9;&#9;&#9;c-0.1,0.6-0.2,1.3-0.4,1.9l98.8,94.5C266,271.8,267,271.3,268,270.8z" id="el_F2J1pYtGW7"/></g><g id="el_ONSkG7x-CI"><path d="M862.9,201.2c0,0-56.3-123.7,12.2-196C1033.6,70.5,969,226.1,969,226.1L862.9,201.2z" id="el_8Ggeo5EKV0"/><path d="M875.1,5.2c0.6,0.2,1.1,0.5,1.6,0.7l27.9,157.7l62.8-77.7c0.5,1,0.9,2,1.4,3l-63.5,78.6l8,45.5l-3.2-0.7&#10;&#9;&#9;&#9;&#9;l-16-90.7l0,0l-53-23.3c0-1.1,0-2.2,0-3.2l52.3,23L873.9,6.6C874.3,6.1,874.7,5.7,875.1,5.2L875.1,5.2z" id="el_P8vCzs6VZ3"/><path d="M894.6,167.6c0,0,33.2-131.4,125.7-154.8c78.9,83.3-0.7,185.4-0.7,185.4l-103.2,58.4L894.6,167.6z" id="el_-d6lt5G20Q"/><path d="M936.3,77.1l33.4,50l48.5-113.8c0.7-0.2,1.4-0.4,2.2-0.6c0.3,0.3,0.6,0.7,0.9,1l-26,60.9l53-17.5&#10;&#9;&#9;&#9;&#9;c0.2,0.5,0.3,1,0.5,1.5l0.4,1.3l-55.5,18.3l-43.3,101.5l94.1-27.8c-0.5,1.2-0.9,2.4-1.4,3.5l-94.2,27.8l-30.7,72.1l-1.7,1&#10;&#9;&#9;&#9;&#9;l-0.7-2.9l52.5-123.3l-33.8-50.6C935.1,78.9,935.7,78,936.3,77.1z" id="el_4U5g2JeQ81"/><path d="M1044.2,295.1c26.5-26.2,45.2-62.5,42.1-112.7c-66.9-36.1-153,37.3-153,37.3L915,295.1H1044.2z" id="el_l1Ps2Bb8pw"/><path d="M933.8,295.1l25.6-18.6l67.7,18.6h11.3l-75.8-20.8l124-90.1c0-0.6-0.1-1.2-0.1-1.8l0,0&#10;&#9;&#9;&#9;&#9;c-0.5-0.3-1-0.5-1.5-0.8l-75.1,54.6l10-60.8c-1.1,0.2-2.1,0.5-3.1,0.7l-10.2,62.6l-77.6,56.4H933.8z" id="el_yPUoUY0pHod"/></g><g id="el_lz1lkdVijzJ_an_1IRQOe3ss" data-animator-group="true" data-animator-type="0"><g id="el_lz1lkdVijzJ"><path d="M232.8,302.5l-35.6,4.8c0.8,1,1.6,2,2.4,3l31-4.2C231.3,304.9,232,303.7,232.8,302.5z" id="el_BBSIIZNmvSz"/><linearGradient id="SVGID_1_" gradientUnits="userSpaceOnUse" x1="204.0236" y1="80.9694" x2="597.8528" y2="80.9694" gradientTransform="matrix(1 0 0 -1 0 390)"><stop offset="0" style="stop-color:#E0F0EB"/><stop offset="1" style="stop-color:#C0E4EF"/></linearGradient><rect x="204" y="288.3" width="393.8" height="41.4" id="el_L0JKW4_oov8"/><path d="M229,247.1h364.8c0,0,19.7,0,32.5,25.6c11.1,22.1,3,64.2,0.6,74.3h-30v-0.7c0-28.5-23.1-51.6-51.7-51.6&#10;&#9;&#9;&#9;&#9;c-28.5,0-51.6,23.1-51.6,51.6v0.7H307.2v-0.7c0-28.5-23.1-51.6-51.6-51.6S204,317.7,204,346.2v0.7h-7.8v-53.5&#10;&#9;&#9;&#9;&#9;C196.2,262.1,229,247.1,229,247.1z" id="el_J7dyZH6LGkp"/><polygon points="476.3,247.1 335,247.1 345.1,195.4 427,195.4 &#9;&#9;&#9;" id="el_tkr8690Qw1I"/><path d="M476.3,347.1v-100l-43-51.6l-88.3,0l-10,51.6c0,0-6.6,7.3-12.1,12.8c-5.5,5.5-5.9,16.9-5.9,16.9v70&#10;&#9;&#9;&#9;&#9;L476.3,347.1z" id="el_ghYoykSo1c8"/><polygon points="335,247.1 345.1,195.4 433.3,195.5 476.3,247.1 &#9;&#9;&#9;" id="el_I7MVD5jaV2R"/><linearGradient id="SVGID_2_" gradientUnits="userSpaceOnUse" x1="433.3251" y1="173.8403" x2="536.4149" y2="173.8403" gradientTransform="matrix(1 0 0 -1 0 390)"><stop offset="0" style="stop-color:#E0F0EB"/><stop offset="1" style="stop-color:#C0E4EF"/></linearGradient><path d="M536.4,247.1c0,0-68.7-61.8-93.6-61.8c-5.2,5.2-9.5,10.2-9.5,10.2l43,51.6L536.4,247.1z" id="el_OywIQC8_dls"/><polygon points="442.8,185.2 273.6,185.2 260.3,195.4 433.5,195.4 &#9;&#9;&#9;" id="el_kZqeqdm443_"/><linearGradient id="SVGID_3_" gradientUnits="userSpaceOnUse" x1="229.0013" y1="168.7454" x2="338.8411" y2="168.7454" gradientTransform="matrix(1 0 0 -1 0 390)"><stop offset="0" style="stop-color:#E0F0EB"/><stop offset="1" style="stop-color:#C0E4EF"/></linearGradient><path d="M229,247.1c0,0,3.5-30.9,31.3-51.6h78.6l-10,51.6H229z" id="el_-4dr04v0bW4"/><linearGradient id="SVGID_4_" gradientUnits="userSpaceOnUse" x1="329.1697" y1="111.8394" x2="358.8749" y2="111.8394" gradientTransform="matrix(1 0 0 -1 0 390)"><stop offset="0" style="stop-color:#E0F0EB"/><stop offset="1" style="stop-color:#C0E4EF"/></linearGradient><path d="M329.2,278.2c0,1.5,6.6,2.8,14.9,2.8c8.2,0,14.9-1.2,14.9-2.8s-6.6-2.8-14.9-2.8S329.2,276.6,329.2,278.2z" id="el_k9JUCupuGgt"/><linearGradient id="SVGID_5_" gradientUnits="userSpaceOnUse" x1="242.4722" y1="118.8723" x2="266.6509" y2="118.8723" gradientTransform="matrix(1 0 0 -1 0 390)"><stop offset="0" style="stop-color:#E0F0EB"/><stop offset="1" style="stop-color:#C0E4EF"/></linearGradient><path d="M242.5,271.1c0,6.7,5.4,12.1,12.1,12.1c6.7,0,12.1-5.4,12.1-12.1c0-6.7-5.4-12.1-12.1-12.1c0,0,0,0,0,0&#10;&#9;&#9;&#9;&#9;C247.9,259,242.5,264.5,242.5,271.1z" id="el_WwMOGGCqz95"/><circle cx="545.4" cy="345.5" r="43.2" id="el_iUh-MFQqzSl"/><ellipse cx="255.2" cy="345.5" rx="43.2" ry="43.2" id="el_GQhGyXqh2K7"/><linearGradient id="SVGID_6_" gradientUnits="userSpaceOnUse" x1="602.1807" y1="116.6729" x2="621.6083" y2="116.6729" gradientTransform="matrix(1 0 0 -1 0 390)"><stop offset="0" style="stop-color:#E0F0EB"/><stop offset="1" style="stop-color:#C0E4EF"/></linearGradient><path d="M604,263.6c1-0.8,2.2-1.1,3.5-1.1l14.2,17.2c-0.2,1.2-0.8,2.4-1.7,3.2c-3.1,2.6-9.2,0.3-13.6-5&#10;&#9;&#9;&#9;&#9;C601.9,272.6,600.9,266.2,604,263.6z" id="el_M7gNK8ZsTsK"/><circle cx="545.2" cy="345.5" r="27.3" id="el_xAf2blBLVfh"/><circle cx="545.2" cy="345.5" r="27.3" id="el_9DVaBufGSAL"/><ellipse cx="255.2" cy="345.5" rx="27.3" ry="27.3" id="el_Ft50neIlCNN"/><polygon points="338.7,195.4 345.1,195.4 335,247.1 328.8,247.1 &#9;&#9;&#9;" id="el_NvnVRpx4flq"/><polygon points="480.1,247.1 434.3,193.5 428.3,194.9 472.3,247.1 &#9;&#9;&#9;" id="el_bXOW29CqU72"/><linearGradient id="SVGID_7_" gradientUnits="userSpaceOnUse" x1="462.6054" y1="140.3779" x2="480.596" y2="140.3779" gradientTransform="matrix(1 0 0 -1 0 390)"><stop offset="0" style="stop-color:#E0F0EB"/><stop offset="1" style="stop-color:#C0E4EF"/></linearGradient><path d="M462.6,249.1c-0.4,6.7,3.3,12.3,8.2,12.6s9.3-4.9,9.7-11.5s-3.3-12.3-8.2-12.6&#10;&#9;&#9;&#9;&#9;C467.4,237.3,463,242.4,462.6,249.1z" id="el_8jHaZgHxH4I"/></g></g><g id="el_mTI-brhVnJU_an_RawG00YfP" data-animator-group="true" data-animator-type="0"><g id="el_mTI-brhVnJU"><linearGradient id="SVGID_8_" gradientUnits="userSpaceOnUse" x1="279.382" y1="80.9694" x2="673.2112" y2="80.9694" gradientTransform="matrix(-1 0 0 -1 1338.1826 390)"><stop offset="0" style="stop-color:#E0F0EB"/><stop offset="1" style="stop-color:#C0E4EF"/></linearGradient><rect x="665" y="288.3" width="393.8" height="41.4" id="el_mB8PzQ_N2cv"/><path d="M1033.8,247.1H669.1c0,0-19.7,0-32.5,25.6c-11.1,22.1-3,64.2-0.6,74.3h30v-0.7c0-28.5,23.1-51.6,51.7-51.6&#10;&#9;&#9;&#9;&#9;c28.5,0,51.6,23.1,51.6,51.6v0.7h186.3v-0.7c0-28.5,23.2-51.6,51.7-51.6c28.5,0,51.6,23.1,51.6,51.6v0.7h7.8v-53.5&#10;&#9;&#9;&#9;&#9;C1066.6,262.1,1033.8,247.1,1033.8,247.1z" id="el_zJXwqHaOxES"/><polygon points="786.5,247.1 927.8,247.1 917.7,195.4 835.8,195.4 &#9;&#9;&#9;" id="el_1y-bHgmxi00"/><path d="M786.5,347.1v-100l43-51.6l88.3,0l10,51.6c0,0,6.6,7.3,12.1,12.8c5.5,5.5,5.9,16.9,5.9,16.9v70L786.5,347.1z&#10;&#9;&#9;&#9;&#9;" id="el_L6CltvMyCUt"/><linearGradient id="SVGID_9_" gradientUnits="userSpaceOnUse" x1="786.5187" y1="168.7455" x2="927.7797" y2="168.7455" gradientTransform="matrix(1 0 0 -1 0 390)"><stop offset="0" style="stop-color:#E0F0EB"/><stop offset="1" style="stop-color:#C0E4EF"/></linearGradient><polygon points="927.8,247.1 917.8,195.4 829.5,195.5 786.5,247.1 &#9;&#9;&#9;" id="el_GCb2KBX4fB9"/><linearGradient id="SVGID_10_" gradientUnits="userSpaceOnUse" x1="508.6836" y1="173.8403" x2="611.7734" y2="173.8403" gradientTransform="matrix(-1 0 0 -1 1338.1826 390)"><stop offset="0" style="stop-color:#E0F0EB"/><stop offset="1" style="stop-color:#C0E4EF"/></linearGradient><path d="M726.4,247.1c0,0,68.7-61.8,93.6-61.8c5.2,5.2,9.5,10.2,9.5,10.2l-43,51.6L726.4,247.1z" id="el_rVDSt83gC7L"/><polygon points="820,185.2 989.3,185.2 1002.6,195.4 829.3,195.4 &#9;&#9;&#9;" id="el_1FbI3EJngBc"/><linearGradient id="SVGID_11_" gradientUnits="userSpaceOnUse" x1="304.3598" y1="168.7454" x2="414.1996" y2="168.7454" gradientTransform="matrix(-1 0 0 -1 1338.1826 390)"><stop offset="0" style="stop-color:#E0F0EB"/><stop offset="1" style="stop-color:#C0E4EF"/></linearGradient><path d="M1033.8,247.1c0,0-3.5-30.9-31.3-51.6H924l10,51.6H1033.8z" id="el_oedGFt4_6pz"/><linearGradient id="SVGID_12_" gradientUnits="userSpaceOnUse" x1="404.5282" y1="111.8394" x2="434.2334" y2="111.8394" gradientTransform="matrix(-1 0 0 -1 1338.1826 390)"><stop offset="0" style="stop-color:#E0F0EB"/><stop offset="1" style="stop-color:#C0E4EF"/></linearGradient><path d="M933.7,278.2c0,1.5-6.6,2.8-14.9,2.8s-14.9-1.2-14.9-2.8s6.6-2.8,14.9-2.8S933.7,276.6,933.7,278.2z" id="el_8zTR7aWLkB9"/><linearGradient id="SVGID_13_" gradientUnits="userSpaceOnUse" x1="317.8307" y1="118.8723" x2="342.0094" y2="118.8723" gradientTransform="matrix(-1 0 0 -1 1338.1826 390)"><stop offset="0" style="stop-color:#E0F0EB"/><stop offset="1" style="stop-color:#C0E4EF"/></linearGradient><path d="M1020.4,271.1c0,6.7-5.4,12.1-12.1,12.1c-6.7,0-12.1-5.4-12.1-12.1c0-6.7,5.4-12.1,12.1-12.1c0,0,0,0,0,0&#10;&#9;&#9;&#9;&#9;C1014.9,259,1020.4,264.5,1020.4,271.1z" id="el_w5YEwlHsZjY"/><circle cx="717.4" cy="345.5" r="43.2" id="el_RD8yJqEJOcJ"/><circle cx="1007.6" cy="345.5" r="43.2" id="el__9aSE60iGJ5"/><linearGradient id="SVGID_14_" gradientUnits="userSpaceOnUse" x1="677.5391" y1="116.6728" x2="696.9668" y2="116.6728" gradientTransform="matrix(-1 0 0 -1 1338.1826 390)"><stop offset="0" style="stop-color:#E0F0EB"/><stop offset="1" style="stop-color:#C0E4EF"/></linearGradient><path d="M658.8,263.6c-1-0.8-2.2-1.1-3.5-1.1l-14.2,17.2c0.2,1.2,0.8,2.4,1.7,3.2c3.1,2.6,9.2,0.3,13.6-5&#10;&#9;&#9;&#9;&#9;C660.9,272.6,662,266.2,658.8,263.6z" id="el_cPe03jzK46X"/><circle cx="717.6" cy="345.5" r="27.3" id="el_EEJ4J5eP2kd"/><circle cx="717.6" cy="345.5" r="27.3" id="el_yqBgFSXRX3l"/><circle cx="1007.6" cy="345.5" r="27.3" id="el_yZoTmkciuHh"/><polygon points="924.1,195.4 917.7,195.4 927.8,247.1 934,247.1 &#9;&#9;&#9;" id="el_XZeo_73H5VJ"/><polygon points="782.7,247.1 828.6,193.5 834.5,194.9 790.5,247.1 &#9;&#9;&#9;" id="el_sD798Ks58mP"/><linearGradient id="SVGID_15_" gradientUnits="userSpaceOnUse" x1="537.9639" y1="140.3779" x2="555.9546" y2="140.3779" gradientTransform="matrix(-1 0 0 -1 1338.1826 390)"><stop offset="0" style="stop-color:#E0F0EB"/><stop offset="1" style="stop-color:#C0E4EF"/></linearGradient><path d="M800.2,249.1c0.4,6.7-3.3,12.3-8.2,12.6s-9.3-4.9-9.7-11.5s3.3-12.3,8.2-12.6&#10;&#9;&#9;&#9;&#9;C795.5,237.3,799.8,242.4,800.2,249.1z" id="el_6Eb_8frpQLU"/></g></g><g id="el_Q5VYXWOGA44"><path d="M587.1,221.8c0.7-0.7,0.7-1.8,0-2.5c0,0,0,0,0,0l-16.7-16.5c-0.7-0.7-1.8-0.7-2.5,0c-0.7,0.7-0.7,1.8,0,2.5&#10;&#9;&#9;&#9;&#9;l16.7,16.5C585.3,222.4,586.4,222.4,587.1,221.8C587.1,221.8,587.1,221.8,587.1,221.8z" id="el_wzY7_4VWv12"/><path d="M660.2,221.4c-0.7-0.7-0.7-1.8,0-2.5c0,0,0,0,0,0l16.5-16.7c0.7-0.7,1.8-0.7,2.5,0c0.7,0.7,0.7,1.8,0,2.5&#10;&#9;&#9;&#9;&#9;l0,0l-16.5,16.7C662,222,660.9,222,660.2,221.4C660.2,221.4,660.2,221.4,660.2,221.4z" id="el_NsywplXN-p1"/><path d="M628.8,215.4c1,0,1.7-0.8,1.7-1.7c0,0,0,0,0,0l-0.1-23.4c0-1-0.8-1.7-1.7-1.7c-1,0-1.7,0.8-1.7,1.7l0,0&#10;&#9;&#9;&#9;&#9;l0.1,23.4C627.1,214.7,627.9,215.5,628.8,215.4C628.8,215.4,628.8,215.4,628.8,215.4z" id="el_5KusELyxJeL"/></g></g></g></svg>