<svg version="1.1" id="el_9ClgNK_-x" xmlns="http://www.w3.org/2000/svg" xmlns:xlink="http://www.w3.org/1999/xlink" x="0px" y="0px" viewBox="0 0 422 330" style="enable-background:new 0 0 422.8 330.7;" xml:space="preserve"><style>@-webkit-keyframes kf_el_5S5M142vGZ_an_jC_3-qU7R {
	0% {
		-webkit-transform: translate(269.9000244140625px, 301.9120788574219px) rotate(0deg) translate(-269.9000244140625px, -301.9120788574219px);
		transform: translate(269.9000244140625px, 301.9120788574219px) rotate(0deg) translate(-269.9000244140625px, -301.9120788574219px);
	}
	50% {
		-webkit-transform: translate(269.9000244140625px, 301.9120788574219px) rotate(6deg) translate(-269.9000244140625px, -301.9120788574219px);
		transform: translate(269.9000244140625px, 301.9120788574219px) rotate(6deg) translate(-269.9000244140625px, -301.9120788574219px);
	}
	100% {
		-webkit-transform: translate(269.9000244140625px, 301.9120788574219px) rotate(0deg) translate(-269.9000244140625px, -301.9120788574219px);
		transform: translate(269.9000244140625px, 301.9120788574219px) rotate(0deg) translate(-269.9000244140625px, -301.9120788574219px);
	}
}

@keyframes kf_el_5S5M142vGZ_an_jC_3-qU7R {
	0% {
		-webkit-transform: translate(269.9000244140625px, 301.9120788574219px) rotate(0deg) translate(-269.9000244140625px, -301.9120788574219px);
		transform: translate(269.9000244140625px, 301.9120788574219px) rotate(0deg) translate(-269.9000244140625px, -301.9120788574219px);
	}
	50% {
		-webkit-transform: translate(269.9000244140625px, 301.9120788574219px) rotate(6deg) translate(-269.9000244140625px, -301.9120788574219px);
		transform: translate(269.9000244140625px, 301.9120788574219px) rotate(6deg) translate(-269.9000244140625px, -301.9120788574219px);
	}
	100% {
		-webkit-transform: translate(269.9000244140625px, 301.9120788574219px) rotate(0deg) translate(-269.9000244140625px, -301.9120788574219px);
		transform: translate(269.9000244140625px, 301.9120788574219px) rotate(0deg) translate(-269.9000244140625px, -301.9120788574219px);
	}
}

@-webkit-keyframes kf_el_B4s-w1Qscf_an_iXVnTQQY8 {
	0% {
		-webkit-transform: translate(219.00001525878906px, 309.5px) rotate(0deg) translate(-219.00001525878906px, -309.5px);
		transform: translate(219.00001525878906px, 309.5px) rotate(0deg) translate(-219.00001525878906px, -309.5px);
	}
	50% {
		-webkit-transform: translate(219.00001525878906px, 309.5px) rotate(-2deg) translate(-219.00001525878906px, -309.5px);
		transform: translate(219.00001525878906px, 309.5px) rotate(-2deg) translate(-219.00001525878906px, -309.5px);
	}
	100% {
		-webkit-transform: translate(219.00001525878906px, 309.5px) rotate(0deg) translate(-219.00001525878906px, -309.5px);
		transform: translate(219.00001525878906px, 309.5px) rotate(0deg) translate(-219.00001525878906px, -309.5px);
	}
}

@keyframes kf_el_B4s-w1Qscf_an_iXVnTQQY8 {
	0% {
		-webkit-transform: translate(219.00001525878906px, 309.5px) rotate(0deg) translate(-219.00001525878906px, -309.5px);
		transform: translate(219.00001525878906px, 309.5px) rotate(0deg) translate(-219.00001525878906px, -309.5px);
	}
	50% {
		-webkit-transform: translate(219.00001525878906px, 309.5px) rotate(-2deg) translate(-219.00001525878906px, -309.5px);
		transform: translate(219.00001525878906px, 309.5px) rotate(-2deg) translate(-219.00001525878906px, -309.5px);
	}
	100% {
		-webkit-transform: translate(219.00001525878906px, 309.5px) rotate(0deg) translate(-219.00001525878906px, -309.5px);
		transform: translate(219.00001525878906px, 309.5px) rotate(0deg) translate(-219.00001525878906px, -309.5px);
	}
}

@-webkit-keyframes kf_el_HdkOWZfekY__an_0Fy7uDj5R {
	0% {
		-webkit-transform: translate(214.6999969482422px, 206.10000610351562px) rotate(0deg) translate(-214.6999969482422px, -206.10000610351562px);
		transform: translate(214.6999969482422px, 206.10000610351562px) rotate(0deg) translate(-214.6999969482422px, -206.10000610351562px);
	}
	50% {
		-webkit-transform: translate(214.6999969482422px, 206.10000610351562px) rotate(2deg) translate(-214.6999969482422px, -206.10000610351562px);
		transform: translate(214.6999969482422px, 206.10000610351562px) rotate(2deg) translate(-214.6999969482422px, -206.10000610351562px);
	}
	100% {
		-webkit-transform: translate(214.6999969482422px, 206.10000610351562px) rotate(0deg) translate(-214.6999969482422px, -206.10000610351562px);
		transform: translate(214.6999969482422px, 206.10000610351562px) rotate(0deg) translate(-214.6999969482422px, -206.10000610351562px);
	}
}

@keyframes kf_el_HdkOWZfekY__an_0Fy7uDj5R {
	0% {
		-webkit-transform: translate(214.6999969482422px, 206.10000610351562px) rotate(0deg) translate(-214.6999969482422px, -206.10000610351562px);
		transform: translate(214.6999969482422px, 206.10000610351562px) rotate(0deg) translate(-214.6999969482422px, -206.10000610351562px);
	}
	50% {
		-webkit-transform: translate(214.6999969482422px, 206.10000610351562px) rotate(2deg) translate(-214.6999969482422px, -206.10000610351562px);
		transform: translate(214.6999969482422px, 206.10000610351562px) rotate(2deg) translate(-214.6999969482422px, -206.10000610351562px);
	}
	100% {
		-webkit-transform: translate(214.6999969482422px, 206.10000610351562px) rotate(0deg) translate(-214.6999969482422px, -206.10000610351562px);
		transform: translate(214.6999969482422px, 206.10000610351562px) rotate(0deg) translate(-214.6999969482422px, -206.10000610351562px);
	}
}

@-webkit-keyframes kf_el_yIYFjY-U2z1_an_innYUh3WG {
	0% {
		-webkit-transform: translate(235.3275604248047px, 219.6657371520996px) rotate(0deg) translate(-235.3275604248047px, -219.6657371520996px);
		transform: translate(235.3275604248047px, 219.6657371520996px) rotate(0deg) translate(-235.3275604248047px, -219.6657371520996px);
	}
	50% {
		-webkit-transform: translate(235.3275604248047px, 219.6657371520996px) rotate(6deg) translate(-235.3275604248047px, -219.6657371520996px);
		transform: translate(235.3275604248047px, 219.6657371520996px) rotate(6deg) translate(-235.3275604248047px, -219.6657371520996px);
	}
	100% {
		-webkit-transform: translate(235.3275604248047px, 219.6657371520996px) rotate(0deg) translate(-235.3275604248047px, -219.6657371520996px);
		transform: translate(235.3275604248047px, 219.6657371520996px) rotate(0deg) translate(-235.3275604248047px, -219.6657371520996px);
	}
}

@keyframes kf_el_yIYFjY-U2z1_an_innYUh3WG {
	0% {
		-webkit-transform: translate(235.3275604248047px, 219.6657371520996px) rotate(0deg) translate(-235.3275604248047px, -219.6657371520996px);
		transform: translate(235.3275604248047px, 219.6657371520996px) rotate(0deg) translate(-235.3275604248047px, -219.6657371520996px);
	}
	50% {
		-webkit-transform: translate(235.3275604248047px, 219.6657371520996px) rotate(6deg) translate(-235.3275604248047px, -219.6657371520996px);
		transform: translate(235.3275604248047px, 219.6657371520996px) rotate(6deg) translate(-235.3275604248047px, -219.6657371520996px);
	}
	100% {
		-webkit-transform: translate(235.3275604248047px, 219.6657371520996px) rotate(0deg) translate(-235.3275604248047px, -219.6657371520996px);
		transform: translate(235.3275604248047px, 219.6657371520996px) rotate(0deg) translate(-235.3275604248047px, -219.6657371520996px);
	}
}

@-webkit-keyframes kf_el_vYRm9ZjU6K_an_Fu62Skof2 {
	0% {
		-webkit-transform: translate(182.89999389648438px, 76.70000457763672px) rotate(0deg) translate(-182.89999389648438px, -76.70000457763672px);
		transform: translate(182.89999389648438px, 76.70000457763672px) rotate(0deg) translate(-182.89999389648438px, -76.70000457763672px);
	}
	100% {
		-webkit-transform: translate(182.89999389648438px, 76.70000457763672px) rotate(-360deg) translate(-182.89999389648438px, -76.70000457763672px);
		transform: translate(182.89999389648438px, 76.70000457763672px) rotate(-360deg) translate(-182.89999389648438px, -76.70000457763672px);
	}
}

@keyframes kf_el_vYRm9ZjU6K_an_Fu62Skof2 {
	0% {
		-webkit-transform: translate(182.89999389648438px, 76.70000457763672px) rotate(0deg) translate(-182.89999389648438px, -76.70000457763672px);
		transform: translate(182.89999389648438px, 76.70000457763672px) rotate(0deg) translate(-182.89999389648438px, -76.70000457763672px);
	}
	100% {
		-webkit-transform: translate(182.89999389648438px, 76.70000457763672px) rotate(-360deg) translate(-182.89999389648438px, -76.70000457763672px);
		transform: translate(182.89999389648438px, 76.70000457763672px) rotate(-360deg) translate(-182.89999389648438px, -76.70000457763672px);
	}
}

@-webkit-keyframes kf_el_gngHtoFKp4d_an_QhduLdEmk {
	0% {
		-webkit-transform: translate(327.3999938964844px, 235.90000915527344px) rotate(0deg) translate(-327.3999938964844px, -235.90000915527344px);
		transform: translate(327.3999938964844px, 235.90000915527344px) rotate(0deg) translate(-327.3999938964844px, -235.90000915527344px);
	}
	100% {
		-webkit-transform: translate(327.3999938964844px, 235.90000915527344px) rotate(360deg) translate(-327.3999938964844px, -235.90000915527344px);
		transform: translate(327.3999938964844px, 235.90000915527344px) rotate(360deg) translate(-327.3999938964844px, -235.90000915527344px);
	}
}

@keyframes kf_el_gngHtoFKp4d_an_QhduLdEmk {
	0% {
		-webkit-transform: translate(327.3999938964844px, 235.90000915527344px) rotate(0deg) translate(-327.3999938964844px, -235.90000915527344px);
		transform: translate(327.3999938964844px, 235.90000915527344px) rotate(0deg) translate(-327.3999938964844px, -235.90000915527344px);
	}
	100% {
		-webkit-transform: translate(327.3999938964844px, 235.90000915527344px) rotate(360deg) translate(-327.3999938964844px, -235.90000915527344px);
		transform: translate(327.3999938964844px, 235.90000915527344px) rotate(360deg) translate(-327.3999938964844px, -235.90000915527344px);
	}
}

#el_9ClgNK_-x * {
	-webkit-animation-duration: 3s;
	animation-duration: 3s;
	-webkit-animation-iteration-count: infinite;
	animation-iteration-count: infinite;
	-webkit-animation-play-state: running;
	animation-play-state: running;
	-webkit-animation-timing-function: cubic-bezier(0, 0, 1, 1);
	animation-timing-function: cubic-bezier(0, 0, 1, 1);
}

#el_i2hK0tIk0U {
	fill: #FCBC00;
}

#el_L80drwHYCK {
	fill: #FFD247;
}

#el_U81YiKc2OR {
	fill: #FFD247;
}

#el_WBsvOMbiLj {
	fill: #F7A605;
}

#el_hjFzJevY0o {
	fill: #00666A;
}

#el_1dg1JEYkmI {
	fill: #01898C;
}

#el_AMf5HaqD1c {
	fill: #043C5E;
}

#el_1VlG5kxkwk {
	fill: #00666A;
}

#el_yLuki0VXSM {
	fill: #043C5E;
}

#el_9q2QTShwl_ {
	fill: #00666A;
}

#el_9mqb07C98B1 {
	fill: #00666A;
}

#el_PwHOH_50tK8 {
	fill: url(#SVGID_1_);
}

#el_W113SOaxYLK {
	fill: #FFFFFF;
	-webkit-transform: matrix(0.7071, -0.7071, 0.7071, 0.7071, -58.6447, 284.4289);
	transform: matrix(0.7071, -0.7071, 0.7071, 0.7071, -58.6447, 284.4289);
}

#el_dILhglap1t- {
	fill: #00666A;
}

#el_ERk5Ix-z6ja {
	fill: #00666A;
	-webkit-transform: matrix(0.7836, -0.6213, 0.6213, 0.7836, -64.3445, 241.5718);
	transform: matrix(0.7836, -0.6213, 0.6213, 0.7836, -64.3445, 241.5718);
}

#el_N-VEFvpAGLc {
	fill: #01898C;
	-webkit-transform: matrix(0.6766, -0.7363, 0.7363, 0.6766, -24.3758, 311.2552);
	transform: matrix(0.6766, -0.7363, 0.7363, 0.6766, -24.3758, 311.2552);
}

#el_fz_PSH-a6eF {
	fill: #01898C;
	-webkit-transform: matrix(0.6764, -0.7366, 0.7366, 0.6764, -12.5721, 314.5101);
	transform: matrix(0.6764, -0.7366, 0.7366, 0.6764, -12.5721, 314.5101);
}

#el_b7ZSIynzlgS {
	fill: #043C5E;
	-webkit-transform: matrix(0.6764, -0.7366, 0.7366, 0.6764, -97.3935, 285.5566);
	transform: matrix(0.6764, -0.7366, 0.7366, 0.6764, -97.3935, 285.5566);
}

#el_Cwdli7w5TL_ {
	fill: #01898C;
	-webkit-transform: matrix(0.6764, -0.7366, 0.7366, 0.6764, -84.9466, 289.8112);
	transform: matrix(0.6764, -0.7366, 0.7366, 0.6764, -84.9466, 289.8112);
}

#el_cLFqpKgqiyb {
	fill: #01898C;
}

#el_KzdrDnsj5j- {
	fill: url(#SVGID_2_);
}

#el_plba_qYAWR0 {
	fill: #FFFFFF;
	-webkit-transform: matrix(0.5408, -0.8412, 0.8412, 0.5408, 49.5261, 302.0149);
	transform: matrix(0.5408, -0.8412, 0.8412, 0.5408, 49.5261, 302.0149);
}

#el_qMVqf1QhS-r {
	fill: #00666A;
}

#el_YHKZQZh6Nra {
	fill: #00666A;
	-webkit-transform: matrix(0.6258, -0.78, 0.78, 0.6258, 30.8331, 275.5241);
	transform: matrix(0.6258, -0.78, 0.78, 0.6258, 30.8331, 275.5241);
}

#el_gfHUXRZ-0zw {
	fill: #01898C;
	-webkit-transform: matrix(0.5417, -0.8406, 0.8406, 0.5417, 87.037, 304.6528);
	transform: matrix(0.5417, -0.8406, 0.8406, 0.5417, 87.037, 304.6528);
}

#el_5aBbj_bRM_6 {
	fill: #01898C;
	-webkit-transform: matrix(0.5417, -0.8406, 0.8406, 0.5417, 103.0036, 305.8246);
	transform: matrix(0.5417, -0.8406, 0.8406, 0.5417, 103.0036, 305.8246);
}

#el_KiRtAuBeW5e {
	fill: #043C5E;
	-webkit-transform: matrix(0.5417, -0.8406, 0.8406, 0.5417, -3.3825, 298.0171);
	transform: matrix(0.5417, -0.8406, 0.8406, 0.5417, -3.3825, 298.0171);
}

#el_AjyVEenLfG7 {
	fill: #01898C;
	-webkit-transform: matrix(0.5417, -0.8406, 0.8406, 0.5417, 12.2564, 299.1613);
	transform: matrix(0.5417, -0.8406, 0.8406, 0.5417, 12.2564, 299.1613);
}

#el_qMotqYFqYxF {
	fill: #FFFFFF;
}

#el_90u-6YJZGDF {
	fill: #00666A;
}

#el_veDt7xq05TC {
	fill: #00666A;
	-webkit-transform: matrix(0.2217, -0.9751, 0.9751, 0.2217, 59.894, 323.9221);
	transform: matrix(0.2217, -0.9751, 0.9751, 0.2217, 59.894, 323.9221);
}

#el_ypk-yFXsKGb {
	fill: #00666A;
}

#el_3H9WoXUiJfF {
	fill: url(#SVGID_3_);
}

#el_B30Kf7mBR8Q {
	fill: #01898C;
}

#el_zEWZCs5AKfN {
	fill: #01898C;
}

#el_u0T54vhf9rJ {
	fill: #043C5E;
}

#el_xNhYa0S8C2g {
	fill: #01898C;
}

#el__5oxXRWtlnf {
	fill: #B0D9C8;
}

#el_Os4uFkFYt0D {
	fill: #63C1C5;
}

#el_dZ8nY9Vh1fc {
	fill: url(#SVGID_4_);
}

#el_0AhrxDBDFur {
	fill: url(#SVGID_5_);
}

#el_U5pzgtZbEWV {
	fill: #63C1C5;
}

#el_Bp-_dYrZ75J {
	fill: #63C1C5;
}

#el_EenwpR_do6K {
	fill: #63C1C5;
}

#el_geFh1MLzpje {
	fill: #FCBC00;
}

#el_LV6SqdU2hPN {
	fill: #FFD247;
}

#el_JHI5PVqHEB1 {
	fill: #FFD247;
}

#el_RHGYjAjcsj6 {
	fill: #F7A605;
}

#el_K1PORYH-FFw {
	fill: #01898C;
}

#el_qnfzhjiaMPD {
	fill: #00666A;
}

#el_qEDNJTOzLzc {
	fill: url(#SVGID_6_);
}

#el_2r6wj0usTmZ {
	fill: #FFFFFF;
}

#el_0xM5qm1fjK4 {
	fill: #63C1C5;
}

#el_YxyF95UMEQb {
	fill: #ACDBE0;
}

#el_s0lWZYJvwlL {
	fill: #63C1C5;
}

#el_xD4sVopRfPS {
	fill: url(#SVGID_7_);
}

#el_hFpIBP5zh7K {
	fill: url(#SVGID_8_);
}

#el_XUUC1Y1br3p {
	fill: #FFFFFF;
}

#el_9K3LTTJR1nm {
	fill: #FFFFFF;
}

#el_9obQwPQsrgS {
	fill: #01898C;
}

#el_QKXbkrRjP0c {
	fill: #63C1C5;
}

#el_1toJg5KM93T {
	fill: #00666A;
}

#el_gta7BWb2YB1 {
	fill: url(#SVGID_9_);
}

#el_dC_AtlSNrwd {
	fill: #01898C;
}

#el_SycTqzBd6J4 {
	fill: #63C1C5;
}

#el_bd4teJu42zw {
	fill: #ACDBE0;
}

#el_llwq8_ORr_X {
	fill: #01898C;
}

#el_GdgdVHcQwEH {
	fill: #63C1C5;
}

#el_rtVDHlQ4wMJ {
	fill: url(#SVGID_10_);
}

#el_gngHtoFKp4d_an_QhduLdEmk {
	-webkit-animation-fill-mode: backwards;
	animation-fill-mode: backwards;
	-webkit-transform: translate(327.3999938964844px, 235.90000915527344px) rotate(0deg) translate(-327.3999938964844px, -235.90000915527344px);
	transform: translate(327.3999938964844px, 235.90000915527344px) rotate(0deg) translate(-327.3999938964844px, -235.90000915527344px);
	-webkit-animation-timing-function: cubic-bezier(0, 0, 1, 1);
	animation-timing-function: cubic-bezier(0, 0, 1, 1);
}

.card-grafik-usluge:hover #el_9ClgNK_-x #el_gngHtoFKp4d_an_QhduLdEmk {
	-webkit-animation-name: kf_el_gngHtoFKp4d_an_QhduLdEmk;
	animation-name: kf_el_gngHtoFKp4d_an_QhduLdEmk;
}

#el_vYRm9ZjU6K_an_Fu62Skof2 {
	-webkit-animation-fill-mode: backwards;
	animation-fill-mode: backwards;
	-webkit-transform: translate(182.89999389648438px, 76.70000457763672px) rotate(0deg) translate(-182.89999389648438px, -76.70000457763672px);
	transform: translate(182.89999389648438px, 76.70000457763672px) rotate(0deg) translate(-182.89999389648438px, -76.70000457763672px);
	-webkit-animation-timing-function: cubic-bezier(0, 0, 1, 1);
	animation-timing-function: cubic-bezier(0, 0, 1, 1);
}

.card-grafik-usluge:hover #el_9ClgNK_-x #el_vYRm9ZjU6K_an_Fu62Skof2 {
	-webkit-animation-name: kf_el_vYRm9ZjU6K_an_Fu62Skof2;
	animation-name: kf_el_vYRm9ZjU6K_an_Fu62Skof2;
}

#el_yIYFjY-U2z1_an_innYUh3WG {
	-webkit-animation-fill-mode: backwards;
	animation-fill-mode: backwards;
	-webkit-transform: translate(235.3275604248047px, 219.6657371520996px) rotate(0deg) translate(-235.3275604248047px, -219.6657371520996px);
	transform: translate(235.3275604248047px, 219.6657371520996px) rotate(0deg) translate(-235.3275604248047px, -219.6657371520996px);
	-webkit-animation-timing-function: cubic-bezier(0, 0, 1, 1);
	animation-timing-function: cubic-bezier(0, 0, 1, 1);
}

.card-grafik-usluge:hover #el_9ClgNK_-x #el_yIYFjY-U2z1_an_innYUh3WG {
	-webkit-animation-name: kf_el_yIYFjY-U2z1_an_innYUh3WG;
	animation-name: kf_el_yIYFjY-U2z1_an_innYUh3WG;
}

#el_HdkOWZfekY__an_0Fy7uDj5R {
	-webkit-animation-fill-mode: backwards;
	animation-fill-mode: backwards;
	-webkit-transform: translate(214.6999969482422px, 206.10000610351562px) rotate(0deg) translate(-214.6999969482422px, -206.10000610351562px);
	transform: translate(214.6999969482422px, 206.10000610351562px) rotate(0deg) translate(-214.6999969482422px, -206.10000610351562px);
	-webkit-animation-timing-function: cubic-bezier(0, 0, 1, 1);
	animation-timing-function: cubic-bezier(0, 0, 1, 1);
}

.card-grafik-usluge:hover #el_9ClgNK_-x #el_HdkOWZfekY__an_0Fy7uDj5R {
	-webkit-animation-name: kf_el_HdkOWZfekY__an_0Fy7uDj5R;
	animation-name: kf_el_HdkOWZfekY__an_0Fy7uDj5R;
}

#el_B4s-w1Qscf_an_iXVnTQQY8 {
	-webkit-animation-fill-mode: backwards;
	animation-fill-mode: backwards;
	-webkit-transform: translate(219.00001525878906px, 309.5px) rotate(0deg) translate(-219.00001525878906px, -309.5px);
	transform: translate(219.00001525878906px, 309.5px) rotate(0deg) translate(-219.00001525878906px, -309.5px);
	-webkit-animation-timing-function: cubic-bezier(0, 0, 1, 1);
	animation-timing-function: cubic-bezier(0, 0, 1, 1);
}

.card-grafik-usluge:hover #el_9ClgNK_-x #el_B4s-w1Qscf_an_iXVnTQQY8 {
	-webkit-animation-name: kf_el_B4s-w1Qscf_an_iXVnTQQY8;
	animation-name: kf_el_B4s-w1Qscf_an_iXVnTQQY8;
}

#el_5S5M142vGZ_an_jC_3-qU7R {
	-webkit-animation-fill-mode: backwards;
	animation-fill-mode: backwards;
	-webkit-transform: translate(269.9000244140625px, 301.9120788574219px) rotate(0deg) translate(-269.9000244140625px, -301.9120788574219px);
	transform: translate(269.9000244140625px, 301.9120788574219px) rotate(0deg) translate(-269.9000244140625px, -301.9120788574219px);
	-webkit-animation-timing-function: cubic-bezier(0, 0, 1, 1);
	animation-timing-function: cubic-bezier(0, 0, 1, 1);
}

.card-grafik-usluge:hover #el_9ClgNK_-x #el_5S5M142vGZ_an_jC_3-qU7R {
	-webkit-animation-name: kf_el_5S5M142vGZ_an_jC_3-qU7R;
	animation-name: kf_el_5S5M142vGZ_an_jC_3-qU7R;
}

</style><title></title><g id="el_6v1A9JuWWp"><g id="el_prLq4QiEUs"><g id="el_vYRm9ZjU6K_an_Fu62Skof2" data-animator-group="true" data-animator-type="1"><g id="el_vYRm9ZjU6K"><circle cx="182.9" cy="76.7" r="35.7" id="el_i2hK0tIk0U" /><path d="M180.2,103.9v-6.3c-4.3-0.1-8.6-1.2-12.4-3.3l2.3-4.8c3.5,1.9,7.3,2.9,11.2,2.8c5.7,0,9.6-2.3,9.6-6.1&#xA;&#x9;&#x9;&#x9;&#x9;s-3.2-5.9-9.1-7.9c-8.2-2.6-13.3-5.7-13.3-11.4c0-5.5,4.8-9.7,12.2-10.7v-6.7h5V56c3.6,0,7.2,0.8,10.5,2.3l-2.4,5.2&#xA;&#x9;&#x9;&#x9;&#x9;c-3.1-1.4-6.4-2-9.8-1.8c-6.2,0-8.6,1.9-8.6,4.5c0,3.4,3,5.2,10,7.5c8.3,2.8,12.5,6.2,12.5,12.1c0,5.2-4.4,10.5-12.8,11.6v6.5&#xA;&#x9;&#x9;&#x9;&#x9;L180.2,103.9z" id="el_L80drwHYCK" /><rect x="180.1" y="49.6" width="5.8" height="54.3" id="el_U81YiKc2OR" /><path d="M182.9,113.8c-20.5,0-37.1-16.6-37.1-37.1s16.6-37.1,37.1-37.1c20.5,0,37.1,16.6,37.1,37.1&#xA;&#x9;&#x9;&#x9;&#x9;C220,97.1,203.4,113.7,182.9,113.8z M182.9,42.4c-18.9,0-34.2,15.3-34.2,34.2s15.3,34.2,34.2,34.2s34.2-15.3,34.2-34.2&#xA;&#x9;&#x9;&#x9;&#x9;C217.1,57.7,201.8,42.4,182.9,42.4L182.9,42.4z" id="el_WBsvOMbiLj" /></g></g><path d="M279.2,213.3c0,0-28.4-72.9,13.3-112.3c89,42.6,46.8,130,46.8,130L279.2,213.3z" id="el_hjFzJevY0o" /><path d="M292.5,101l0.9,0.4l10.9,91.6l38.6-42.6c0.2,0.6,0.5,1.2,0.7,1.8l-39,43.1l3.2,26.4l-1.8-0.5l-6.3-52.7l0,0&#xA;&#x9;&#x9;&#x9;L270,153.4c0-0.6,0.1-1.2,0.1-1.9l29.3,14.9l-7.7-64.7L292.5,101L292.5,101z" id="el_1dg1JEYkmI" /><path d="M382.1,162.8c-4.9-1.8-11.2-6.6-12.9-11.8l-3.2-9.8c-51.2,12-80.8,65.9-80.8,65.9L285,255l66.7-14.3&#xA;&#x9;&#x9;&#x9;c0,0,44.5-30.8,39.7-76.7C388.2,164.2,385.1,163.8,382.1,162.8z" id="el_AMf5HaqD1c" /><path d="M391.7,169.9v-0.8c0-0.3,0-0.6,0-0.9l-32.1,0.5l11.8-13.8c-0.4-0.5-0.7-1-1-1.5L336.5,193l-9.7-33.2l-1.5,1.2&#xA;&#x9;&#x9;&#x9;l9.8,33.6l-50,58.7L285,255l1.1-0.2l29.3-34.3l56.5,0.9c0.5-0.6,0.9-1.1,1.4-1.7l-56.4-0.9l41.2-48.3L391.7,169.9z" id="el_1VlG5kxkwk" /><g id="el_5S5M142vGZ_an_jC_3-qU7R" data-animator-group="true" data-animator-type="1"><g id="el_5S5M142vGZ"><path d="M312.7,228.4c0,0,57.4-28.5,90.5,5.8c-21.6,86.7-133.3,65.4-133.3,65.4L312.7,228.4z" id="el_yLuki0VXSM" /><path d="M403.1,234.3c-0.1,0.3-0.2,0.7-0.3,1l-83.6,28.2l40.4,26l-1.8,0.9l-40.6-26.1l-32.6,11l1.4-2.3l63.6-21.4&#xA;&#x9;&#x9;&#x9;&#x9;l16.4-32.6l1.9,0.1l-15.9,31.7l50.6-17.1L403.1,234.3L403.1,234.3z" id="el_9q2QTShwl_" /></g></g><g id="el_B4s-w1Qscf_an_iXVnTQQY8" data-animator-group="true" data-animator-type="1"><g id="el_B4s-w1Qscf"><path d="M347.2,111.5c0,0-93.6,111.4-128.2,139.6c36,37.7,63.6,58.4,63.6,58.4s134.3-120.9,132-136.2&#xA;&#x9;&#x9;&#x9;&#x9;C405.6,159.9,405.8,160.2,347.2,111.5z" id="el_9mqb07C98B1" /><linearGradient id="SVGID_1_" gradientUnits="userSpaceOnUse" x1="5862.1641" y1="2105.5127" x2="6035.9438" y2="2105.5127" gradientTransform="matrix(0.68 -0.74 0.74 0.68 -5264.0996 3159.6797)"><stop offset="0" style="stop-color:#E0F0EB" /><stop offset="1" style="stop-color:#C0E4EF" /></linearGradient><path d="M385.2,157.6c-6.9,8.5-5.4,23.3,2.6,28.7c-0.5,21.5-92.5,98.2-92.5,98.2l-0.1-0.1&#xA;&#x9;&#x9;&#x9;&#x9;c-7.3-7.3-20.2-6.3-27.1,0.9l-22.5-20.6c7.1-8,5.9-19.8-1.4-27.1l-0.2-0.2l90.5-101.4c0.4,0.5,0.9,1,1.3,1.4&#xA;&#x9;&#x9;&#x9;&#x9;c7.3,7.3,21.6,7.6,28.5,0.4l21.3,19.5C385.4,157.4,385.3,157.5,385.2,157.6z" id="el_PwHOH_50tK8" /><ellipse cx="314" cy="213" rx="23.1" ry="23.1" id="el_W113SOaxYLK" /><path d="M304,196.7l2.8,3.5c2.5-1.9,5.4-3.1,8.4-3.6l0.8,3.7c-2.8,0.5-5.4,1.6-7.6,3.4c-3.2,2.6-4.4,5.6-2.7,7.7&#xA;&#x9;&#x9;&#x9;&#x9;s4.4,1.9,8.6,0.4c5.8-2.2,10-2.7,12.6,0.5s1.6,7.5-2.1,11.4l3,3.7l-2.9,2.2l-2.9-3.6c-2,1.6-4.4,2.8-6.9,3.4l-0.9-4&#xA;&#x9;&#x9;&#x9;&#x9;c2.3-0.6,4.5-1.7,6.3-3.3c3.5-2.8,4-4.9,2.8-6.3c-1.5-1.9-4-1.6-9,0.2c-5.9,2.1-9.8,2.1-12.4-1.2c-2.3-2.9-2.2-7.9,2-12.2&#xA;&#x9;&#x9;&#x9;&#x9;l-2.8-3.6L304,196.7z" id="el_dILhglap1t-" /><rect x="312.5" y="193.7" width="4.2" height="38.8" id="el_ERk5Ix-z6ja" /><ellipse cx="342.2" cy="183.4" rx="5.5" ry="5.5" id="el_N-VEFvpAGLc" /><ellipse cx="351.6" cy="171.6" rx="5.5" ry="5.5" id="el_fz_PSH-a6eF" /></g></g><ellipse cx="276.3" cy="253.6" rx="5.5" ry="5.5" id="el_b7ZSIynzlgS" /><ellipse cx="287.3" cy="241.6" rx="5.5" ry="5.5" id="el_Cwdli7w5TL_" /><g id="el_HdkOWZfekY__an_0Fy7uDj5R" data-animator-group="true" data-animator-type="1"><g id="el_HdkOWZfekY_"><path d="M317.4,0c0,0-73.4,125.6-102.7,159.3c41.9,31.1,72.6,46.8,72.6,46.8s111.9-141.9,107-156.6&#xA;&#x9;&#x9;&#x9;&#x9;C383.1,37.8,383.4,38,317.4,0z" id="el_cLFqpKgqiyb" /><linearGradient id="SVGID_2_" gradientUnits="userSpaceOnUse" x1="5562.3423" y1="3150.7002" x2="5736.1323" y2="3150.7002" gradientTransform="matrix(0.54 -0.84 0.84 0.54 -5395.5503 3154.8398)"><stop offset="0" style="stop-color:#E0F0EB" /><stop offset="1" style="stop-color:#C0E4EF" /></linearGradient><path d="M362.7,39c-5.3,9.6-1.3,23.8,7.4,27.9c3.1,21.3-74.5,112.5-74.5,112.5l-0.1-0.1c-8.5-6-21-2.8-26.6,5.5&#xA;&#x9;&#x9;&#x9;&#x9;l-25.7-16.5c5.6-9.1,2.5-20.5-6-26.5l-0.2-0.1l72-115.3c0.5,0.4,1,0.8,1.5,1.2c8.5,6,22.6,3.9,28.2-4.4l24.3,15.6&#xA;&#x9;&#x9;&#x9;&#x9;C362.8,38.8,362.7,38.9,362.7,39z" id="el_KzdrDnsj5j-" /><ellipse cx="301.4" cy="105.6" rx="23" ry="23" id="el_plba_qYAWR0" /><path d="M288.6,92l3.5,2.8c2-2.4,4.5-4.2,7.4-5.4l1.6,3.5c-2.6,1.1-4.9,2.8-6.6,5c-2.6,3.2-3,6.4-0.9,8.1&#xA;&#x9;&#x9;&#x9;&#x9;s4.7,0.9,8.5-1.6c5.2-3.4,9.1-4.9,12.4-2.3s3.2,7,0.5,11.6l3.7,3l-2.2,2.8l-3.6-2.9c-1.6,2-3.7,3.7-6,4.8l-1.8-3.7&#xA;&#x9;&#x9;&#x9;&#x9;c2.1-1.1,4-2.7,5.4-4.6c2.8-3.5,2.8-5.6,1.3-6.8c-1.9-1.5-4.2-0.6-8.7,2.2c-5.3,3.4-9.1,4.2-12.4,1.6c-2.9-2.3-3.9-7.2-0.8-12.3&#xA;&#x9;&#x9;&#x9;&#x9;l-3.6-2.9L288.6,92z" id="el_qMVqf1QhS-r" /><rect x="300.5" y="86.2" width="4.2" height="38.8" id="el_YHKZQZh6Nra" /><ellipse cx="322.9" cy="72.5" rx="5.5" ry="5.5" id="el_gfHUXRZ-0zw" /><ellipse cx="332" cy="58.5" rx="5.5" ry="5.5" id="el_5aBbj_bRM_6" /></g></g><ellipse cx="271.6" cy="152.1" rx="5.5" ry="5.5" id="el_KiRtAuBeW5e" /><ellipse cx="280.5" cy="138.3" rx="5.5" ry="5.5" id="el_AjyVEenLfG7" /><circle cx="232.3" cy="124.7" r="23.1" id="el_qMotqYFqYxF" /><path d="M214.4,118.2l4.4,1c0.8-3,2.2-5.8,4.3-8.1l3,2.4c-1.9,2.1-3.2,4.6-3.8,7.4c-0.9,4,0.1,7.1,2.7,7.7&#xA;&#x9;&#x9;&#x9;s4.6-1.3,6.9-5.1c3.1-5.3,6.1-8.4,10.1-7.5c3.8,0.9,6,4.9,5.5,10.2l4.7,1.1l-0.8,3.5l-4.5-1c-0.6,2.5-1.7,4.9-3.3,7l-3.2-2.5&#xA;&#x9;&#x9;&#x9;c1.4-1.9,2.4-4.2,2.9-6.5c1-4.3,0.1-6.3-1.8-6.7c-2.4-0.6-4.1,1.3-6.9,5.8c-3.3,5.4-6.3,7.7-10.4,6.8c-3.6-0.8-6.6-4.8-6.1-10.8&#xA;&#x9;&#x9;&#x9;l-4.5-1L214.4,118.2z" id="el_90u-6YJZGDF" /><rect x="230.8" y="105" width="4.2" height="38.8" id="el_veDt7xq05TC" /><g id="el_yIYFjY-U2z1_an_innYUh3WG" data-animator-group="true" data-animator-type="1"><g id="el_yIYFjY-U2z1"><path d="M194.6,24.8c0,0-3.2,145.4-12.5,189.1c51.7,6.8,86.2,5.7,86.2,5.7s29-178.4,17.6-188.8&#xA;&#x9;&#x9;&#x9;&#x9;C270.4,25.9,270.8,26,194.6,24.8z" id="el_ypk-yFXsKGb" /><linearGradient id="SVGID_3_" gradientUnits="userSpaceOnUse" x1="5328.4282" y1="1881.8025" x2="5502.208" y2="1881.8025" gradientTransform="matrix(7.000000e-02 -1 1 7.000000e-02 -2025.11 5391.6001)"><stop offset="0" style="stop-color:#E0F0EB" /><stop offset="1" style="stop-color:#C0E4EF" /></linearGradient><path d="M253.1,36.9c0,11,10.4,21.5,20,20.8c13.1,17.1-10.6,134.5-10.6,134.5h-0.2c-10.3-1.1-19.7,7.7-20.6,17.7&#xA;&#x9;&#x9;&#x9;&#x9;l-30.5-2c0.5-10.7-7.8-19.1-18.1-20.2h-0.3l7-135.8c0.7,0.1,1.3,0.2,1.9,0.3c10.3,1.1,21.6-7.6,22.5-17.6l28.8,1.9&#xA;&#x9;&#x9;&#x9;&#x9;C253.1,36.6,253.1,36.8,253.1,36.9z" id="el_3H9WoXUiJfF" /><circle cx="234.6" cy="85.5" r="5.5" id="el_B30Kf7mBR8Q" /><circle cx="235.7" cy="68.8" r="5.5" id="el_zEWZCs5AKfN" /></g></g><circle cx="228.3" cy="180" r="5.5" id="el_u0T54vhf9rJ" /><circle cx="229.4" cy="163.7" r="5.5" id="el_xNhYa0S8C2g" /><g id="el_SdlzBUQvUSS"><polygon points="415,92.7 418.7,100.1 410.9,98.3 384.2,89.8 &#x9;&#x9;&#x9;" id="el__5oxXRWtlnf" /><polygon points="418.7,100.1 405.4,99.2 408.7,97.6 &#x9;&#x9;&#x9;" id="el_Os4uFkFYt0D" /><linearGradient id="SVGID_4_" gradientUnits="userSpaceOnUse" x1="384.17" y1="242.835" x2="417.32" y2="242.835" gradientTransform="matrix(1 0 0 -1 0 332)"><stop offset="0" style="stop-color:#F1F8F8" /><stop offset="1" style="stop-color:#C0E4EF" /></linearGradient><polygon points="415,92.7 417.3,85.6 384.2,89.8 &#x9;&#x9;&#x9;" id="el_dZ8nY9Vh1fc" /><linearGradient id="SVGID_5_" gradientUnits="userSpaceOnUse" x1="384.17" y1="232.805" x2="410.9" y2="232.805" gradientTransform="matrix(1 0 0 -1 0 332)"><stop offset="0" style="stop-color:#F1F8F8" /><stop offset="1" style="stop-color:#C0E4EF" /></linearGradient><polygon points="384.2,89.8 410.9,98.3 406.9,108.6 &#x9;&#x9;&#x9;" id="el_0AhrxDBDFur" /><path d="M415.8,107.4c0.3-0.2,0.4-0.5,0.3-0.8c0-0.1-0.1-0.1-0.1-0.2c-0.8-0.7-1.7-1.3-2.6-1.9&#xA;&#x9;&#x9;&#x9;&#x9;c-0.3-0.2-0.7-0.1-0.9,0.2c-0.2,0.3-0.1,0.7,0.2,0.9c0.9,0.5,1.7,1.1,2.4,1.8C415.3,107.5,415.6,107.5,415.8,107.4z" id="el_U5pzgtZbEWV" /><path d="M406.1,175.7c-0.2-0.3-0.1-0.7,0.2-0.9c0,0,0,0,0,0c1.7-1.1,3.3-2.4,4.6-4c0.2-0.3,0.6-0.3,0.9-0.1&#xA;&#x9;&#x9;&#x9;&#x9;c0.3,0.2,0.3,0.6,0.1,0.9c-1.4,1.7-3,3.1-4.9,4.2l0,0C406.7,176.1,406.3,176,406.1,175.7C406.1,175.7,406.1,175.7,406.1,175.7z&#xA;&#x9;&#x9;&#x9;&#x9; M413.2,168.7c-0.3-0.2-0.4-0.5-0.2-0.8c0,0,0,0,0,0c1-1.8,1.8-3.7,2.3-5.7c0.1-0.3,0.4-0.5,0.8-0.5c0.3,0.1,0.5,0.4,0.5,0.8&#xA;&#x9;&#x9;&#x9;&#x9;c-0.5,2.1-1.3,4.1-2.4,6c-0.1,0.1-0.2,0.2-0.3,0.2C413.6,168.8,413.4,168.8,413.2,168.7L413.2,168.7z M416.4,159.2&#xA;&#x9;&#x9;&#x9;&#x9;c-0.3,0-0.6-0.3-0.6-0.7v-0.3c0.1-2,0-3.9-0.3-5.9c-0.1-0.3,0.2-0.7,0.5-0.7c0.3-0.1,0.7,0.2,0.7,0.5l0,0c0.3,2,0.4,4.1,0.3,6.1&#xA;&#x9;&#x9;&#x9;&#x9;v0.3C417,158.9,416.7,159.2,416.4,159.2L416.4,159.2z M415.5,149.2c-0.3,0.1-0.7-0.1-0.8-0.4c0,0,0,0,0,0c-0.5-2-1.2-4-2-5.9&#xA;&#x9;&#x9;&#x9;&#x9;c-0.1-0.3,0-0.7,0.3-0.8c0.3-0.1,0.7,0,0.8,0.3c0.8,2,1.5,4,2.1,6c0.1,0.3-0.1,0.6-0.3,0.7L415.5,149.2z M412,139.7&#xA;&#x9;&#x9;&#x9;&#x9;c-0.3,0.2-0.7,0-0.8-0.3l-0.2-0.5c-0.7,0.3-1.3,0.5-2,0.7c-0.3,0.1-0.7-0.1-0.8-0.4c-0.1-0.3,0.1-0.7,0.4-0.8&#xA;&#x9;&#x9;&#x9;&#x9;c0.6-0.2,1.2-0.4,1.8-0.6c-0.6-1.2-1.4-2.5-2.2-3.9c-0.2-0.3-0.1-0.7,0.2-0.9c0.3-0.2,0.7-0.1,0.9,0.2c0.8,1.4,1.6,2.8,2.2,4.1&#xA;&#x9;&#x9;&#x9;&#x9;c0.9-0.4,1.8-0.9,2.6-1.4c0.3-0.1,0.7,0,0.8,0.3c0.1,0.2,0,0.5-0.1,0.7c-0.9,0.6-1.8,1.1-2.7,1.5l0.2,0.4&#xA;&#x9;&#x9;&#x9;&#x9;C412.5,139.1,412.3,139.5,412,139.7L412,139.7z M416.9,134.5c-0.2-0.2-0.2-0.6,0-0.9c0,0,0,0,0,0c1.4-1.4,2.5-3.1,3.3-5&#xA;&#x9;&#x9;&#x9;&#x9;c0.1-0.3,0.5-0.5,0.8-0.3s0.5,0.5,0.3,0.8c-0.8,2-2,3.9-3.6,5.4c0,0-0.1,0.1-0.2,0.1C417.4,134.7,417.1,134.7,416.9,134.5&#xA;&#x9;&#x9;&#x9;&#x9;L416.9,134.5z M405.1,140.3c-2.2,0.2-4.4,0-6.5-0.5c-0.3-0.1-0.5-0.4-0.5-0.8c0.1-0.3,0.4-0.5,0.8-0.5c2,0.5,4,0.7,6,0.5&#xA;&#x9;&#x9;&#x9;&#x9;c0.3,0,0.6,0.2,0.7,0.6C405.7,140,405.4,140.3,405.1,140.3L405.1,140.3z M421.7,125.7c-0.3-0.1-0.6-0.4-0.5-0.7c0,0,0,0,0,0&#xA;&#x9;&#x9;&#x9;&#x9;c0.3-2,0.4-4.1,0.1-6.1c0-0.3,0.2-0.7,0.5-0.7c0.3,0,0.7,0.2,0.7,0.5c0.3,2.1,0.3,4.3-0.1,6.5&#xA;&#x9;&#x9;&#x9;&#x9;C422.4,125.6,422.1,125.8,421.7,125.7C421.7,125.8,421.7,125.8,421.7,125.7L421.7,125.7z M394.9,138.4c-0.5-0.3-1-0.5-1.5-0.9&#xA;&#x9;&#x9;&#x9;&#x9;c-1.4-0.9-2.6-2-3.5-3.4c-0.2-0.3-0.2-0.7,0.1-0.9c0.3-0.2,0.7-0.2,0.9,0.1c0,0,0,0,0,0.1c0.9,1.2,2,2.2,3.2,3.1&#xA;&#x9;&#x9;&#x9;&#x9;c0.4,0.3,0.9,0.5,1.4,0.8c0.3,0.2,0.4,0.5,0.3,0.8C395.6,138.4,395.2,138.6,394.9,138.4L394.9,138.4L394.9,138.4z M406.2,130.7&#xA;&#x9;&#x9;&#x9;&#x9;c-1.1-1.8-2.4-3.4-3.9-4.8c-0.3-0.2-0.3-0.6,0-0.9c0.2-0.3,0.6-0.3,0.9,0c1.6,1.5,2.9,3.2,4.1,5c0.2,0.3,0.1,0.7-0.2,0.9H407&#xA;&#x9;&#x9;&#x9;&#x9;C406.8,131,406.4,130.9,406.2,130.7L406.2,130.7z M421.2,115.8c-0.3,0.1-0.7-0.1-0.8-0.4c0,0,0,0,0,0c-0.3-0.9-0.7-1.7-1.1-2.6&#xA;&#x9;&#x9;&#x9;&#x9;c-0.5-1-1.1-1.9-1.8-2.8c-0.2-0.3-0.2-0.7,0.1-0.9s0.7-0.2,0.9,0.1c0.7,0.9,1.3,1.9,1.9,3c0.4,0.9,0.8,1.8,1.1,2.8&#xA;&#x9;&#x9;&#x9;&#x9;C421.7,115.3,421.6,115.6,421.2,115.8L421.2,115.8z M389,131.1c-0.3,0.1-0.7-0.1-0.8-0.4c0,0,0,0,0,0c-0.5-1.7-0.3-3.5,0.5-5&#xA;&#x9;&#x9;&#x9;&#x9;c0.3-0.5,0.6-1,1.1-1.5c0.2-0.2,0.6-0.3,0.9,0c0.2,0.2,0.3,0.6,0,0.9l0,0c-0.3,0.3-0.6,0.7-0.9,1.2c-0.6,1.3-0.8,2.7-0.4,4.1&#xA;&#x9;&#x9;&#x9;&#x9;c0.1,0.3-0.1,0.6-0.3,0.7L389,131.1z M399.4,123.9c-1.8-0.8-3.8-1-5.8-0.5c-0.3,0.1-0.7-0.1-0.8-0.5c-0.1-0.3,0.1-0.7,0.5-0.8&#xA;&#x9;&#x9;&#x9;&#x9;c2.2-0.5,4.5-0.3,6.6,0.6c0.3,0.1,0.4,0.5,0.3,0.8C400.1,123.9,399.8,124.1,399.4,123.9L399.4,123.9z" id="el_Bp-_dYrZ75J" /></g><path d="M403.4,177.4c0.3-0.1,0.5-0.5,0.4-0.8s-0.5-0.5-0.8-0.4c-1,0.3-1.9,0.4-2.9,0.5c-0.3,0-0.7,0.2-0.7,0.5&#xA;&#x9;&#x9;&#x9;s0.2,0.7,0.5,0.7c0.1,0,0.1,0,0.2,0c1.1-0.1,2.2-0.2,3.2-0.5L403.4,177.4z" id="el_EenwpR_do6K" /><g id="el_gngHtoFKp4d_an_QhduLdEmk" data-animator-group="true" data-animator-type="1"><g id="el_gngHtoFKp4d"><circle cx="327.4" cy="235.9" r="46" id="el_geFh1MLzpje" /><path d="M324,271.1V263c-5.6-0.1-11.1-1.6-16-4.3l3-6.2c4.5,2.4,9.4,3.7,14.5,3.7c7.4,0,12.4-3,12.4-7.9&#xA;&#x9;&#x9;&#x9;&#x9;c0-4.7-4.1-7.6-11.8-10.1c-10.6-3.4-17.2-7.3-17.2-14.8c0-7.1,6.1-12.5,15.8-13.7V201h6.5v8.3c4.7,0,9.3,1,13.6,3l-3.1,6.6&#xA;&#x9;&#x9;&#x9;&#x9;c-2.2-1-6-2.4-12.6-2.4c-8,0-11.1,2.4-11.1,5.8c0,4.4,3.9,6.7,12.9,9.7c10.7,3.6,16.2,8,16.2,15.6c0,6.7-5.7,13.6-16.5,15v8.4&#xA;&#x9;&#x9;&#x9;&#x9;L324,271.1z" id="el_LV6SqdU2hPN" /><rect x="323.7" y="201" width="7.5" height="70" id="el_JHI5PVqHEB1" /><path d="M327.4,283.7c-26.4,0-47.8-21.4-47.8-47.8c0-26.4,21.4-47.8,47.8-47.8c26.4,0,47.8,21.4,47.8,47.8&#xA;&#x9;&#x9;&#x9;&#x9;C375.2,262.3,353.8,283.7,327.4,283.7z M327.4,191.7c-24.4,0-44.2,19.8-44.2,44.2S303,280,327.4,280s44.2-19.8,44.2-44.2&#xA;&#x9;&#x9;&#x9;&#x9;C371.5,211.5,351.7,191.8,327.4,191.7L327.4,191.7z" id="el_RHGYjAjcsj6" /></g></g><rect x="198.9" y="160.3" width="113.3" height="121.8" id="el_K1PORYH-FFw" /><rect x="93.9" y="160.3" width="115" height="121.8" id="el_qnfzhjiaMPD" /><linearGradient id="SVGID_6_" gradientUnits="userSpaceOnUse" x1="170.6306" y1="197.8702" x2="235.9005" y2="51.0103" gradientTransform="matrix(1 0 0 -1 0 332)"><stop offset="0" style="stop-color:#E0F0EB" /><stop offset="1" style="stop-color:#C0E4EF" /></linearGradient><polygon points="226.5,171.6 226.5,161 192.5,161 192.5,171.6 198.9,171.6 198.9,271.5 192.5,271.5 192.5,282.1 &#xA;&#x9;&#x9;&#x9;226.5,282.1 226.5,271.5 219,271.5 219,171.6 &#x9;&#x9;" id="el_qEDNJTOzLzc" /><polygon points="225.2,171.6 225.2,161 206.4,161 206.4,282.1 225.2,282.1 225.2,271.5 217.7,271.5 217.7,171.6 &#x9;&#x9;" id="el_2r6wj0usTmZ" /><polygon points="167.4,171.6 167.4,161 133.5,161 133.5,171.6 139.9,171.6 139.9,271.5 133.5,271.5 133.5,282.1 &#xA;&#x9;&#x9;&#x9;167.4,282.1 167.4,271.5 159.9,271.5 159.9,171.6 &#x9;&#x9;" id="el_0xM5qm1fjK4" /><polygon points="167.4,171.6 167.4,161 150.1,161 150.1,282.1 167.4,282.1 167.4,271.5 159.9,271.5 159.9,171.6 &#x9;&#x9;&#xA;&#x9;&#x9;&#x9;" id="el_YxyF95UMEQb" /><polygon points="113.9,171.6 113.9,161 79.9,161 79.9,171.6 86.4,171.6 86.4,271.5 79.9,271.5 79.9,282.1 &#xA;&#x9;&#x9;&#x9;113.9,282.1 113.9,271.5 106.4,271.5 106.4,171.6 &#x9;&#x9;" id="el_s0lWZYJvwlL" /><linearGradient id="SVGID_7_" gradientUnits="userSpaceOnUse" x1="222.0364" y1="197.8684" x2="287.3064" y2="51.0084" gradientTransform="matrix(1 0 0 -1 0 332)"><stop offset="0" style="stop-color:#E0F0EB" /><stop offset="1" style="stop-color:#C0E4EF" /></linearGradient><polygon points="277.9,171.6 277.9,161 243.9,161 243.9,171.6 250.4,171.6 250.4,271.5 243.9,271.5 243.9,282.1 &#xA;&#x9;&#x9;&#x9;277.9,282.1 277.9,271.5 270.4,271.5 270.4,171.6 &#x9;&#x9;" id="el_xD4sVopRfPS" /><linearGradient id="SVGID_8_" gradientUnits="userSpaceOnUse" x1="268.1398" y1="197.8699" x2="333.4198" y2="51.0099" gradientTransform="matrix(1 0 0 -1 0 332)"><stop offset="0" style="stop-color:#E0F0EB" /><stop offset="1" style="stop-color:#C0E4EF" /></linearGradient><polygon points="324,171.6 324,161 290,161 290,171.6 296.5,171.6 296.5,271.5 290,271.5 290,282.1 324,282.1 &#xA;&#x9;&#x9;&#x9;324,271.5 316.5,271.5 316.5,171.6 &#x9;&#x9;" id="el_hFpIBP5zh7K" /><polygon points="276.5,171.6 276.5,161 257.8,161 257.8,282.1 276.5,282.1 276.5,271.5 269,271.5 269,171.6 &#x9;&#x9;" id="el_XUUC1Y1br3p" /><polygon points="321.5,171.6 321.5,161 302.7,161 302.7,282.1 321.5,282.1 321.5,271.5 314,271.5 314,171.6 &#x9;&#x9;" id="el_9K3LTTJR1nm" /><rect x="58.8" y="282.1" width="281.5" height="16.3" id="el_9obQwPQsrgS" /><rect x="198.9" y="282.1" width="141.4" height="16.3" id="el_QKXbkrRjP0c" /><rect x="30" y="298.2" width="339.1" height="16.3" id="el_1toJg5KM93T" /><linearGradient id="SVGID_9_" gradientUnits="userSpaceOnUse" x1="218.96" y1="25.675" x2="369.1" y2="25.675" gradientTransform="matrix(1 0 0 -1 0 332)"><stop offset="0" style="stop-color:#E0F0EB" /><stop offset="1" style="stop-color:#C0E4EF" /></linearGradient><rect x="219" y="298.2" width="150.1" height="16.3" id="el_gta7BWb2YB1" /><rect y="314.4" width="395.4" height="16.3" id="el_dC_AtlSNrwd" /><rect x="242.2" y="314.4" width="153.2" height="16.3" id="el_SycTqzBd6J4" /><polygon points="113.7,171.6 113.7,161 96.4,161 96.4,282.1 113.7,282.1 113.7,271.5 106.2,271.5 106.2,171.6 &#x9;&#x9;" id="el_bd4teJu42zw" /><polygon points="258.4,98.2 145.1,98.2 67.6,161.6 186.4,161.6 &#x9;&#x9;" id="el_llwq8_ORr_X" /><polygon points="185.2,161.6 329.1,161.6 257.1,98.2 &#x9;&#x9;" id="el_GdgdVHcQwEH" /><linearGradient id="SVGID_10_" gradientUnits="userSpaceOnUse" x1="202.28" y1="195.35" x2="315.62" y2="195.35" gradientTransform="matrix(1 0 0 -1 0 332)"><stop offset="0" style="stop-color:#E0F0EB" /><stop offset="1" style="stop-color:#C0E4EF" /></linearGradient><path d="M296.3,144.3l-38.6-32.4l-55.5,48.6l0.8,0.9l54.7-47.9l38,31.9C295.9,145,296.1,144.7,296.3,144.3z" id="el_rtVDHlQ4wMJ" /></g></g></svg>