<svg version="1.1" id="el_QHneSsqbt" xmlns="http://www.w3.org/2000/svg" xmlns:xlink="http://www.w3.org/1999/xlink" x="0px" y="0px" viewBox="0 0 906 709" style="enable-background:new 0 0 906.3 709.8;" xml:space="preserve"><style>@-webkit-keyframes kf_el_50hSrN2VvXb_an_hyo3cKWWg{0%{-webkit-transform: translate(247.50502014160156px, 651.2000122070312px) rotate(0deg) translate(-247.50502014160156px, -651.2000122070312px);transform: translate(247.50502014160156px, 651.2000122070312px) rotate(0deg) translate(-247.50502014160156px, -651.2000122070312px);}23.33%{-webkit-transform: translate(247.50502014160156px, 651.2000122070312px) rotate(2deg) translate(-247.50502014160156px, -651.2000122070312px);transform: translate(247.50502014160156px, 651.2000122070312px) rotate(2deg) translate(-247.50502014160156px, -651.2000122070312px);}48.33%{-webkit-transform: translate(247.50502014160156px, 651.2000122070312px) rotate(0deg) translate(-247.50502014160156px, -651.2000122070312px);transform: translate(247.50502014160156px, 651.2000122070312px) rotate(0deg) translate(-247.50502014160156px, -651.2000122070312px);}72.50%{-webkit-transform: translate(247.50502014160156px, 651.2000122070312px) rotate(4deg) translate(-247.50502014160156px, -651.2000122070312px);transform: translate(247.50502014160156px, 651.2000122070312px) rotate(4deg) translate(-247.50502014160156px, -651.2000122070312px);}100%{-webkit-transform: translate(247.50502014160156px, 651.2000122070312px) rotate(0deg) translate(-247.50502014160156px, -651.2000122070312px);transform: translate(247.50502014160156px, 651.2000122070312px) rotate(0deg) translate(-247.50502014160156px, -651.2000122070312px);}}@keyframes kf_el_50hSrN2VvXb_an_hyo3cKWWg{0%{-webkit-transform: translate(247.50502014160156px, 651.2000122070312px) rotate(0deg) translate(-247.50502014160156px, -651.2000122070312px);transform: translate(247.50502014160156px, 651.2000122070312px) rotate(0deg) translate(-247.50502014160156px, -651.2000122070312px);}23.33%{-webkit-transform: translate(247.50502014160156px, 651.2000122070312px) rotate(2deg) translate(-247.50502014160156px, -651.2000122070312px);transform: translate(247.50502014160156px, 651.2000122070312px) rotate(2deg) translate(-247.50502014160156px, -651.2000122070312px);}48.33%{-webkit-transform: translate(247.50502014160156px, 651.2000122070312px) rotate(0deg) translate(-247.50502014160156px, -651.2000122070312px);transform: translate(247.50502014160156px, 651.2000122070312px) rotate(0deg) translate(-247.50502014160156px, -651.2000122070312px);}72.50%{-webkit-transform: translate(247.50502014160156px, 651.2000122070312px) rotate(4deg) translate(-247.50502014160156px, -651.2000122070312px);transform: translate(247.50502014160156px, 651.2000122070312px) rotate(4deg) translate(-247.50502014160156px, -651.2000122070312px);}100%{-webkit-transform: translate(247.50502014160156px, 651.2000122070312px) rotate(0deg) translate(-247.50502014160156px, -651.2000122070312px);transform: translate(247.50502014160156px, 651.2000122070312px) rotate(0deg) translate(-247.50502014160156px, -651.2000122070312px);}}@-webkit-keyframes kf_el_-1a0ukF7Mw_an_GyKc7R803{0%{-webkit-transform: translate(702.5999755859375px, 619.8000030517578px) rotate(0deg) translate(-702.5999755859375px, -619.8000030517578px);transform: translate(702.5999755859375px, 619.8000030517578px) rotate(0deg) translate(-702.5999755859375px, -619.8000030517578px);}23.33%{-webkit-transform: translate(702.5999755859375px, 619.8000030517578px) rotate(2deg) translate(-702.5999755859375px, -619.8000030517578px);transform: translate(702.5999755859375px, 619.8000030517578px) rotate(2deg) translate(-702.5999755859375px, -619.8000030517578px);}48.33%{-webkit-transform: translate(702.5999755859375px, 619.8000030517578px) rotate(0deg) translate(-702.5999755859375px, -619.8000030517578px);transform: translate(702.5999755859375px, 619.8000030517578px) rotate(0deg) translate(-702.5999755859375px, -619.8000030517578px);}72.50%{-webkit-transform: translate(702.5999755859375px, 619.8000030517578px) rotate(4deg) translate(-702.5999755859375px, -619.8000030517578px);transform: translate(702.5999755859375px, 619.8000030517578px) rotate(4deg) translate(-702.5999755859375px, -619.8000030517578px);}100%{-webkit-transform: translate(702.5999755859375px, 619.8000030517578px) rotate(0deg) translate(-702.5999755859375px, -619.8000030517578px);transform: translate(702.5999755859375px, 619.8000030517578px) rotate(0deg) translate(-702.5999755859375px, -619.8000030517578px);}}@keyframes kf_el_-1a0ukF7Mw_an_GyKc7R803{0%{-webkit-transform: translate(702.5999755859375px, 619.8000030517578px) rotate(0deg) translate(-702.5999755859375px, -619.8000030517578px);transform: translate(702.5999755859375px, 619.8000030517578px) rotate(0deg) translate(-702.5999755859375px, -619.8000030517578px);}23.33%{-webkit-transform: translate(702.5999755859375px, 619.8000030517578px) rotate(2deg) translate(-702.5999755859375px, -619.8000030517578px);transform: translate(702.5999755859375px, 619.8000030517578px) rotate(2deg) translate(-702.5999755859375px, -619.8000030517578px);}48.33%{-webkit-transform: translate(702.5999755859375px, 619.8000030517578px) rotate(0deg) translate(-702.5999755859375px, -619.8000030517578px);transform: translate(702.5999755859375px, 619.8000030517578px) rotate(0deg) translate(-702.5999755859375px, -619.8000030517578px);}72.50%{-webkit-transform: translate(702.5999755859375px, 619.8000030517578px) rotate(4deg) translate(-702.5999755859375px, -619.8000030517578px);transform: translate(702.5999755859375px, 619.8000030517578px) rotate(4deg) translate(-702.5999755859375px, -619.8000030517578px);}100%{-webkit-transform: translate(702.5999755859375px, 619.8000030517578px) rotate(0deg) translate(-702.5999755859375px, -619.8000030517578px);transform: translate(702.5999755859375px, 619.8000030517578px) rotate(0deg) translate(-702.5999755859375px, -619.8000030517578px);}}@-webkit-keyframes kf_el_D2SiGxXBT0G_an_MjdZMnKZK{0%{-webkit-transform: translate(612.5999755859375px, 574.9000244140625px) rotate(0deg) translate(-612.5999755859375px, -574.9000244140625px);transform: translate(612.5999755859375px, 574.9000244140625px) rotate(0deg) translate(-612.5999755859375px, -574.9000244140625px);}15%{-webkit-transform: translate(612.5999755859375px, 574.9000244140625px) rotate(8deg) translate(-612.5999755859375px, -574.9000244140625px);transform: translate(612.5999755859375px, 574.9000244140625px) rotate(8deg) translate(-612.5999755859375px, -574.9000244140625px);}56.67%{-webkit-transform: translate(612.5999755859375px, 574.9000244140625px) rotate(8deg) translate(-612.5999755859375px, -574.9000244140625px);transform: translate(612.5999755859375px, 574.9000244140625px) rotate(8deg) translate(-612.5999755859375px, -574.9000244140625px);}68.33%{-webkit-transform: translate(612.5999755859375px, 574.9000244140625px) rotate(0deg) translate(-612.5999755859375px, -574.9000244140625px);transform: translate(612.5999755859375px, 574.9000244140625px) rotate(0deg) translate(-612.5999755859375px, -574.9000244140625px);}100%{-webkit-transform: translate(612.5999755859375px, 574.9000244140625px) rotate(0deg) translate(-612.5999755859375px, -574.9000244140625px);transform: translate(612.5999755859375px, 574.9000244140625px) rotate(0deg) translate(-612.5999755859375px, -574.9000244140625px);}}@keyframes kf_el_D2SiGxXBT0G_an_MjdZMnKZK{0%{-webkit-transform: translate(612.5999755859375px, 574.9000244140625px) rotate(0deg) translate(-612.5999755859375px, -574.9000244140625px);transform: translate(612.5999755859375px, 574.9000244140625px) rotate(0deg) translate(-612.5999755859375px, -574.9000244140625px);}15%{-webkit-transform: translate(612.5999755859375px, 574.9000244140625px) rotate(8deg) translate(-612.5999755859375px, -574.9000244140625px);transform: translate(612.5999755859375px, 574.9000244140625px) rotate(8deg) translate(-612.5999755859375px, -574.9000244140625px);}56.67%{-webkit-transform: translate(612.5999755859375px, 574.9000244140625px) rotate(8deg) translate(-612.5999755859375px, -574.9000244140625px);transform: translate(612.5999755859375px, 574.9000244140625px) rotate(8deg) translate(-612.5999755859375px, -574.9000244140625px);}68.33%{-webkit-transform: translate(612.5999755859375px, 574.9000244140625px) rotate(0deg) translate(-612.5999755859375px, -574.9000244140625px);transform: translate(612.5999755859375px, 574.9000244140625px) rotate(0deg) translate(-612.5999755859375px, -574.9000244140625px);}100%{-webkit-transform: translate(612.5999755859375px, 574.9000244140625px) rotate(0deg) translate(-612.5999755859375px, -574.9000244140625px);transform: translate(612.5999755859375px, 574.9000244140625px) rotate(0deg) translate(-612.5999755859375px, -574.9000244140625px);}}@-webkit-keyframes kf_el_jSdNfAj0XKQ_an_Mo-RuG6tR{0%{-webkit-transform: translate(285.6000061035156px, 549.8999938964844px) translate(-285.6000061035156px, -549.8999938964844px) translate(-24px, -14px);transform: translate(285.6000061035156px, 549.8999938964844px) translate(-285.6000061035156px, -549.8999938964844px) translate(-24px, -14px);}15%{-webkit-transform: translate(285.6000061035156px, 549.8999938964844px) translate(-285.6000061035156px, -549.8999938964844px) translate(0px, 0px);transform: translate(285.6000061035156px, 549.8999938964844px) translate(-285.6000061035156px, -549.8999938964844px) translate(0px, 0px);}56.67%{-webkit-transform: translate(285.6000061035156px, 549.8999938964844px) translate(-285.6000061035156px, -549.8999938964844px) translate(0px, 0px);transform: translate(285.6000061035156px, 549.8999938964844px) translate(-285.6000061035156px, -549.8999938964844px) translate(0px, 0px);}68.33%{-webkit-transform: translate(285.6000061035156px, 549.8999938964844px) translate(-285.6000061035156px, -549.8999938964844px) translate(-24px, -14px);transform: translate(285.6000061035156px, 549.8999938964844px) translate(-285.6000061035156px, -549.8999938964844px) translate(-24px, -14px);}100%{-webkit-transform: translate(285.6000061035156px, 549.8999938964844px) translate(-285.6000061035156px, -549.8999938964844px) translate(-24px, -14px);transform: translate(285.6000061035156px, 549.8999938964844px) translate(-285.6000061035156px, -549.8999938964844px) translate(-24px, -14px);}}@keyframes kf_el_jSdNfAj0XKQ_an_Mo-RuG6tR{0%{-webkit-transform: translate(285.6000061035156px, 549.8999938964844px) translate(-285.6000061035156px, -549.8999938964844px) translate(-24px, -14px);transform: translate(285.6000061035156px, 549.8999938964844px) translate(-285.6000061035156px, -549.8999938964844px) translate(-24px, -14px);}15%{-webkit-transform: translate(285.6000061035156px, 549.8999938964844px) translate(-285.6000061035156px, -549.8999938964844px) translate(0px, 0px);transform: translate(285.6000061035156px, 549.8999938964844px) translate(-285.6000061035156px, -549.8999938964844px) translate(0px, 0px);}56.67%{-webkit-transform: translate(285.6000061035156px, 549.8999938964844px) translate(-285.6000061035156px, -549.8999938964844px) translate(0px, 0px);transform: translate(285.6000061035156px, 549.8999938964844px) translate(-285.6000061035156px, -549.8999938964844px) translate(0px, 0px);}68.33%{-webkit-transform: translate(285.6000061035156px, 549.8999938964844px) translate(-285.6000061035156px, -549.8999938964844px) translate(-24px, -14px);transform: translate(285.6000061035156px, 549.8999938964844px) translate(-285.6000061035156px, -549.8999938964844px) translate(-24px, -14px);}100%{-webkit-transform: translate(285.6000061035156px, 549.8999938964844px) translate(-285.6000061035156px, -549.8999938964844px) translate(-24px, -14px);transform: translate(285.6000061035156px, 549.8999938964844px) translate(-285.6000061035156px, -549.8999938964844px) translate(-24px, -14px);}}@-webkit-keyframes kf_el_jSdNfAj0XKQ_an_TCyvOpQvj{0%{-webkit-transform: translate(285.6000061035156px, 549.8999938964844px) rotate(15deg) translate(-285.6000061035156px, -549.8999938964844px);transform: translate(285.6000061035156px, 549.8999938964844px) rotate(15deg) translate(-285.6000061035156px, -549.8999938964844px);}15%{-webkit-transform: translate(285.6000061035156px, 549.8999938964844px) rotate(0deg) translate(-285.6000061035156px, -549.8999938964844px);transform: translate(285.6000061035156px, 549.8999938964844px) rotate(0deg) translate(-285.6000061035156px, -549.8999938964844px);}56.67%{-webkit-transform: translate(285.6000061035156px, 549.8999938964844px) rotate(0deg) translate(-285.6000061035156px, -549.8999938964844px);transform: translate(285.6000061035156px, 549.8999938964844px) rotate(0deg) translate(-285.6000061035156px, -549.8999938964844px);}68.33%{-webkit-transform: translate(285.6000061035156px, 549.8999938964844px) rotate(15deg) translate(-285.6000061035156px, -549.8999938964844px);transform: translate(285.6000061035156px, 549.8999938964844px) rotate(15deg) translate(-285.6000061035156px, -549.8999938964844px);}100%{-webkit-transform: translate(285.6000061035156px, 549.8999938964844px) rotate(15deg) translate(-285.6000061035156px, -549.8999938964844px);transform: translate(285.6000061035156px, 549.8999938964844px) rotate(15deg) translate(-285.6000061035156px, -549.8999938964844px);}}@keyframes kf_el_jSdNfAj0XKQ_an_TCyvOpQvj{0%{-webkit-transform: translate(285.6000061035156px, 549.8999938964844px) rotate(15deg) translate(-285.6000061035156px, -549.8999938964844px);transform: translate(285.6000061035156px, 549.8999938964844px) rotate(15deg) translate(-285.6000061035156px, -549.8999938964844px);}15%{-webkit-transform: translate(285.6000061035156px, 549.8999938964844px) rotate(0deg) translate(-285.6000061035156px, -549.8999938964844px);transform: translate(285.6000061035156px, 549.8999938964844px) rotate(0deg) translate(-285.6000061035156px, -549.8999938964844px);}56.67%{-webkit-transform: translate(285.6000061035156px, 549.8999938964844px) rotate(0deg) translate(-285.6000061035156px, -549.8999938964844px);transform: translate(285.6000061035156px, 549.8999938964844px) rotate(0deg) translate(-285.6000061035156px, -549.8999938964844px);}68.33%{-webkit-transform: translate(285.6000061035156px, 549.8999938964844px) rotate(15deg) translate(-285.6000061035156px, -549.8999938964844px);transform: translate(285.6000061035156px, 549.8999938964844px) rotate(15deg) translate(-285.6000061035156px, -549.8999938964844px);}100%{-webkit-transform: translate(285.6000061035156px, 549.8999938964844px) rotate(15deg) translate(-285.6000061035156px, -549.8999938964844px);transform: translate(285.6000061035156px, 549.8999938964844px) rotate(15deg) translate(-285.6000061035156px, -549.8999938964844px);}}#el_QHneSsqbt *{-webkit-animation-duration: 4s;animation-duration: 4s;-webkit-animation-iteration-count: infinite;animation-iteration-count: infinite;-webkit-animation-timing-function: cubic-bezier(0, 0, 1, 1);animation-timing-function: cubic-bezier(0, 0, 1, 1);}#el_0Zc-J58xbt{fill: #F5F5F5;}#el_sb-IaE-zrv{fill: #8F2086;}#el_vnY7M1nyl7{fill: none;stroke: #535461;stroke-width: 2;stroke-miterlimit: 10;}#el_S9peV-Ycjh{fill: #8F2086;}#el_jhY54xQ7db{opacity: 0.2;fill: #F5F5F5;enable-background: new;}#el_7nP9T6uTTE{fill: none;stroke: #535461;stroke-width: 2;stroke-miterlimit: 10;}#el_nq07_iTNFL{opacity: 0.5;}#el_8RRY_vgQD3{fill: url(#SVGID_1_);}#el_z4YEw5PdEl{fill: #5A5773;}#el_BwBRbJmwRE{fill: #605D82;}#el_WnJRpsVB2I{opacity: 0.1;enable-background: new;}#el_OtYjTcgWdZ{fill: #5A5773;}#el_MWy8rvYvQ0{fill: #605D82;}#el_baW__0cbpie{opacity: 0.1;}#el_zhWDh9DZ4KY{fill: #A1616A;}#el_bdlzPymocWz{fill: #A1616A;}#el_yFCFUX76q8v{opacity: 0.1;enable-background: new;}#el_FTUwiSK-Dd6{fill: #E1E7EF;}#el_jpGUDZAAgsK{fill: #5A5773;}#el_Pn47Y8h-fCe{fill: #5A5773;}#el_VxXQEjZ0-Hs{opacity: 0.1;enable-background: new;}#el_AakFF4emEwV{fill: #67647E;}#el_hcbczr_lnOb{opacity: 0.1;enable-background: new;}#el_cR-myawNZ2Z{fill: #67647E;}#el_SXQADimld1F{opacity: 0.1;enable-background: new;}#el_KEHdZkvaqO7{fill: #67647E;}#el_kkPgunmKKvn{opacity: 0.1;enable-background: new;}#el_EgSiUGtHWGp{opacity: 0.1;enable-background: new;}#el_SIwExj-hOeE{fill: #A1616A;}#el_QFY7dE_KT5Q{fill: #67647E;}#el_ubsBw6BTTUB{opacity: 0.1;enable-background: new;}#el_2-wHpl-OtU5{fill: #A1616A;}#el_9YyfUA6TX36{opacity: 0.1;enable-background: new;}#el_08jquHb4TmG{fill: #4A4347;}#el_bIH7vDH-1lH{opacity: 0.1;enable-background: new;}#el_sviH2p2DZPd{opacity: 0.1;enable-background: new;}#el_VjpIZvYfGjY{opacity: 0.5;}#el_diV-8L2UZPL{fill: url(#SVGID_2_);}#el_PKiTCLybyZU{fill: #FFFFFF;}#el_NSt6fYmhh8c{fill: #E0E0E0;}#el_jSdNfAj0XKQ{fill: #8F2086;-webkit-transform: matrix(0.9673, -0.2536, 0.2536, 0.9673, -75.2311, 123.1638);transform: matrix(0.9673, -0.2536, 0.2536, 0.9673, -75.2311, 123.1638);}#el_xiGajMfyG-0{opacity: 5.000000e-02;enable-background: new;}#el_cX78ITXmqqF{opacity: 5.000000e-02;enable-background: new;}#el_BSMa5KSK7iu{fill: #F5F5F5;}#el_vVECb01O_Fj{opacity: 0.5;fill: #8F2086;enable-background: new;}#el_HyfaabRTPTM{opacity: 0.5;fill: #8F2086;enable-background: new;}#el_6ci1QsJeV8D{opacity: 0.5;fill: #8F2086;enable-background: new;}#el_BjTmv-wWjyL{opacity: 0.4;fill: #8F2086;enable-background: new;}#el_3prHMRFRIf5{opacity: 0.4;fill: #8F2086;enable-background: new;}#el_SPBe8WPwuQq{opacity: 0.3;fill: #8F2086;enable-background: new;}#el_2Wt3euUkOql{opacity: 0.3;fill: #8F2086;enable-background: new;}#el_utWX9Y8-6Nl{fill: #FFFFFF;}#el_bAG9OXmDBW0{fill: #FFFFFF;}#el_69BOweStpsS{opacity: 5.000000e-02;enable-background: new;}#el_I0TqRIw6WZ3{fill: #FFFFFF;}#el_CSB2eof3ql8{fill: none;stroke: #535461;stroke-width: 2;stroke-miterlimit: 10;}#el_ixya6-77O9K{fill: #8F2086;}#el_u1_y8gSQUYo{fill: #8F2086;}#el_JWkRvUgF1y9{fill: #8F2086;}#el_U8Xu4yJscUv{fill: #8F2086;}#el_ji3sanlppIL{fill: #8F2086;}#el_lqDXLwDzfBY{fill: #8F2086;}#el_XO7RU16BiR7{fill: #8F2086;}#el_jSdNfAj0XKQ_an_TCyvOpQvj{-webkit-animation-fill-mode: backwards;animation-fill-mode: backwards;-webkit-transform: translate(285.6000061035156px, 549.8999938964844px) rotate(15deg) translate(-285.6000061035156px, -549.8999938964844px);transform: translate(285.6000061035156px, 549.8999938964844px) rotate(15deg) translate(-285.6000061035156px, -549.8999938964844px);-webkit-animation-name: kf_el_jSdNfAj0XKQ_an_TCyvOpQvj;animation-name: kf_el_jSdNfAj0XKQ_an_TCyvOpQvj;-webkit-animation-timing-function: cubic-bezier(0.42, 0, 0.58, 1);animation-timing-function: cubic-bezier(0.42, 0, 0.58, 1);}#el_jSdNfAj0XKQ_an_Mo-RuG6tR{-webkit-animation-fill-mode: backwards;animation-fill-mode: backwards;-webkit-transform: translate(285.6000061035156px, 549.8999938964844px) translate(-285.6000061035156px, -549.8999938964844px) translate(-24px, -14px);transform: translate(285.6000061035156px, 549.8999938964844px) translate(-285.6000061035156px, -549.8999938964844px) translate(-24px, -14px);-webkit-animation-name: kf_el_jSdNfAj0XKQ_an_Mo-RuG6tR;animation-name: kf_el_jSdNfAj0XKQ_an_Mo-RuG6tR;-webkit-animation-timing-function: cubic-bezier(0.42, 0, 0.58, 1);animation-timing-function: cubic-bezier(0.42, 0, 0.58, 1);}#el_D2SiGxXBT0G_an_sfEN2DVZe{-webkit-transform: translate(303.6000061035156px, 181.89999389648438px) translate(-303.6000061035156px, -181.89999389648438px) translate(0px, 0px);transform: translate(303.6000061035156px, 181.89999389648438px) translate(-303.6000061035156px, -181.89999389648438px) translate(0px, 0px);}#el_D2SiGxXBT0G_an_MjdZMnKZK{-webkit-animation-fill-mode: backwards;animation-fill-mode: backwards;-webkit-transform: translate(612.5999755859375px, 574.9000244140625px) rotate(0deg) translate(-612.5999755859375px, -574.9000244140625px);transform: translate(612.5999755859375px, 574.9000244140625px) rotate(0deg) translate(-612.5999755859375px, -574.9000244140625px);-webkit-animation-name: kf_el_D2SiGxXBT0G_an_MjdZMnKZK;animation-name: kf_el_D2SiGxXBT0G_an_MjdZMnKZK;-webkit-animation-timing-function: cubic-bezier(0.42, 0, 0.58, 1);animation-timing-function: cubic-bezier(0.42, 0, 0.58, 1);}#el_-1a0ukF7Mw_an_GyKc7R803{-webkit-animation-fill-mode: backwards;animation-fill-mode: backwards;-webkit-transform: translate(702.5999755859375px, 619.8000030517578px) rotate(0deg) translate(-702.5999755859375px, -619.8000030517578px);transform: translate(702.5999755859375px, 619.8000030517578px) rotate(0deg) translate(-702.5999755859375px, -619.8000030517578px);-webkit-animation-name: kf_el_-1a0ukF7Mw_an_GyKc7R803;animation-name: kf_el_-1a0ukF7Mw_an_GyKc7R803;-webkit-animation-timing-function: cubic-bezier(0.42, 0, 0.58, 1);animation-timing-function: cubic-bezier(0.42, 0, 0.58, 1);}#el_50hSrN2VvXb_an_hyo3cKWWg{-webkit-animation-fill-mode: backwards;animation-fill-mode: backwards;-webkit-transform: translate(247.50502014160156px, 651.2000122070312px) rotate(0deg) translate(-247.50502014160156px, -651.2000122070312px);transform: translate(247.50502014160156px, 651.2000122070312px) rotate(0deg) translate(-247.50502014160156px, -651.2000122070312px);-webkit-animation-name: kf_el_50hSrN2VvXb_an_hyo3cKWWg;animation-name: kf_el_50hSrN2VvXb_an_hyo3cKWWg;-webkit-animation-timing-function: cubic-bezier(0, 0, 1, 1);animation-timing-function: cubic-bezier(0, 0, 1, 1);}</style>

<title>newsletter</title>
<ellipse cx="456.6" cy="609.8" rx="350" ry="100" id="el_0Zc-J58xbt"/>
<g id="el_-1a0ukF7Mw_an_GyKc7R803" data-animator-group="true" data-animator-type="1"><g id="el_-1a0ukF7Mw">
	<path d="M789.6,220.8c0,0-62,62-27,154s-60,245-60,245s1-0.2,2.9-0.5C832.8,596.8,896.1,451.2,825.3,343&#10;&#9;&#9;C799,302.8,777.3,255.6,789.6,220.8z" id="el_sb-IaE-zrv"/>
	<path d="M789.6,220.8c0,0-35,76,0,138s6,236-87,261" id="el_vnY7M1nyl7"/>
</g></g>
<path d="M900,471.6c0,0-70.8-11.3-77.2,52.1s-136,72.2-136,72.2s0.8,0.6,2.4,1.6c107,70.2,209.3,44.7,193.9-48.5&#10;&#9;C877.3,514.4,877.8,479.5,900,471.6z" id="el_S9peV-Ycjh"/>
<g id="el_JUZGnS6nnP">
	<path d="M900,471.6c0,0-70.8-11.3-77.2,52.1s-136,72.2-136,72.2s0.8,0.6,2.4,1.6c107,70.2,209.3,44.7,193.9-48.5&#10;&#9;&#9;C877.3,514.4,877.8,479.5,900,471.6z" id="el_jhY54xQ7db"/>
	<path d="M900,471.6c0,0-54.9,12.1-50.4,62S768,643.4,686.8,595.9" id="el_7nP9T6uTTE"/>
</g>
<g id="el_nq07_iTNFL">
	
		<linearGradient id="SVGID_1_" gradientUnits="userSpaceOnUse" x1="164.6918" y1="776.6461" x2="378.8967" y2="776.6461" gradientTransform="matrix(1 0 0 1 -120 -440.6154)">
		<stop offset="0" style="stop-color:#808080;stop-opacity:0.25"/>
		<stop offset="0.54" style="stop-color:#808080;stop-opacity:0.12"/>
		<stop offset="1" style="stop-color:#808080;stop-opacity:0.1"/>
	</linearGradient>
	<path d="M248.1,234.3c0-15.7-2.5-31.3-7.3-46.3l-12-37.2c0-0.6,0-1.2,0-1.8c0.4-23.9-18.2-35.8-25.4-34.5&#10;&#9;&#9;c-7.3,1.3-27.7-8.9-27.7-8.9v0.3c-1.4-1.6-2.7-3.3-3.8-5.1c14.6-10.6,17.8-31,7.2-45.6c-0.1-0.2-0.3-0.4-0.5-0.6&#10;&#9;&#9;c2.2-1.7,3.9-3.9,4.8-6.5c1.7-4.7,0.4-10-2.3-14.2c-1.1-1.7-2.5-3.3-4-4.8c-2.3-2.3-4.8-4.3-7.5-6.1c-6.7-4.6-14-8.6-22-10&#10;&#9;&#9;c-1.4-0.3-2.8-0.3-4.2,0c-1.2,0.5-2.3,1.1-3.4,1.8c-5.5,3.1-12.3,1.8-18.6,1.4s-14,1.4-16,7.4c-0.6,1.8-0.6,3.8-1,5.7&#10;&#9;&#9;c-1,4.6-4.5,8.2-7.3,12s-4.8,9-2.5,13.2c0.8,1.4,2,2.7,2,4.3c0,1.1-0.7,2.2-1,3.3c-0.7,2.5,0.6,5,2.6,6.8c0.9,0.9,1.9,1.7,3,2.3&#10;&#9;&#9;c3.2,1.6,6.8,2.1,10,3.6c1.6,0.8,3.1,1.8,4.4,3c3.2,3.3,4.9,7.8,4.8,12.4l0.7,0.1c0,0.2,0,0.4,0,0.6c0.7,0.1,1.4,0.1,2.2,0.2&#10;&#9;&#9;c1.1,1.7,2.3,3.3,3.6,4.8c-0.2,0.9-0.5,1.7-0.8,2.6c-2.4,1.6-21.6,14.4-43.4,11.4C59.4,106.6,46,208.6,46,208.6&#10;&#9;&#9;c-0.9,5.8-1.3,11.7-1.3,17.6c-0.1,15,3.1,34.6,20.6,31.7l9.3-3.1v50.5c0,0,1.3,13.8-3.3,23s14.7,5.9,14.7,5.9s0.7,0.8,2.1,2.1&#10;&#9;&#9;l-0.4,1.2l0.6,0.6c-2.5,8.7-6,17.1-10.2,25.1l0.5,0.3c-0.4,0.7-0.5,1-0.5,1s7.2,3.7,17.1,8.4c7.9,26.8,25.3,89,19.6,100.8l0.2,0.3&#10;&#9;&#9;l0,0c1.1,2.2,7,15.3,5.8,27.3c-1.1,10.7,13.8,59.4,19.3,77.1l-2.6,0.5l9.3,33.6l-2,21.7c0,0-11.3,30.3,15.3,24.3&#10;&#9;&#9;s19.3-30.3,19.3-30.3l0.7-49.4c0,0-2.6-1.4-5.7-2.8c-2.2-5.9-6.9-19.8-6.9-29.4c0-12.5-8.7-66.5-8.7-66.5V480v0v-0.1v-0.7v-0.1&#10;&#9;&#9;c0-0.7-0.1-1.6-0.2-2.7v-0.1c-1-14.6-4-64.2-1.8-90c1.9-1.3,3.9-2.5,6-3.6c6.5,16.4,23.2,60.7,22.1,79.3c-1.3,23-0.3,4.9,0,2&#10;&#9;&#9;c0.1-0.9,0.2,0.2,0.2,2.7c0,0.5,0,1,0,1.5s0,1.1,0,1.7s0,1.3,0,2c0,0.3,0,0.7,0,1.1c0,0.7,0,1.5,0,2.3c0,0.4,0,0.8,0,1.2&#10;&#9;&#9;c0,2,0,4.2-0.1,6.5c0,0.5,0,0.9,0,1.4c0,1.4,0,2.8-0.1,4.3c0,2-0.1,3.9-0.1,6c-0.1,4.5-0.2,9-0.4,13.3c0,0.5,0,0.9,0,1.4&#10;&#9;&#9;c0,0.9-0.1,1.8-0.1,2.7s-0.1,1.8-0.1,2.6s-0.1,1.7-0.1,2.5c0,0.9-0.1,1.8-0.2,2.7l-3.6-0.5l-0.8,8.3c-1.2,13.2,0.5,26.5,5,39&#10;&#9;&#9;c1.2,3.4,2.2,6.2,2.4,7.3c0.7,3.3,0,27,0,27s4,30.9,22.7,25c8.4-2.7,12.5-10.8,14.4-18.9c2.2-9.4,1.4-19.3-2.3-28.3&#10;&#9;&#9;c-2.6-6.7-5.4-16-3.5-23.2c3.3-12.5,3.3-30.3,3.3-30.3l-2.1-0.3c0.5-1,1-2,1.4-3c0,0-0.7-45.4,5.3-51.3c3.3-3.3,3-11.1,2-17.5&#10;&#9;&#9;c-1.4-9.3-1.8-18.7-1-28c0.4-4.8,1-9,1.7-10.5c1.8-3.5,3.5-38.6-4.3-55.4l1.6-0.5l-0.2-1.2l0.2-0.1c1.2,3.1,2.5,6.2,4,9.2&#10;&#9;&#9;c0.4,0.3,0.8,0.5,1.3,0.7c21.6-3.8,22.5-23.9,21.3-34.9c0.9,0.4,1.4,0.7,1.4,0.7l2-29c2-4.6,2.8-10.5,2.8-16.9&#10;&#9;&#9;C259.1,264.2,248.1,234.3,248.1,234.3z M224.3,316.7c-1.5-12.6-3.5-24.5-3.5-24.5l-10-35.5v-12.9l15.9,59.2L224.3,316.7z" id="el_8RRY_vgQD3"/>
</g>
<path d="M179.4,510.8l-0.7,8.1c-1.2,12.9,0.5,25.9,4.9,38.2c1.2,3.3,2.1,6.1,2.3,7.1c0.6,3.2,0,26.4,0,26.4&#10;&#9;s3.9,30.2,21.9,24.4c8.1-2.6,12-10.5,13.9-18.5c2.1-9.2,1.3-18.9-2.2-27.6c-2.6-6.5-5.2-15.7-3.3-22.7c3.2-12.2,3.2-29.6,3.2-29.6&#10;&#9;L179.4,510.8z" id="el_z4YEw5PdEl"/>
<path d="M160.1,371.3c0,0,25.1,61.1,23.8,83.6s-0.3,4.8,0,1.9c0.6-5.2,0,56-1.9,63c0,0,26.4,19.3,36.7-6.4&#10;&#9;c0,0-0.6-44.4,5.1-50.2c3.2-3.2,2.9-10.8,1.9-17.1c-1.4-9-1.7-18.2-1-27.3c0.4-4.7,0.9-8.8,1.6-10.2c1.9-3.9,3.9-47.6-7.7-59.8&#10;&#9;L160.1,371.3z" id="el_BwBRbJmwRE"/>
<path d="M185.2,519.8c1.9-7.1,2.5-68.2,1.9-63c-0.3,2.9-1.3,20.6,0-1.9s-23.8-83.6-23.8-83.6l56.1-21.6&#10;&#9;c-0.3-0.3-0.5-0.6-0.8-0.9l-58.5,22.5c0,0,25.1,61.1,23.8,83.6s-0.3,4.8,0,1.9c0.6-5.2,0,56-1.9,63c0,0,10.5,7.7,20.9,6.9&#10;&#9;C193.6,526,185.2,519.8,185.2,519.8z" id="el_WnJRpsVB2I"/>
<path d="M138.2,569.4l9,32.8l-1.9,21.2c0,0-10.9,29.6,14.8,23.8s18.6-29.6,18.6-29.6l0.6-48.2c0,0-10.3-5.8-14.8-5.1&#10;&#9;S138.2,569.4,138.2,569.4z" id="el_OtYjTcgWdZ"/>
<path d="M93.9,355.9c0,0,29.6,95.8,22.5,110.6c0,0,7.1,14.2,5.8,27s20.6,81.7,20.6,81.7l32.2-5.8c0,0-7.7-19.3-7.7-31.5&#10;&#9;s-8.4-65-8.4-65s-7.1-96.5,1.3-106.8L93.9,355.9z" id="el_MWy8rvYvQ0"/>
<g id="el_baW__0cbpie">
	<path d="M157.6,373.9c-5.3,21.8,0.6,102.2,0.6,102.2s8.4,52.7,8.4,65c0,9.3,4.5,22.8,6.6,28.6l1.7-0.3c0,0-7.7-19.3-7.7-31.5&#10;&#9;&#9;s-8.4-65-8.4-65S153.4,399.5,157.6,373.9z" id="el_WmtYpNOF3YF"/>
	<path d="M116.4,466.5l0.2,0.3c0-0.3,0.1-0.7,0.1-1C116.6,466,116.5,466.3,116.4,466.5z" id="el_3x-DFieJgkK"/>
	<path d="M158.6,369.2c0.3-1.1,0.8-2.2,1.5-3.1l-66.2-10.3c0,0,0.4,1.2,1.1,3.5L158.6,369.2z" id="el_md3ZW8OZfpj"/>
</g>
<path d="M248.2,321.1c0,0,9.6,36-19.3,41.2c-0.5-0.1-0.9-0.3-1.3-0.6c0,0-16.7-32.8-3.9-45.7L248.2,321.1z" id="el_zhWDh9DZ4KY"/>
<path d="M129.9,81.9c0,0,1.9,27-19.3,39.9s45,48.2,45,48.2l34.7-55.3c0,0-14.8,1.9-23.8-23.8L129.9,81.9z" id="el_bdlzPymocWz"/>
<path d="M115.7,123.7c0,0,32.8,68.2,62.4,3.9L223.8,354c0,0-70.8,21.9-71.4,32.2S81,359.7,81,359.7s15.4-28.3,11.6-45.7&#10;&#9;S115.7,123.7,115.7,123.7z" id="el_yFCFUX76q8v"/>
<path d="M115.7,122.4c0,0,32.8,68.2,62.4,3.9l45.7,226.4c0,0-70.8,21.9-71.4,32.2S81,358.4,81,358.4&#10;&#9;s15.4-28.3,11.6-45.7S115.7,122.4,115.7,122.4z" id="el_FTUwiSK-Dd6"/>
<path d="M147.9,587.4c0,0-8.4-18.7,10.9-18.7s16.1,16.7,16.1,16.7L147.9,587.4z" id="el_jpGUDZAAgsK"/>
<path d="M191.6,539.1c0,0-7.7-19.9,11.6-20.6s9.6,18,9.6,18L191.6,539.1z" id="el_Pn47Y8h-fCe"/>
<path d="M175.2,107.9c0,0,19.6,10,26.7,8.7c7.1-1.3,25.7,10.9,24.4,35.4l11.6,36.5c4.6,14.6,7,29.9,7,45.2l0,0&#10;&#9;c0,0,16.7,46.3,7.7,66.9l-1.9,28.3c0,0-14.8-8.4-30.2-5.8l3.9-23.1L207,234.3l-28.9-70.1L175.2,107.9z" id="el_VxXQEjZ0-Hs"/>
<path d="M175.2,106.6c0,0,19.6,10,26.7,8.7c7.1-1.3,25.7,10.9,24.4,35.4l11.6,36.5c4.6,14.6,7,29.9,7,45.2l0,0&#10;&#9;c0,0,16.7,46.3,7.7,66.9l-1.9,28.3c0,0-14.8-8.4-30.2-5.8l3.9-23.1L207,233l-28.9-70.1L175.2,106.6z" id="el_AakFF4emEwV"/>
<path d="M207.7,184.8v72.7l9.6,34.7c0,0,6.4,37.9,4.5,49.5s-32.8,14.1-41.2,4.5s-3.9-92-3.9-92l-1.6-120.5l1.3-3.9&#10;&#9;L207.7,184.8z" id="el_hcbczr_lnOb"/>
<path d="M209,181.6v72.7l9.6,34.7c0,0,6.4,37.9,4.5,49.5s-32.8,14.1-41.2,4.5s-3.9-92-3.9-92l-1.6-120.6L209,181.6z" id="el_cR-myawNZ2Z"/>
<path d="M79.4,242l20.6,64l-9.6,27.3c0,0,45.7,48.2,74.6,25.1c0,0,3.2-98.4-3.2-121.5s-37.3-101-37.3-101l-6.4-20.5&#10;&#9;L84,134.7L79.4,242z" id="el_SXQADimld1F"/>
<path d="M77.8,238.8v63c0,0,1.3,13.5-3.2,22.5s14.1,5.8,14.1,5.8s45.7,48.2,74.6,25.1c0,0,3.2-98.4-3.2-121.5&#10;&#9;s-37.3-101-37.3-101l-6.4-20.6l-34.1,19.3L77.8,238.8z" id="el_KEHdZkvaqO7"/>
<path d="M127.6,100.9c0,0-19.6,14.5-42.1,11.2s-35.4,96.5-35.4,96.5s-8.4,51.4,18.6,46.9l59.8-19.9&#10;&#9;c0,0-12.9-13.5-10.9-30.9l-28.9,11.6L90,161L127.6,100.9z" id="el_kkPgunmKKvn"/>
<path d="M51.4,207.3c0,0-8.4,51.4,18.6,46.9l59.8-19.9c0,0-12.9-13.5-10.9-30.9L90,215L51.4,207.3z" id="el_EgSiUGtHWGp"/>
<path d="M117.5,210.2c0,0,20.1-26.4,34.9-13.7s-29.5,35.9-29.5,35.9L117.5,210.2z" id="el_SIwExj-hOeE"/>
<path d="M127.6,99.6c0,0-19.6,14.5-42.1,11.2s-35.4,96.5-35.4,96.5s-8.4,51.4,18.6,46.9l59.8-19.9&#10;&#9;c0,0-12.9-13.5-10.9-30.9L88.7,215l1.3-55.3l32.8-27L127.6,99.6z" id="el_QFY7dE_KT5Q"/>
<path d="M167.2,92.2l-36.7-9c0,0,1.9,2.2-0.3,10.6c5.9,6.8,13.1,15.8,22.8,15.8c6.9,0,13.7-2.2,19.2-6.4&#10;&#9;C170.2,99.7,168.5,96,167.2,92.2z" id="el_ubsBw6BTTUB"/>
<circle cx="152.4" cy="76.1" r="32.2" id="el_2-wHpl-OtU5"/>
<path d="M164.6,62.1c7.5-1.3,15.7-4.6,18.2-11.7c1.6-4.6,0.4-9.8-2.2-13.8s-6.5-7.2-10.4-10c-6.4-4.5-13.5-8.4-21.3-9.8&#10;&#9;c-1.3-0.3-2.7-0.3-4.1,0c-1.2,0.5-2.3,1.1-3.3,1.8c-5.3,3.1-11.9,1.7-18,1.4c-6.1-0.3-13.5,1.4-15.4,7.2c-0.6,1.8-0.6,3.7-1,5.6&#10;&#9;c-1,4.5-4.4,8-7,11.8s-4.6,8.8-2.4,12.9c0.8,1.4,2,2.6,2,4.2c-0.2,1.1-0.5,2.2-1,3.2c-0.9,3.3,1.7,6.7,4.8,8.2s6.6,2.1,9.7,3.5&#10;&#9;c6,2.9,9.7,9.1,9.5,15.7c2.8,0.3,6.1,0.5,8.1-1.6c0.9-0.9,1.3-2.2,2.1-3.2c1-1.3,2.6-2.1,3.8-3.2c6.7-5.5,2-13.2,5.8-19.1&#10;&#9;c2-3.1,5.2-2.1,8.4-2.1C155.4,63.2,160,62.9,164.6,62.1z" id="el_9YyfUA6TX36"/>
<path d="M163.9,61.5c7.5-1.3,15.7-4.6,18.2-11.7c1.6-4.6,0.4-9.8-2.2-13.8s-6.5-7.2-10.4-10&#10;&#9;c-6.4-4.5-13.5-8.4-21.3-9.8c-1.3-0.3-2.7-0.3-4.1,0c-1.2,0.5-2.3,1.1-3.3,1.8c-5.3,3.1-11.9,1.7-18,1.4c-6.1-0.3-13.5,1.4-15.4,7.2&#10;&#9;c-0.6,1.8-0.6,3.7-1,5.6c-1,4.5-4.4,8-7,11.8s-4.6,8.8-2.4,12.9c0.8,1.4,2,2.6,2,4.2c-0.2,1.1-0.5,2.2-1,3.2&#10;&#9;c-0.9,3.3,1.7,6.7,4.8,8.2s6.6,2.1,9.7,3.5c6,2.9,9.7,9.1,9.5,15.8c2.8,0.3,6.1,0.5,8.1-1.6c0.9-0.9,1.3-2.2,2.1-3.2&#10;&#9;c1-1.3,2.6-2.1,3.8-3.2c6.7-5.5,2-13.2,5.8-19.1c2-3.1,5.2-2.1,8.4-2.1C154.7,62.6,159.4,62.3,163.9,61.5z" id="el_08jquHb4TmG"/>
<path d="M202.9,169.7c0,0,7.1,36.7,3.9,50.8c-2,8.2-1.7,16.8,0.8,24.9" id="el_bIH7vDH-1lH"/>
<path d="M88.6,185.1c0,0-3.1,24.4,2,29.6" id="el_sviH2p2DZPd"/>
<path d="M268.1,486.3c0.8,0,1.5-0.7,1.5-1.5s-0.7-1.5-1.5-1.5s-1.5,0.7-1.5,1.5S267.3,486.3,268.1,486.3L268.1,486.3z" id="el_-n7Kjx-KH-S"/>
<g id="el_VjpIZvYfGjY">
	
		<linearGradient id="SVGID_2_" gradientUnits="userSpaceOnUse" x1="576.794" y1="1077.0154" x2="576.794" y2="541.2904" gradientTransform="matrix(1 0 0 1 -120 -440.6154)">
		<stop offset="0" style="stop-color:#808080;stop-opacity:0.25"/>
		<stop offset="0.54" style="stop-color:#808080;stop-opacity:0.12"/>
		<stop offset="1" style="stop-color:#808080;stop-opacity:0.1"/>
	</linearGradient>
	<path d="M730,311.5v-0.8L457.2,100.9c-0.4-0.3-0.8-0.3-1.2,0L183.1,310.7v325.2h0.5v0.5h546.9V311.2L730,311.5z" id="el_diV-8L2UZPL"/>
</g>
<polygon points="720.6,626.8 192.6,626.8 192.6,312.9 456.6,109.8 720.6,312.9 " id="el_PKiTCLybyZU"/>
<polygon points="701.6,608.2 211.6,608.2 211.6,316.8 456.6,128.4 701.6,316.8 " id="el_NSt6fYmhh8c"/>
<g id="el_jSdNfAj0XKQ_an_Mo-RuG6tR" data-animator-group="true" data-animator-type="0"><g id="el_jSdNfAj0XKQ_an_TCyvOpQvj" data-animator-group="true" data-animator-type="1"><rect x="285.6" y="156.9" width="309" height="393" id="el_jSdNfAj0XKQ"/></g></g>
<polygon points="195.1,313.4 459.1,470.4 195.1,627.3 " id="el_xiGajMfyG-0"/>
<polygon points="719.1,313.4 455.1,470.4 719.1,627.3 " id="el_cX78ITXmqqF"/>
<g id="el_D2SiGxXBT0G_an_MjdZMnKZK" data-animator-group="true" data-animator-type="1"><g id="el_D2SiGxXBT0G">
	<rect x="303.6" y="181.9" width="309" height="393" id="el_BSMa5KSK7iu"/>
	<rect x="321.6" y="199.9" width="124" height="10" id="el_vVECb01O_Fj"/>
	<rect x="321.6" y="239.9" width="268" height="10" id="el_HyfaabRTPTM"/>
	<rect x="321.6" y="265.9" width="268" height="10" id="el_6ci1QsJeV8D"/>
	<rect x="321.6" y="291.9" width="268" height="10" id="el_BjTmv-wWjyL"/>
	<rect x="321.6" y="317.9" width="268" height="10" id="el_3prHMRFRIf5"/>
	<rect x="321.6" y="343.9" width="153" height="10" id="el_SPBe8WPwuQq"/>
	<rect x="321.6" y="369.9" width="209" height="10" id="el_2Wt3euUkOql"/>
</g></g>
<g id="el_SS-PJxhc29j">
	<polygon points="193.1,313.4 457.1,470.4 193.1,627.3 &#9;" id="el_utWX9Y8-6Nl"/>
	<polygon points="721.1,313.4 457.1,470.4 721.1,627.3 &#9;" id="el_bAG9OXmDBW0"/>
	<polygon points="193.1,622.3 457.1,416.4 721.1,622.3 &#9;" id="el_69BOweStpsS"/>
	<polygon points="193.1,627.3 457.1,421.4 721.1,627.3 &#9;" id="el_I0TqRIw6WZ3"/>
</g>
<g id="el_50hSrN2VvXb_an_hyo3cKWWg" data-animator-group="true" data-animator-type="1"><g id="el_50hSrN2VvXb">
	<path d="M246.7,651.2c0,0-13.3-45,2.5-78.1c6.7-13.9,8.7-29.5,5.8-44.6c-1.5-7.2-3.6-14.2-6.3-20.9" id="el_CSB2eof3ql8"/>
	<path d="M258.5,486.6c0,5.5-10,21.5-10,21.5s-10-16-10-21.5s4.5-10,10-10S258.5,481.1,258.5,486.6z" id="el_ixya6-77O9K"/>
	<path d="M275,517.1c-3,4.6-20.1,12.6-20.1,12.6s0.3-18.9,3.3-23.5c3.2-4.5,9.5-5.5,13.9-2.3&#10;&#9;&#9;C276.4,507,277.6,512.7,275,517.1z" id="el_u1_y8gSQUYo"/>
	<path d="M274.2,569.4c-4.9,2.5-23.7,0.8-23.7,0.8s9.8-16.1,14.7-18.6c4.8-2.7,10.9-1,13.6,3.8s1,10.9-3.8,13.6&#10;&#9;&#9;C274.8,569.1,274.5,569.3,274.2,569.4L274.2,569.4z" id="el_JWkRvUgF1y9"/>
	<path d="M264.8,608.8c-4.4,3.3-23.2,4.8-23.2,4.8s6.9-17.5,11.4-20.8c4.6-3.1,10.8-1.8,13.9,2.8&#10;&#9;&#9;C269.6,599.7,268.8,605.5,264.8,608.8z" id="el_U8Xu4yJscUv"/>
	<path d="M233.9,530.8c4,3.8,22.4,7.8,22.4,7.8s-4.5-18.3-8.5-22.2c-4.1-3.7-10.5-3.3-14.1,0.9&#10;&#9;&#9;C230.3,521.3,230.4,527.1,233.9,530.8L233.9,530.8z" id="el_ji3sanlppIL"/>
	<path d="M223.5,577c4.9,2.5,23.7,0.8,23.7,0.8s-9.8-16.1-14.7-18.6c-5-2.3-11,0-13.2,5&#10;&#9;&#9;C217.1,568.9,218.9,574.5,223.5,577L223.5,577z" id="el_lqDXLwDzfBY"/>
	<path d="M219.5,623.3c4.4,3.3,23.2,4.8,23.2,4.8s-6.9-17.5-11.4-20.8c-4.3-3.5-10.6-2.9-14.1,1.4s-2.9,10.6,1.4,14.1&#10;&#9;&#9;C218.9,623,219.2,623.2,219.5,623.3z" id="el_XO7RU16BiR7"/>
</g></g>
</svg>