<svg version="1.1" id="el_8IwX7tokB" xmlns="http://www.w3.org/2000/svg" xmlns:xlink="http://www.w3.org/1999/xlink" x="0px" y="0px" viewBox="0 0 418 210" style="enable-background:new 0 0 418.6 195.8;" xml:space="preserve"><style>@-webkit-keyframes kf_el_j3z8WGEOX2_an_h-2x4XyPN {0% {-webkit-transform: translate(299.1371154785156px, 34.34124755859375px) translate(-299.1371154785156px, -34.34124755859375px) translate(0px, 0px);transform: translate(299.1371154785156px, 34.34124755859375px) translate(-299.1371154785156px, -34.34124755859375px) translate(0px, 0px);}49.17% {-webkit-transform: translate(299.1371154785156px, 34.34124755859375px) translate(-299.1371154785156px, -34.34124755859375px) translate(17px, 0px);transform: translate(299.1371154785156px, 34.34124755859375px) translate(-299.1371154785156px, -34.34124755859375px) translate(17px, 0px);}75% {-webkit-transform: translate(299.1371154785156px, 34.34124755859375px) translate(-299.1371154785156px, -34.34124755859375px) translate(0px, 0px);transform: translate(299.1371154785156px, 34.34124755859375px) translate(-299.1371154785156px, -34.34124755859375px) translate(0px, 0px);}100% {-webkit-transform: translate(299.1371154785156px, 34.34124755859375px) translate(-299.1371154785156px, -34.34124755859375px) translate(0px, 0px);transform: translate(299.1371154785156px, 34.34124755859375px) translate(-299.1371154785156px, -34.34124755859375px) translate(0px, 0px);}}@keyframes kf_el_j3z8WGEOX2_an_h-2x4XyPN {0% {-webkit-transform: translate(299.1371154785156px, 34.34124755859375px) translate(-299.1371154785156px, -34.34124755859375px) translate(0px, 0px);transform: translate(299.1371154785156px, 34.34124755859375px) translate(-299.1371154785156px, -34.34124755859375px) translate(0px, 0px);}49.17% {-webkit-transform: translate(299.1371154785156px, 34.34124755859375px) translate(-299.1371154785156px, -34.34124755859375px) translate(17px, 0px);transform: translate(299.1371154785156px, 34.34124755859375px) translate(-299.1371154785156px, -34.34124755859375px) translate(17px, 0px);}75% {-webkit-transform: translate(299.1371154785156px, 34.34124755859375px) translate(-299.1371154785156px, -34.34124755859375px) translate(0px, 0px);transform: translate(299.1371154785156px, 34.34124755859375px) translate(-299.1371154785156px, -34.34124755859375px) translate(0px, 0px);}100% {-webkit-transform: translate(299.1371154785156px, 34.34124755859375px) translate(-299.1371154785156px, -34.34124755859375px) translate(0px, 0px);transform: translate(299.1371154785156px, 34.34124755859375px) translate(-299.1371154785156px, -34.34124755859375px) translate(0px, 0px);}}@-webkit-keyframes kf_el_uk1SzzhOoc_an_QvdvdCxDQ {0% {-webkit-transform: translate(59.20000076293945px, 195.80000019073486px) translate(-59.20000076293945px, -195.80000019073486px) translate(0px, 0px);transform: translate(59.20000076293945px, 195.80000019073486px) translate(-59.20000076293945px, -195.80000019073486px) translate(0px, 0px);}50% {-webkit-transform: translate(59.20000076293945px, 195.80000019073486px) translate(-59.20000076293945px, -195.80000019073486px) translate(0px, 15px);transform: translate(59.20000076293945px, 195.80000019073486px) translate(-59.20000076293945px, -195.80000019073486px) translate(0px, 15px);}100% {-webkit-transform: translate(59.20000076293945px, 195.80000019073486px) translate(-59.20000076293945px, -195.80000019073486px) translate(0px, 0px);transform: translate(59.20000076293945px, 195.80000019073486px) translate(-59.20000076293945px, -195.80000019073486px) translate(0px, 0px);}}@keyframes kf_el_uk1SzzhOoc_an_QvdvdCxDQ {0% {-webkit-transform: translate(59.20000076293945px, 195.80000019073486px) translate(-59.20000076293945px, -195.80000019073486px) translate(0px, 0px);transform: translate(59.20000076293945px, 195.80000019073486px) translate(-59.20000076293945px, -195.80000019073486px) translate(0px, 0px);}50% {-webkit-transform: translate(59.20000076293945px, 195.80000019073486px) translate(-59.20000076293945px, -195.80000019073486px) translate(0px, 15px);transform: translate(59.20000076293945px, 195.80000019073486px) translate(-59.20000076293945px, -195.80000019073486px) translate(0px, 15px);}100% {-webkit-transform: translate(59.20000076293945px, 195.80000019073486px) translate(-59.20000076293945px, -195.80000019073486px) translate(0px, 0px);transform: translate(59.20000076293945px, 195.80000019073486px) translate(-59.20000076293945px, -195.80000019073486px) translate(0px, 0px);}}@-webkit-keyframes kf_el_uk1SzzhOoc_an_os2THn5CG {0% {-webkit-transform: translate(59.20000076293945px, 195.80000019073486px) scale(1, 1) translate(-59.20000076293945px, -195.80000019073486px);transform: translate(59.20000076293945px, 195.80000019073486px) scale(1, 1) translate(-59.20000076293945px, -195.80000019073486px);}23.33% {-webkit-transform: translate(59.20000076293945px, 195.80000019073486px) scale(0.9, 0.9) translate(-59.20000076293945px, -195.80000019073486px);transform: translate(59.20000076293945px, 195.80000019073486px) scale(0.9, 0.9) translate(-59.20000076293945px, -195.80000019073486px);}50% {-webkit-transform: translate(59.20000076293945px, 195.80000019073486px) scale(1, 1) translate(-59.20000076293945px, -195.80000019073486px);transform: translate(59.20000076293945px, 195.80000019073486px) scale(1, 1) translate(-59.20000076293945px, -195.80000019073486px);}75.83% {-webkit-transform: translate(59.20000076293945px, 195.80000019073486px) scale(0.9, 0.9) translate(-59.20000076293945px, -195.80000019073486px);transform: translate(59.20000076293945px, 195.80000019073486px) scale(0.9, 0.9) translate(-59.20000076293945px, -195.80000019073486px);}100% {-webkit-transform: translate(59.20000076293945px, 195.80000019073486px) scale(1, 1) translate(-59.20000076293945px, -195.80000019073486px);transform: translate(59.20000076293945px, 195.80000019073486px) scale(1, 1) translate(-59.20000076293945px, -195.80000019073486px);}}@keyframes kf_el_uk1SzzhOoc_an_os2THn5CG {0% {-webkit-transform: translate(59.20000076293945px, 195.80000019073486px) scale(1, 1) translate(-59.20000076293945px, -195.80000019073486px);transform: translate(59.20000076293945px, 195.80000019073486px) scale(1, 1) translate(-59.20000076293945px, -195.80000019073486px);}23.33% {-webkit-transform: translate(59.20000076293945px, 195.80000019073486px) scale(0.9, 0.9) translate(-59.20000076293945px, -195.80000019073486px);transform: translate(59.20000076293945px, 195.80000019073486px) scale(0.9, 0.9) translate(-59.20000076293945px, -195.80000019073486px);}50% {-webkit-transform: translate(59.20000076293945px, 195.80000019073486px) scale(1, 1) translate(-59.20000076293945px, -195.80000019073486px);transform: translate(59.20000076293945px, 195.80000019073486px) scale(1, 1) translate(-59.20000076293945px, -195.80000019073486px);}75.83% {-webkit-transform: translate(59.20000076293945px, 195.80000019073486px) scale(0.9, 0.9) translate(-59.20000076293945px, -195.80000019073486px);transform: translate(59.20000076293945px, 195.80000019073486px) scale(0.9, 0.9) translate(-59.20000076293945px, -195.80000019073486px);}100% {-webkit-transform: translate(59.20000076293945px, 195.80000019073486px) scale(1, 1) translate(-59.20000076293945px, -195.80000019073486px);transform: translate(59.20000076293945px, 195.80000019073486px) scale(1, 1) translate(-59.20000076293945px, -195.80000019073486px);}}@-webkit-keyframes kf_el_KdL0P2U-4G_an_z9gBzxy8C {0% {-webkit-transform: translate(-0.0011858940124511719px, 0px) translate(0.0011858940124511719px, 0px) translate(0px, 0px);transform: translate(-0.0011858940124511719px, 0px) translate(0.0011858940124511719px, 0px) translate(0px, 0px);}49.17% {-webkit-transform: translate(-0.0011858940124511719px, 0px) translate(0.0011858940124511719px, 0px) translate(17px, 0px);transform: translate(-0.0011858940124511719px, 0px) translate(0.0011858940124511719px, 0px) translate(17px, 0px);}75% {-webkit-transform: translate(-0.0011858940124511719px, 0px) translate(0.0011858940124511719px, 0px) translate(0px, 0px);transform: translate(-0.0011858940124511719px, 0px) translate(0.0011858940124511719px, 0px) translate(0px, 0px);}100% {-webkit-transform: translate(-0.0011858940124511719px, 0px) translate(0.0011858940124511719px, 0px) translate(0px, 0px);transform: translate(-0.0011858940124511719px, 0px) translate(0.0011858940124511719px, 0px) translate(0px, 0px);}}@keyframes kf_el_KdL0P2U-4G_an_z9gBzxy8C {0% {-webkit-transform: translate(-0.0011858940124511719px, 0px) translate(0.0011858940124511719px, 0px) translate(0px, 0px);transform: translate(-0.0011858940124511719px, 0px) translate(0.0011858940124511719px, 0px) translate(0px, 0px);}49.17% {-webkit-transform: translate(-0.0011858940124511719px, 0px) translate(0.0011858940124511719px, 0px) translate(17px, 0px);transform: translate(-0.0011858940124511719px, 0px) translate(0.0011858940124511719px, 0px) translate(17px, 0px);}75% {-webkit-transform: translate(-0.0011858940124511719px, 0px) translate(0.0011858940124511719px, 0px) translate(0px, 0px);transform: translate(-0.0011858940124511719px, 0px) translate(0.0011858940124511719px, 0px) translate(0px, 0px);}100% {-webkit-transform: translate(-0.0011858940124511719px, 0px) translate(0.0011858940124511719px, 0px) translate(0px, 0px);transform: translate(-0.0011858940124511719px, 0px) translate(0.0011858940124511719px, 0px) translate(0px, 0px);}}#el_8IwX7tokB * {-webkit-animation-duration: 4s;animation-duration: 4s;-webkit-animation-iteration-count: infinite;animation-iteration-count: infinite;-webkit-animation-play-state: running;animation-play-state: running;-webkit-animation-timing-function: cubic-bezier(0, 0, 1, 1);animation-timing-function: cubic-bezier(0, 0, 1, 1);}#el_j3z8WGEOX2 {fill: url(#SVGID_1_);}.card-grafik-usluge:hover #el_8IwX7tokB #el_j3z8WGEOX2 {}#el_KdL0P2U-4G {fill: url(#SVGID_2_);}.card-grafik-usluge:hover #el_8IwX7tokB #el_KdL0P2U-4G {}#el_17yulE_tnJ {fill: url(#SVGID_3_);}#el_B925IGJGmx {fill: #63C1C5;}#el_2UHgbzx6nR {fill: #01898C;}#el_8sJALafAEo {fill: url(#SVGID_4_);}#el_lLMGYYIGCd {fill: #212B53;}#el_9FqMkjrx9f {fill: #F8B68F;}#el_WcXg5szoK1 {fill: #212B53;}#el_dFstc8oaDY {fill: #F8B68F;}#el_opplrslvCY {fill: #212B53;}#el_mKmmo6546R {fill: #043C5E;}#el_QQhfEGLE6yC {fill: #F8B68F;}#el_T31gxrxlo5X {fill: #F4A086;}#el_N8mDuMltcEF {fill: #F4A086;}#el_SqugodALBTp {fill: #F8B68F;}#el_K_avtTLcojQ {fill: #212B53;}#el_MfD-cUaDC2S {fill: #F8B68F;}#el_0vW--DmoG39 {fill: #212B53;}#el_sU1Zf5lciHp {fill: #01898C;}#el_nk9DMzykfiN {fill: #F8B68F;}#el_PBkI8wJQXFd {fill: #63C1C5;}#el_AatoFpYFrtp {fill: #B0D9C8;}#el_qI3Rjyrxarl {fill: #63C1C5;}#el_iZPCrekPqnz {fill: url(#SVGID_5_);}#el_GxN6TPpE7IR {fill: url(#SVGID_6_);}#el_iU8hZHHC84X {fill: #63C1C5;}#el_05HWPaB1dhv {fill: #63C1C5;}#el_GKxjWHSpHTK {fill: #63C1C5;}#el_PaRqq6_LhCq {fill: url(#SVGID_7_);}#el__mpJH-scbRQ {fill: #B0D9C8;}#el_V6E3XzPiJhu {fill: #63C1C5;}#el_ljFmDu6aHhe {fill: url(#SVGID_8_);}#el_Lttpa8QVKEV {fill: #63C1C5;}#el_cRQ8kVmwga_ {fill: #63C1C5;}#el_pbg08KGnIkm {fill: #63C1C5;}#el_GBgnI5ixAsR {fill: #63C1C5;}#el_wRp1UoqXp9F {fill: #63C1C5;}#el_Ew9ALLCNzC6 {fill: #63C1C5;}#el_Msw9KQfnGnB {fill: #63C1C5;}#el_uiCSwpmOAhh {fill: #63C1C5;}#el_sMV2I4iZdTC {fill: #63C1C5;}#el_ku03tQnJdHq {fill: #63C1C5;}#el_aNiGFMnYKB2 {fill: #63C1C5;}#el_RHWy-b8Cwqh {fill: #63C1C5;}#el_C6o5mLz-pvo {fill: #63C1C5;}#el_Fx--dkUO9hT {fill: #63C1C5;}#el_y3clmC7zniU {fill: #63C1C5;}#el_AavUEZ-qQkf {fill: #63C1C5;}#el_uk1SzzhOoc_an_QvdvdCxDQ {-webkit-transform: translate(59.20000076293945px, 195.80000019073486px) translate(-59.20000076293945px, -195.80000019073486px) translate(0px, 0px);transform: translate(59.20000076293945px, 195.80000019073486px) translate(-59.20000076293945px, -195.80000019073486px) translate(0px, 0px);-webkit-animation-fill-mode: backwards;animation-fill-mode: backwards;-webkit-animation-timing-function: cubic-bezier(0, 0, 0.58, 1);animation-timing-function: cubic-bezier(0, 0, 0.58, 1);}.card-grafik-usluge:hover #el_8IwX7tokB #el_uk1SzzhOoc_an_QvdvdCxDQ {-webkit-animation-name: kf_el_uk1SzzhOoc_an_QvdvdCxDQ;animation-name: kf_el_uk1SzzhOoc_an_QvdvdCxDQ;}#el_uk1SzzhOoc_an_ZQ2rdV_Ek {-webkit-transform: translate(59.20000076293945px, 195.80000019073486px) rotate(0deg) translate(-59.20000076293945px, -195.80000019073486px);transform: translate(59.20000076293945px, 195.80000019073486px) rotate(0deg) translate(-59.20000076293945px, -195.80000019073486px);}#el_uk1SzzhOoc_an_os2THn5CG {-webkit-transform: translate(59.20000076293945px, 195.80000019073486px) scale(1, 1) translate(-59.20000076293945px, -195.80000019073486px);transform: translate(59.20000076293945px, 195.80000019073486px) scale(1, 1) translate(-59.20000076293945px, -195.80000019073486px);-webkit-animation-fill-mode: backwards;animation-fill-mode: backwards;-webkit-animation-timing-function: cubic-bezier(0, 0, 0.58, 1);animation-timing-function: cubic-bezier(0, 0, 0.58, 1);}.card-grafik-usluge:hover #el_8IwX7tokB #el_uk1SzzhOoc_an_os2THn5CG {-webkit-animation-name: kf_el_uk1SzzhOoc_an_os2THn5CG;animation-name: kf_el_uk1SzzhOoc_an_os2THn5CG;}#el_KdL0P2U-4G_an_z9gBzxy8C {-webkit-animation-fill-mode: backwards;animation-fill-mode: backwards;-webkit-transform: translate(-0.0011858940124511719px, 0px) translate(0.0011858940124511719px, 0px) translate(0px, 0px);transform: translate(-0.0011858940124511719px, 0px) translate(0.0011858940124511719px, 0px) translate(0px, 0px);-webkit-animation-timing-function: cubic-bezier(0, 0, 1, 1);animation-timing-function: cubic-bezier(0, 0, 1, 1);}.card-grafik-usluge:hover #el_8IwX7tokB #el_KdL0P2U-4G_an_z9gBzxy8C {-webkit-animation-name: kf_el_KdL0P2U-4G_an_z9gBzxy8C;animation-name: kf_el_KdL0P2U-4G_an_z9gBzxy8C;}#el_j3z8WGEOX2_an_h-2x4XyPN {-webkit-animation-fill-mode: backwards;animation-fill-mode: backwards;-webkit-transform: translate(299.1371154785156px, 34.34124755859375px) translate(-299.1371154785156px, -34.34124755859375px) translate(0px, 0px);transform: translate(299.1371154785156px, 34.34124755859375px) translate(-299.1371154785156px, -34.34124755859375px) translate(0px, 0px);-webkit-animation-timing-function: cubic-bezier(0, 0, 1, 1);animation-timing-function: cubic-bezier(0, 0, 1, 1);}.card-grafik-usluge:hover #el_8IwX7tokB #el_j3z8WGEOX2_an_h-2x4XyPN {-webkit-animation-name: kf_el_j3z8WGEOX2_an_h-2x4XyPN;animation-name: kf_el_j3z8WGEOX2_an_h-2x4XyPN;}</style><title>putno</title><g id="el_JCQykXcgZF"><g id="el_ZN86wCI_oG"><linearGradient id="SVGID_1_" gradientUnits="userSpaceOnUse" x1="299.0938" y1="143.0372" x2="401.9213" y2="143.0372" gradientTransform="matrix(1 0 0 -1 0 198)"><stop offset="0" style="stop-color:#E0F0EB" /><stop offset="1" style="stop-color:#C0E4EF" /></linearGradient><g id="el_j3z8WGEOX2_an_h-2x4XyPN" data-animator-group="true" data-animator-type="0"><path d="M299.4,57.1c-3.8,16.3,34.6,18.4,50.5,18.6c4.4,0,8.8-0.4,13.1-1.2c13.4-2.7,42.7-9.8,38.6-19.5&#xA;&#x9;&#x9;&#x9;c-5.3-12.5-21.2-3.8-21.2-3.8s2-9.5-25.1-15.7s-27,14.5-27,14.5S304.1,36.6,299.4,57.1z" id="el_j3z8WGEOX2" /></g><linearGradient id="SVGID_2_" gradientUnits="userSpaceOnUse" x1="369.2016" y1="167.3651" x2="539.1904" y2="167.3651" gradientTransform="matrix(1 0 0 -1 -369.2 198)"><stop offset="0" style="stop-color:#E0F0EB" /><stop offset="1" style="stop-color:#C0E4EF" /></linearGradient><g id="el_KdL0P2U-4G_an_z9gBzxy8C" data-animator-group="true" data-animator-type="0"><path d="M10.5,55.9c26.4,3.9,87.9,10.4,148.2-1.2c4.1-0.7,7.7-3.1,9.9-6.7c2.6-4.3,1.7-8-4.7-13.5&#xA;&#x9;&#x9;&#x9;c-4.9-4.2-10.7-3.8-15-2.6c-2.7,0.8-5.5-0.8-6.3-3.5c0-0.1-0.1-0.2-0.1-0.4c-1-4.7-4.1-10.9-13.1-14.5s-14.4,1.9-17.6,7.5&#xA;&#x9;&#x9;&#x9;c-0.7,1.2-2.2,1.6-3.4,0.9c-0.5-0.3-0.9-0.8-1.1-1.3C104.4,11.7,94.7,0,62.6,0C21.9,0,26.4,21.7,30.1,30.7&#xA;&#x9;&#x9;&#x9;c0.4,1.1-0.1,2.3-1.1,2.7c-0.4,0.2-0.8,0.2-1.2,0.1c-6.3-1.3-18-3.1-23.2,1c-0.2,0.2-0.5,0.4-0.7,0.6&#xA;&#x9;&#x9;&#x9;C-3.7,41.9,0.5,54.4,10.5,55.9z" id="el_KdL0P2U-4G" /></g><g id="el_uk1SzzhOoc_an_QvdvdCxDQ" data-animator-group="true" data-animator-type="0"><g id="el_uk1SzzhOoc_an_os2THn5CG" data-animator-group="true" data-animator-type="2"><g id="el_uk1SzzhOoc"><linearGradient id="SVGID_3_" gradientUnits="userSpaceOnUse" x1="-68.0826" y1="-135.9329" x2="194.7384" y2="-135.9329" gradientTransform="matrix(0.9475 -0.3198 -0.3198 -0.9475 131.7607 -1.9838)"><stop offset="0" style="stop-color:#E0F0EB" /><stop offset="1" style="stop-color:#C0E4EF" /></linearGradient><polygon points="374.2,107.5 218.5,79.3 146.9,88.5 98.7,113.1 &#x9;&#x9;&#x9;" id="el_17yulE_tnJ" /><polyline points="374.2,107.5 107,127.2 98.7,113.1 &#x9;&#x9;&#x9;" id="el_B925IGJGmx" /><polygon points="114.2,171.8 114.7,172.2 130.5,195.8 373.6,107.7 &#x9;&#x9;&#x9;" id="el_2UHgbzx6nR" /><linearGradient id="SVGID_4_" gradientUnits="userSpaceOnUse" x1="-122.1859" y1="-142.7964" x2="192.6373" y2="-142.7964" gradientTransform="matrix(0.9475 -0.3198 -0.3198 -0.9475 131.7607 -1.9838)"><stop offset="0" style="stop-color:#E0F0EB" /><stop offset="1" style="stop-color:#C0E4EF" /></linearGradient><polygon points="59.2,165.1 84.7,124.8 372,107.5 143.2,177.2 &#x9;&#x9;&#x9;" id="el_8sJALafAEo" /><path d="M180.6,115.8c0,0,0.1,2.6,5.3,3.9c1.1,0.3,0.7,0.6,0.9,1l-5.9,0.2l-2.4-2.5l-0.7,0.6l-1.7-1.6&#xA;&#x9;&#x9;&#x9;&#x9;c0,0,0.7-2.4,2-2.4L180.6,115.8z" id="el_lLMGYYIGCd" /><path d="M181.5,113.6l-0.9,2.2l0,0c-0.9,0.3-1.8,0-2.4-0.7l-0.1-0.1l0.7-2.3L181.5,113.6z" id="el_9FqMkjrx9f" /><path d="M206.7,116.2c1.8,1.3,3.9,2.2,6.1,2.6c0.9,0.2,1.9-0.1,2,1.4l-5.1,0.1l-4.3-0.6v0.7l-2.3,0.1&#xA;&#x9;&#x9;&#x9;&#x9;c0,0-0.7-3.7,0.6-4.2L206.7,116.2z" id="el_WcXg5szoK1" /><path d="M206.1,113.5l0.5,2.7l0,0c-0.8,0.6-1.9,0.7-2.8,0.2l-0.2-0.1l0.1-2.7L206.1,113.5z" id="el_dFstc8oaDY" /><path d="M195.4,58.5c-3.1,7.3-5.1,15.1-6,23c-0.3,2.9-1.3,5.6-2.9,8c-4.5,6.8-8.2,23.7-8.2,23.7l3.3,0.8l21.9-37.5&#xA;&#x9;&#x9;&#x9;&#x9;l-0.6-17.8L195.4,58.5z" id="el_opplrslvCY" /><path d="M198,58.7c0,0-1.6,12.1,1.9,23.9c0.6,2.1,0.8,4.4,0.5,6.6c-1.1,8.3,3.2,25.2,3.2,25.2l3.1-0.1l3.8-54.9&#xA;&#x9;&#x9;&#x9;&#x9;L198,58.7z" id="el_mKmmo6546R" /><path d="M197.9,36.7c0,0-4.9-0.8-4.2-4s9.6-14.7,9.6-14.7l7.2-1c0,0-0.4,1.8-4.9,2.7S197.9,36.7,197.9,36.7z" id="el_QQhfEGLE6yC" /><path d="M204.5,20.1c-0.4-0.7-0.9-1.4-1.3-2.1l0,0l7.2-1c0,0-0.4,1.8-4.9,2.7C205.1,19.8,204.8,19.9,204.5,20.1z" id="el_T31gxrxlo5X" /><polygon points="204.8,25.8 204.5,31 199.4,29.6 200.6,25.4 &#x9;&#x9;&#x9;" id="el_N8mDuMltcEF" /><path d="M204.6,16.8c0,0,4,5.7,3,9.1c-1.1,1.7-6.1-0.5-6.1-0.5l-0.2-7.9L204.6,16.8z" id="el_SqugodALBTp" /><path d="M205.4,16.9c-0.8,0.2-1.6,0.5-2.2,1.1c-0.9,0.9,0,4.2,0,4.2l0.1,1.2c0.1,1.4-1,2.7-2.4,2.8c0,0-0.1,0-0.1,0&#xA;&#x9;&#x9;&#x9;&#x9;h-0.1c0,0-6.6-6.2-4-9.2C201.2,12.6,205.4,16.9,205.4,16.9z" id="el_K_avtTLcojQ" /><path d="M204.3,22.1c0-0.5-0.3-0.9-0.8-1.1c-0.5-0.2-1,0-1.1,0.4c0,0.5,0.3,0.9,0.8,1.1&#xA;&#x9;&#x9;&#x9;&#x9;C203.7,22.7,204.2,22.5,204.3,22.1z" id="el_MfD-cUaDC2S" /><path d="M206.6,15.7c0,0.9-0.9,1.6-2.1,1.7s-5.4-0.6-5.4-1.4s4.1-1.7,5.3-1.7S206.6,14.8,206.6,15.7z" id="el_0vW--DmoG39" /><path d="M195.4,58.5c0,0-6-31.8,7-29.5c12.7,2.2,7.9,30.3,7.9,30.3L195.4,58.5z" id="el_sU1Zf5lciHp" /><path d="M201.3,31.7c0,0-8,10.5-6.7,13.3s12.4,14.1,13,14.7c1,1.3-0.5,6.5,2.7,4.5s0.4-5.5-0.3-6.3l-8.4-12.9&#xA;&#x9;&#x9;&#x9;&#x9;l4.6-6.6L201.3,31.7z" id="el_nk9DMzykfiN" /><path d="M198.8,35l5.6,6l2.1-2.3c1.4-1.5,1.9-3.6,1.2-5.6c-0.2-0.7-0.6-1.3-1.2-1.8l-0.1-0.1&#xA;&#x9;&#x9;&#x9;&#x9;c-1.5-1.4-3.9-1.2-5.2,0.3c-0.1,0.1-0.1,0.1-0.2,0.2L198.8,35z" id="el_PBkI8wJQXFd" /></g></g></g><polygon points="24.7,104.9 21,112.1 28.7,110.3 54.9,102.1 &#x9;&#x9;" id="el_AatoFpYFrtp" /><polygon points="21,112.1 34,111.3 30.8,109.7 &#x9;&#x9;" id="el_qI3Rjyrxarl" /><linearGradient id="SVGID_5_" gradientUnits="userSpaceOnUse" x1="-746" y1="96.585" x2="-713.53" y2="96.585" gradientTransform="matrix(-1 0 0 -1 -691.14 198)"><stop offset="0" style="stop-color:#F1F8F8" /><stop offset="1" style="stop-color:#C0E4EF" /></linearGradient><polygon points="24.7,104.9 22.4,97.9 54.9,102.1 &#x9;&#x9;" id="el_iZPCrekPqnz" /><linearGradient id="SVGID_6_" gradientUnits="userSpaceOnUse" x1="-746" y1="86.76" x2="-719.81" y2="86.76" gradientTransform="matrix(-1 0 0 -1 -691.14 198)"><stop offset="0" style="stop-color:#F1F8F8" /><stop offset="1" style="stop-color:#C0E4EF" /></linearGradient><polygon points="54.9,102.1 28.7,110.3 32.6,120.4 &#x9;&#x9;" id="el_GxN6TPpE7IR" /><path d="M23.9,119.3c-0.3-0.2-0.4-0.5-0.3-0.8c0-0.1,0.1-0.1,0.1-0.2c0.8-0.7,1.7-1.3,2.6-1.8&#xA;&#x9;&#x9;&#x9;c0.3-0.2,0.7-0.1,0.8,0.2s0.1,0.7-0.2,0.8c0,0,0,0,0,0c-0.8,0.5-1.6,1.1-2.4,1.7C24.4,119.4,24.1,119.4,23.9,119.3z" id="el_iU8hZHHC84X" /><path d="M32.6,186.4L32.6,186.4c-1.8-1.1-3.5-2.5-4.8-4.2c-0.2-0.3-0.2-0.6,0.1-0.9c0.3-0.2,0.6-0.2,0.9,0.1&#xA;&#x9;&#x9;&#x9;c1.3,1.5,2.8,2.9,4.5,3.9c0.3,0.2,0.4,0.5,0.2,0.8C33.3,186.4,32.9,186.6,32.6,186.4L32.6,186.4L32.6,186.4z M25.8,179.3&#xA;&#x9;&#x9;&#x9;c-0.1-0.1-0.2-0.1-0.2-0.2c-1-1.8-1.8-3.8-2.3-5.9c-0.1-0.3,0.1-0.7,0.5-0.7c0.3-0.1,0.7,0.1,0.7,0.4l0,0c0.5,1.9,1.2,3.8,2.2,5.6&#xA;&#x9;&#x9;&#x9;c0.2,0.3,0.1,0.7-0.2,0.8C26.3,179.4,26,179.4,25.8,179.3L25.8,179.3z M23,169.9c-0.2-0.1-0.3-0.3-0.3-0.5v-0.3c-0.1-2,0-4,0.3-6&#xA;&#x9;&#x9;&#x9;c0-0.3,0.4-0.6,0.7-0.5c0.3,0,0.6,0.4,0.5,0.7c-0.3,1.9-0.4,3.8-0.3,5.8v0.3c0,0.3-0.2,0.6-0.6,0.7C23.2,170,23.1,170,23,169.9&#xA;&#x9;&#x9;&#x9;L23,169.9z M24,160.1c-0.3-0.1-0.4-0.4-0.3-0.7c0.5-2,1.2-4,2-5.9c0.1-0.3,0.5-0.5,0.8-0.3c0.3,0.1,0.5,0.5,0.3,0.8&#xA;&#x9;&#x9;&#x9;c-0.8,1.9-1.5,3.8-2,5.8C24.7,160.1,24.4,160.3,24,160.1C24.1,160.2,24.1,160.2,24,160.1L24,160.1z M27.5,150.9&#xA;&#x9;&#x9;&#x9;c-0.3-0.2-0.4-0.5-0.3-0.8l0.2-0.4c-0.9-0.4-1.8-0.9-2.7-1.5c-0.3-0.2-0.3-0.6,0-0.9c0.2-0.2,0.5-0.3,0.7-0.1&#xA;&#x9;&#x9;&#x9;c0.8,0.5,1.7,1,2.5,1.4c0.7-1.3,1.4-2.6,2.2-4c0.2-0.3,0.5-0.4,0.8-0.2c0.3,0.2,0.4,0.5,0.2,0.8l0,0c-0.8,1.4-1.5,2.6-2.1,3.8&#xA;&#x9;&#x9;&#x9;c0.6,0.2,1.2,0.4,1.7,0.6c0.3,0.1,0.5,0.4,0.4,0.8c-0.1,0.3-0.4,0.5-0.8,0.4c-0.7-0.2-1.3-0.4-2-0.7l-0.2,0.5&#xA;&#x9;&#x9;&#x9;C28.2,151,27.8,151.1,27.5,150.9C27.5,150.9,27.5,150.9,27.5,150.9L27.5,150.9z M22,145.9c-0.1,0-0.1-0.1-0.2-0.1&#xA;&#x9;&#x9;&#x9;c-1.5-1.5-2.7-3.3-3.5-5.3c-0.1-0.3,0-0.7,0.3-0.8c0.3-0.1,0.7,0,0.8,0.3c0.8,1.8,1.9,3.5,3.2,4.9c0.3,0.2,0.3,0.6,0.1,0.9&#xA;&#x9;&#x9;&#x9;C22.7,146.1,22.3,146.1,22,145.9L22,145.9z M34.1,151.5c-0.3-0.2-0.4-0.5-0.3-0.8c0.1-0.2,0.3-0.3,0.6-0.3c2,0.2,4,0,5.9-0.5&#xA;&#x9;&#x9;&#x9;c0.3-0.1,0.7,0.1,0.7,0.4c0.1,0.3-0.1,0.7-0.4,0.7c-2.1,0.5-4.2,0.7-6.3,0.5C34.3,151.5,34.2,151.5,34.1,151.5L34.1,151.5z&#xA;&#x9;&#x9;&#x9; M17.7,137.2c-0.2-0.1-0.3-0.2-0.3-0.4c-0.4-2.1-0.4-4.2-0.1-6.4c0-0.3,0.4-0.6,0.7-0.5c0.3,0,0.6,0.4,0.5,0.7c-0.3,2-0.3,4,0.1,6&#xA;&#x9;&#x9;&#x9;c0.1,0.3-0.2,0.6-0.5,0.7C17.9,137.3,17.8,137.3,17.7,137.2L17.7,137.2z M43.8,149.7c-0.3-0.2-0.4-0.5-0.3-0.8&#xA;&#x9;&#x9;&#x9;c0.1-0.1,0.2-0.2,0.3-0.3c0.5-0.2,0.9-0.5,1.3-0.8c1.2-0.8,2.3-1.8,3.1-3c0.2-0.3,0.6-0.3,0.9-0.1c0.3,0.2,0.3,0.6,0.1,0.9l0,0&#xA;&#x9;&#x9;&#x9;c-0.9,1.3-2.1,2.4-3.5,3.3c-0.5,0.3-0.9,0.6-1.4,0.8C44.1,149.7,43.9,149.8,43.8,149.7z M32.5,142.3L32.5,142.3&#xA;&#x9;&#x9;&#x9;c-0.3-0.2-0.4-0.6-0.2-0.8c0,0,0,0,0,0c1.1-1.8,2.5-3.5,4-4.9c0.3-0.2,0.6-0.2,0.9,0c0.2,0.3,0.2,0.6,0,0.9&#xA;&#x9;&#x9;&#x9;c-1.5,1.4-2.7,2.9-3.8,4.7C33.1,142.4,32.7,142.5,32.5,142.3z M18.5,127.4c-0.3-0.1-0.4-0.5-0.3-0.7c0.3-0.9,0.7-1.8,1.2-2.7&#xA;&#x9;&#x9;&#x9;c0.5-1,1.1-2,1.8-2.9c0.2-0.3,0.6-0.3,0.9-0.1c0.3,0.2,0.3,0.6,0.1,0.9l0,0c-0.7,0.9-1.2,1.8-1.7,2.8c-0.4,0.8-0.8,1.6-1.1,2.5&#xA;&#x9;&#x9;&#x9;c-0.1,0.3-0.5,0.5-0.8,0.4c0,0,0,0,0,0L18.5,127.4z M50,142.4c-0.3-0.1-0.4-0.4-0.3-0.7c0.4-1.3,0.2-2.8-0.4-4&#xA;&#x9;&#x9;&#x9;c-0.2-0.4-0.5-0.8-0.8-1.1c-0.2-0.2-0.2-0.6,0-0.9c0.2-0.2,0.6-0.2,0.9,0c0.4,0.4,0.7,0.9,1,1.4c0.8,1.5,0.9,3.2,0.5,4.9&#xA;&#x9;&#x9;&#x9;C50.7,142.4,50.4,142.6,50,142.4C50.1,142.5,50.1,142.5,50,142.4L50,142.4z M39.4,135.5c-0.3-0.1-0.4-0.5-0.3-0.8&#xA;&#x9;&#x9;&#x9;c0.1-0.1,0.2-0.2,0.3-0.3c2-0.9,4.3-1.1,6.5-0.6c0.3,0.1,0.5,0.4,0.4,0.7c-0.1,0.3-0.4,0.5-0.7,0.4c-1.9-0.5-3.9-0.3-5.6,0.5&#xA;&#x9;&#x9;&#x9;C39.8,135.5,39.6,135.5,39.4,135.5z" id="el_05HWPaB1dhv" /><path d="M36,187.9c-0.3-0.1-0.4-0.5-0.3-0.8c0.1-0.3,0.4-0.4,0.7-0.3c0.9,0.3,1.9,0.4,2.9,0.5c0.3,0,0.6,0.3,0.6,0.6&#xA;&#x9;&#x9;&#x9;c0,0.3-0.3,0.6-0.6,0.6c-1.1-0.1-2.1-0.2-3.1-0.5L36,187.9z" id="el_GKxjWHSpHTK" /><linearGradient id="SVGID_7_" gradientUnits="userSpaceOnUse" x1="-907.61" y1="174.085" x2="-867.46" y2="174.085" gradientTransform="matrix(-1 0 0 -1 -597.24 198)"><stop offset="0" style="stop-color:#F1F8F8" /><stop offset="1" style="stop-color:#C0E4EF" /></linearGradient><polygon points="270.2,30.8 291.4,19.2 302.2,17 310.4,18.2 &#x9;&#x9;" id="el_PaRqq6_LhCq" /><polyline points="270.2,30.8 309.9,20.6 310.4,18.2 &#x9;&#x9;" id="el__mpJH-scbRQ" /><polygon points="311,27.5 310.9,27.5 309.3,33.7 270.3,30.8 &#x9;&#x9;" id="el_V6E3XzPiJhu" /><linearGradient id="SVGID_8_" gradientUnits="userSpaceOnUse" x1="-915.8" y1="172.99" x2="-867.72" y2="172.99" gradientTransform="matrix(-1 0 0 -1 -597.24 198)"><stop offset="0" style="stop-color:#F1F8F8" /><stop offset="1" style="stop-color:#C0E4EF" /></linearGradient><polygon points="318.6,23.8 312.9,19.2 270.5,30.8 307,29.7 &#x9;&#x9;" id="el_ljFmDu6aHhe" /><path d="M407.7,102.4c-1.3-0.5-2.6-1-3.8-1.7c-0.2-0.2-0.6-0.2-0.8,0.1c-0.2,0.2-0.2,0.6,0.1,0.8&#xA;&#x9;&#x9;&#x9;c0.1,0.1,0.1,0.1,0.2,0.1c1.3,0.7,2.6,1.2,4,1.7c0.5,0.2,1,0.3,1.5,0.5c0.3,0.1,0.6,0,0.8-0.3c0.1-0.3,0-0.6-0.3-0.8&#xA;&#x9;&#x9;&#x9;c0,0-0.1,0-0.2,0C408.7,102.7,408.2,102.6,407.7,102.4z" id="el_Lttpa8QVKEV" /><path d="M330.1,19.5c-1.8,0.2-3.7,0.5-5.7,0.9c-0.3,0.1-0.5,0.4-0.4,0.7c0.1,0.2,0.3,0.4,0.6,0.4&#xA;&#x9;&#x9;&#x9;c2-0.4,3.9-0.7,5.7-0.9c0.3-0.1,0.5-0.4,0.4-0.7C330.6,19.7,330.4,19.6,330.1,19.5z" id="el_cRQ8kVmwga_" /><path d="M339.8,20c0.2-0.2,0.2-0.6,0-0.8c-0.1-0.1-0.2-0.2-0.4-0.2c-1.9,0-3.8,0.1-5.8,0.2c-0.3,0.1-0.5,0.4-0.5,0.7&#xA;&#x9;&#x9;&#x9;c0.1,0.3,0.3,0.5,0.6,0.5c2-0.2,3.9-0.2,5.7-0.2C339.5,20.1,339.7,20.1,339.8,20z" id="el_pbg08KGnIkm" /><path d="M396.6,95.4c-0.2-0.2-0.6-0.2-0.8,0c0,0,0,0,0,0c-0.2,0.2-0.2,0.6,0,0.8c0,0,0,0,0,0c1.4,1.4,2.9,2.6,4.5,3.7&#xA;&#x9;&#x9;&#x9;c0.2,0.1,0.5,0.1,0.7,0c0.1,0,0.1-0.1,0.1-0.1c0.2-0.3,0.1-0.6-0.2-0.8c0,0,0,0,0,0C399.4,98,398,96.8,396.6,95.4z" id="el_GBgnI5ixAsR" /><path d="M394.2,93.8c0.2-0.2,0.3-0.6,0.1-0.8c-0.3-0.4-0.6-0.8-1-1.2c-0.8-1.1-1.6-2.3-2.2-3.5&#xA;&#x9;&#x9;&#x9;c-0.2-0.3-0.5-0.4-0.8-0.2c-0.3,0.2-0.4,0.5-0.2,0.8c0.7,1.2,1.5,2.4,2.3,3.6c0.3,0.4,0.7,0.8,1,1.3C393.7,93.9,394,94,394.2,93.8&#xA;&#x9;&#x9;&#x9;L394.2,93.8z" id="el_wRp1UoqXp9F" /><path d="M389.4,86l0.1-0.1c0.2-0.2,0.3-0.4,0.2-0.7c-0.7-1.8-1.3-3.6-1.7-5.4c0-0.3-0.3-0.5-0.7-0.5&#xA;&#x9;&#x9;&#x9;c-0.3,0-0.5,0.3-0.5,0.7c0,0,0,0.1,0,0.1c0.5,1.9,1.1,3.7,1.8,5.6C388.8,85.9,389.1,86.1,389.4,86z" id="el_Ew9ALLCNzC6" /><path d="M374.1,36.8c0.5,0.6,0.9,1.2,1.4,1.8c0.7,0.9,1.3,1.9,1.9,2.8c0.2,0.3,0.5,0.3,0.8,0.2l0,0&#xA;&#x9;&#x9;&#x9;c0.2-0.2,0.3-0.5,0.1-0.8c-0.6-1-1.3-2-2-2.9c-0.5-0.6-0.9-1.2-1.4-1.8c-0.2-0.2-0.5-0.3-0.8-0.1c0,0,0,0,0,0&#xA;&#x9;&#x9;&#x9;C373.9,36.2,373.9,36.6,374.1,36.8z" id="el_Msw9KQfnGnB" /><path d="M379.1,44.4c0.9,1.7,1.6,3.4,2.3,5.2c0.1,0.3,0.4,0.5,0.7,0.3l0.1-0.1c0.2-0.2,0.3-0.4,0.2-0.7&#xA;&#x9;&#x9;&#x9;c-0.7-1.8-1.4-3.6-2.4-5.3c-0.1-0.3-0.4-0.5-0.7-0.4c-0.3,0.1-0.5,0.4-0.4,0.7C379.1,44.2,379.1,44.3,379.1,44.4L379.1,44.4z" id="el_uiCSwpmOAhh" /><path d="M367.7,30.4c1.5,1.2,2.9,2.5,4.2,3.9c0.2,0.2,0.5,0.2,0.8,0.1h0.1c0.2-0.2,0.2-0.6,0-0.8&#xA;&#x9;&#x9;&#x9;c-1.3-1.4-2.8-2.8-4.3-4c-0.3-0.2-0.6-0.1-0.8,0.2C367.5,29.9,367.5,30.2,367.7,30.4L367.7,30.4z" id="el_sMV2I4iZdTC" /><path d="M357.1,23.8c0.3,0.1,0.6-0.1,0.7-0.4c0.1-0.3,0-0.5-0.3-0.7c-1.8-0.8-3.6-1.5-5.5-2c-0.3-0.1-0.6,0-0.8,0.3&#xA;&#x9;&#x9;&#x9;c-0.1,0.3,0,0.6,0.3,0.8c0,0,0.1,0,0.2,0C353.6,22.4,355.3,23.1,357.1,23.8z" id="el_ku03tQnJdHq" /><path d="M385.5,68c0.3,0,0.5-0.3,0.5-0.6l-0.1-0.7c-0.2-1.7-0.4-3.3-0.6-5c-0.1-0.3-0.4-0.5-0.7-0.4&#xA;&#x9;&#x9;&#x9;c-0.3,0.1-0.4,0.3-0.4,0.6c0.2,1.7,0.4,3.3,0.6,5l0.1,0.7C384.9,67.8,385.2,68,385.5,68z" id="el_aNiGFMnYKB2" /><path d="M365,28.3c0.2,0.2,0.6,0.2,0.8,0c0.2-0.2,0.2-0.6,0-0.8c0,0-0.1-0.1-0.1-0.1c-1.6-1.1-3.3-2.1-5-3.1&#xA;&#x9;&#x9;&#x9;c-0.3-0.1-0.6,0.1-0.7,0.4c-0.1,0.2,0,0.5,0.2,0.6C361.8,26.2,363.4,27.2,365,28.3z" id="el_RHWy-b8Cwqh" /><path d="M385.7,70.3c-0.3,0-0.5,0.3-0.5,0.6c0,0,0,0,0,0c0.3,2.2,0.6,4.1,0.9,5.7c0.1,0.3,0.4,0.5,0.7,0.4&#xA;&#x9;&#x9;&#x9;c0.2-0.1,0.4-0.3,0.4-0.6c-0.3-1.6-0.6-3.4-0.9-5.7C386.3,70.5,386,70.3,385.7,70.3z" id="el_C6o5mLz-pvo" /><path d="M412.5,103.7c-0.3,0-0.6,0.2-0.6,0.5c0,0.3,0.1,0.5,0.4,0.6c1.9,0.4,3.8,0.6,5.8,0.8c0.3,0.1,0.6-0.2,0.7-0.5&#xA;&#x9;&#x9;&#x9;c0.1-0.3-0.2-0.6-0.5-0.7c0,0-0.1,0-0.1,0C416.2,104.3,414.3,104,412.5,103.7z" id="el_Fx--dkUO9hT" /><path d="M382.9,52.1c-0.3,0.1-0.5,0.4-0.4,0.7c0.5,1.7,0.8,3.5,1.2,5.6c0,0.3,0.3,0.6,0.6,0.5c0.3,0,0.6-0.3,0.5-0.6&#xA;&#x9;&#x9;&#x9;c0,0,0-0.1,0-0.1c-0.4-2.1-0.8-4-1.2-5.7C383.5,52.2,383.2,52.1,382.9,52.1C382.9,52.1,382.9,52.1,382.9,52.1z" id="el_y3clmC7zniU" /><path d="M344.9,19.3c-0.7-0.1-1.3-0.1-2-0.2c-0.3,0-0.6,0.3-0.6,0.6c0,0.3,0.2,0.5,0.5,0.6c0.7,0,1.3,0.1,2,0.2&#xA;&#x9;&#x9;&#x9;c1.2,0.1,2.5,0.4,3.6,0.6c0.3,0.1,0.6-0.1,0.7-0.4c0.1-0.3-0.1-0.6-0.4-0.7c0,0-0.1,0-0.1,0C347.4,19.6,346.2,19.4,344.9,19.3z" id="el_AavUEZ-qQkf" /></g></g></svg>