<?xml version="1.0" encoding="utf-8"?>
<!-- Generator: Adobe Illustrator 22.0.1, SVG Export Plug-In . SVG Version: 6.00 Build 0)  -->
<svg he version="1.1" id="Layer_1" xmlns="http://www.w3.org/2000/svg" xmlns:xlink="http://www.w3.org/1999/xlink" x="0px" y="0px"
	 viewBox="0 0 733.5 305.8" style="enable-background:new 0 0 733.5 305.8;" xml:space="preserve">
<style type="text/css">
	.st0{fill:#FFCF52;}
	.st1{fill:url(#SVGID_1_);}
	.st2{fill:url(#SVGID_2_);}
	.st3{fill:url(#SVGID_3_);}
	.st4{fill:#63C0C4;}
	.st5{fill:#01888B;}
	.st6{fill:url(#SVGID_4_);}
	.st7{fill:#212B53;}
	.st8{fill:#F7B58E;}
	.st9{fill:#053C5E;}
	.st10{fill:#F39F85;}
	.st11{fill:#FFD147;}
	.st12{fill:url(#SVGID_5_);}
	.st13{fill:url(#SVGID_6_);}
	.st14{fill:#FFFFFF;}
	.st15{fill:#00666B;}
	.st16{fill:#12375A;}
	.st17{fill:url(#SVGID_7_);}
	.st18{fill:url(#SVGID_8_);}
	.st19{fill:url(#SVGID_9_);}
	.st20{fill:url(#SVGID_10_);}
	.st21{fill:url(#SVGID_11_);}
	.st22{fill:#AFD8C7;}
	.st23{fill:url(#SVGID_12_);}
	.st24{fill:url(#SVGID_13_);}
	.st25{fill:url(#SVGID_14_);}
	.st26{fill:url(#SVGID_15_);}
	.st27{fill:url(#SVGID_16_);}
	.st28{fill:url(#SVGID_17_);}
	.st29{fill:url(#SVGID_18_);}
	.st30{fill:url(#SVGID_19_);}
	.st31{fill:url(#SVGID_20_);}
	.st32{fill:#FBBB00;}
	.st33{fill:#F6A505;}
	.st34{fill:url(#SVGID_21_);}
	.st35{fill:url(#SVGID_22_);}
	.st36{fill:url(#SVGID_23_);}
	.st37{fill:url(#SVGID_24_);}
	.st38{fill:url(#SVGID_25_);}
	.st39{fill:url(#SVGID_26_);}
	.st40{fill:#ABDAE0;}
	.st41{fill:url(#SVGID_27_);}
	.st42{fill:url(#SVGID_28_);}
	.st43{fill:url(#SVGID_29_);}
	.st44{fill:url(#SVGID_30_);}
	.st45{fill:url(#SVGID_31_);}
	.st46{fill:url(#SVGID_32_);}
	.st47{fill:url(#SVGID_33_);}
	.st48{fill:url(#SVGID_34_);}
	.st49{fill:url(#SVGID_35_);}
	.st50{fill:url(#SVGID_36_);}
	.st51{fill:url(#SVGID_37_);}
	.st52{fill:url(#SVGID_38_);}
	.st53{fill:url(#SVGID_39_);}
	.st54{fill:url(#SVGID_40_);}
	.st55{fill:url(#SVGID_41_);}
	.st56{fill:url(#SVGID_42_);}
	.st57{fill:url(#SVGID_43_);}
	.st58{fill:url(#SVGID_44_);}
	.st59{fill:url(#SVGID_45_);}
	.st60{fill:#083A5D;}
	.st61{fill:#1C2C57;}
	.st62{fill:#F9AF89;}
	.st63{fill:#004060;}
	.st64{fill:#F69B81;}
	.st65{fill:url(#SVGID_46_);}
	.st66{fill:#006769;}
	.st67{fill:#118B8B;}
	.st68{fill:#F08712;}
	.st69{fill:#FFDA71;}
	.st70{fill:#A1D6C4;}
	.st71{fill:#58C3C4;}
	.st72{fill:url(#SVGID_47_);}
	.st73{fill:url(#SVGID_48_);}
	.st74{fill:url(#SVGID_49_);}
	.st75{fill:url(#SVGID_50_);}
	.st76{fill:url(#SVGID_51_);}
	.st77{fill:url(#SVGID_52_);}
	.st78{fill:url(#SVGID_53_);}
	.st79{fill:url(#SVGID_54_);}
	.st80{fill:url(#SVGID_55_);}
</style>
<image style="display:none;overflow:visible;" width="1960" height="768" xlink:href="Screenshots/Screenshot 2019-08-19 at 14.04.13.png"  transform="matrix(0.5 0 0 0.5 -103.1297 -21.3881)">
</image>
<g>
	<circle class="st0" cx="60.5" cy="60.2" r="44.4"/>
	<g>
		<path class="st0" d="M11.5,31.6c1.8,0.5,3.5,1.3,5.1,2.2c0.9,0.5,1.7-0.9,0.8-1.4c-1.7-1-3.5-1.8-5.5-2.4
			C10.9,29.7,10.4,31.3,11.5,31.6L11.5,31.6z"/>
	</g>
	<g>
		<path class="st0" d="M23.2,17.7c1,1.3,1.9,2.6,2.9,4c0.6,0.8,2,0,1.4-0.8c-1-1.3-1.9-2.6-2.9-4C24,16,22.6,16.9,23.2,17.7
			L23.2,17.7z"/>
	</g>
	<g>
		<path class="st0" d="M39.5,7.7c0.7,1.6,1.3,3.3,2,4.9c0.4,1,2,0.5,1.6-0.4c-0.7-1.6-1.3-3.3-2-4.9C40.7,6.3,39.1,6.7,39.5,7.7
			L39.5,7.7z"/>
	</g>
	<g>
		<path class="st0" d="M110,30c-1.9,0.6-3.7,1.3-5.5,2.4c-0.9,0.5-0.1,2,0.8,1.4c1.6-0.9,3.3-1.7,5.1-2.2
			C111.4,31.3,111,29.7,110,30L110,30z"/>
	</g>
	<g>
		<path class="st0" d="M97.3,16.9c-1,1.3-1.9,2.6-2.9,4c-0.6,0.9,0.8,1.7,1.4,0.8c1-1.3,1.9-2.6,2.9-4C99.3,16.9,97.9,16,97.3,16.9
			L97.3,16.9z"/>
	</g>
	<g>
		<path class="st0" d="M113.2,46.3c-1.6,0.1-3.3,0.1-4.9,0.2c-1.1,0-0.8,1.7,0.2,1.6c1.6-0.1,3.3-0.1,4.9-0.2
			C114.5,47.9,114.2,46.3,113.2,46.3L113.2,46.3z"/>
	</g>
	<g>
		<path class="st0" d="M7.5,46.3c1.6,0.1,3.3,0.1,4.9,0.2c1.1,0,0.8,1.7-0.2,1.6C10.5,48,8.9,48,7.3,47.9
			C6.2,47.9,6.4,46.3,7.5,46.3L7.5,46.3z"/>
	</g>
	<g>
		<path class="st0" d="M80.8,7.3c-0.7,1.6-1.3,3.3-2,4.9c-0.4,1,1.2,1.4,1.6,0.4c0.7-1.6,1.3-3.3,2-4.9C82.7,6.7,81.2,6.3,80.8,7.3
			L80.8,7.3z"/>
	</g>
	<g>
		<path class="st0" d="M61.4,9.2c0-1.6,0-3.3,0-4.9c0-1.1-1.6-1.1-1.6,0c0,1.6,0,3.3,0,4.9C59.7,10.2,61.4,10.2,61.4,9.2L61.4,9.2z"
			/>
	</g>
	<g>
		<path class="st0" d="M109.5,87.7c-1.8-0.5-3.5-1.3-5.1-2.2c-0.9-0.5-1.7,0.9-0.8,1.4c1.7,1,3.5,1.8,5.5,2.4
			C110.1,89.6,110.5,88,109.5,87.7L109.5,87.7z"/>
	</g>
	<g>
		<path class="st0" d="M97.8,101.6c-1-1.3-1.9-2.6-2.9-4c-0.6-0.8-2,0-1.4,0.8c1,1.3,1.9,2.6,2.9,4C97,103.3,98.4,102.4,97.8,101.6
			L97.8,101.6z"/>
	</g>
	<g>
		<path class="st0" d="M81.5,111.6c-0.7-1.6-1.3-3.3-2-4.9c-0.4-1-2-0.5-1.6,0.4c0.7,1.6,1.3,3.3,2,4.9
			C80.3,113,81.9,112.6,81.5,111.6L81.5,111.6z"/>
	</g>
	<g>
		<path class="st0" d="M11,89.3c1.9-0.6,3.7-1.3,5.5-2.4c0.9-0.5,0.1-2-0.8-1.4c-1.6,0.9-3.3,1.7-5.1,2.2C9.6,88,10,89.6,11,89.3
			L11,89.3z"/>
	</g>
	<g>
		<path class="st0" d="M23.7,102.4c1-1.3,1.9-2.6,2.9-4c0.6-0.9-0.8-1.7-1.4-0.8c-1,1.3-1.9,2.6-2.9,4
			C21.7,102.4,23.1,103.3,23.7,102.4L23.7,102.4z"/>
	</g>
	<g>
		<path class="st0" d="M7.8,73c1.6-0.1,3.3-0.1,4.9-0.2c1.1,0,0.8-1.7-0.2-1.6c-1.6,0.1-3.3,0.1-4.9,0.2C6.5,71.4,6.8,73,7.8,73
			L7.8,73z"/>
	</g>
	<g>
		<path class="st0" d="M5.2,61.7c1.6-0.1,3.3-0.1,4.9-0.2c1.1,0,0.8-1.7-0.2-1.6C8.2,60,6.6,60,5,60.1C3.9,60.1,4.1,61.7,5.2,61.7
			L5.2,61.7z"/>
	</g>
	<g>
		<path class="st0" d="M113.5,73c-1.6-0.1-3.3-0.1-4.9-0.2c-1.1,0-0.8-1.7,0.2-1.6c1.6,0.1,3.3,0.1,4.9,0.2
			C114.8,71.4,114.6,73,113.5,73L113.5,73z"/>
	</g>
	<g>
		<path class="st0" d="M114.9,61c-1.6-0.1-3.3-0.1-4.9-0.2c-1.1,0-0.8-1.7,0.2-1.6c1.6,0.1,3.3,0.1,4.9,0.2
			C116.2,59.4,116,61,114.9,61L114.9,61z"/>
	</g>
	<g>
		<path class="st0" d="M40.2,112c0.7-1.6,1.3-3.3,2-4.9c0.4-1-1.2-1.4-1.6-0.4c-0.7,1.6-1.3,3.3-2,4.9C38.2,112.6,39.8,113,40.2,112
			L40.2,112z"/>
	</g>
	<g>
		<path class="st0" d="M59.6,110.1c0,1.6,0,3.3,0,4.9c0,1.1,1.6,1.1,1.6,0c0-1.6,0-3.3,0-4.9C61.3,109.1,59.6,109.1,59.6,110.1
			L59.6,110.1z"/>
	</g>
</g>
<linearGradient id="SVGID_1_" gradientUnits="userSpaceOnUse" x1="239.0273" y1="57.8278" x2="294.7398" y2="57.8278">
	<stop  offset="0" style="stop-color:#DFEFEA"/>
	<stop  offset="1" style="stop-color:#BFE3EE"/>
</linearGradient>
<path class="st1" d="M239.2,59c-2,8.8,18.8,10,27.4,10.1c2.4,0,4.7-0.2,7.1-0.7c7.3-1.5,23.1-5.3,20.9-10.6
	c-2.9-6.8-11.5-2.1-11.5-2.1s1.1-5.1-13.6-8.5c-14.7-3.4-14.6,7.9-14.6,7.9S241.7,47.9,239.2,59z"/>
<linearGradient id="SVGID_2_" gradientUnits="userSpaceOnUse" x1="446.194" y1="44.6441" x2="538.2842" y2="44.6441" gradientTransform="matrix(1 0 0 1 -369.1989 0)">
	<stop  offset="0" style="stop-color:#DFEFEA"/>
	<stop  offset="1" style="stop-color:#BFE3EE"/>
</linearGradient>
<path class="st2" d="M82.7,58.3C97,60.4,130.3,64,163,57.7c2.2-0.4,4.2-1.7,5.4-3.6c1.4-2.3,0.9-4.3-2.6-7.3
	c-2.7-2.3-5.8-2.1-8.1-1.4c-1.5,0.4-3.1-0.5-3.4-2.1c-0.5-2.5-2.2-5.9-7.1-7.9c-4.8-1.9-7.8,1-9.6,4.1c-0.6,1-2.1,0.8-2.5-0.3
	c-1.5-4.8-6.8-11.2-24.2-11.2c-22.1,0-19.6,11.8-17.7,16.6c0.3,0.8-0.4,1.7-1.3,1.5c-3.4-0.7-9.7-1.7-12.6,0.6
	c-0.1,0.1-0.2,0.2-0.4,0.3C75,50.7,77.3,57.5,82.7,58.3z"/>
<g>
	<g>
		
			<linearGradient id="SVGID_3_" gradientUnits="userSpaceOnUse" x1="159.4881" y1="28.3457" x2="301.8793" y2="28.3457" gradientTransform="matrix(0.9475 -0.3197 0.3197 0.9475 -23.2019 132.6685)">
			<stop  offset="0" style="stop-color:#DFEFEA"/>
			<stop  offset="1" style="stop-color:#BFE3EE"/>
		</linearGradient>
		<polygon class="st3" points="279.7,86.3 195.3,71 156.6,76 130.5,89.3 		"/>
		<polyline class="st4" points="279.7,86.3 135,97 130.5,89.3 		"/>
		<polygon class="st5" points="138.9,121.1 139.1,121.3 147.7,134.1 279.4,86.4 		"/>
		
			<linearGradient id="SVGID_4_" gradientUnits="userSpaceOnUse" x1="130.4082" y1="32.2368" x2="300.966" y2="32.2368" gradientTransform="matrix(0.9475 -0.3197 0.3197 0.9475 -23.2019 132.6685)">
			<stop  offset="0" style="stop-color:#DFEFEA"/>
			<stop  offset="1" style="stop-color:#BFE3EE"/>
		</linearGradient>
		<polygon class="st6" points="109.3,117.6 123.1,95.8 278.8,86.4 154.8,124.1 		"/>
	</g>
</g>
<g>
	<g>
		<path class="st7" d="M174.9,90.8c0,0,0,1.4,2.8,2.1c0.6,0.2,0.4,0.3,0.5,0.6c-0.9,0-3.2,0.1-3.2,0.1l-1.3-1.4l-0.4,0.3l-0.9-0.9
			c0,0,0.4-1.3,1.1-1.3C174.1,90.6,174.9,90.8,174.9,90.8z"/>
		<path class="st8" d="M175.3,89.6l-0.5,1.2l0,0c-0.5,0.1-1,0-1.3-0.4l-0.1-0.1l0.4-1.2L175.3,89.6z"/>
	</g>
	<g>
		<path class="st7" d="M189,91c0,0,1,0.9,3.3,1.4c0.5,0.1,1-0.1,1.1,0.8c-1.1,0-2.8,0.1-2.8,0.1l-2.3-0.3l0,0.4l-1.2,0
			c0,0-0.4-2,0.3-2.3C188,91,189,91,189,91z"/>
		<path class="st8" d="M188.7,89.5L189,91l0,0c-0.4,0.3-1,0.4-1.5,0.1l-0.1,0l0.1-1.5L188.7,89.5z"/>
	</g>
	<path class="st7" d="M182.9,59.8c0,0-2.5,5.3-3.3,12.5c-0.2,1.6-0.7,3.1-1.5,4.4c-2.4,3.7-4.4,12.8-4.4,12.8l1.8,0.4l11.9-20.3
		l-0.4-9.6L182.9,59.8z"/>
	<path class="st9" d="M184.2,59.8c0,0-0.9,6.6,1,12.9c0.3,1.2,0.4,2.4,0.3,3.6c-0.6,4.5,1.7,13.6,1.7,13.6l1.7,0l2.1-29.8
		L184.2,59.8z"/>
	<path class="st8" d="M184.2,47.9c0,0-2.7-0.5-2.3-2.2c0.4-1.7,5.2-7.9,5.2-7.9l3.9-0.5c0,0-0.2,0.9-2.7,1.4
		C185.9,39.2,184.2,47.9,184.2,47.9z"/>
	<path class="st10" d="M187.8,38.9c-0.2-0.4-0.5-0.7-0.7-1.1c0,0,0,0,0,0l3.9-0.5c0,0-0.2,0.9-2.7,1.4
		C188.1,38.7,188,38.8,187.8,38.9z"/>
	<polygon class="st10" points="188,42 187.8,44.9 185,44.1 185.7,41.8 	"/>
	<path class="st8" d="M187.9,37.1c0,0,2.2,3.1,1.7,4.9c-0.6,0.9-3.3-0.3-3.3-0.3l-0.1-4.3L187.9,37.1z"/>
	<path class="st7" d="M188.3,37.2c0,0-0.7,0.1-1.2,0.6c-0.5,0.5,0,2.3,0,2.3l0,0.6c0,0.8-0.6,1.5-1.4,1.5l-0.1,0c0,0-3.6-3.3-2.2-5
		C186,34.9,188.3,37.2,188.3,37.2z"/>
	<path class="st8" d="M187.7,40c0-0.2-0.1-0.5-0.4-0.6c-0.3-0.1-0.5,0-0.6,0.2c0,0.2,0.1,0.5,0.4,0.6
		C187.3,40.3,187.6,40.2,187.7,40z"/>
	<path class="st7" d="M188.9,36.5c0,0.5-0.5,0.9-1.2,0.9s-2.9-0.3-2.9-0.8s2.2-0.9,2.9-0.9C188.4,35.7,188.9,36.1,188.9,36.5z"/>
	<path class="st5" d="M182.9,59.8c0,0-3.2-17.2,3.8-16c6.9,1.2,4.3,16.4,4.3,16.4L182.9,59.8z"/>
	<path class="st8" d="M186.1,45.2c0,0-4.3,5.7-3.6,7.2c0.7,1.5,6.7,7.6,7.1,8c0.5,0.7-0.3,3.5,1.4,2.5c1.7-1.1,0.2-3-0.2-3.4l-4.5-7
		l2.5-3.6L186.1,45.2z"/>
	<path class="st4" d="M184.7,47l3.1,3.3l1.2-1.3c0.8-0.8,1-2,0.7-3c-0.1-0.3-0.3-0.7-0.6-1c0,0,0,0,0,0c-0.9-0.8-2.2-0.6-2.9,0.3
		L184.7,47z"/>
</g>
<g>
	<g>
		<g>
			<polygon class="st11" points="161.4,175.4 177.8,124.4 176.9,124.4 160.5,175.4 			"/>
		</g>
		<g>
			<polygon class="st11" points="169.9,175.4 186.3,124.4 185.4,124.4 169,175.4 			"/>
		</g>
		<g>
			<polygon class="st11" points="172.6,137.6 172.6,138.4 181.4,138.4 181.6,137.6 			"/>
		</g>
		<g>
			<polygon class="st11" points="174.5,132.7 174.5,133.4 183.3,133.4 183.4,132.7 			"/>
		</g>
		<g>
			<polygon class="st11" points="176,127.7 176,128.5 184.8,128.5 184.9,127.7 			"/>
		</g>
		<g>
			<polygon class="st11" points="171,142.6 171,143.4 179.8,143.4 180,142.6 			"/>
		</g>
		<g>
			<polygon class="st11" points="169.5,147.6 169.5,148.4 178.3,148.4 178.5,147.6 			"/>
		</g>
		<g>
			<polygon class="st11" points="168,152.8 167.6,153.6 176.4,153.6 176.6,152.8 			"/>
		</g>
		<g>
			<polygon class="st11" points="166.3,158 166,158.8 174.8,158.8 174.9,158 			"/>
		</g>
		<g>
			<polygon class="st11" points="164.8,163.1 164.4,163.9 173.2,163.9 173.4,163.1 			"/>
		</g>
		<g>
			<polygon class="st11" points="163.5,168.3 163.2,169.1 172,169.1 172.1,168.3 			"/>
		</g>
	</g>
	
		<linearGradient id="SVGID_5_" gradientUnits="userSpaceOnUse" x1="843.8643" y1="179.6475" x2="899.4167" y2="179.6475" gradientTransform="matrix(-1 0 0 1 1092.068 0)">
		<stop  offset="0" style="stop-color:#DFEFEA"/>
		<stop  offset="1" style="stop-color:#BFE3EE"/>
	</linearGradient>
	<path class="st12" d="M248.1,180.8c2,8.8-18.7,9.9-27.3,10c-2.4,0-4.7-0.2-7.1-0.7c-7.2-1.5-23.1-5.3-20.9-10.6
		c2.9-6.8,11.5-2,11.5-2s-1.1-5.1,13.6-8.5c14.6-3.4,14.6,7.9,14.6,7.9S245.5,169.7,248.1,180.8z"/>
	
		<linearGradient id="SVGID_6_" gradientUnits="userSpaceOnUse" x1="380.0592" y1="139.3834" x2="465.53" y2="139.3834" gradientTransform="matrix(1 0 0 1 -287.8985 0)">
		<stop  offset="0" style="stop-color:#DFEFEA"/>
		<stop  offset="1" style="stop-color:#BFE3EE"/>
	</linearGradient>
	<path class="st13" d="M92.2,152.8h83.5c0,0,4.5-5.7,0-9.6c-2.5-2.1-5.4-1.9-7.6-1.3c-1.4,0.4-2.8-0.5-3.1-2
		c-0.5-2.4-2.1-5.4-6.6-7.3c-4.4-1.8-7.2,0.9-8.8,3.8c-0.5,0.9-1.9,0.8-2.3-0.2c-1.4-4.4-6.3-10.3-22.3-10.3
		c-20.4,0-18.1,10.8-16.3,15.4c0.3,0.8-0.4,1.6-1.2,1.4c-3.1-0.7-9-1.5-11.6,0.5C92.2,146.1,92.2,152.8,92.2,152.8z"/>
	<g>
		<g>
			<path class="st4" d="M209.2,247.4c0,0-3.3-22.9,11.4-31.3c22.7,18.2,4.7,40.5,4.7,40.5L209.2,247.4z"/>
			<path class="st14" d="M220.5,216.1c0.1,0.1,0.2,0.1,0.2,0.2l-3,27l13.9-9.7c0,0.2,0.1,0.4,0.1,0.6l-14.1,9.8l-0.9,7.8l-0.5-0.3
				l1.7-15.5l0,0l-7.5-6.3c0.1-0.2,0.1-0.4,0.2-0.5l7.4,6.3l2.1-19.1C220.4,216.2,220.4,216.2,220.5,216.1L220.5,216.1z"/>
		</g>
		<g>
			<path class="st5" d="M215.9,243.5c0,0,11.7-19.8,27.9-19.2c8.9,17.3-9,30.2-9,30.2l-19.6,4.6L215.9,243.5z"/>
			<path class="st15" d="M227.1,230.7l3,9.7l13.3-16.2c0.1,0,0.3,0,0.4,0c0,0.1,0.1,0.1,0.1,0.2l-7.1,8.7l9.5-0.3c0,0.1,0,0.2,0,0.3
				l0,0.2l-9.9,0.3l-11.9,14.5l16.7,0c-0.1,0.2-0.3,0.3-0.4,0.5l-16.7,0l-8.5,10.3l-0.3,0.1l0-0.5l14.5-17.6l-3.1-9.9
				C226.8,231,226.9,230.9,227.1,230.7z"/>
		</g>
		<g>
			<path class="st11" d="M219.7,253.8c0,0,17.5-7.8,26.7,1.3c-5.9,25.7-39,20-39,20L219.7,253.8z"/>
			<g>
				<path class="st14" d="M246.5,255.1c0,0.1,0,0.2-0.1,0.3l-24.5,8.7l12,7.5c-0.2,0.1-0.4,0.2-0.5,0.3l-12.1-7.5l-9.6,3.4l0.4-0.7
					l18.6-6.6l4.7-9.7c0.2,0,0.4,0,0.5,0l-4.5,9.4l14.8-5.3C246.3,254.9,246.4,255,246.5,255.1L246.5,255.1z"/>
			</g>
		</g>
	</g>
	<g>
		<g>
			<path class="st4" d="M133.8,226.3c0,0,15.2-23.4,3.5-40.1c-34.1,8.4-25.8,41.9-25.8,41.9L133.8,226.3z"/>
			<path class="st14" d="M137.3,186.2c-0.1,0-0.2,0.1-0.4,0.1l-10.5,31.1l-10.3-17.7c-0.1,0.2-0.3,0.4-0.4,0.6l10.5,17.9l-3,9
				l0.7-0.1l6-17.9v0l11.5-3.1c0-0.2,0.1-0.4,0.1-0.7l-11.3,3.1l7.4-22C137.5,186.4,137.4,186.3,137.3,186.2L137.3,186.2z"/>
		</g>
		<g>
			<path class="st5" d="M128.4,218.5c0,0-2.7-27.7-20.7-35.2c-18.5,14.5-5.5,37.6-5.5,37.6l19.1,15L128.4,218.5z"/>
			<path class="st15" d="M122.7,198.9l-8.3,9.1l-6.3-24.5c-0.1-0.1-0.3-0.1-0.4-0.2c-0.1,0.1-0.1,0.1-0.2,0.2l3.4,13.1l-10.2-5.2
				c-0.1,0.1-0.1,0.2-0.2,0.3l-0.1,0.3l10.7,5.4l5.7,21.9l-18.2-8.5c0.1,0.3,0.1,0.5,0.2,0.8l18.2,8.5l4,15.6l0.3,0.3l0.2-0.6
				l-6.9-26.6l8.4-9.2C122.9,199.3,122.8,199.1,122.7,198.9z"/>
		</g>
		<g>
			<path class="st11" d="M118.9,227.9c0,0-15.2-17.5-29.9-12.2c-6.6,31.1,32.5,41.7,32.5,41.7L118.9,227.9z"/>
			<g>
				<path class="st14" d="M89.1,215.6c0,0.1,0,0.2-0.1,0.4l22.4,22.1l-17,2c0.1,0.2,0.3,0.4,0.4,0.6l17.1-2l8.7,8.6l-0.1-0.9
					l-17-16.8l-0.2-13c-0.2-0.1-0.4-0.2-0.6-0.2l0.2,12.6l-13.6-13.4C89.3,215.5,89.2,215.6,89.1,215.6L89.1,215.6z"/>
			</g>
		</g>
	</g>
	<path class="st16" d="M121.7,144.7v28.1c0,1.6,1.9,2.9,4.2,2.9l7.8,0.1c1.7,0,3.1,1,3.1,2.1l0.1,24.4c0,1.2-1.4,2.1-3.1,2.2
		l-8.4,0.1c-2.4,0-4.3,1.3-4.2,2.9l0.4,68.1h71.7V144.7H121.7z"/>
	<path class="st16" d="M209.4,212.1l8.4-0.1c2.4,0,4.3-1.3,4.2-2.9l-0.3-54.9c-0.9,0.1-1.8,0.2-2.7,0.2c-3.7,0-7.2-2.4-9.6-5
		c-1.2-1.3-2-2.9-2.5-4.5h-54.2v130.8h69v-31.8c0-1.6-1.9-2.9-4.2-2.9l-7.8-0.1c-1.7,0-3.1-1-3.1-2.1l-0.1-24.4
		C206.2,213.1,207.6,212.1,209.4,212.1z"/>
	<path class="st7" d="M215.1,212.1l2.6-0.1c2.4,0,4.3-1.3,4.2-2.9l-0.4-64.1h-30.1v130.6h30.1v-31.8c0-1.6-1.9-2.9-4.2-2.9l-2.1-0.1
		c-1.7,0-3.1-1-3.1-2.1l-0.1-24.4C212,213.1,213.4,212.1,215.1,212.1z"/>
	<rect x="121.7" y="140.7" class="st4" width="99.8" height="4.6"/>
	<rect x="191.2" y="140.7" class="st5" width="30.3" height="4.6"/>
	<g>
		<linearGradient id="SVGID_7_" gradientUnits="userSpaceOnUse" x1="134.8961" y1="226.4512" x2="154.5762" y2="226.4512">
			<stop  offset="0" style="stop-color:#DFEFEA"/>
			<stop  offset="1" style="stop-color:#BFE3EE"/>
		</linearGradient>
		<path class="st17" d="M147.3,236.8h-5.1c-4,0-7.3-3.3-7.3-7.3v-6.1c0-4,3.3-7.3,7.3-7.3h5.1c4,0,7.3,3.3,7.3,7.3v6.1
			C154.6,233.5,151.3,236.8,147.3,236.8z"/>
		<g>
			<rect x="143.7" y="216.1" class="st16" width="2.7" height="20.7"/>
			
				<rect x="144.1" y="212.7" transform="matrix(-1.836970e-16 1 -1 -1.836970e-16 371.5268 81.3757)" class="st16" width="2" height="27.5"/>
		</g>
	</g>
	<g>
		<linearGradient id="SVGID_8_" gradientUnits="userSpaceOnUse" x1="161.8734" y1="226.4512" x2="181.5535" y2="226.4512">
			<stop  offset="0" style="stop-color:#DFEFEA"/>
			<stop  offset="1" style="stop-color:#BFE3EE"/>
		</linearGradient>
		<path class="st18" d="M174.3,236.8h-5.1c-4,0-7.3-3.3-7.3-7.3v-6.1c0-4,3.3-7.3,7.3-7.3h5.1c4,0,7.3,3.3,7.3,7.3v6.1
			C181.6,233.5,178.3,236.8,174.3,236.8z"/>
		<g>
			<rect x="170.7" y="216.1" class="st16" width="2.7" height="20.7"/>
			<rect x="158.3" y="225.4" class="st16" width="24.6" height="2"/>
		</g>
	</g>
	<linearGradient id="SVGID_9_" gradientUnits="userSpaceOnUse" x1="142.3895" y1="188.1283" x2="161.1647" y2="188.1283">
		<stop  offset="0" style="stop-color:#DFEFEA"/>
		<stop  offset="1" style="stop-color:#BFE3EE"/>
	</linearGradient>
	<path class="st19" d="M142.4,202.5v-20c0-4.8,4.1-8.7,9.2-8.7h0.4c5,0,9.2,3.9,9.2,8.7v20H142.4z"/>
	<linearGradient id="SVGID_10_" gradientUnits="userSpaceOnUse" x1="142.3895" y1="188.1283" x2="161.1647" y2="188.1283">
		<stop  offset="0" style="stop-color:#DFEFEA"/>
		<stop  offset="1" style="stop-color:#BFE3EE"/>
	</linearGradient>
	<path class="st20" d="M142.4,202.5v-20c0-4.8,4.1-8.7,9.2-8.7h0.4c5,0,9.2,3.9,9.2,8.7v20H142.4z"/>
	<g>
		<rect x="150.5" y="171.5" class="st16" width="2.6" height="33.3"/>
	</g>
	<g>
		<rect x="141" y="186.8" class="st16" width="21.5" height="2.6"/>
	</g>
	<g>
		<linearGradient id="SVGID_11_" gradientUnits="userSpaceOnUse" x1="168.7219" y1="188.1283" x2="187.4971" y2="188.1283">
			<stop  offset="0" style="stop-color:#DFEFEA"/>
			<stop  offset="1" style="stop-color:#BFE3EE"/>
		</linearGradient>
		<path class="st21" d="M168.7,202.5v-20c0-4.8,4.1-8.7,9.2-8.7h0.4c5,0,9.2,3.9,9.2,8.7v20H168.7z"/>
		<g>
			<rect x="176.8" y="171.5" class="st16" width="2.6" height="33.3"/>
		</g>
		<g>
			<rect x="167.1" y="186.8" class="st16" width="21.6" height="2.6"/>
		</g>
	</g>
	<path class="st5" d="M147.6,154.9h-15.8c-0.7,0-1.3-0.6-1.3-1.3l0,0c0-0.7,0.6-1.3,1.3-1.3h15.8c0.7,0,1.3,0.6,1.3,1.3l0,0
		C148.8,154.3,148.2,154.9,147.6,154.9z"/>
	<path class="st5" d="M158.5,158.1h-15.8c-0.7,0-1.3-0.6-1.3-1.3l0,0c0-0.7,0.6-1.3,1.3-1.3h15.8c0.7,0,1.3,0.6,1.3,1.3l0,0
		C159.7,157.5,159.2,158.1,158.5,158.1z"/>
	<path class="st5" d="M170.4,258.1h-15.8c-0.7,0-1.3-0.6-1.3-1.3v0c0-0.7,0.6-1.3,1.3-1.3h15.8c0.7,0,1.3,0.6,1.3,1.3v0
		C171.7,257.5,171.1,258.1,170.4,258.1z"/>
	<path class="st5" d="M183.6,163.2h-8.7c-0.7,0-1.3-0.6-1.3-1.3l0,0c0-0.7,0.6-1.3,1.3-1.3h8.7c0.7,0,1.3,0.6,1.3,1.3l0,0
		C184.9,162.6,184.3,163.2,183.6,163.2z"/>
	<path class="st5" d="M173.7,254.4h-8.7c-0.7,0-1.3-0.6-1.3-1.3l0,0c0-0.7,0.6-1.3,1.3-1.3h8.7c0.7,0,1.3,0.6,1.3,1.3l0,0
		C174.9,253.9,174.4,254.4,173.7,254.4z"/>
	<g>
		<g>
			<polygon class="st22" points="239.9,181.5 241.2,184.2 238.3,183.5 228.3,180.4 			"/>
			<polygon class="st4" points="241.2,184.2 236.3,183.9 237.5,183.3 			"/>
			<polygon class="st14" points="239.9,181.5 240.7,178.8 228.3,180.4 			"/>
			<polygon class="st14" points="228.3,180.4 238.3,183.5 236.8,187.4 			"/>
		</g>
		<g>
			<g>
				<path class="st4" d="M240.1,187C240.2,187,240.2,187,240.1,187c0.2-0.2,0.1-0.3,0-0.4c-0.3-0.3-0.6-0.5-1-0.7
					c-0.1-0.1-0.3,0-0.3,0.1c-0.1,0.1,0,0.3,0.1,0.3c0.3,0.2,0.6,0.4,0.9,0.7C240,187,240.1,187,240.1,187z"/>
			</g>
			<g>
				<g>
					<path class="st4" d="M236.5,212.6c-0.1-0.1,0-0.3,0.1-0.3c0.6-0.4,1.2-0.9,1.7-1.5c0.1-0.1,0.2-0.1,0.3,0
						c0.1,0.1,0.1,0.2,0,0.3c-0.5,0.7-1.2,1.2-1.8,1.6c0,0,0,0,0,0C236.7,212.8,236.6,212.7,236.5,212.6z M239.2,210
						c-0.1-0.1-0.2-0.2-0.1-0.3c0.4-0.7,0.7-1.4,0.9-2.1c0-0.1,0.2-0.2,0.3-0.2c0.1,0,0.2,0.2,0.2,0.3c-0.2,0.8-0.5,1.5-0.9,2.3
						c0,0-0.1,0.1-0.1,0.1C239.3,210,239.2,210,239.2,210z M240.4,206.4c-0.1,0-0.2-0.1-0.2-0.3l0-0.1c0-0.7,0-1.5-0.1-2.2
						c0-0.1,0.1-0.2,0.2-0.3c0.1,0,0.2,0.1,0.3,0.2c0.1,0.8,0.2,1.6,0.1,2.3l0,0.1c0,0.1-0.1,0.2-0.1,0.2
						C240.5,206.4,240.4,206.4,240.4,206.4z M240,202.7c-0.1,0-0.3,0-0.3-0.2c-0.2-0.7-0.4-1.5-0.8-2.2c-0.1-0.1,0-0.3,0.1-0.3
						c0.1-0.1,0.3,0,0.3,0.1c0.3,0.8,0.6,1.5,0.8,2.3C240.2,202.5,240.2,202.6,240,202.7C240.1,202.7,240.1,202.7,240,202.7z
						 M238.7,199.1c-0.1,0.1-0.3,0-0.3-0.1c0-0.1-0.1-0.1-0.1-0.2c-0.2,0.1-0.5,0.2-0.8,0.3c-0.1,0-0.3,0-0.3-0.2
						c0-0.1,0-0.3,0.2-0.3c0.2-0.1,0.5-0.1,0.7-0.2c-0.2-0.5-0.5-1-0.8-1.5c-0.1-0.1,0-0.3,0.1-0.3c0.1-0.1,0.3,0,0.3,0.1
						c0.3,0.5,0.6,1,0.8,1.5c0.3-0.2,0.7-0.3,1-0.5c0.1-0.1,0.3,0,0.3,0.1c0.1,0.1,0,0.3-0.1,0.3c-0.3,0.2-0.7,0.4-1,0.6
						c0,0.1,0.1,0.1,0.1,0.2C238.9,198.9,238.8,199.1,238.7,199.1C238.7,199.1,238.7,199.1,238.7,199.1z M240.6,197.1
						c-0.1-0.1-0.1-0.2,0-0.3c0.3-0.3,0.6-0.7,0.9-1.1c0.1-0.2,0.3-0.5,0.4-0.8c0-0.1,0.2-0.2,0.3-0.1c0.1,0,0.2,0.2,0.1,0.3
						c-0.1,0.3-0.3,0.6-0.4,0.8c-0.3,0.4-0.6,0.8-0.9,1.2c0,0,0,0-0.1,0C240.8,197.2,240.6,197.2,240.6,197.1z M236.1,199.3
						c-0.8,0.1-1.7,0-2.4-0.2c-0.1,0-0.2-0.2-0.2-0.3c0-0.1,0.2-0.2,0.3-0.2c0.7,0.2,1.5,0.2,2.3,0.2c0.1,0,0.2,0.1,0.3,0.2
						C236.3,199.2,236.3,199.3,236.1,199.3C236.2,199.3,236.1,199.3,236.1,199.3z M242.4,193.9c-0.1,0-0.2-0.1-0.2-0.3
						c0.1-0.7,0.1-1.5,0-2.3c0-0.1,0.1-0.2,0.2-0.3c0.1,0,0.2,0.1,0.3,0.2c0.1,0.8,0.1,1.6,0,2.4c0,0.1-0.1,0.1-0.1,0.2
						C242.5,193.9,242.4,193.9,242.4,193.9z M232.3,198.6c-0.2-0.1-0.4-0.2-0.6-0.3c-0.5-0.3-1-0.8-1.3-1.3
						c-0.1-0.1-0.1-0.3,0.1-0.3c0.1-0.1,0.3-0.1,0.3,0.1c0.3,0.5,0.7,0.8,1.2,1.1c0.2,0.1,0.3,0.2,0.5,0.3c0.1,0.1,0.2,0.2,0.1,0.3
						c0,0-0.1,0.1-0.1,0.1C232.5,198.7,232.4,198.7,232.3,198.6z M236.6,195.7c-0.5-0.8-1-1.4-1.4-1.8c-0.1-0.1-0.1-0.2,0-0.3
						c0.1-0.1,0.2-0.1,0.3,0c0.5,0.5,1,1.1,1.5,1.9c0.1,0.1,0,0.3-0.1,0.3c0,0,0,0,0,0C236.8,195.9,236.6,195.8,236.6,195.7z
						 M242.2,190.1c-0.1,0-0.3,0-0.3-0.1c-0.1-0.3-0.3-0.7-0.4-1c-0.2-0.4-0.4-0.7-0.7-1.1c-0.1-0.1-0.1-0.3,0-0.3
						c0.1-0.1,0.3-0.1,0.3,0c0.3,0.4,0.5,0.7,0.7,1.1c0.2,0.3,0.3,0.7,0.4,1C242.4,189.9,242.3,190.1,242.2,190.1
						C242.2,190.1,242.2,190.1,242.2,190.1z M230.1,195.9c-0.1,0-0.3,0-0.3-0.2c-0.2-0.7-0.1-1.3,0.2-1.9c0.1-0.2,0.2-0.4,0.4-0.6
						c0.1-0.1,0.2-0.1,0.3,0c0.1,0.1,0.1,0.2,0,0.3c-0.1,0.1-0.2,0.3-0.3,0.4c-0.2,0.5-0.3,1-0.2,1.5
						C230.3,195.7,230.2,195.8,230.1,195.9C230.1,195.9,230.1,195.9,230.1,195.9z M234,193.2c-0.7-0.3-1.5-0.4-2.2-0.2
						c-0.1,0-0.3,0-0.3-0.2c0-0.1,0-0.3,0.2-0.3c0.8-0.2,1.7-0.1,2.5,0.2c0.1,0.1,0.2,0.2,0.1,0.3c0,0-0.1,0.1-0.1,0.1
						C234.1,193.2,234.1,193.2,234,193.2z"/>
				</g>
			</g>
			<g>
				<path class="st4" d="M235.5,213.3c0.1,0,0.2-0.2,0.1-0.3c0-0.1-0.2-0.2-0.3-0.2c-0.4,0.1-0.7,0.2-1.1,0.2
					c-0.1,0-0.2,0.1-0.2,0.2c0,0.1,0.1,0.2,0.2,0.2C234.6,213.5,235,213.4,235.5,213.3C235.5,213.3,235.5,213.3,235.5,213.3z"/>
			</g>
		</g>
	</g>
	<g>
		<g>
			<linearGradient id="SVGID_12_" gradientUnits="userSpaceOnUse" x1="126.6414" y1="164.4051" x2="142.0454" y2="164.4051">
				<stop  offset="6.300000e-07" style="stop-color:#F1F8F7"/>
				<stop  offset="1" style="stop-color:#BFE3EE"/>
			</linearGradient>
			<polygon class="st23" points="142,167.1 133.9,162.6 129.8,161.7 126.6,162.2 			"/>
			<polyline class="st22" points="142,167.1 126.8,163.2 126.6,162.2 			"/>
			<polygon class="st4" points="126.4,165.8 126.4,165.8 127.1,168.2 142,167.1 			"/>
			<linearGradient id="SVGID_13_" gradientUnits="userSpaceOnUse" x1="123.4955" y1="164.826" x2="141.9466" y2="164.826">
				<stop  offset="6.300000e-07" style="stop-color:#F1F8F7"/>
				<stop  offset="1" style="stop-color:#BFE3EE"/>
			</linearGradient>
			<polygon class="st24" points="123.5,164.4 125.7,162.6 141.9,167 127.9,166.6 			"/>
		</g>
		<g>
			<path class="st4" d="M89.3,194.5c0.5-0.2,1-0.4,1.5-0.6c0.1-0.1,0.2,0,0.3,0.1c0.1,0.1,0,0.2-0.1,0.3c-0.5,0.3-1,0.5-1.5,0.7
				c-0.2,0.1-0.4,0.1-0.6,0.2c-0.1,0-0.1,0-0.2,0c0,0-0.1-0.1-0.1-0.1c0-0.1,0-0.2,0.1-0.3C88.9,194.6,89.1,194.6,89.3,194.5z"/>
			<path class="st4" d="M119.1,162.7c0.7,0.1,1.4,0.2,2.2,0.3c0.1,0,0.2,0.1,0.2,0.3c0,0.1-0.1,0.2-0.3,0.2
				c-0.8-0.1-1.5-0.3-2.2-0.3c0,0-0.1,0-0.1,0c-0.1,0-0.1-0.1-0.1-0.2C118.8,162.8,118.9,162.7,119.1,162.7z"/>
			<path class="st4" d="M115.4,162.9c-0.1,0-0.1-0.1-0.1-0.2c0-0.1,0.1-0.2,0.2-0.2c0.7,0,1.5,0,2.2,0.1c0.1,0,0.2,0.1,0.2,0.2
				c0,0.1-0.1,0.2-0.2,0.2c-0.8-0.1-1.5-0.1-2.2-0.1C115.4,162.9,115.4,162.9,115.4,162.9z"/>
			<path class="st4" d="M93.5,191.9c0.1-0.1,0.2-0.1,0.3,0c0.1,0.1,0.1,0.2,0,0.3c-0.5,0.5-1.1,1-1.7,1.4c-0.1,0.1-0.2,0-0.3,0
				c0,0,0,0-0.1-0.1c-0.1-0.1,0-0.2,0.1-0.3C92.5,192.8,93,192.4,93.5,191.9z"/>
			<path class="st4" d="M94.5,191.2c-0.1-0.1-0.1-0.2,0-0.3c0.1-0.2,0.2-0.3,0.4-0.5c0.3-0.4,0.6-0.9,0.8-1.3
				c0.1-0.1,0.2-0.1,0.3-0.1c0.1,0.1,0.1,0.2,0.1,0.3c-0.3,0.5-0.6,0.9-0.9,1.4c-0.1,0.2-0.2,0.3-0.4,0.5
				C94.7,191.3,94.6,191.3,94.5,191.2C94.5,191.2,94.5,191.2,94.5,191.2z"/>
			<path class="st4" d="M96.3,188.2C96.3,188.2,96.3,188.2,96.3,188.2c-0.1-0.1-0.2-0.2-0.1-0.3c0.3-0.6,0.5-1.3,0.7-2.1
				c0-0.1,0.1-0.2,0.3-0.2c0.1,0,0.2,0.2,0.2,0.3c-0.2,0.8-0.4,1.5-0.7,2.1C96.6,188.2,96.4,188.3,96.3,188.2z"/>
			<path class="st4" d="M102.2,169.4c-0.2,0.2-0.4,0.5-0.5,0.7c-0.3,0.4-0.5,0.7-0.7,1.1c-0.1,0.1-0.2,0.1-0.3,0.1c0,0,0,0,0,0
				c-0.1-0.1-0.1-0.2-0.1-0.3c0.2-0.4,0.5-0.8,0.8-1.1c0.2-0.2,0.4-0.5,0.5-0.7c0.1-0.1,0.2-0.1,0.3,0
				C102.2,169.1,102.3,169.3,102.2,169.4z"/>
			<path class="st4" d="M100.2,172.3c-0.3,0.6-0.6,1.3-0.9,2c0,0.1-0.2,0.2-0.3,0.1c0,0,0,0-0.1,0c-0.1-0.1-0.1-0.2-0.1-0.3
				c0.2-0.7,0.6-1.4,0.9-2c0.1-0.1,0.2-0.2,0.3-0.1C100.3,172,100.3,172.2,100.2,172.3z"/>
			<path class="st4" d="M104.6,166.9c-0.6,0.5-1.1,1-1.6,1.5c-0.1,0.1-0.2,0.1-0.3,0c0,0,0,0,0,0c-0.1-0.1-0.1-0.2,0-0.3
				c0.5-0.5,1.1-1,1.6-1.5c0.1-0.1,0.2-0.1,0.3,0C104.8,166.7,104.7,166.8,104.6,166.9z"/>
			<path class="st4" d="M108.7,164.4c-0.1,0-0.2,0-0.2,0c0,0-0.1-0.1-0.1-0.1c0-0.1,0-0.2,0.1-0.3c0.7-0.3,1.4-0.6,2.1-0.8
				c0.1,0,0.2,0,0.3,0.1c0,0.1,0,0.2-0.1,0.3C110.1,163.8,109.4,164.1,108.7,164.4z"/>
			<path class="st4" d="M97.8,181.3c0,0-0.1,0-0.1,0c-0.1,0-0.1-0.1-0.1-0.2l0-0.3c0.1-0.6,0.1-1.3,0.2-1.9c0-0.1,0.1-0.2,0.2-0.2
				c0.1,0,0.2,0.1,0.2,0.2c-0.1,0.6-0.2,1.3-0.2,1.9l0,0.3C98.1,181.3,97.9,181.3,97.8,181.3z"/>
			<path class="st4" d="M105.7,166.1c-0.1,0.1-0.2,0.1-0.3,0c0,0,0,0,0-0.1c-0.1-0.1,0-0.2,0.1-0.3c0.6-0.4,1.2-0.8,1.9-1.2
				c0.1-0.1,0.2,0,0.3,0.1c0.1,0.1,0,0.2-0.1,0.3C106.9,165.3,106.3,165.7,105.7,166.1z"/>
			<path class="st4" d="M97.7,182.2c0.1,0,0.2,0.1,0.2,0.2c-0.1,0.9-0.2,1.6-0.3,2.2c0,0.1-0.1,0.2-0.3,0.2c0,0-0.1,0-0.1,0
				c-0.1,0-0.1-0.1-0.1-0.2c0.1-0.6,0.2-1.3,0.3-2.2C97.5,182.3,97.6,182.2,97.7,182.2z"/>
			<path class="st4" d="M87.5,195c0.1,0,0.2,0.1,0.3,0.2c0,0.1-0.1,0.2-0.2,0.3c-0.7,0.1-1.4,0.2-2.2,0.3c-0.1,0-0.1,0-0.1,0
				c0,0-0.1-0.1-0.1-0.2c0-0.1,0.1-0.2,0.2-0.2C86.1,195.2,86.8,195.1,87.5,195z"/>
			<path class="st4" d="M98.8,175.2c0.1,0,0.2,0.2,0.2,0.3c-0.2,0.7-0.3,1.3-0.5,2.1c0,0.1-0.1,0.2-0.3,0.2c0,0-0.1,0-0.1,0
				c-0.1,0-0.1-0.1-0.1-0.2c0.1-0.8,0.3-1.5,0.5-2.2C98.6,175.3,98.7,175.2,98.8,175.2z"/>
			<path class="st4" d="M113.4,162.6c0.3,0,0.5-0.1,0.8-0.1c0.1,0,0.2,0.1,0.2,0.2c0,0.1-0.1,0.2-0.2,0.2c-0.3,0-0.5,0-0.8,0.1
				c-0.5,0.1-0.9,0.1-1.4,0.2c-0.1,0-0.1,0-0.2,0c0,0-0.1-0.1-0.1-0.1c0-0.1,0.1-0.2,0.2-0.3C112.4,162.8,112.9,162.7,113.4,162.6z"
				/>
		</g>
	</g>
	<path class="st16" d="M206.2,183.7h-8.7c-0.7,0-1.3-0.6-1.3-1.3l0,0c0-0.7,0.6-1.3,1.3-1.3h8.7c0.7,0,1.3,0.6,1.3,1.3v0
		C207.5,183.2,206.9,183.7,206.2,183.7z"/>
	<path class="st16" d="M216.1,253h-8.7c-0.7,0-1.3-0.6-1.3-1.3l0,0c0-0.7,0.6-1.3,1.3-1.3h8.7c0.7,0,1.3,0.6,1.3,1.3l0,0
		C217.3,252.5,216.8,253,216.1,253z"/>
	<path class="st16" d="M217.1,188.1h-13.9c-0.7,0-1.3-0.6-1.3-1.3v0c0-0.7,0.6-1.3,1.3-1.3h13.9c0.7,0,1.3,0.6,1.3,1.3l0,0
		C218.4,187.5,217.8,188.1,217.1,188.1z"/>
</g>
<g>
	<g>
		<polygon class="st22" points="90.4,84.9 88.4,88.8 92.5,87.8 106.7,83.3 		"/>
		<polygon class="st4" points="88.4,88.8 95.4,88.3 93.7,87.5 		"/>
		
			<linearGradient id="SVGID_14_" gradientUnits="userSpaceOnUse" x1="1073.1219" y1="82.9907" x2="1090.7123" y2="82.9907" gradientTransform="matrix(-1 0 0 1 1179.8357 0)">
			<stop  offset="6.300000e-07" style="stop-color:#F1F8F7"/>
			<stop  offset="1" style="stop-color:#BFE3EE"/>
		</linearGradient>
		<polygon class="st25" points="90.4,84.9 89.1,81.1 106.7,83.3 		"/>
		
			<linearGradient id="SVGID_15_" gradientUnits="userSpaceOnUse" x1="1073.1219" y1="88.3112" x2="1087.3074" y2="88.3112" gradientTransform="matrix(-1 0 0 1 1179.8357 0)">
			<stop  offset="6.300000e-07" style="stop-color:#F1F8F7"/>
			<stop  offset="1" style="stop-color:#BFE3EE"/>
		</linearGradient>
		<polygon class="st26" points="106.7,83.3 92.5,87.8 94.6,93.3 		"/>
	</g>
	<g>
		<g>
			<path class="st4" d="M89.9,92.7C89.9,92.7,89.9,92.6,89.9,92.7c-0.2-0.2-0.2-0.4-0.1-0.5c0.4-0.4,0.9-0.7,1.4-1
				c0.2-0.1,0.4,0,0.5,0.1c0.1,0.2,0,0.4-0.1,0.5c-0.5,0.3-0.9,0.6-1.3,0.9C90.2,92.7,90.1,92.7,89.9,92.7z"/>
		</g>
		<g>
			<g>
				<path class="st4" d="M94.7,129C94.7,129,94.6,129,94.7,129c-1-0.6-1.9-1.3-2.6-2.3c-0.1-0.1-0.1-0.3,0-0.5
					c0.1-0.1,0.3-0.1,0.5,0c0.7,0.9,1.5,1.6,2.4,2.1c0.2,0.1,0.2,0.3,0.1,0.5C95,129,94.8,129.1,94.7,129z M91,125.2
					c-0.1,0-0.1-0.1-0.1-0.1c-0.6-1-1-2.1-1.3-3.2c0-0.2,0.1-0.4,0.2-0.4c0.2,0,0.4,0.1,0.4,0.2c0.3,1.1,0.7,2.1,1.2,3
					c0.1,0.2,0,0.4-0.1,0.5C91.2,125.2,91.1,125.2,91,125.2z M89.5,120.1c-0.1-0.1-0.2-0.2-0.2-0.3l0-0.2c-0.1-1.1,0-2.1,0.2-3.2
					c0-0.2,0.2-0.3,0.4-0.3c0.2,0,0.3,0.2,0.3,0.4c-0.2,1.1-0.2,2.1-0.2,3.1l0,0.1c0,0.2-0.1,0.3-0.3,0.4
					C89.6,120.1,89.5,120.1,89.5,120.1z M90,114.8c-0.1-0.1-0.2-0.2-0.2-0.4c0.3-1,0.6-2.1,1.1-3.2c0.1-0.2,0.3-0.2,0.4-0.2
					c0.2,0.1,0.2,0.3,0.2,0.4c-0.4,1.1-0.8,2.1-1.1,3.1C90.4,114.8,90.3,114.9,90,114.8C90.1,114.8,90,114.8,90,114.8z M91.9,109.8
					c-0.2-0.1-0.2-0.3-0.1-0.4c0-0.1,0.1-0.1,0.1-0.2c-0.5-0.2-1-0.5-1.4-0.8c-0.2-0.1-0.2-0.3-0.1-0.5c0.1-0.2,0.3-0.2,0.5-0.1
					c0.4,0.3,0.9,0.5,1.4,0.8c0.4-0.7,0.7-1.4,1.2-2.2c0.1-0.2,0.3-0.2,0.5-0.1c0.2,0.1,0.2,0.3,0.1,0.5c-0.4,0.7-0.8,1.4-1.2,2.1
					c0.3,0.1,0.6,0.2,0.9,0.3c0.2,0.1,0.3,0.2,0.2,0.4c0,0.2-0.2,0.3-0.4,0.2c-0.4-0.1-0.7-0.2-1.1-0.4c0,0.1-0.1,0.2-0.1,0.2
					C92.3,109.8,92.1,109.9,91.9,109.8C92,109.8,91.9,109.8,91.9,109.8z M89,107.1C88.9,107.1,88.9,107,89,107.1
					c-0.6-0.6-1-1.2-1.4-1.8c-0.2-0.4-0.4-0.8-0.6-1.2c-0.1-0.2,0-0.4,0.2-0.4c0.2-0.1,0.4,0,0.4,0.2c0.2,0.4,0.3,0.8,0.5,1.1
					c0.3,0.6,0.7,1.1,1.2,1.6c0.1,0.1,0.1,0.3,0,0.5C89.2,107.1,89.1,107.1,89,107.1z M95.5,110.1c-0.1-0.1-0.2-0.2-0.2-0.3
					c0-0.2,0.2-0.3,0.4-0.3c1.1,0.1,2.2,0,3.2-0.3c0.2,0,0.4,0.1,0.4,0.2c0,0.2-0.1,0.4-0.2,0.4c-1.1,0.3-2.3,0.4-3.4,0.3
					C95.6,110.1,95.5,110.1,95.5,110.1z M86.6,102.4c-0.1,0-0.2-0.1-0.2-0.2c-0.2-1.1-0.2-2.3,0-3.4c0-0.2,0.2-0.3,0.4-0.3
					c0.2,0,0.3,0.2,0.3,0.4c-0.2,1.1-0.2,2.2,0,3.2c0,0.2-0.1,0.4-0.3,0.4C86.7,102.4,86.6,102.4,86.6,102.4z M100.7,109.1
					c-0.1,0-0.1-0.1-0.1-0.1c-0.1-0.2,0-0.4,0.1-0.4c0.2-0.1,0.5-0.3,0.7-0.4c0.7-0.4,1.2-1,1.7-1.6c0.1-0.1,0.3-0.2,0.5-0.1
					c0.1,0.1,0.2,0.3,0.1,0.5c-0.5,0.7-1.2,1.3-1.9,1.8c-0.2,0.2-0.5,0.3-0.8,0.5C100.9,109.2,100.8,109.2,100.7,109.1z M94.6,105.1
					C94.6,105.1,94.6,105.1,94.6,105.1c-0.2-0.1-0.2-0.3-0.1-0.5c0.7-1.2,1.4-2,2.2-2.7c0.1-0.1,0.3-0.1,0.5,0
					c0.1,0.1,0.1,0.3,0,0.5c-0.7,0.6-1.3,1.4-2,2.5C94.9,105.2,94.7,105.2,94.6,105.1z M87,97.1c-0.1-0.1-0.2-0.2-0.2-0.4
					c0.2-0.5,0.4-1,0.6-1.4c0.3-0.6,0.6-1.1,1-1.6c0.1-0.1,0.3-0.2,0.5-0.1c0.1,0.1,0.2,0.3,0.1,0.5c-0.3,0.5-0.7,1-0.9,1.5
					c-0.2,0.4-0.4,0.9-0.6,1.4C87.4,97.1,87.2,97.2,87,97.1C87,97.1,87,97.1,87,97.1z M104.1,105.2c-0.1-0.1-0.2-0.2-0.2-0.4
					c0.2-0.8,0.1-1.5-0.2-2.2c-0.1-0.2-0.3-0.4-0.5-0.6c-0.1-0.1-0.1-0.3,0-0.5c0.1-0.1,0.3-0.1,0.5,0c0.2,0.2,0.4,0.5,0.6,0.8
					c0.4,0.8,0.5,1.7,0.3,2.6C104.5,105.2,104.3,105.3,104.1,105.2C104.1,105.2,104.1,105.2,104.1,105.2z M98.3,101.4
					c-0.1,0-0.1-0.1-0.2-0.2c-0.1-0.2,0-0.4,0.2-0.4c1.1-0.5,2.4-0.6,3.5-0.3c0.2,0,0.3,0.2,0.2,0.4c0,0.2-0.2,0.3-0.4,0.2
					c-1-0.2-2.1-0.1-3.1,0.3C98.5,101.5,98.4,101.5,98.3,101.4z"/>
			</g>
		</g>
		<g>
			<path class="st4" d="M96.5,129.8c-0.1-0.1-0.2-0.2-0.2-0.4c0.1-0.2,0.2-0.3,0.4-0.2c0.5,0.1,1,0.2,1.6,0.3c0.2,0,0.3,0.2,0.3,0.3
				c0,0.2-0.2,0.3-0.3,0.3C97.7,130.1,97.1,130,96.5,129.8C96.6,129.8,96.5,129.8,96.5,129.8z"/>
		</g>
	</g>
</g>
<g>
	<g>
		
			<linearGradient id="SVGID_16_" gradientUnits="userSpaceOnUse" x1="1028.6049" y1="41.0051" x2="1050.3542" y2="41.0051" gradientTransform="matrix(-1 0 0 1 1273.7407 0)">
			<stop  offset="6.300000e-07" style="stop-color:#F1F8F7"/>
			<stop  offset="1" style="stop-color:#BFE3EE"/>
		</linearGradient>
		<polygon class="st27" points="223.4,44.8 234.9,38.4 240.7,37.3 245.1,37.9 		"/>
		<polyline class="st22" points="223.4,44.8 244.9,39.2 245.1,37.9 		"/>
		<polygon class="st4" points="245.5,42.9 245.4,43 244.5,46.3 223.4,44.8 		"/>
		
			<linearGradient id="SVGID_17_" gradientUnits="userSpaceOnUse" x1="1024.163" y1="41.5994" x2="1050.2148" y2="41.5994" gradientTransform="matrix(-1 0 0 1 1273.7407 0)">
			<stop  offset="6.300000e-07" style="stop-color:#F1F8F7"/>
			<stop  offset="1" style="stop-color:#BFE3EE"/>
		</linearGradient>
		<polygon class="st28" points="249.6,41 246.5,38.5 223.5,44.7 243.3,44.1 		"/>
	</g>
	<g>
		<path class="st4" d="M297.9,83.5c-0.7-0.2-1.4-0.5-2.1-0.9c-0.2-0.1-0.3,0-0.4,0.1c-0.1,0.2,0,0.3,0.1,0.4
			c0.7,0.4,1.4,0.7,2.1,0.9c0.3,0.1,0.5,0.2,0.8,0.3c0.1,0,0.2,0,0.3,0c0.1,0,0.1-0.1,0.1-0.2c0-0.2,0-0.3-0.2-0.4
			C298.4,83.7,298.1,83.6,297.9,83.5z"/>
		<path class="st4" d="M255.9,38.6c-1,0.1-2,0.3-3.1,0.5c-0.2,0-0.3,0.2-0.3,0.4c0,0.2,0.2,0.3,0.4,0.3c1.1-0.2,2.1-0.4,3.1-0.5
			c0.1,0,0.1,0,0.1-0.1c0.1-0.1,0.1-0.2,0.1-0.3C256.2,38.7,256,38.6,255.9,38.6z"/>
		<path class="st4" d="M261.1,38.9c0.1-0.1,0.1-0.1,0.1-0.2c0-0.2-0.1-0.3-0.3-0.3c-1,0-2.1,0-3.1,0.1c-0.2,0-0.3,0.2-0.3,0.3
			c0,0.2,0.2,0.3,0.3,0.3c1.1-0.1,2.1-0.1,3.1-0.1C260.9,38.9,261,38.9,261.1,38.9z"/>
		<path class="st4" d="M291.9,79.8c-0.1-0.1-0.3-0.1-0.4,0c-0.1,0.1-0.1,0.3,0,0.4c0.8,0.7,1.6,1.4,2.5,2c0.1,0.1,0.3,0.1,0.4,0
			c0,0,0.1,0,0.1-0.1c0.1-0.1,0.1-0.3-0.1-0.4C293.4,81.1,292.6,80.5,291.9,79.8z"/>
		<path class="st4" d="M290.6,78.8c0.1-0.1,0.2-0.3,0-0.4c-0.2-0.2-0.3-0.4-0.5-0.7c-0.4-0.6-0.8-1.2-1.2-1.9
			c-0.1-0.2-0.3-0.2-0.4-0.1c-0.1,0.1-0.2,0.3-0.1,0.4c0.4,0.7,0.8,1.3,1.2,1.9c0.2,0.2,0.3,0.5,0.5,0.7
			C290.2,78.9,290.4,79,290.6,78.8C290.6,78.8,290.6,78.8,290.6,78.8z"/>
		<path class="st4" d="M288,74.6C288,74.6,288,74.6,288,74.6c0.2-0.1,0.2-0.3,0.2-0.4c-0.4-0.9-0.7-1.9-0.9-2.9
			c0-0.2-0.2-0.3-0.4-0.2c-0.2,0-0.3,0.2-0.2,0.4c0.3,1.1,0.6,2.1,1,3C287.6,74.6,287.8,74.7,288,74.6z"/>
		<path class="st4" d="M279.7,48c0.3,0.3,0.5,0.6,0.8,1c0.4,0.5,0.7,1,1,1.5c0.1,0.1,0.3,0.2,0.4,0.1c0,0,0,0,0,0
			c0.1-0.1,0.2-0.3,0.1-0.4c-0.3-0.5-0.7-1.1-1.1-1.6c-0.2-0.3-0.5-0.7-0.8-1c-0.1-0.1-0.3-0.2-0.4,0
			C279.6,47.7,279.6,47.9,279.7,48z"/>
		<path class="st4" d="M282.4,52.1c0.5,0.9,0.9,1.9,1.2,2.8c0.1,0.2,0.2,0.2,0.4,0.2c0,0,0.1,0,0.1,0c0.1-0.1,0.2-0.2,0.1-0.4
			c-0.4-1-0.8-2-1.3-2.9c-0.1-0.2-0.3-0.2-0.4-0.1C282.4,51.8,282.3,51.9,282.4,52.1z"/>
		<path class="st4" d="M276.2,44.5c0.8,0.7,1.6,1.4,2.3,2.1c0.1,0.1,0.3,0.1,0.4,0c0,0,0,0,0,0c0.1-0.1,0.1-0.3,0-0.4
			c-0.7-0.8-1.5-1.5-2.3-2.1c-0.1-0.1-0.3-0.1-0.4,0C276,44.2,276.1,44.4,276.2,44.5z"/>
		<path class="st4" d="M270.4,41c0.1,0,0.2,0,0.3,0c0,0,0.1-0.1,0.1-0.1c0.1-0.2,0-0.3-0.2-0.4c-1-0.4-2-0.8-3-1.1
			c-0.2,0-0.3,0-0.4,0.2c0,0.2,0,0.3,0.2,0.4C268.5,40.2,269.5,40.5,270.4,41z"/>
		<path class="st4" d="M285.8,64.9c0.1,0,0.1,0,0.2-0.1c0.1-0.1,0.1-0.2,0.1-0.3l0-0.4c-0.1-0.9-0.2-1.8-0.3-2.7
			c0-0.2-0.2-0.3-0.4-0.3c-0.2,0-0.3,0.2-0.3,0.4c0.1,0.9,0.2,1.8,0.3,2.7l0,0.4C285.5,64.8,285.6,64.9,285.8,64.9z"/>
		<path class="st4" d="M274.7,43.4c0.1,0.1,0.3,0.1,0.4,0c0,0,0,0,0.1-0.1c0.1-0.1,0.1-0.3-0.1-0.4c-0.9-0.6-1.8-1.2-2.7-1.7
			c-0.2-0.1-0.3,0-0.4,0.1c-0.1,0.2,0,0.3,0.1,0.4C273,42.3,273.9,42.8,274.7,43.4z"/>
		<path class="st4" d="M286,66.1c-0.2,0-0.3,0.2-0.3,0.3c0.2,1.2,0.3,2.2,0.5,3.1c0,0.2,0.2,0.3,0.4,0.2c0,0,0.1,0,0.1-0.1
			c0.1-0.1,0.1-0.2,0.1-0.3c-0.2-0.9-0.3-1.9-0.5-3.1C286.3,66.2,286.1,66.1,286,66.1z"/>
		<path class="st4" d="M300.4,84.2c-0.2,0-0.3,0.1-0.4,0.2c0,0.2,0.1,0.3,0.2,0.4c1,0.2,2,0.3,3.1,0.4c0.1,0,0.1,0,0.2-0.1
			c0.1-0.1,0.1-0.1,0.1-0.2c0-0.2-0.1-0.3-0.3-0.3C302.4,84.5,301.4,84.4,300.4,84.2z"/>
		<path class="st4" d="M284.4,56.3c-0.2,0-0.3,0.2-0.2,0.4c0.2,0.9,0.5,1.9,0.6,3c0,0.2,0.2,0.3,0.4,0.3c0.1,0,0.1,0,0.1-0.1
			c0.1-0.1,0.1-0.2,0.1-0.3c-0.2-1.1-0.4-2.1-0.7-3.1C284.7,56.3,284.6,56.2,284.4,56.3z"/>
		<path class="st4" d="M263.9,38.5c-0.4,0-0.7-0.1-1.1-0.1c-0.2,0-0.3,0.1-0.3,0.3c0,0.2,0.1,0.3,0.3,0.3c0.4,0,0.7,0.1,1.1,0.1
			c0.7,0.1,1.3,0.2,2,0.3c0.1,0,0.2,0,0.3-0.1c0.1,0,0.1-0.1,0.1-0.2c0-0.2-0.1-0.3-0.2-0.4C265.2,38.7,264.5,38.6,263.9,38.5z"/>
	</g>
</g>
<g>
	<linearGradient id="SVGID_18_" gradientUnits="userSpaceOnUse" x1="660.8827" y1="72.5886" x2="705.6204" y2="72.5886">
		<stop  offset="0" style="stop-color:#DFEFEA"/>
		<stop  offset="1" style="stop-color:#BFE3EE"/>
	</linearGradient>
	<path class="st29" d="M661,73.5c-1.6,7.1,15.1,8,22,8.1c1.9,0,3.8-0.2,5.7-0.5c5.8-1.2,18.6-4.3,16.8-8.5c-2.3-5.4-9.2-1.6-9.2-1.6
		s0.9-4.1-10.9-6.8c-11.8-2.7-11.7,6.3-11.7,6.3S663,64.6,661,73.5z"/>
	
		<linearGradient id="SVGID_19_" gradientUnits="userSpaceOnUse" x1="212.8948" y1="138.5146" x2="297.6299" y2="138.5146" gradientTransform="matrix(-1 0 0 1 914.7647 0)">
		<stop  offset="0" style="stop-color:#DFEFEA"/>
		<stop  offset="1" style="stop-color:#BFE3EE"/>
	</linearGradient>
	<path class="st30" d="M696.6,151.1c-13.2,1.9-43.8,5.2-73.9-0.6c-2-0.4-3.9-1.6-4.9-3.3c-1.3-2.1-0.9-4,2.4-6.7
		c2.5-2.1,5.4-1.9,7.5-1.3c1.4,0.4,2.9-0.5,3.2-1.9c0.5-2.3,2.1-5.4,6.5-7.2c4.4-1.8,7.2,0.9,8.8,3.7c0.5,0.9,1.9,0.8,2.3-0.2
		c1.4-4.4,6.3-10.3,22.2-10.3c20.3,0,18.1,10.8,16.2,15.3c-0.3,0.8,0.4,1.6,1.2,1.4c3.1-0.7,9-1.5,11.6,0.5c0.1,0.1,0.2,0.2,0.3,0.3
		C703.7,144.1,701.6,150.4,696.6,151.1z"/>
	
		<linearGradient id="SVGID_20_" gradientUnits="userSpaceOnUse" x1="942.0211" y1="100.2847" x2="1015.9703" y2="100.2847" gradientTransform="matrix(1 0 0 1 -369.1989 0)">
		<stop  offset="0" style="stop-color:#DFEFEA"/>
		<stop  offset="1" style="stop-color:#BFE3EE"/>
	</linearGradient>
	<path class="st31" d="M577.4,111.3c11.5,1.7,38.2,4.5,64.5-0.5c1.8-0.3,3.4-1.4,4.3-2.9c1.1-1.9,0.7-3.5-2.1-5.9
		c-2.1-1.8-4.7-1.7-6.5-1.1c-1.2,0.4-2.5-0.4-2.8-1.7c-0.4-2-1.8-4.7-5.7-6.3c-3.8-1.6-6.3,0.8-7.7,3.3c-0.5,0.8-1.7,0.7-2-0.2
		c-1.2-3.9-5.5-9-19.4-9c-17.7,0-15.8,9.4-14.2,13.3c0.3,0.7-0.3,1.4-1,1.2c-2.7-0.6-7.8-1.3-10.1,0.4c-0.1,0.1-0.2,0.2-0.3,0.2
		C571.2,105.2,573,110.6,577.4,111.3z"/>
</g>
<g>
	<g>
		
			<ellipse transform="matrix(0.9961 -8.782440e-02 8.782440e-02 0.9961 -10.7345 54.069)" class="st32" cx="609.1" cy="149" rx="18" ry="18"/>
		<g>
			<g>
				<path class="st11" d="M607.8,162.8v-3.2c-2.4,0-4.8-0.8-6.2-1.7l1.2-2.4c1.5,0.8,3.4,1.4,5.7,1.4c2.9,0,4.9-1.2,4.9-3.1
					c0-1.8-1.6-3-4.6-4c-4.2-1.3-6.7-2.9-6.7-5.8c0-2.8,2.4-4.9,6.2-5.4v-3.4h2.5v3.2c2.4,0.1,4.1,0.6,5.3,1.2l-1.2,2.6
					c-0.9-0.4-2.3-0.9-4.9-0.9c-3.1,0-4.3,0.9-4.3,2.3c0,1.7,1.5,2.6,5.1,3.8c4.2,1.4,6.3,3.1,6.3,6.1c0,2.6-2.2,5.3-6.4,5.9v3.3
					H607.8z"/>
			</g>
			<rect x="607.7" y="135.4" class="st11" width="2.9" height="27.4"/>
		</g>
		<g>
			<g>
				<path class="st33" d="M609.1,167.7c-10.3,0-18.7-8.4-18.7-18.7c0-10.3,8.4-18.7,18.7-18.7c10.3,0,18.7,8.4,18.7,18.7
					C627.8,159.3,619.4,167.7,609.1,167.7z M609.1,131.8c-9.5,0-17.3,7.7-17.3,17.3c0,9.5,7.7,17.3,17.3,17.3
					c9.5,0,17.3-7.7,17.3-17.3C626.4,139.5,618.6,131.8,609.1,131.8z"/>
			</g>
		</g>
	</g>
	<g>
		<g>
			<path class="st15" d="M657.6,217.9c0,0-14.3-36.8,6.7-56.6c44.9,21.5,23.6,65.5,23.6,65.5L657.6,217.9z"/>
			<path class="st5" d="M664.4,161.3c0.2,0.1,0.3,0.2,0.5,0.2l5.5,46.2l19.4-21.5c0.1,0.3,0.2,0.6,0.4,0.9l-19.7,21.7l1.6,13.3
				l-0.9-0.3l-3.2-26.6l0,0l-15-7.6c0-0.3,0-0.6,0.1-0.9l14.8,7.5l-3.9-32.6C664.1,161.6,664.2,161.4,664.4,161.3L664.4,161.3z"/>
		</g>
		<g>
			<path class="st9" d="M709.6,192.5c-2.5-0.9-5.6-3.3-6.5-6c-0.5-1.6-1.1-3.3-1.6-4.9c-25.8,6-40.7,33.2-40.7,33.2l-0.1,24.1
				l33.6-7.2c0,0,22.4-15.5,20-38.6C712.6,193.2,710.9,193,709.6,192.5z"/>
			<path class="st15" d="M714.4,196l0-0.4c0-0.2,0-0.3,0-0.5l-16.2,0.3l5.9-7c-0.2-0.2-0.3-0.5-0.5-0.7l-17.1,20l-4.9-16.7
				c-0.2,0.2-0.5,0.4-0.7,0.6l5,17l-25.2,29.6l-0.1,0.9l0.6-0.1l14.8-17.3l28.5,0.5c0.2-0.3,0.5-0.6,0.7-0.9l-28.5-0.5l20.8-24.4
				L714.4,196z"/>
		</g>
		<g>
			<path class="st9" d="M674.5,225.6c0,0,29-14.4,45.6,2.9c-10.9,43.7-67.2,33-67.2,33L674.5,225.6z"/>
			<g>
				<path class="st15" d="M720.1,228.5c0,0.2-0.1,0.3-0.1,0.5l-42.1,14.2l20.4,13.1c-0.3,0.2-0.6,0.3-0.9,0.4l-20.5-13.2l-16.5,5.5
					l0.7-1.1l32-10.8l8.3-16.4c0.3,0,0.6,0,0.9,0.1l-8,16l25.5-8.6C719.9,228.3,720,228.4,720.1,228.5L720.1,228.5z"/>
			</g>
		</g>
	</g>
	<g>
		<g>
			<g>
				<g>
					<path class="st15" d="M691.9,166.6c0,0-47.2,56.1-64.6,70.4c18.2,19,32.1,29.5,32.1,29.5s67.7-61,66.5-68.7
						C721.4,191,721.5,191.1,691.9,166.6z"/>
					
						<linearGradient id="SVGID_21_" gradientUnits="userSpaceOnUse" x1="6725.583" y1="-730.6268" x2="6813.2119" y2="-730.6268" gradientTransform="matrix(0.6764 -0.7365 -0.7365 -0.6764 -4439.9478 4709.1792)">
						<stop  offset="0" style="stop-color:#DFEFEA"/>
						<stop  offset="1" style="stop-color:#BFE3EE"/>
					</linearGradient>
					<path class="st34" d="M711.1,189.8c-3.5,4.3-2.7,11.7,1.3,14.5c-0.3,10.9-46.7,49.5-46.7,49.5c0,0,0,0-0.1-0.1
						c-3.7-3.7-10.2-3.2-13.7,0.4l-11.3-10.4c3.6-4,3-10-0.7-13.7c0,0-0.1-0.1-0.1-0.1l45.7-51.1c0.2,0.3,0.4,0.5,0.7,0.7
						c3.7,3.7,10.9,3.8,14.4,0.2l10.7,9.8C711.2,189.7,711.1,189.8,711.1,189.8z"/>
					
						<ellipse transform="matrix(0.9777 -0.2098 0.2098 0.9777 -30.66 146.487)" class="st14" cx="675.2" cy="217.8" rx="11.6" ry="11.6"/>
					<g>
						<g>
							<path class="st15" d="M670.2,209.6l1.4,1.8c1.3-1,3.1-1.7,4.2-1.8l0.4,1.9c-1.2,0.2-2.5,0.7-3.8,1.7
								c-1.6,1.3-2.2,2.8-1.4,3.9c0.8,1,2.2,1,4.3,0.2c2.9-1.1,5-1.4,6.3,0.2c1.2,1.6,0.8,3.8-1.1,5.7l1.5,1.9l-1.4,1.1l-1.4-1.8
								c-1.4,1-2.6,1.5-3.5,1.7l-0.5-2c0.7-0.2,1.7-0.5,3.2-1.7c1.8-1.4,2-2.4,1.4-3.2c-0.8-1-2-0.8-4.5,0.1c-3,1.1-4.9,1.1-6.3-0.6
								c-1.2-1.5-1.1-4,1-6.2l-1.5-1.8L670.2,209.6z"/>
						</g>
						<g>
							
								<rect x="674.4" y="208.1" transform="matrix(0.7836 -0.6212 0.6212 0.7836 10.8238 466.794)" class="st15" width="2.1" height="19.6"/>
						</g>
					</g>
				</g>
				<path class="st5" d="M690.3,201c-1.1-1-2.9-1-3.9,0.2c-1,1.1-1,2.9,0.2,3.9c1.1,1,2.9,1,3.9-0.2
					C691.6,203.8,691.5,202.1,690.3,201z"/>
				<path class="st5" d="M696,194.8c-1.1-1-2.9-1-3.9,0.2c-1,1.1-1,2.9,0.2,3.9c1.1,1,2.9,1,3.9-0.2
					C697.3,197.6,697.2,195.9,696,194.8z"/>
				<path class="st9" d="M658.1,236.2c-1.1-1-2.9-1-3.9,0.2c-1,1.1-1,2.9,0.2,3.9c1.1,1,2.9,1,3.9-0.2
					C659.3,239,659.2,237.2,658.1,236.2z"/>
				<path class="st5" d="M663.6,230.1c-1.1-1-2.9-1-3.9,0.2c-1,1.1-1,2.9,0.2,3.9c1.1,1,2.9,1,3.9-0.2
					C664.8,232.9,664.8,231.2,663.6,230.1z"/>
			</g>
			<g>
				<g>
					<path class="st5" d="M676.9,110.4c0,0-37,63.3-51.8,80.3c21.1,15.7,36.6,23.6,36.6,23.6s56.4-71.6,53.9-78.9
						C710.1,129.4,710.2,129.6,676.9,110.4z"/>
					
						<linearGradient id="SVGID_22_" gradientUnits="userSpaceOnUse" x1="6500.3301" y1="-1780.8163" x2="6587.9585" y2="-1780.8163" gradientTransform="matrix(0.5416 -0.8406 -0.8406 -0.5416 -4370.4116 4699.8071)">
						<stop  offset="0" style="stop-color:#DFEFEA"/>
						<stop  offset="1" style="stop-color:#BFE3EE"/>
					</linearGradient>
					<path class="st35" d="M699.7,130c-2.7,4.8-0.7,12,3.7,14.1c1.6,10.7-37.6,56.7-37.6,56.7c0,0-0.1,0-0.1-0.1
						c-4.3-3-10.6-1.4-13.4,2.8l-12.9-8.3c2.8-4.6,1.2-10.3-3-13.4c0,0-0.1,0-0.1-0.1l36.3-58.1c0.2,0.2,0.5,0.4,0.8,0.6
						c4.3,3,11.4,1.9,14.2-2.2l12.2,7.9C699.8,129.9,699.8,130,699.7,130z"/>
					
						<ellipse transform="matrix(0.9828 -0.1846 0.1846 0.9828 -18.7108 126.3481)" class="st14" cx="669.1" cy="163.6" rx="11.6" ry="11.6"/>
				</g>
				<path class="st5" d="M681.2,144.6c-1.3-0.8-3-0.5-3.8,0.8c-0.8,1.3-0.5,3,0.8,3.8c1.3,0.8,3,0.5,3.8-0.8
					C682.9,147.1,682.5,145.4,681.2,144.6z"/>
				<path class="st5" d="M685.8,137.5c-1.3-0.8-3-0.5-3.8,0.8c-0.8,1.3-0.5,3,0.8,3.8c1.3,0.8,3,0.5,3.8-0.8
					C687.4,140.1,687,138.3,685.8,137.5z"/>
				<path class="st9" d="M655.3,184.7c-1.3-0.8-3-0.5-3.8,0.8c-0.8,1.3-0.5,3,0.8,3.8c1.3,0.8,3,0.5,3.8-0.8
					C657,187.3,656.6,185.6,655.3,184.7z"/>
				<path class="st5" d="M659.8,177.8c-1.3-0.8-3-0.5-3.8,0.8c-0.8,1.3-0.5,3,0.8,3.8c1.3,0.8,3,0.5,3.8-0.8
					C661.5,180.3,661.1,178.6,659.8,177.8z"/>
			</g>
		</g>
		<g>
			<g>
				<path class="st15" d="M615,122.9c0,0-1.6,73.3-6.3,95.4c26.1,3.5,43.5,2.9,43.5,2.9s14.6-90,8.9-95.2
					C653.2,123.4,653.4,123.5,615,122.9z"/>
				
					<linearGradient id="SVGID_23_" gradientUnits="userSpaceOnUse" x1="6594.6592" y1="-644.474" x2="6682.2871" y2="-644.474" gradientTransform="matrix(6.590000e-02 -0.9978 -0.9978 -6.590000e-02 -445.1771 6753.4756)">
					<stop  offset="0" style="stop-color:#DFEFEA"/>
					<stop  offset="1" style="stop-color:#BFE3EE"/>
				</linearGradient>
				<path class="st36" d="M644.5,129c0,5.5,5.2,10.8,10.1,10.5c6.6,8.6-5.3,67.8-5.3,67.8c0,0-0.1,0-0.1,0
					c-5.2-0.6-9.9,3.9-10.4,8.9l-15.4-1c0.2-5.4-3.9-9.6-9.1-10.2c0,0-0.1,0-0.1,0l3.6-68.5c0.3,0.1,0.6,0.1,1,0.2
					c5.2,0.6,10.9-3.8,11.4-8.9l14.5,1C644.5,128.8,644.5,128.9,644.5,129z"/>
				<path class="st14" d="M634.8,161.6c-6.4-0.4-12,4.4-12.4,10.8c-0.4,6.4,4.4,12,10.8,12.4c6.4,0.4,12-4.4,12.4-10.8
					C646,167.6,641.2,162,634.8,161.6z"/>
				<g>
					<g>
						<path class="st15" d="M625,170l2.2,0.5c0.4-1.6,1.3-3.2,2.2-4.1l1.5,1.2c-0.8,0.9-1.5,2.1-1.9,3.7c-0.5,2,0,3.6,1.4,3.9
							c1.3,0.3,2.3-0.6,3.5-2.6c1.6-2.7,3.1-4.2,5.1-3.8c1.9,0.4,3,2.4,2.8,5.1l2.3,0.5l-0.4,1.8l-2.3-0.5c-0.4,1.7-1.1,2.8-1.7,3.5
							l-1.6-1.3c0.4-0.5,1-1.5,1.4-3.3c0.5-2.2,0-3.2-0.9-3.4c-1.2-0.3-2.1,0.6-3.5,2.9c-1.6,2.7-3.2,3.9-5.3,3.4
							c-1.8-0.4-3.3-2.4-3.1-5.4l-2.3-0.5L625,170z"/>
					</g>
					<g>
						
							<rect x="633.2" y="163.3" transform="matrix(0.2217 -0.9751 0.9751 0.2217 324.8612 753.246)" class="st15" width="2.1" height="19.6"/>
					</g>
				</g>
			</g>
			<path class="st5" d="M635.3,150.7c-1.5-0.1-2.9,1.1-3,2.6s1.1,2.9,2.6,3c1.5,0.1,2.9-1.1,3-2.6
				C638,152.1,636.9,150.8,635.3,150.7z"/>
			<path class="st5" d="M635.9,142.3c-1.5-0.1-2.9,1.1-3,2.6c-0.1,1.5,1.1,2.9,2.6,3c1.5,0.1,2.9-1.1,3-2.6
				C638.6,143.7,637.4,142.4,635.9,142.3z"/>
			<path class="st9" d="M632.2,198.3c-1.5-0.1-2.9,1.1-3,2.6c-0.1,1.5,1.1,2.9,2.6,3c1.5,0.1,2.9-1.1,3-2.6
				C634.9,199.8,633.7,198.5,632.2,198.3z"/>
			<path class="st5" d="M632.7,190.1c-1.5-0.1-2.9,1.1-3,2.6c-0.1,1.5,1.1,2.9,2.6,3c1.5,0.1,2.9-1.1,3-2.6
				C635.4,191.5,634.3,190.2,632.7,190.1z"/>
		</g>
	</g>
	<g>
		<g>
			<polygon class="st22" points="726.1,157.1 728,160.8 724.1,159.9 710.6,155.7 			"/>
			<polygon class="st4" points="728,160.8 721.3,160.4 722.9,159.6 			"/>
			<linearGradient id="SVGID_24_" gradientUnits="userSpaceOnUse" x1="710.5818" y1="155.336" x2="727.2986" y2="155.336">
				<stop  offset="6.300000e-07" style="stop-color:#F1F8F7"/>
				<stop  offset="1" style="stop-color:#BFE3EE"/>
			</linearGradient>
			<polygon class="st37" points="726.1,157.1 727.3,153.5 710.6,155.7 			"/>
			<linearGradient id="SVGID_25_" gradientUnits="userSpaceOnUse" x1="710.5818" y1="160.3923" x2="724.0627" y2="160.3923">
				<stop  offset="6.300000e-07" style="stop-color:#F1F8F7"/>
				<stop  offset="1" style="stop-color:#BFE3EE"/>
			</linearGradient>
			<polygon class="st38" points="710.6,155.7 724.1,159.9 722.1,165.1 			"/>
		</g>
		<g>
			<g>
				<path class="st4" d="M726.5,164.5C726.6,164.5,726.6,164.5,726.5,164.5c0.2-0.2,0.2-0.4,0.1-0.5c-0.4-0.4-0.9-0.7-1.3-1
					c-0.1-0.1-0.3,0-0.4,0.1c-0.1,0.1,0,0.3,0.1,0.4c0.4,0.3,0.8,0.6,1.2,0.9C726.3,164.6,726.4,164.6,726.5,164.5z"/>
			</g>
			<g>
				<g>
					<path class="st4" d="M721.6,199c-0.1-0.1,0-0.3,0.1-0.4c0.8-0.5,1.6-1.2,2.3-2c0.1-0.1,0.3-0.2,0.4,0c0.1,0.1,0.2,0.3,0,0.4
						c-0.7,0.9-1.6,1.6-2.5,2.1c0,0,0,0,0,0C721.9,199.1,721.7,199.1,721.6,199z M725.2,195.4c-0.2-0.1-0.2-0.3-0.1-0.4
						c0.5-0.9,0.9-1.9,1.1-2.9c0-0.2,0.2-0.3,0.4-0.2c0.2,0,0.3,0.2,0.2,0.4c-0.3,1.1-0.7,2.1-1.2,3c0,0.1-0.1,0.1-0.1,0.1
						C725.4,195.5,725.3,195.5,725.2,195.4z M726.8,190.6c-0.2,0-0.3-0.2-0.3-0.3l0-0.1c0.1-1,0-2-0.2-3c0-0.2,0.1-0.3,0.3-0.4
						c0.2,0,0.3,0.1,0.4,0.3c0.2,1,0.2,2.1,0.2,3.1l0,0.2c0,0.1-0.1,0.2-0.2,0.3C726.9,190.6,726.9,190.6,726.8,190.6z M726.4,185.6
						c-0.2,0-0.3-0.1-0.4-0.2c-0.3-0.9-0.6-1.9-1-3c-0.1-0.2,0-0.3,0.2-0.4c0.2-0.1,0.3,0,0.4,0.2c0.4,1,0.8,2.1,1.1,3
						C726.6,185.3,726.6,185.5,726.4,185.6C726.4,185.6,726.4,185.6,726.4,185.6z M724.6,180.8c-0.2,0.1-0.3,0-0.4-0.1
						c0-0.1-0.1-0.2-0.1-0.2c-0.3,0.1-0.7,0.2-1,0.3c-0.2,0-0.3-0.1-0.4-0.2c0-0.2,0-0.3,0.2-0.4c0.3-0.1,0.6-0.2,0.9-0.3
						c-0.3-0.6-0.7-1.3-1.1-2c-0.1-0.2,0-0.3,0.1-0.4c0.1-0.1,0.3,0,0.4,0.1c0.4,0.7,0.8,1.4,1.1,2c0.5-0.2,0.9-0.5,1.3-0.7
						c0.1-0.1,0.3-0.1,0.4,0.1c0.1,0.1,0.1,0.3-0.1,0.4c-0.4,0.3-0.9,0.5-1.4,0.8c0,0.1,0.1,0.1,0.1,0.2
						C724.8,180.6,724.8,180.7,724.6,180.8C724.6,180.8,724.6,180.8,724.6,180.8z M727.1,178.2c-0.1-0.1-0.1-0.3,0-0.4
						c0.4-0.5,0.8-1,1.1-1.5c0.2-0.3,0.4-0.7,0.5-1c0.1-0.2,0.2-0.2,0.4-0.2c0.2,0.1,0.2,0.2,0.2,0.4c-0.2,0.4-0.3,0.8-0.6,1.1
						c-0.3,0.6-0.8,1.1-1.2,1.6c0,0-0.1,0-0.1,0.1C727.3,178.3,727.2,178.3,727.1,178.2z M721.1,181.1c-1.1,0.1-2.2,0-3.3-0.3
						c-0.2,0-0.3-0.2-0.2-0.4c0-0.2,0.2-0.3,0.4-0.2c1,0.2,2,0.3,3.1,0.2c0.2,0,0.3,0.1,0.3,0.3c0,0.1-0.1,0.3-0.2,0.3
						C721.2,181.1,721.2,181.1,721.1,181.1z M729.5,173.8c-0.2,0-0.3-0.2-0.3-0.4c0.2-1,0.2-2,0-3.1c0-0.2,0.1-0.3,0.3-0.4
						c0.2,0,0.3,0.1,0.4,0.3c0.2,1.1,0.2,2.2,0,3.3c0,0.1-0.1,0.2-0.2,0.2C729.7,173.8,729.6,173.8,729.5,173.8z M716,180.2
						c-0.3-0.1-0.5-0.3-0.7-0.4c-0.7-0.4-1.3-1-1.8-1.7c-0.1-0.1-0.1-0.3,0.1-0.4c0.1-0.1,0.3-0.1,0.4,0.1c0.4,0.6,1,1.1,1.6,1.5
						c0.2,0.1,0.4,0.3,0.7,0.4c0.2,0.1,0.2,0.3,0.1,0.4c0,0.1-0.1,0.1-0.1,0.1C716.2,180.2,716.1,180.2,716,180.2z M721.7,176.3
						c-0.7-1.1-1.3-1.8-1.9-2.4c-0.1-0.1-0.1-0.3,0-0.4c0.1-0.1,0.3-0.1,0.4,0c0.7,0.6,1.3,1.4,2.1,2.5c0.1,0.1,0.1,0.3-0.1,0.4
						c0,0,0,0,0,0C722,176.5,721.8,176.4,721.7,176.3z M729.3,168.8c-0.2,0.1-0.3,0-0.4-0.2c-0.2-0.4-0.3-0.9-0.5-1.3
						c-0.3-0.5-0.6-1-0.9-1.4c-0.1-0.1-0.1-0.3,0.1-0.4c0.1-0.1,0.3-0.1,0.4,0.1c0.4,0.5,0.7,1,0.9,1.5c0.2,0.4,0.4,0.9,0.6,1.4
						C729.5,168.5,729.4,168.7,729.3,168.8C729.3,168.7,729.3,168.7,729.3,168.8z M713,176.5c-0.2,0-0.3-0.1-0.4-0.2
						c-0.2-0.9-0.1-1.8,0.3-2.5c0.1-0.3,0.3-0.5,0.5-0.7c0.1-0.1,0.3-0.1,0.4,0c0.1,0.1,0.1,0.3,0,0.4c-0.2,0.2-0.3,0.4-0.4,0.6
						c-0.3,0.6-0.4,1.3-0.2,2.1C713.3,176.2,713.2,176.4,713,176.5C713,176.4,713,176.5,713,176.5z M718.3,172.9
						c-0.9-0.4-2-0.5-2.9-0.3c-0.2,0-0.3-0.1-0.4-0.2c0-0.2,0.1-0.3,0.2-0.4c1.1-0.3,2.3-0.2,3.3,0.3c0.2,0.1,0.2,0.3,0.2,0.4
						c0,0.1-0.1,0.1-0.1,0.1C718.5,172.9,718.4,172.9,718.3,172.9z"/>
				</g>
			</g>
			<g>
				<path class="st4" d="M720.3,199.8c0.1-0.1,0.2-0.2,0.2-0.4c0-0.2-0.2-0.3-0.4-0.2c-0.5,0.1-1,0.2-1.5,0.2
					c-0.2,0-0.3,0.2-0.3,0.3c0,0.2,0.2,0.3,0.3,0.3C719.1,200.1,719.7,200,720.3,199.8C720.2,199.9,720.2,199.9,720.3,199.8z"/>
			</g>
		</g>
	</g>
	<g>
		
			<ellipse transform="matrix(0.9948 -0.1023 0.1023 0.9948 -19.8842 70.9791)" class="st32" cx="681.9" cy="229.3" rx="23.2" ry="23.2"/>
		<g>
			<g>
				<path class="st11" d="M680.2,247.1V243c-3.1,0-6.2-1.1-8-2.1l1.5-3.1c1.9,1,4.4,1.8,7.3,1.8c3.7,0,6.3-1.5,6.3-4
					c0-2.4-2.1-3.8-5.9-5.1c-5.4-1.7-8.7-3.7-8.7-7.4c0-3.6,3.1-6.3,7.9-6.9v-4.3h3.3v4.2c3.2,0.1,5.3,0.8,6.8,1.5l-1.6,3.4
					c-1.1-0.5-3-1.2-6.4-1.2c-4,0-5.6,1.2-5.6,2.9c0,2.2,1.9,3.4,6.5,4.9c5.4,1.8,8.2,4,8.2,7.9c0,3.4-2.9,6.8-8.3,7.6v4.2H680.2z"
					/>
			</g>
			<rect x="680.1" y="211.7" class="st11" width="3.8" height="35.3"/>
		</g>
		<g>
			<g>
				<path class="st33" d="M681.9,253.4c-13.3,0-24.1-10.8-24.1-24.1c0-13.3,10.8-24.1,24.1-24.1c13.3,0,24.1,10.8,24.1,24.1
					C706.1,242.6,695.2,253.4,681.9,253.4z M681.9,207c-12.3,0-22.3,10-22.3,22.3c0,12.3,10,22.3,22.3,22.3
					c12.3,0,22.3-10,22.3-22.3C704.2,217,694.2,207,681.9,207z"/>
			</g>
		</g>
	</g>
	<g>
		<g>
			<rect x="617.2" y="191.2" class="st5" width="57.1" height="61.4"/>
			<rect x="564.2" y="191.2" class="st15" width="58" height="61.4"/>
			<linearGradient id="SVGID_26_" gradientUnits="userSpaceOnUse" x1="602.91" y1="178.0082" x2="635.8221" y2="252.0605">
				<stop  offset="0" style="stop-color:#DFEFEA"/>
				<stop  offset="1" style="stop-color:#BFE3EE"/>
			</linearGradient>
			<polygon class="st39" points="631.1,196.9 631.1,191.5 613.9,191.5 613.9,196.9 617.2,196.9 617.2,247.2 613.9,247.2 
				613.9,252.6 631.1,252.6 631.1,247.2 627.3,247.2 627.3,196.9 			"/>
			<polygon class="st14" points="630.4,196.9 630.4,191.5 621,191.5 621,252.6 630.4,252.6 630.4,247.2 626.6,247.2 626.6,196.9 			
				"/>
			<polygon class="st4" points="601.3,196.9 601.3,191.5 584.2,191.5 584.2,196.9 587.4,196.9 587.4,247.2 584.2,247.2 584.2,252.6 
				601.3,252.6 601.3,247.2 597.5,247.2 597.5,196.9 			"/>
			<polygon class="st40" points="601.3,196.9 601.3,191.5 592.6,191.5 592.6,252.6 601.3,252.6 601.3,247.2 597.5,247.2 
				597.5,196.9 			"/>
			<polygon class="st4" points="574.3,196.9 574.3,191.5 557.2,191.5 557.2,196.9 560.4,196.9 560.4,247.2 557.2,247.2 557.2,252.6 
				574.3,252.6 574.3,247.2 570.5,247.2 570.5,196.9 			"/>
			<linearGradient id="SVGID_27_" gradientUnits="userSpaceOnUse" x1="628.8304" y1="178.0082" x2="661.7426" y2="252.0605">
				<stop  offset="0" style="stop-color:#DFEFEA"/>
				<stop  offset="1" style="stop-color:#BFE3EE"/>
			</linearGradient>
			<polygon class="st41" points="657,196.9 657,191.5 639.8,191.5 639.8,196.9 643.1,196.9 643.1,247.2 639.8,247.2 639.8,252.6 
				657,252.6 657,247.2 653.2,247.2 653.2,196.9 			"/>
			<linearGradient id="SVGID_28_" gradientUnits="userSpaceOnUse" x1="652.0799" y1="178.0082" x2="684.9921" y2="252.0605">
				<stop  offset="0" style="stop-color:#DFEFEA"/>
				<stop  offset="1" style="stop-color:#BFE3EE"/>
			</linearGradient>
			<polygon class="st42" points="680.2,196.9 680.2,191.5 663.1,191.5 663.1,196.9 666.4,196.9 666.4,247.2 663.1,247.2 
				663.1,252.6 680.2,252.6 680.2,247.2 676.4,247.2 676.4,196.9 			"/>
			<polygon class="st14" points="656.3,196.9 656.3,191.5 646.8,191.5 646.8,252.6 656.3,252.6 656.3,247.2 652.5,247.2 
				652.5,196.9 			"/>
			<polygon class="st14" points="679,196.9 679,191.5 669.5,191.5 669.5,252.6 679,252.6 679,247.2 675.2,247.2 675.2,196.9 			"/>
			<rect x="546.5" y="252.6" class="st5" width="142" height="8.2"/>
			<rect x="617.2" y="252.6" class="st4" width="71.3" height="8.2"/>
			<rect x="532" y="260.7" class="st15" width="171" height="8.2"/>
			<linearGradient id="SVGID_29_" gradientUnits="userSpaceOnUse" x1="627.2788" y1="264.8333" x2="702.9861" y2="264.8333">
				<stop  offset="0" style="stop-color:#DFEFEA"/>
				<stop  offset="1" style="stop-color:#BFE3EE"/>
			</linearGradient>
			<rect x="627.3" y="260.7" class="st43" width="75.7" height="8.2"/>
			<rect x="516.9" y="268.9" class="st5" width="199.4" height="8.2"/>
			<rect x="639" y="268.9" class="st4" width="77.2" height="8.2"/>
			<polygon class="st40" points="574.2,196.9 574.2,191.5 565.5,191.5 565.5,252.6 574.2,252.6 574.2,247.2 570.4,247.2 
				570.4,196.9 			"/>
			<polygon class="st5" points="647.2,159.9 590.1,159.9 550.9,191.8 610.9,191.8 			"/>
			<polygon class="st4" points="610.2,191.8 682.8,191.8 646.5,159.9 			"/>
		</g>
		<g>
			<linearGradient id="SVGID_30_" gradientUnits="userSpaceOnUse" x1="618.8688" y1="179.2773" x2="676.0211" y2="179.2773">
				<stop  offset="0" style="stop-color:#DFEFEA"/>
				<stop  offset="1" style="stop-color:#BFE3EE"/>
			</linearGradient>
			<path class="st44" d="M666.3,183.1l-19.5-16.3l-28,24.5l0.4,0.5l27.6-24.2l19.2,16.1C666.1,183.5,666.2,183.3,666.3,183.1z"/>
		</g>
	</g>
</g>
<g>
	<g>
		<g>
			<path class="st5" d="M312.9,240.2c0,0,27.2-43.2,5.3-73.5c-62.2,16.3-46.1,77.5-46.1,77.5L312.9,240.2z"/>
			<path class="st15" d="M318.2,166.6c-0.2,0.1-0.4,0.1-0.6,0.2l-18.3,57.3L279.8,192c-0.2,0.3-0.5,0.7-0.7,1.1l19.6,32.4l-5.3,16.5
				l1.2-0.1l10.5-32.9v0l20.9-6c0.1-0.4,0.1-0.8,0.1-1.2l-20.6,5.9l12.9-40.5C318.5,167,318.4,166.8,318.2,166.6L318.2,166.6z"/>
		</g>
		<g>
			<path class="st11" d="M263.8,162.1c-33.5,27-9.1,69-9.1,69l26.4,20.1c3.8,1,7,3.4,9.1,6.7l12.6-31.8
				C302.8,226.1,297,175.5,263.8,162.1z"/>
			<path class="st14" d="M248.1,214.1l33.6,15.1l7.5,27.4c0.3,0.4,0.6,0.9,0.9,1.3l0.3-0.9l-13.3-48.5l15.1-17.1
				c-0.2-0.4-0.4-0.7-0.5-1.1l-14.9,16.9l-12.3-44.8c-0.3-0.1-0.5-0.2-0.8-0.3c-0.1,0.1-0.3,0.2-0.4,0.3l6.6,24l-18.8-9.2
				c-0.1,0.2-0.2,0.4-0.3,0.5l-0.2,0.5l19.7,9.6l11,40l-33.6-15.1C247.9,213.2,248,213.6,248.1,214.1z"/>
		</g>
		<g>
			<path class="st4" d="M250.6,270.2c3.8-10.6,13.6-17.7,24.5-19.3c4.4-0.7,8.6,0.6,11.7,3.2l-1.1-10.6c0,0-28.3-31.6-55-21.6
				c-4.8,24.3,5.5,41.6,18.9,53.5C249.6,273.6,250,271.9,250.6,270.2z"/>
			<g>
				<path class="st14" d="M265.2,254.1l-7.5-7.2l-0.7-23.8c-0.4-0.1-0.8-0.3-1.1-0.4l0.6,23.1l-25.2-24.1c-0.2,0.1-0.4,0.1-0.6,0.2
					l0,0c0,0.2-0.1,0.4-0.1,0.7l33.5,32.1C264.5,254.4,264.8,254.2,265.2,254.1z"/>
				<path class="st14" d="M253.2,264.8l-12.1,1.6c0.3,0.3,0.5,0.7,0.8,1l10.5-1.4C252.7,265.6,252.9,265.2,253.2,264.8z"/>
			</g>
		</g>
	</g>
	<g>
		<g>
			<path class="st11" d="M467.2,230.4c0,0-19.1-42,4.1-66.6c53.8,22.2,31.9,75,31.9,75L467.2,230.4z"/>
			<path class="st14" d="M471.3,163.9c0.2,0.1,0.4,0.2,0.6,0.2l9.5,53.6l21.3-26.4c0.2,0.3,0.3,0.7,0.5,1L481.6,219l2.7,15.5
				l-1.1-0.3l-5.4-30.8l0,0l-18-7.9c0-0.4,0-0.7,0-1.1l17.8,7.8l-6.7-37.8C471,164.2,471.2,164,471.3,163.9L471.3,163.9z"/>
		</g>
		<g>
			<path class="st5" d="M477.9,219c0,0,11.3-44.6,42.7-52.6c26.8,28.3-0.2,63-0.2,63l-35,19.8L477.9,219z"/>
			<path class="st15" d="M492.1,188.3l11.3,17l16.5-38.6c0.2-0.1,0.5-0.1,0.7-0.2c0.1,0.1,0.2,0.2,0.3,0.3l-8.8,20.7l18-5.9
				c0.1,0.2,0.1,0.3,0.2,0.5l0.1,0.5l-18.9,6.2l-14.7,34.5l31.9-9.4c-0.2,0.4-0.3,0.8-0.5,1.2l-32,9.4L486,248.9l-0.6,0.3l-0.2-1
				l17.8-41.9l-11.5-17.2C491.7,188.9,491.9,188.6,492.1,188.3z"/>
		</g>
		<g>
			<path class="st9" d="M528.8,262.3c9-8.9,15.3-21.2,14.3-38.3c-22.7-12.3-52,12.7-52,12.7l-6.2,25.6H528.8z"/>
			<g>
				<path class="st15" d="M491.3,262.3l8.7-6.3l23,6.3h3.8l-25.8-7.1l42.1-30.6c0-0.2,0-0.4,0-0.6l0,0c-0.2-0.1-0.3-0.2-0.5-0.3
					l-25.5,18.5l3.4-20.7c-0.4,0.1-0.7,0.2-1.1,0.3l-3.5,21.3l-26.4,19.2H491.3z"/>
			</g>
		</g>
	</g>
	<g>
		<linearGradient id="SVGID_31_" gradientUnits="userSpaceOnUse" x1="243.4267" y1="267.0591" x2="377.1715" y2="267.0591">
			<stop  offset="0" style="stop-color:#DFEFEA"/>
			<stop  offset="1" style="stop-color:#BFE3EE"/>
		</linearGradient>
		<polygon class="st45" points="243.4,274.1 377.2,274.1 377.2,260 243.4,260 		"/>
		<g>
			<g>
				<path class="st7" d="M251.9,246h123.9c0,0,6.7,0,11,8.7c3.8,7.5,1,21.8,0.2,25.2h-10.2v-0.2c0-9.7-7.9-17.5-17.5-17.5
					c-9.7,0-17.5,7.9-17.5,17.5v0.2h-63.3v-0.2c0-9.7-7.9-17.5-17.5-17.5c-9.7,0-17.5,7.9-17.5,17.5v0.2h-2.6c0,0,0-7.6,0-18.2
					C240.8,251.1,251.9,246,251.9,246z"/>
				<polygon class="st14" points="335.9,246 287.9,246 291.3,228.5 319.2,228.5 				"/>
				<path class="st9" d="M335.9,280v-34l-14.6-17.5l-30,0l-3.4,17.5c0,0-2.2,2.5-4.1,4.3c-1.9,1.9-2,5.7-2,5.7v23.8L335.9,280z"/>
				<polygon class="st4" points="287.9,246 291.3,228.5 321.3,228.5 335.9,246 				"/>
				<linearGradient id="SVGID_32_" gradientUnits="userSpaceOnUse" x1="321.2977" y1="235.52" x2="356.3071" y2="235.52">
					<stop  offset="0" style="stop-color:#DFEFEA"/>
					<stop  offset="1" style="stop-color:#BFE3EE"/>
				</linearGradient>
				<path class="st46" d="M356.3,246c0,0-23.3-21-31.8-21c-1.8,1.8-3.2,3.5-3.2,3.5l14.6,17.5H356.3z"/>
				<polygon class="st9" points="324.5,225 267,225 262.5,228.5 321.4,228.5 				"/>
				<linearGradient id="SVGID_33_" gradientUnits="userSpaceOnUse" x1="251.9091" y1="237.2503" x2="289.2108" y2="237.2503">
					<stop  offset="0" style="stop-color:#DFEFEA"/>
					<stop  offset="1" style="stop-color:#BFE3EE"/>
				</linearGradient>
				<path class="st47" d="M251.9,246c0,0,1.2-10.5,10.6-17.5c8,0,26.7,0,26.7,0l-3.4,17.5H251.9z"/>
				<linearGradient id="SVGID_34_" gradientUnits="userSpaceOnUse" x1="285.9264" y1="256.5756" x2="296.0143" y2="256.5756">
					<stop  offset="0" style="stop-color:#DFEFEA"/>
					<stop  offset="1" style="stop-color:#BFE3EE"/>
				</linearGradient>
				<path class="st48" d="M285.9,256.6c0,0.5,2.3,0.9,5,0.9c2.8,0,5-0.4,5-0.9c0-0.5-2.3-0.9-5-0.9
					C288.2,255.6,285.9,256.1,285.9,256.6z"/>
				<linearGradient id="SVGID_35_" gradientUnits="userSpaceOnUse" x1="256.4838" y1="254.1872" x2="264.6949" y2="254.1872">
					<stop  offset="0" style="stop-color:#DFEFEA"/>
					<stop  offset="1" style="stop-color:#BFE3EE"/>
				</linearGradient>
				<path class="st49" d="M256.5,254.2c0,2.3,1.8,4.1,4.1,4.1c2.3,0,4.1-1.8,4.1-4.1c0-2.3-1.8-4.1-4.1-4.1
					C258.3,250.1,256.5,251.9,256.5,254.2z"/>
				
					<ellipse transform="matrix(0.393 -0.9196 0.9196 0.393 -38.825 500.0858)" class="st7" cx="359.4" cy="279.4" rx="14.7" ry="14.7"/>
				
					<ellipse transform="matrix(0.3827 -0.9239 0.9239 0.3827 -97.1771 413.4628)" class="st7" cx="260.8" cy="279.4" rx="14.7" ry="14.7"/>
				<linearGradient id="SVGID_36_" gradientUnits="userSpaceOnUse" x1="378.6412" y1="254.9356" x2="385.2389" y2="254.9356">
					<stop  offset="0" style="stop-color:#DFEFEA"/>
					<stop  offset="1" style="stop-color:#BFE3EE"/>
				</linearGradient>
				<path class="st50" d="M379.3,251.6c0.3-0.3,0.7-0.4,1.2-0.4l4.8,5.9c-0.1,0.4-0.3,0.8-0.6,1.1c-1.1,0.9-3.1,0.1-4.6-1.7
					C378.5,254.7,378.2,252.5,379.3,251.6z"/>
				
					<ellipse transform="matrix(0.2926 -0.9562 0.9562 0.2926 -13.0643 541.2386)" class="st5" cx="359.3" cy="279.4" rx="9.3" ry="9.3"/>
				
					<ellipse transform="matrix(0.2926 -0.9562 0.9562 0.2926 -13.0643 541.2386)" class="st11" cx="359.3" cy="279.4" rx="9.3" ry="9.3"/>
				
					<ellipse transform="matrix(0.9016 -0.4325 0.4325 0.9016 -95.203 140.2762)" class="st11" cx="260.8" cy="279.4" rx="9.3" ry="9.3"/>
				<polygon class="st9" points="289.2,228.5 291.3,228.5 287.9,246 285.8,246 				"/>
				<polygon class="st9" points="337.2,246 321.6,227.8 319.6,228.3 334.5,246 				"/>
				<linearGradient id="SVGID_37_" gradientUnits="userSpaceOnUse" x1="331.2413" y1="246.8839" x2="337.351" y2="246.8839">
					<stop  offset="0" style="stop-color:#DFEFEA"/>
					<stop  offset="1" style="stop-color:#BFE3EE"/>
				</linearGradient>
				<path class="st51" d="M331.3,246.7c-0.1,2.3,1.1,4.2,2.8,4.3c1.7,0.1,3.2-1.7,3.3-3.9c0.1-2.3-1.1-4.2-2.8-4.3
					C332.9,242.7,331.4,244.4,331.3,246.7z"/>
			</g>
		</g>
	</g>
	<g>
		
			<linearGradient id="SVGID_38_" gradientUnits="userSpaceOnUse" x1="1327.3507" y1="267.0591" x2="1461.0956" y2="267.0591" gradientTransform="matrix(-1 0 0 1 1861.0605 0)">
			<stop  offset="0" style="stop-color:#DFEFEA"/>
			<stop  offset="1" style="stop-color:#BFE3EE"/>
		</linearGradient>
		<rect x="400" y="260" class="st52" width="133.7" height="14"/>
		<g>
			<g>
				<path class="st5" d="M525.2,246H401.4c0,0-6.7,0-11,8.7c-3.8,7.5-1,21.8-0.2,25.2h10.2v-0.2c0-9.7,7.9-17.5,17.5-17.5
					c9.7,0,17.5,7.9,17.5,17.5v0.2h63.3v-0.2c0-9.7,7.9-17.5,17.5-17.5c9.7,0,17.5,7.9,17.5,17.5v0.2h2.6c0,0,0-7.6,0-18.2
					C536.4,251.1,525.2,246,525.2,246z"/>
				<polygon class="st14" points="441.2,246 489.2,246 485.8,228.5 458,228.5 				"/>
				<path class="st4" d="M441.2,280v-34l14.6-17.5l30,0l3.4,17.5c0,0,2.2,2.5,4.1,4.3c1.9,1.9,2,5.7,2,5.7v23.8L441.2,280z"/>
				<linearGradient id="SVGID_39_" gradientUnits="userSpaceOnUse" x1="441.2427" y1="237.2503" x2="489.215" y2="237.2503">
					<stop  offset="0" style="stop-color:#DFEFEA"/>
					<stop  offset="1" style="stop-color:#BFE3EE"/>
				</linearGradient>
				<polygon class="st53" points="489.2,246 485.8,228.5 455.8,228.5 441.2,246 				"/>
				
					<linearGradient id="SVGID_40_" gradientUnits="userSpaceOnUse" x1="1405.2218" y1="235.52" x2="1440.2312" y2="235.52" gradientTransform="matrix(-1 0 0 1 1861.0605 0)">
					<stop  offset="0" style="stop-color:#DFEFEA"/>
					<stop  offset="1" style="stop-color:#BFE3EE"/>
				</linearGradient>
				<path class="st54" d="M420.8,246c0,0,23.3-21,31.8-21c1.8,1.8,3.2,3.5,3.2,3.5L441.2,246H420.8z"/>
				<polygon class="st5" points="452.6,225 510.1,225 514.6,228.5 455.8,228.5 				"/>
				
					<linearGradient id="SVGID_41_" gradientUnits="userSpaceOnUse" x1="1335.8333" y1="237.2503" x2="1373.1349" y2="237.2503" gradientTransform="matrix(-1 0 0 1 1861.0605 0)">
					<stop  offset="0" style="stop-color:#DFEFEA"/>
					<stop  offset="1" style="stop-color:#BFE3EE"/>
				</linearGradient>
				<path class="st55" d="M525.2,246c0,0-1.2-10.5-10.6-17.5c-8,0-26.7,0-26.7,0l3.4,17.5H525.2z"/>
				
					<linearGradient id="SVGID_42_" gradientUnits="userSpaceOnUse" x1="1369.8506" y1="256.5756" x2="1379.9385" y2="256.5756" gradientTransform="matrix(-1 0 0 1 1861.0605 0)">
					<stop  offset="0" style="stop-color:#DFEFEA"/>
					<stop  offset="1" style="stop-color:#BFE3EE"/>
				</linearGradient>
				<path class="st56" d="M491.2,256.6c0,0.5-2.3,0.9-5,0.9c-2.8,0-5-0.4-5-0.9c0-0.5,2.3-0.9,5-0.9
					C489,255.6,491.2,256.1,491.2,256.6z"/>
				
					<linearGradient id="SVGID_43_" gradientUnits="userSpaceOnUse" x1="1340.408" y1="254.1872" x2="1348.619" y2="254.1872" gradientTransform="matrix(-1 0 0 1 1861.0605 0)">
					<stop  offset="0" style="stop-color:#DFEFEA"/>
					<stop  offset="1" style="stop-color:#BFE3EE"/>
				</linearGradient>
				<path class="st57" d="M520.7,254.2c0,2.3-1.8,4.1-4.1,4.1c-2.3,0-4.1-1.8-4.1-4.1c0-2.3,1.8-4.1,4.1-4.1
					C518.8,250.1,520.7,251.9,520.7,254.2z"/>
				
					<ellipse transform="matrix(0.9196 -0.393 0.393 0.9196 -76.2043 186.6505)" class="st9" cx="417.8" cy="279.4" rx="14.7" ry="14.7"/>
				
					<ellipse transform="matrix(0.8276 -0.5613 0.5613 0.8276 -67.8438 338.0125)" class="st9" cx="516.3" cy="279.4" rx="14.7" ry="14.7"/>
				
					<linearGradient id="SVGID_44_" gradientUnits="userSpaceOnUse" x1="1462.5653" y1="254.9356" x2="1469.163" y2="254.9356" gradientTransform="matrix(-1 0 0 1 1861.0605 0)">
					<stop  offset="0" style="stop-color:#DFEFEA"/>
					<stop  offset="1" style="stop-color:#BFE3EE"/>
				</linearGradient>
				<path class="st58" d="M397.9,251.6c-0.3-0.3-0.7-0.4-1.2-0.4l-4.8,5.9c0.1,0.4,0.3,0.8,0.6,1.1c1.1,0.9,3.1,0.1,4.6-1.7
					C398.6,254.7,398.9,252.5,397.9,251.6z"/>
				
					<ellipse transform="matrix(0.9562 -0.2926 0.2926 0.9562 -63.4812 134.4992)" class="st5" cx="417.9" cy="279.4" rx="9.3" ry="9.3"/>
				
					<ellipse transform="matrix(0.9562 -0.2926 0.2926 0.9562 -63.4812 134.4992)" class="st4" cx="417.9" cy="279.4" rx="9.3" ry="9.3"/>
				
					<ellipse transform="matrix(0.5281 -0.8492 0.8492 0.5281 6.3378 570.3041)" class="st4" cx="516.3" cy="279.4" rx="9.3" ry="9.3"/>
				<polygon class="st5" points="488,228.5 485.8,228.5 489.2,246 491.3,246 				"/>
				<polygon class="st5" points="440,246 455.5,227.8 457.5,228.3 442.6,246 				"/>
				
					<linearGradient id="SVGID_45_" gradientUnits="userSpaceOnUse" x1="1415.1654" y1="246.8839" x2="1421.275" y2="246.8839" gradientTransform="matrix(-1 0 0 1 1861.0605 0)">
					<stop  offset="0" style="stop-color:#DFEFEA"/>
					<stop  offset="1" style="stop-color:#BFE3EE"/>
				</linearGradient>
				<path class="st59" d="M445.9,246.7c0.1,2.3-1.1,4.2-2.8,4.3c-1.7,0.1-3.2-1.7-3.3-3.9c-0.1-2.3,1.1-4.2,2.8-4.3
					C444.3,242.7,445.7,244.4,445.9,246.7z"/>
			</g>
		</g>
	</g>
	<g>
		<g>
			<path class="st11" d="M373.5,237.4c0.2-0.2,0.2-0.6,0-0.8l-5.7-5.6c-0.2-0.2-0.6-0.2-0.8,0c-0.2,0.2-0.2,0.6,0,0.8l5.7,5.6
				C372.9,237.7,373.3,237.7,373.5,237.4z"/>
		</g>
		<g>
			<path class="st11" d="M398.3,237.3c-0.2-0.2-0.2-0.6,0-0.8l5.6-5.7c0.2-0.2,0.6-0.2,0.8,0c0.2,0.2,0.2,0.6,0,0.8l-5.6,5.7
				C398.9,237.5,398.6,237.5,398.3,237.3z"/>
		</g>
		<g>
			<path class="st11" d="M387.7,235.3c0.3,0,0.6-0.3,0.6-0.6l0-8c0-0.3-0.3-0.6-0.6-0.6c-0.3,0-0.6,0.3-0.6,0.6l0,8
				C387.1,235,387.4,235.3,387.7,235.3z"/>
		</g>
	</g>
</g>
<g>
	<g>
		<g>
			<path class="st60" d="M301.2,291.2l-7.4,0c-1,0.1-2.1,0.4-2.3,1.2c0,0-0.1,0.6-0.1,1.1c0.3,0.3,10,0,10,0l0,0
				C302.6,292.2,301.2,291.2,301.2,291.2z"/>
			<polygon class="st61" points="291.5,293.5 301.5,293.5 301.4,293.9 291.5,293.9 			"/>
			<g>
				<polygon class="st14" points="298.3,291.2 297.6,291.2 297.8,292.1 298.5,292.1 				"/>
			</g>
			<g>
				<polygon class="st14" points="296.9,291.2 296.2,291.2 296.4,292.1 297,292.1 				"/>
			</g>
			<path class="st62" d="M301.7,288.7l-0.5,2.5l0,0c-0.6,0.3-1.4,0.3-2,0l-0.1,0l-0.4-2.4H301.7z"/>
		</g>
		<g>
			<path class="st61" d="M318.4,291.2l-7.4,0c-1,0.1-2.1,0.4-2.3,1.2c0,0-0.1,0.6-0.1,1.1c0.3,0.3,10,0,10,0l0,0
				C319.8,292.2,318.4,291.2,318.4,291.2z"/>
			<polygon class="st61" points="308.7,293.5 318.7,293.5 318.6,293.9 308.7,293.9 			"/>
			<g>
				<polygon class="st14" points="315.5,291.2 314.8,291.2 315,292.1 315.7,292.1 				"/>
			</g>
			<g>
				<polygon class="st14" points="314.1,291.2 313.4,291.2 313.6,292.1 314.2,292.1 				"/>
			</g>
			<path class="st62" d="M318.1,288.7l0.3,2.5l0,0c-0.6,0.3-1.4,0.3-2,0l-0.1,0l-1.2-2.4H318.1z"/>
		</g>
		<g>
			<path class="st62" d="M307.1,206.3l6.1,4l-1.9,4.8c0,0.1-0.1,0.1-0.1,0.2c-0.1,0-0.3,0-0.4,0c0,0,0,0-0.1,0c0,0,0,0-0.1,0
				c-1.6,0-3,1-3.9,2.3c-1-0.1-2-0.3-2.9-0.7c-0.6-0.3-1.2-0.6-1.3-1C301.9,212.4,307.1,206.3,307.1,206.3z"/>
		</g>
		<path class="st62" d="M299.4,207.6c0,0-0.7,7,0.8,11.5c-0.7,0.6-3.2,3.3-4-0.2c-0.8-3.5,0.9-12.5,0.9-12.5L299.4,207.6z"/>
		<g>
			<g>
				<polygon class="st61" points="303,207.1 304.4,208 303.9,209 302.4,208.4 				"/>
				<path class="st61" d="M303.9,208.3c-0.1,0.3-0.2,0.6,0,0.7c0.1,0.1,0.4-0.2,0.5-0.5c0.1-0.3,0.2-0.6,0-0.7
					C304.2,207.8,304,208,303.9,208.3z"/>
			</g>
			<path class="st63" d="M285.8,201.9C285.8,201.9,285.8,201.8,285.8,201.9c0.3-0.7,0.7-1.6,1.4-2.5c1-1.4,1.3-2.2,1.3-2.2l14.7,9.6
				l-1,1.8l-16.5-6.1C285.8,202.3,285.8,202.1,285.8,201.9z"/>
		</g>
		<polygon class="st64" points="308.4,217.6 309,220.9 304.3,220.9 303.9,216.8 		"/>
		<path class="st62" d="M296.3,225.8c0,0-5.5-1.8-7.3-4.1c-1.7-2.4,1.2-15.3,1.2-15.3l-0.4-2.3c-0.2-1.3,0.8-2.5,2.1-2.5l1.5,0
			c0.6,0,1,0.6,0.8,1.2l-1.9,4.4c0,0-1.5,9.8,0.6,10.6c2.4,0.9,5.2,1.1,5.2,1.1L296.3,225.8z"/>
		<path class="st60" d="M306.7,217.6l1.4-3.2l-0.9-0.6c-0.7-0.4-1-1.3-0.7-2l1-3c0,0-2.9-0.4-2.8-3c0-1.4,1.9-1.4,1.9-1.4
			s0.6,1.2,2.3,1.4c0.8-0.1,2.8,0.2,4.2,2.6c0.9,1.6,0.5,4.2-0.3,6.2c-0.7,1.7-2.6,2.7-4.5,3H306.7z"/>
		<path class="st61" d="M312.4,244.1c0,0-0.3,6.7-1.7,14c-0.4,2.1-0.3,4.4,0.4,6.5c3.3,9.8,7.9,24.6,7.9,24.6h-4.1
			c0,0-9.3-17.4-11.7-26.1c-2.4-8.7-2.8-11.4-2.8-11.4l2.9-7.6H312.4z"/>
		<path class="st62" d="M308.9,212.9c0.2,0.5-0.2,1.2-0.8,1.5c-0.6,0.3-1.2,0.2-1.4-0.3c-0.2-0.5,0.2-1.2,0.8-1.5
			C308.1,212.3,308.7,212.5,308.9,212.9z"/>
		
			<linearGradient id="SVGID_46_" gradientUnits="userSpaceOnUse" x1="331.6862" y1="231.2684" x2="351.8218" y2="231.2684" gradientTransform="matrix(-1 0 0 1 644.0394 0)">
			<stop  offset="0" style="stop-color:#D5ECE4"/>
			<stop  offset="1" style="stop-color:#AFE0EA"/>
		</linearGradient>
		<path class="st65" d="M298.9,244.1h13.4v-17.2c0-3.8-2.9-6.9-6.6-7.3l-9.3-1.1c0,0-1.1,1.7-4.2,5.6c3.7,2.3,7.9,3.3,7.9,3.3
			L298.9,244.1z"/>
		<path class="st63" d="M312.4,244.1c0,0-1.9,6.9-8.9,14.6c-1.2,1.2-2.9,3.6-2.6,7l1.4,23.5h-4.2c0,0-5.1-19.5-4-29.1
			c1.1-9.6,4.8-15.9,4.8-15.9H312.4z"/>
		<path class="st14" d="M288.1,200.3c-0.7,1.5-1.7,2.5-2.2,2.3c-0.5-0.2-0.3-1.6,0.4-3.1c0.7-1.5,1.7-2.5,2.2-2.3
			C289,197.4,288.8,198.8,288.1,200.3z"/>
		<path class="st62" d="M300,204.7l-0.1,0.1c-0.4,0.2-0.9,0.2-1.4,0.1l-0.1,0c-0.8-0.3-1.4-0.9-1.6-1.6l0,0
			c-0.1-0.3,0.2-0.7,0.5-0.6l0.9,0.2c0.4,0.1,0.7,0.3,0.9,0.6L300,204.7z"/>
	</g>
	<g>
		<g>
			<polygon class="st64" points="254.6,200.3 254.4,215.5 258.5,214.4 256.2,199.6 			"/>
			<g>
				<path class="st64" d="M256.8,196.6c0.2,0.5,0.1,1.1-0.1,1.6l-0.5,2l-0.4,0.2l-1.2,0.4c0.2-0.4,0.1,0,0.1,0l-0.4-3.1
					c0,0-1.3-1.8,1.5-2.6c0.3-0.1,0.6,0,0.7,0.2C256.9,196,256.8,196.6,256.8,196.6z"/>
			</g>
			<path class="st66" d="M256.7,227.4c-1.7-6.3-2.3-11.9-2.3-11.9l4-2l1.8,5.2L256.7,227.4z"/>
		</g>
		<path class="st64" d="M264.8,288.7l-1.7,0.3c-0.4-2.1-5.7-12.3-6.2-17.6c-0.5-5.8-1.8-12.4-1.8-12.4l5.8-1.7c0,0,1.5,0-0.1,11.9
			C264.3,274.1,265.3,284.8,264.8,288.7z"/>
		<path class="st62" d="M260.5,253.1c0,0-1.4,8.2-3.2,16.9c2,5.3-1,20-1.1,19.9c-0.2-0.2-1.3,1.1-1.3,1.1s-2.2-13-2.7-18.8
			c-0.5-5.8-0.6-13-0.6-13L260.5,253.1z"/>
		<path class="st63" d="M256.5,289c0,0,0.8,0.7,0.7,1.6c-0.2,0.9-0.4,3-0.4,3h-0.8l0-1.9c0-0.1-1.8,1.9-2.1,1.9h-4.5
			c0,0-0.3-1.3,2.3-1.7C254.3,291.4,256.5,289,256.5,289z"/>
		<g>
			<path class="st64" d="M262.9,287.6l0.1,1.9c0,0.4-0.1,0.8-0.3,1.1c-0.2,0.4-0.7,0.8-1.3,1.4c1.3,0.4,2.5-1,3.1-2
				c0.3-0.5,0.4-1,0.3-1.6l-0.2-1.5L262.9,287.6z"/>
			<path class="st61" d="M264.8,288.6c0,0,1.1,0.1,1.3,1c0.2,0.9,0.7,2.6,0.7,2.6l-0.6,0.5l-0.9-1.7c0,0-1.9,2.5-2.2,2.7h-4.9
				c0,0,0-1.6,3.1-1.7C264.2,291.8,264.8,288.6,264.8,288.6z"/>
		</g>
		<g>
			<polygon class="st62" points="240,202.3 245.4,216.5 248.9,213.9 241.2,201.1 			"/>
			<g>
				<path class="st62" d="M240.7,198c0.3,0.4,0.5,1,0.5,1.5l0.2,2l-0.3,0.3l-1,0.9c0-0.4,0.1,0,0.1,0l-1.5-2.7c0,0-1.9-1.2,0.5-3
					c0.2-0.2,0.5-0.2,0.8,0C240.6,197.4,240.7,198,240.7,198z"/>
			</g>
		</g>
		<polygon class="st64" points="255.1,219.9 258.6,219.9 257.2,215.8 254.4,217.5 		"/>
		<path class="st67" d="M250.4,224.3c0-0.1,0-0.2,0.1-0.3c-3.5-4.5-5-7.6-5-7.6l2.9-3.3l5.3,6.3l2,0c0,0,2.6-1.7,5,0.6
			c0.8,0.9,1.4,3.2,0.8,5.7c-1.6,6.9-0.3,10.5-0.3,10.5l-9,3.4c0,0-0.2-6-0.3-10.2c0,0,0,0,0,0c0-0.8-0.3-1.6-0.7-2.3
			C250.6,226.4,250.2,225.4,250.4,224.3z"/>
		<g>
			<path class="st62" d="M253.8,208.4l5.7,2l-0.6,4.3c0,0.1,0,0.1,0,0.2c-0.1,0-0.2,0-0.3,0.1c0,0,0,0-0.1,0c0,0,0,0-0.1,0
				c-1.3,0.3-2.3,1.4-2.7,2.7c-0.8,0.1-1.7,0.1-2.5,0c-0.6-0.1-1.1-0.3-1.3-0.6C250.9,214.4,253.8,208.4,253.8,208.4z"/>
		</g>
		<path class="st61" d="M254,212.1c1.5,0.8,1.2,8.7,1.4,14.1c0.1,2.9,2.3,5.3,5.2,5.8c2,0.3,4.3,0.4,5.6-0.4
			c-0.9-0.7-5.7-7.8-4.2-17.2c0.2-1.2,0.2-4.7-1.9-6.5c-2.3-2.1-7.1,0.6-7.1,0.6S251.9,211,254,212.1z"/>
		<path class="st63" d="M252,236.2c0,0-1.2,6.1-1.2,9.7c0,2,0.5,14.6,0.5,14.6s8.6,0.6,10.2,0.6c0.4-10.3,2.8-10.6,2.8-15.4
			c0-2.1-1.1-4.4-1.9-6c-0.6-1.1-1-1.8-1.2-3.3l-0.1-0.2L252,236.2z"/>
		<path class="st0" d="M261.9,259.1"/>
	</g>
</g>
<g>
	<path class="st10" d="M395.6,218c0-1.5,6.5-5,6.5-5l-0.2-9.5c0,0-10.5,11.5-11,14.6c-0.5,3.1,8.1,9,8.1,9l-1,1.5
		c-0.8,1.3-0.8,2.8,0.1,3.9l0.9,1.2l2.6-7C401.8,226.7,395.6,219.5,395.6,218z"/>
	<polygon class="st68" points="413.5,178.6 413.8,195.7 419.2,189 419.9,205.8 425.6,177.3 418.6,183.8 420.3,172.9 	"/>
	<polygon class="st68" points="357.8,187 357.5,203.3 352.4,196.9 351.5,212.9 346.3,185.7 353,191.9 351.5,181.5 	"/>
	<g>
		<polygon class="st14" points="408.3,202.5 403.6,202.5 401.7,232.4 410,232.4 		"/>
		<g>
			<path class="st9" d="M416.8,290.4c0,0,1.1,0.9,0.9,2c-0.2,1.1-0.5,3.8-0.5,3.8H416l0-2.5c0-0.2-2.5,2.5-3,2.5h-6.2
				c0,0-0.4-1.7,3.2-2.2S416.8,290.4,416.8,290.4z"/>
			<g>
				<path class="st8" d="M414.1,289.2l-0.8,2.2c-0.2,0.6-0.6,1.1-1.2,1.5c-0.6,0.4-1.5,0.9-2.9,1.3c1.7,1.4,4.4-0.1,5.9-1.1
					c0.8-0.5,1.3-1.3,1.5-2.2l0.4-1.7H414.1z"/>
			</g>
		</g>
		<g>
			<path class="st9" d="M404.9,290.4c0,0,1.1,0.9,0.9,2c-0.2,1.1-0.5,3.8-0.5,3.8h-1.2l0-2.5c0-0.2-2.5,2.5-3,2.5H395
				c0,0-0.4-1.7,3.2-2.2C401.9,293.5,404.9,290.4,404.9,290.4z"/>
			<g>
				<path class="st8" d="M402.2,289.2l-0.8,2.2c-0.2,0.6-0.6,1.1-1.2,1.5c-0.6,0.4-1.5,0.9-2.9,1.3c1.7,1.4,4.4-0.1,5.9-1.1
					c0.8-0.5,1.3-1.3,1.5-2.2l0.4-1.7H402.2z"/>
			</g>
		</g>
		<path class="st5" d="M411.8,232.4c0,0,0.8,4.5-3.7,26.5c3.6,11.5-2.2,30.6-2.2,30.6h-4.2l-2.9-57.1H411.8z"/>
		<path class="st69" d="M404.1,202.5l-1.5,36.3l-5-2.1c0,0,2.2-6.8,2-16.3c0.8-6.9-3.1-3.2,1.6-16.4
			C403.1,202.5,404.1,202.5,404.1,202.5z"/>
		<path class="st10" d="M403.9,199.3l-0.1,3.1c0,1.4,1.3,2.4,2.6,1.9l2.3-0.8l-1.8-8.8L403.9,199.3z"/>
		<path class="st4" d="M415.9,232.4c0,0,5.5,4.5,1.1,26.5c3.6,11.5,0.4,30.6,0.4,30.6h-3.8l-10.7-57.1H415.9z"/>
		<path class="st69" d="M408.3,199.4c0,0,4.7,2.6,6.1,5c1.4,2.2,1.9,7.3,2,11.9c0.2,6.2,3.2,22.6,3.2,22.6H407l-0.3-35.6
			L408.3,199.4z"/>
		<path class="st7" d="M401.6,189.4c2.9-0.1,5,3.3,5,3.3l0.2,11.6l5.1-2.9c0,0,0.2-7.9-1.9-13c-1.6-3.2-6-3.3-8.8-1.2
			c-1.3,1-1.9,2.7-2.2,4.4c-0.3,2.2,0.6,13.9,0.6,13.9l4.3-2.4c0,0,0.1-1.3,0-3.7C403.8,195.1,399.6,189.4,401.6,189.4z"/>
		<path class="st8" d="M407.4,192.7c-0.4-0.3-1-0.1-1.3,0.4c-0.4,0.5-0.3,1,0,1.3c0.4,0.3,1,0.1,1.3-0.4
			C407.8,193.6,407.8,193,407.4,192.7z"/>
		<g>
			<path class="st8" d="M402.8,199.6c-0.6,0.1-1.1,0.1-1.4-0.1c-2-2.3-1.4-9.4-1.4-9.4l2.4-1.6l3.6,1.7l1,4.6
				c0.3,1.2-0.1,2.5-0.9,3.4l0,0C405.1,198.9,404,199.4,402.8,199.6z"/>
		</g>
		<path class="st7" d="M401,189.1c-0.3,2.2,5.6,3.6,5.6,3.6l0.9-2.8l-3-2.6l-3.1,1C401.4,188.3,401,188.7,401,189.1z"/>
		<path class="st7" d="M401,189.5c0,0.8-1.1,2-1.1,2l-0.3-0.9l0.2-0.7l0.6-0.5C400.4,189.4,401,188.7,401,189.5z"/>
	</g>
	<g>
		<polygon class="st11" points="365.3,218 359.3,221.8 356.7,216.5 364.5,207.5 		"/>
		<g>
			<polygon class="st8" points="397.3,182.5 389.9,201.9 385.1,198.3 395.7,180.5 			"/>
			<g>
				<path class="st8" d="M397.7,175.9c-0.6,0.5-1,1.1-1.1,1.9l-0.9,2.7l0.3,0.5l1.3,1.5c0.1-0.6,0.5-1,0.5-1l2-2.3
					c0,0,3.3-3.9,0.2-5.2c1.8-3.6,0.5-3.5,0.5-3.5l-1.6,3.1L397.7,175.9z"/>
				<path class="st8" d="M398.2,176.6c0,0-0.7-0.6-0.1-2.1c0.6-1.5-0.3-1.4-0.3-1.4s-2.5,5.8-1.7,6.5
					C396.9,180.3,398.2,176.6,398.2,176.6z"/>
			</g>
		</g>
		<path class="st11" d="M376,205.9l2.2,0.2l7.5-8.8l4.1,4.6c0,0-3.7,7.1-9.2,14.4c-0.3,1.5-1.9,16.4-1.9,16.4h-13.1
			c0,0,2.1-11-1.6-17.1C360.4,209.5,376,205.9,376,205.9z"/>
		<path class="st8" d="M366,263.7c0,0,0.1,30.5,0.1,30.3c0-0.2,2,0,2,0s2.9-15.9,3.5-23.1c0.6-7.2,0-7.7,0-7.7L366,263.7z"/>
		<path class="st8" d="M372.3,263.7c0,0,0.1,30.5,0.1,30.3c0-0.2,2,0,2,0s2.9-15.9,3.5-23.1c0.6-7.2,0-7.7,0-7.7L372.3,263.7z"/>
		<g>
			<path class="st8" d="M376.4,190.8l-7.9,2.8l0.8,5.9c0,0.1,0,0.2,0,0.2c0.2,0,0.3,0.1,0.5,0.1c0,0,0,0,0.1,0c0,0,0,0,0.1,0
				c1.8,0.5,3.1,2,3.7,3.7c1.1,0.2,2.3,0.2,3.4,0c0.8-0.2,1.5-0.4,1.8-0.8C380.5,199.1,376.4,190.8,376.4,190.8z"/>
		</g>
		<path class="st7" d="M376.6,195.8c-0.7,1.4-0.8,3.1-0.2,4.6c1.1,2.3,1,4.9,0.3,6.3c-0.5,1-1.8,1.9-2.9,2.6c-1.2,0.7-2,2-2.1,3.4
			c-0.2,1.9-0.4,4.3-2,4.9c-4.8,1.7-6.6,1.5-7.2-2.5c-0.2-1-0.1-2.5,0.4-3.9c0.6-1.7,0.6-3.6-0.1-5.2c-0.5-1.1-0.9-2.3-0.9-3.1
			c0-0.9,0.8-2.2,1.7-3.3c1.1-1.4,1.6-3.1,1.4-4.8c-0.2-1.7,0.1-3.9,1.8-5.4c3.3-2.8,10.5,1.6,10.5,1.6S378,192.9,376.6,195.8z"/>
		<path class="st8" d="M356.7,216.5l-2.9,3c-1.9,2-2.5,4.8-0.2,6.3l9.5,7.6l-0.9,1.6c-0.7,1.4-0.6,3.1,0.3,4.3l1,1.3l2.2-7.6
			l-6.9-8.6c-0.7-0.8-0.6-2,0.4-2.6l0,0L356.7,216.5z"/>
		<path class="st5" d="M378.7,232.7c0,0,1.9,5,1.9,10c0,2.8-2.4,23.6-2.4,23.6s-10.2,0-12.5,0c0.8-15.4-3.8-17.3-3.8-24
			c0-4.7,3.7-9.7,3.7-9.7H378.7z"/>
		<path class="st7" d="M366,291.7c0,0-1.1,0.9-0.9,1.9c0.2,1.1,0.5,3.6,0.5,3.6h1.1l0-2.4c0-0.2,2.4,2.4,2.8,2.4h5.9
			c0,0,0.4-1.6-3.1-2.1C368.9,294.7,366,291.7,366,291.7z"/>
		<path class="st7" d="M372.4,291.7c0,0-1.1,0.9-0.9,1.9c0.2,1.1,0.5,3.6,0.5,3.6h1.1l0-2.4c0-0.2,2.4,2.4,2.8,2.4h5.9
			c0,0,0.4-1.6-3.1-2.1C375.2,294.7,372.4,291.7,372.4,291.7z"/>
		<path class="st11" d="M365.3,263.7"/>
	</g>
	<g>
		
			<rect x="364.1" y="177.4" transform="matrix(0.9506 -0.3106 0.3106 0.9506 -38.4695 122.1594)" class="st68" width="0.6" height="9"/>
	</g>
	<g>
		
			<rect x="366.9" y="171.4" transform="matrix(0.9854 -0.1701 0.1701 0.9854 -25.0354 65.0754)" class="st68" width="0.6" height="14.4"/>
	</g>
	<g>
		<rect x="372" y="175.3" class="st68" width="0.6" height="10.9"/>
	</g>
	<g>
		
			<rect x="373.4" y="183.7" transform="matrix(0.2731 -0.962 0.962 0.2731 96.2398 495.4754)" class="st68" width="5.2" height="0.6"/>
	</g>
	<g>
		
			<rect x="389.7" y="204.8" transform="matrix(0.5753 -0.8179 0.8179 0.5753 -0.7236 408.7853)" class="st68" width="7.2" height="0.6"/>
	</g>
	<g>
		
			<rect x="393.1" y="206.5" transform="matrix(0.4173 -0.9088 0.9088 0.4173 42.2165 479.4183)" class="st68" width="3.7" height="0.6"/>
	</g>
	<path class="st8" d="M415.1,216.2c0,0,0.3,1.4-0.4,2.9c-0.7,1.5-10.6,8.5-10.6,8.5l-1.4,1.9c-0.6,1.1-1.3,3.6-2.5,4.2
		c0,0-3.2,1.6-3.6,0.1c1.7-4,5.9-6.6,5.9-6.6l7.7-8.6c-0.6-4.3-2.6-9.2-1.7-12.3c0.9-3.2,4.8-3,5.7-0.1
		C415,208.9,415.1,216.2,415.1,216.2z"/>
</g>
<g>
	<path class="st64" d="M645.4,255.2c1.8,13-0.2,26.4-0.2,26.3c0-0.1-1.4,0-1.4,0s-2-15.8-2.5-21.1c-0.5-5.3,0-5.6,0-5.6
		S643.5,242.2,645.4,255.2z"/>
	<polygon class="st70" points="645.8,221.7 650.3,224.5 652.1,220.6 646.4,214.1 	"/>
	<g>
		<polygon class="st62" points="622.4,195.7 627.8,209.9 631.3,207.3 623.6,194.3 		"/>
		<g>
			<path class="st62" d="M622.1,190.9c0.4,0.3,0.7,0.8,0.8,1.4l0.7,2l-0.2,0.4l-0.9,1.1c-0.1-0.4-0.4-0.7-0.4-0.7l-1.5-1.7
				c0,0-2.4-2.8-0.2-3.8c-1.3-2.6-0.4-2.6-0.4-2.6l1.2,2.3L622.1,190.9z"/>
			<path class="st62" d="M621.7,191.4c0,0,0.5-0.5,0.1-1.6c-0.4-1.1,0.2-1,0.2-1s1.8,4.3,1.2,4.8S621.7,191.4,621.7,191.4z"/>
		</g>
	</g>
	<path class="st70" d="M638,212.8l-1.6,0.1l-5.5-6.4l-3,3.4c0,0,2.7,5.2,6.7,10.5c0.2,1.1,1.4,12,1.4,12h9.6c0,0-1.5-8,1.2-12.5
		C649.5,215.5,638,212.8,638,212.8z"/>
	<path class="st62" d="M641.1,255.2c1.8,13-0.2,26.4-0.2,26.3c0-0.1-1.4,0-1.4,0s-2-15.8-2.5-21.1c-0.5-5.3,0-5.6,0-5.6
		S639.3,242.2,641.1,255.2z"/>
	<g>
		<path class="st62" d="M637.6,202.8l5.5,1.9l-0.5,4.1c0,0.1,0,0.1,0,0.2c-0.1,0-0.2,0-0.3,0.1c0,0,0,0-0.1,0c0,0,0,0,0,0
			c-1.3,0.3-2.2,1.4-2.6,2.6c-0.8,0.1-1.6,0.1-2.4,0c-0.5-0.1-1-0.3-1.3-0.5C634.8,208.6,637.6,202.8,637.6,202.8z"/>
	</g>
	<path class="st61" d="M637.5,206.3c0.5,1,0.6,2.2,0.1,3.2c-0.8,1.6-0.7,3.4-0.2,4.4c0.3,0.7,1.2,1.3,2,1.8c0.8,0.5,1.4,1.4,1.5,2.4
		c0.1,1.3,0.3,3,1.4,3.4c3.3,1.1,4.6,1,5-1.7c0.1-0.7,0.1-1.8-0.3-2.7c-0.4-1.2-0.4-2.5,0.1-3.6c0.3-0.8,0.6-1.6,0.6-2.2
		c0-0.6-0.6-1.5-1.2-2.3c-0.8-0.9-1.1-2.1-1-3.3c0.1-1.2-0.1-2.7-1.3-3.8c-2.3-1.9-7.3,1.1-7.3,1.1S636.5,204.3,637.5,206.3z"/>
	<path class="st62" d="M652.1,220.6l2.1,2.2c1.4,1.5,1.9,3.5,0.2,4.6l-7,5.5l0.6,1.2c0.5,1,0.4,2.2-0.3,3.2l-0.7,1l-1.6-5.6l5.1-6.3
		c0.5-0.6,0.4-1.5-0.3-1.9l0,0L652.1,220.6z"/>
	<path class="st63" d="M636,232.5c0,0-1.4,3.6-1.4,7.3c0,2,1.8,17.3,1.8,17.3s7.4,0,9.1,0c-0.6-11.3,2.8-12.7,2.8-17.6
		c0-3.4-2.7-7.1-2.7-7.1H636z"/>
	<path class="st61" d="M645.2,279.8c0,0,0.8,0.6,0.7,1.4c-0.1,0.8-0.4,2.7-0.4,2.7h-0.8l0-1.7c0-0.1-1.8,1.7-2.1,1.7h-4.3
		c0,0-0.3-1.2,2.3-1.6C643.1,282,645.2,279.8,645.2,279.8z"/>
	<path class="st60" d="M640.5,279.8c0,0,0.8,0.6,0.7,1.4c-0.1,0.8-0.4,2.7-0.4,2.7H640l0-1.7c0-0.1-1.8,1.7-2.1,1.7h-4.3
		c0,0-0.3-1.2,2.3-1.6C638.5,282,640.5,279.8,640.5,279.8z"/>
	<path class="st0" d="M645.8,255.2"/>
</g>
<g>
	<g>
		<polygon class="st67" points="629.1,283 599,189.3 600.7,189.3 630.8,283 		"/>
	</g>
	<g>
		<polygon class="st67" points="613.5,283 583.4,189.3 585.1,189.3 615.2,283 		"/>
	</g>
	<g>
		<polygon class="st67" points="608.5,213.6 608.5,215 592.3,215 592.1,213.6 		"/>
	</g>
	<g>
		<polygon class="st67" points="605.1,204.6 605.1,206 589,206 588.7,204.6 		"/>
	</g>
	<g>
		<polygon class="st67" points="602.4,195.5 602.4,196.9 586.2,196.9 586,195.5 		"/>
	</g>
	<g>
		<polygon class="st67" points="611.4,222.8 611.4,224.2 595.3,224.2 595,222.8 		"/>
	</g>
	<g>
		<polygon class="st67" points="614.2,232 614.2,233.4 598,233.4 597.8,232 		"/>
	</g>
	<g>
		<polygon class="st67" points="617,241.6 617.7,243 601.5,243 601.3,241.6 		"/>
	</g>
	<g>
		<polygon class="st67" points="620.1,251.1 620.7,252.5 604.6,252.5 604.3,251.1 		"/>
	</g>
	<g>
		<polygon class="st67" points="622.9,260.5 623.6,261.9 607.4,261.9 607.1,260.5 		"/>
	</g>
	<g>
		<polygon class="st67" points="625.3,270 625.9,271.4 609.8,271.4 609.5,270 		"/>
	</g>
</g>
<g>
	<g>
		<path class="st61" d="M675,276.8c0,0-1.2,1.1-4,1.8c-0.6,0.2-1.3-0.1-1.3,0.9c1.3,0,3.3,0,3.3,0l2.8-0.5v0.5h1.5
			c0,0,0.4-2.4-0.5-2.8C676.1,276.8,675,276.8,675,276.8z"/>
		<path class="st62" d="M675.1,275.1l-0.2,1.8l0,0c0.5,0.4,1.3,0.4,1.8,0.1l0.1-0.1l0.3-1.8H675.1z"/>
	</g>
	<g>
		<path class="st61" d="M687,276.8c0,0-1.2,1.1-4,1.8c-0.6,0.2-1.3-0.1-1.3,0.9c1.3,0,3.3,0,3.3,0l2.8-0.5v0.5h1.5
			c0,0,0.4-2.4-0.5-2.8C688.2,276.8,687,276.8,687,276.8z"/>
		<path class="st62" d="M687.2,275.1l-0.2,1.8l0,0c0.5,0.4,1.3,0.4,1.8,0.1l0.1-0.1l0.3-1.8H687.2z"/>
	</g>
	<g>
		<path class="st62" d="M657.1,210c-0.2,0.1-0.8,0.2-2.1-0.3c-1.1-0.4-3.2-1.9-3.3-0.6c0.8,1.1,1.5,2.4,1.5,2.4
			c0.5,0.6,1.8,0.8,2.7,0.8l2.6-0.4c0,0,0.7-1.1,0.8-1.2l-0.4-0.4C658.3,210.4,657.7,210.2,657.1,210z"/>
		<path class="st62" d="M656.5,210.3c0,0-0.1,0-0.2,0.1c0.1,0.1,0.2,0.3,0.3,0.4c0.6,0.3,1.1,0.6,1.7,0.8c0.1-0.4,0.3-0.9,0.3-0.9
			l-3.2-2.6c0,0-0.5,0.3,0,1C655.8,209.9,656.5,210.3,656.5,210.3z"/>
	</g>
	<g>
		<polygon class="st64" points="682.2,200.5 681.8,203.9 685.5,204.1 684.8,198.7 		"/>
		<g>
			<path class="st62" d="M681.1,201.1c-0.4,0-0.8-0.1-1-0.2c-1.2-1.8,0.2-6.6,0.2-6.6l2-0.8l2.5,1.6l0.1,3.2c0,0.9-0.4,1.7-1.1,2.2
				l0,0C682.9,200.9,682,201.1,681.1,201.1z"/>
		</g>
		<path class="st61" d="M684.3,196.8c-0.1-0.5-0.1-1.8-0.6-1.7c-0.4,0.1-1.8,0.1-2.3,0.1c-1.1,0-3.1-0.4-3.1-2.1
			c0-0.8,0.8-1.6,1.3-1.8c0.5-0.2,1.1-0.2,1.6,0c1.2,0.4,2.9,1.4,3.5,1.2c1.1-0.2,2.2,0.4,2.2,1.3c0,1-0.5,2.5-1,3.4
			c-0.3,0.5-0.7,1-1.1,1.5l0,0L684.3,196.8z"/>
		<path class="st62" d="M685.4,196.9c-0.2-0.2-0.7-0.2-1,0.1c-0.3,0.3-0.4,0.7-0.1,0.9c0.2,0.2,0.7,0.2,1-0.1
			C685.6,197.5,685.7,197.1,685.4,196.9z"/>
	</g>
	<path class="st71" d="M678.7,205.5c-7,5.4-20.4,4-20.4,4l-0.6,3.5c0,0,17.1,5.1,19.2,1C679,209.9,685.6,200.1,678.7,205.5z"/>
	<path class="st71" d="M683.7,202.9c-0.1,0-0.3,0-0.4,0c-4.1,0.1-7.2,5.8-7.2,9.8v14.7h15.7v-16.9c0-3.7-2.7-7-6.4-7.6
		C684.9,203,684.3,202.9,683.7,202.9z"/>
	<path class="st62" d="M678.7,224.6l-3.5,0.4c-1.4,0.1-2.6-2-2.9-3.5c-0.1-0.2,0.2-0.4,0.4-0.4c1.2,0.3,4.4,1.1,5.2,1.5L678.7,224.6
		z"/>
	<path class="st71" d="M690.9,207c0,0,7.9,10.6,2.9,15.7c-5,5.1-16.2,3-16.2,3v-3.3c0,0,10.6,0,11.2-3.6c0.6-3.6-2.5-7.5-2.5-7.5"/>
	<g>
		<path class="st67" d="M691.8,224c-5,2.9-12.9,1.7-14,1.5v-3c1.4,0,10.6-0.2,11.2-3.7c0.6-3.6-2.4-7.4-2.5-7.6l-0.2,0.2
			c0,0,3.1,3.9,2.5,7.4c-0.6,3.4-10.8,3.4-11,3.4h0l-0.2,0v3.5l0.1,0c0.1,0,2.4,0.4,5.4,0.4c2.8,0,6.2-0.4,8.8-1.8V224z"/>
	</g>
	<path class="st61" d="M676.1,227.5c-1.8,8.7-2.1,18.1-2.1,26c-0.1,12.7,1,21.9,1,21.9h2.6l5.4-36.2c0,0,0.6,5.4,1.4,14.5
		c0.6,7.2,0.9,13.2,2.6,21.7c2.6,0,2.6,0,2.6,0s2.2-26.2,2.2-47.9C685.7,227.5,679.2,227.5,676.1,227.5z"/>
	<polygon class="st14" points="682,202 685.3,202 685.8,203.2 681.6,203.2 	"/>
</g>
<linearGradient id="SVGID_47_" gradientUnits="userSpaceOnUse" x1="216.9437" y1="119.9576" x2="310.3519" y2="119.9576" gradientTransform="matrix(1 0 0 1 42.3011 0)">
	<stop  offset="0" style="stop-color:#DFEFEA"/>
	<stop  offset="1" style="stop-color:#BFE3EE"/>
</linearGradient>
<path class="st72" d="M259.2,134.6h91.2c0,0,4.9-6.3,0-10.5c-2.7-2.3-6-2.1-8.3-1.4c-1.5,0.4-3-0.6-3.4-2.1
	c-0.6-2.6-2.3-5.9-7.2-7.9c-4.8-2-7.9,1-9.7,4.1c-0.6,1-2.1,0.9-2.5-0.3c-1.5-4.8-6.9-11.3-24.4-11.3c-22.3,0-19.8,11.9-17.8,16.8
	c0.3,0.9-0.4,1.7-1.3,1.5c-3.4-0.7-9.8-1.7-12.7,0.6C259.2,127.3,259.2,134.6,259.2,134.6z"/>
<linearGradient id="SVGID_48_" gradientUnits="userSpaceOnUse" x1="390.438" y1="136.652" x2="473.1092" y2="136.652">
	<stop  offset="0" style="stop-color:#DFEFEA"/>
	<stop  offset="1" style="stop-color:#BFE3EE"/>
</linearGradient>
<path class="st73" d="M390.6,138.4c-3,13.1,27.9,14.8,40.6,14.9c3.5,0,7-0.3,10.5-1c10.8-2.2,34.3-7.9,31-15.7
	c-4.3-10.1-17.1-3-17.1-3s1.6-7.6-20.2-12.6c-21.8-5-21.7,11.7-21.7,11.7S394.4,121.9,390.6,138.4z"/>
<linearGradient id="SVGID_49_" gradientUnits="userSpaceOnUse" x1="371.9767" y1="88.242" x2="455.4156" y2="88.242" gradientTransform="matrix(-1 0 0 1 914.7647 0)">
	<stop  offset="0" style="stop-color:#DFEFEA"/>
	<stop  offset="1" style="stop-color:#BFE3EE"/>
</linearGradient>
<path class="st74" d="M537.6,100.6c-13,1.9-43.1,5.1-72.7-0.6c-2-0.4-3.8-1.5-4.9-3.3c-1.3-2.1-0.8-3.9,2.3-6.6
	c2.4-2.1,5.3-1.9,7.4-1.3c1.4,0.4,2.8-0.5,3.1-1.9c0.5-2.3,2-5.3,6.4-7.1c4.3-1.8,7.1,0.9,8.7,3.7c0.5,0.9,1.9,0.8,2.2-0.2
	c1.4-4.3,6.2-10.1,21.9-10.1c20,0,17.8,10.6,16,15.1c-0.3,0.8,0.4,1.6,1.2,1.4c3.1-0.7,8.8-1.5,11.4,0.5c0.1,0.1,0.2,0.2,0.3,0.3
	C544.6,93.8,542.5,99.9,537.6,100.6z"/>
<linearGradient id="SVGID_50_" gradientUnits="userSpaceOnUse" x1="722.6559" y1="61.7346" x2="795.474" y2="61.7346" gradientTransform="matrix(1 0 0 1 -369.1989 0)">
	<stop  offset="0" style="stop-color:#DFEFEA"/>
	<stop  offset="1" style="stop-color:#BFE3EE"/>
</linearGradient>
<path class="st75" d="M358,72.6c11.3,1.7,37.6,4.5,63.5-0.5c1.7-0.3,3.3-1.3,4.2-2.8c1.1-1.8,0.7-3.4-2-5.8
	c-2.1-1.8-4.6-1.6-6.4-1.1c-1.2,0.3-2.5-0.4-2.7-1.7c-0.4-2-1.8-4.7-5.6-6.2c-3.8-1.5-6.2,0.8-7.6,3.2c-0.5,0.8-1.7,0.7-1.9-0.2
	c-1.2-3.8-5.4-8.8-19.1-8.8c-17.5,0-15.5,9.3-14,13.1c0.3,0.7-0.3,1.4-1,1.2c-2.7-0.6-7.7-1.3-9.9,0.4c-0.1,0.1-0.2,0.2-0.3,0.2
	C351.9,66.5,353.7,71.9,358,72.6z"/>
<g>
	
		<rect x="17" y="248.6" transform="matrix(-1 -1.224647e-16 1.224647e-16 -1 182.5004 512.8994)" class="st5" width="148.6" height="15.6"/>
	<g>
		<g>
			<path class="st4" d="M26.4,233.1H164c0,0,7.4,0,12.2,9.6c4.2,8.4,1.1,24.2,0.2,28h-11.3v-0.3c0-10.8-8.7-19.5-19.5-19.5
				c-10.8,0-19.5,8.7-19.5,19.5v0.3H55.9v-0.3c0-10.8-8.7-19.5-19.5-19.5c-10.8,0-19.5,8.7-19.5,19.5v0.3H14c0,0,0-8.4,0-20.2
				S26.4,233.1,26.4,233.1z"/>
			<polygon class="st14" points="119.7,233.1 66.4,233.1 70.2,213.6 101.1,213.6 			"/>
			<path class="st5" d="M119.7,270.8v-37.7l-16.2-19.5l-33.3,0l-3.8,19.5c0,0-2.5,2.7-4.6,4.8s-2.2,6.4-2.2,6.4v26.4L119.7,270.8z"
				/>
			<linearGradient id="SVGID_51_" gradientUnits="userSpaceOnUse" x1="66.3949" y1="223.3403" x2="119.6789" y2="223.3403">
				<stop  offset="0" style="stop-color:#DFEFEA"/>
				<stop  offset="1" style="stop-color:#BFE3EE"/>
			</linearGradient>
			<polygon class="st76" points="66.4,233.1 70.2,213.6 103.5,213.6 119.7,233.1 			"/>
			<linearGradient id="SVGID_52_" gradientUnits="userSpaceOnUse" x1="103.4666" y1="221.4186" x2="142.3525" y2="221.4186">
				<stop  offset="0" style="stop-color:#DFEFEA"/>
				<stop  offset="1" style="stop-color:#BFE3EE"/>
			</linearGradient>
			<path class="st77" d="M142.4,233.1c0,0-25.9-23.3-35.3-23.3c-2,2-3.6,3.8-3.6,3.8l16.2,19.5H142.4z"/>
			<polygon class="st5" points="107,209.8 43.2,209.8 38.2,213.6 103.5,213.6 			"/>
			<linearGradient id="SVGID_53_" gradientUnits="userSpaceOnUse" x1="26.395" y1="223.3403" x2="67.827" y2="223.3403">
				<stop  offset="0" style="stop-color:#DFEFEA"/>
				<stop  offset="1" style="stop-color:#BFE3EE"/>
			</linearGradient>
			<path class="st78" d="M26.4,233.1c0,0,1.3-11.7,11.8-19.5c8.9,0,29.6,0,29.6,0L64,233.1H26.4z"/>
			<path class="st15" d="M64.2,244.8c0,0.6,2.5,1,5.6,1c3.1,0,5.6-0.5,5.6-1c0-0.6-2.5-1-5.6-1C66.7,243.8,64.2,244.2,64.2,244.8z"
				/>
			<path class="st15" d="M31.5,242.2c0,2.5,2,4.6,4.6,4.6c2.5,0,4.6-2,4.6-4.6c0-2.5-2-4.6-4.6-4.6
				C33.5,237.6,31.5,239.6,31.5,242.2z"/>
			<circle class="st7" cx="145.7" cy="270.2" r="16.3"/>
			<circle class="st7" cx="36.3" cy="270.2" r="16.3"/>
			<path class="st14" d="M167.8,239.3c0.4-0.3,0.8-0.4,1.3-0.4l5.3,6.5c-0.1,0.5-0.3,0.9-0.6,1.2c-1.2,1-3.5,0.1-5.1-1.9
				C167,242.7,166.7,240.3,167.8,239.3z"/>
			<linearGradient id="SVGID_54_" gradientUnits="userSpaceOnUse" x1="135.3668" y1="270.2119" x2="155.9525" y2="270.2119">
				<stop  offset="0" style="stop-color:#DFEFEA"/>
				<stop  offset="1" style="stop-color:#BFE3EE"/>
			</linearGradient>
			<circle class="st79" cx="145.7" cy="270.2" r="10.3"/>
			<linearGradient id="SVGID_55_" gradientUnits="userSpaceOnUse" x1="25.985" y1="270.2119" x2="46.5707" y2="270.2119">
				<stop  offset="0" style="stop-color:#DFEFEA"/>
				<stop  offset="1" style="stop-color:#BFE3EE"/>
			</linearGradient>
			<circle class="st80" cx="36.3" cy="270.2" r="10.3"/>
			<polygon class="st4" points="67.8,213.6 70.2,213.6 66.4,233.1 64,233.1 			"/>
			<polygon class="st4" points="121.1,233.1 103.8,212.9 101.6,213.4 118.2,233.1 			"/>
			<path class="st15" d="M114.5,233.8c-0.2,2.5,1.2,4.6,3.1,4.8c1.9,0.1,3.5-1.8,3.7-4.3c0.2-2.5-1.2-4.6-3.1-4.8
				C116.3,229.4,114.7,231.3,114.5,233.8z"/>
		</g>
	</g>
</g>
</svg>
