<svg xmlns="http://www.w3.org/2000/svg" xmlns:xlink="http://www.w3.org/1999/xlink" viewBox="0 0 430 394.15"><defs><style>.cls-1{fill:none;}.cls-2{fill:#ffd247;}.cls-3{clip-path:url(#clip-path);}.cls-4{fill:url(#linear-gradient);}.cls-5{clip-path:url(#clip-path-2);}.cls-6{fill:url(#linear-gradient-2);}.cls-7{clip-path:url(#clip-path-3);}.cls-8{fill:#63c1c5;}.cls-9{fill:#fff;}.cls-10{fill:#01898c;}.cls-11{fill:#00666b;}.cls-12{fill:#11375b;}.cls-13{fill:#212b53;}.cls-14{clip-path:url(#clip-path-4);}.cls-15{fill:url(#linear-gradient-3);}.cls-16{clip-path:url(#clip-path-6);}.cls-17{fill:url(#linear-gradient-4);}.cls-18{clip-path:url(#clip-path-8);}.cls-19{fill:url(#linear-gradient-5);}.cls-20{clip-path:url(#clip-path-11);}.cls-21{fill:url(#linear-gradient-7);}.cls-22{fill:#b0d9c8;}.cls-23{clip-path:url(#clip-path-13);}.cls-24{fill:url(#linear-gradient-8);}.cls-25{clip-path:url(#clip-path-15);}.cls-26{fill:url(#linear-gradient-9);}</style><clipPath id="clip-path" transform="translate(0 0)"><path class="cls-1" d="M346.12,116.5c-38.18,8.78-35.36,22.08-35.36,22.08s-22.44-12.28-29.91,5.33c-5.79,13.66,35.49,23.7,54.35,27.53a87.37,87.37,0,0,0,18.39,1.74c22.3-.25,76.41-3.2,71.13-26.14C418.09,118.21,384.14,137,384.14,137s.12-22.13-24.95-22.13a58.38,58.38,0,0,0-13.07,1.65"/></clipPath><linearGradient id="linear-gradient" y1="394.15" x2="1" y2="394.15" gradientTransform="translate(425.08 57210.13) rotate(180) scale(144.78)" gradientUnits="userSpaceOnUse"><stop offset="0" stop-color="#e0f0eb"/><stop offset="1" stop-color="#c0e4ef"/></linearGradient><clipPath id="clip-path-2" transform="translate(0 0)"><path class="cls-1" d="M61.32,44.1a2.71,2.71,0,0,1-3.08,3.69C50,46,34.82,43.76,28,49.13c-9.59,7.52-9.59,25-9.59,25H235.91s11.8-14.92,0-25c-6.51-5.55-14.19-5-19.78-3.34a6.51,6.51,0,0,1-8.06-5.1c-1.33-6.14-5.4-14.17-17.11-18.91-11.52-4.67-18.8,2.46-23,9.78A3.27,3.27,0,0,1,162,31C158.37,19.4,145.65,4.08,103.83,4.08c-53.17,0-47.27,28.27-42.51,40"/></clipPath><linearGradient id="linear-gradient-2" y1="394.15" y2="394.15" gradientTransform="matrix(222.76, 0, 0, -222.76, 18.4, 87838.88)" xlink:href="#linear-gradient"/><clipPath id="clip-path-3" transform="translate(0 0)"><rect class="cls-1" width="425.08" height="394.15"/></clipPath><clipPath id="clip-path-4" transform="translate(0 0)"><rect class="cls-1" x="129.78" y="239.03" width="51.29" height="53.95" rx="7.28"/></clipPath><linearGradient id="linear-gradient-3" y1="394.15" y2="394.15" gradientTransform="matrix(51.29, 0, 0, -51.29, 129.78, 20482.42)" xlink:href="#linear-gradient"/><clipPath id="clip-path-6" transform="translate(0 0)"><rect class="cls-1" x="200.09" y="239.03" width="51.29" height="53.95" rx="7.28"/></clipPath><linearGradient id="linear-gradient-4" y1="394.15" y2="394.15" gradientTransform="matrix(51.29, 0, 0, -51.29, 200.09, 20482.42)" xlink:href="#linear-gradient"/><clipPath id="clip-path-8" transform="translate(0 0)"><path class="cls-1" d="M173.22,128.67c-13.15,0-23.91,10.21-23.91,22.68v52.23h48.93V151.35c0-12.47-10.76-22.68-23.91-22.68Z"/></clipPath><linearGradient id="linear-gradient-5" y1="394.15" y2="394.15" gradientTransform="matrix(48.93, 0, 0, -48.93, 149.31, 19452.94)" xlink:href="#linear-gradient"/><clipPath id="clip-path-11" transform="translate(0 0)"><path class="cls-1" d="M241.85,128.67c-13.15,0-23.92,10.21-23.92,22.68v52.23h48.94V151.35c0-12.47-10.76-22.68-23.91-22.68Z"/></clipPath><linearGradient id="linear-gradient-7" y1="394.15" y2="394.15" gradientTransform="matrix(48.93, 0, 0, -48.93, 217.93, 19452.94)" xlink:href="#linear-gradient"/><clipPath id="clip-path-13" transform="translate(0 0)"><polygon class="cls-1" points="108.26 98.57 148.41 111.22 127.24 99.53 116.43 97.37 108.26 98.57"/></clipPath><linearGradient id="linear-gradient-8" y1="394.15" x2="1" y2="394.15" gradientTransform="matrix(40.15, 0, 0, -40.15, 108.26, 15928.04)" gradientUnits="userSpaceOnUse"><stop offset="0" stop-color="#f1f8f8"/><stop offset="1" stop-color="#c0e4ef"/></linearGradient><clipPath id="clip-path-15" transform="translate(0 0)"><polygon class="cls-1" points="100.06 104.22 111.63 110.07 148.15 111.15 105.72 99.63 100.06 104.22"/></clipPath><linearGradient id="linear-gradient-9" x1="0" y1="394.15" x2="1" y2="394.15" gradientTransform="matrix(48.09, 0, 0, -48.09, 100.06, 19059.31)" xlink:href="#linear-gradient-8"/></defs><title>osiguranje imovine</title><g id="Layer_2" data-name="Layer 2"><g id="Layer_1-2" data-name="Layer 1"><polygon class="cls-2" points="239.24 0 196.5 132.88 198.93 132.88 241.67 0 239.24 0"/><polygon class="cls-2" points="261.34 0 218.6 132.88 221.03 132.88 263.77 0 261.34 0"/><polygon class="cls-2" points="228.16 34.51 228.16 36.49 251.07 36.48 251.46 34.49 228.16 34.51"/><polygon class="cls-2" points="232.9 21.63 232.9 23.61 255.8 23.6 256.19 21.62 232.9 21.63"/><polygon class="cls-2" points="236.81 8.76 236.81 10.74 259.72 10.72 260.11 8.74 236.81 8.76"/><polygon class="cls-2" points="223.99 47.55 223.99 49.53 246.89 49.52 247.29 47.53 223.99 47.55"/><polygon class="cls-2" points="220.08 60.59 220.08 62.57 242.98 62.56 243.37 60.58 220.08 60.59"/><polygon class="cls-2" points="216.03 74.14 215.1 76.12 238 76.11 238.4 74.13 216.03 74.14"/><polygon class="cls-2" points="211.74 87.69 210.81 89.67 233.71 89.65 234.1 87.67 211.74 87.69"/><polygon class="cls-2" points="207.72 100.93 206.79 102.91 229.69 102.9 230.08 100.92 207.72 100.93"/><polygon class="cls-2" points="204.38 114.47 203.46 116.45 226.36 116.44 226.75 114.46 204.38 114.47"/><g class="cls-3"><rect class="cls-4" x="275.06" y="114.85" width="154.94" height="58.4"/></g><g class="cls-5"><rect class="cls-6" x="18.4" y="4.08" width="229.31" height="70.01"/></g><g class="cls-7"><path class="cls-8" d="M323.32,320.71S314.85,261.15,353,239c59.13,47.48,12.28,105.51,12.28,105.51Z" transform="translate(0 0)"/><path class="cls-9" d="M353,239l.6.49L345.72,310l36.34-25.17c.08.49.15,1,.22,1.46l-36.76,25.45L343.25,332l-1.24-.71,4.52-40.53-19.6-16.51c.14-.45.28-.91.43-1.37l19.35,16.31,5.55-49.77L353,239" transform="translate(0 0)"/><path class="cls-10" d="M341,310.4s30.52-51.65,72.7-50C436.75,305.57,390.24,339,390.24,339l-51.1,11.89Z" transform="translate(0 0)"/><path class="cls-11" d="M370,277.18l7.91,25.4,34.78-42.24c.34,0,.67,0,1,0,.09.17.17.35.26.53L395.3,283.51l24.7-.81c0,.23,0,.46,0,.7l0,.61-25.88.86-31,37.71,43.4-.06-1,1.33-43.47,0-22,26.77-.87.2.06-1.3,37.69-45.77-8-25.71,1.11-.91" transform="translate(0 0)"/><path class="cls-2" d="M350.92,337.32s45.73-20.4,69.62,3.28c-15.41,66.92-101.62,52-101.62,52Z" transform="translate(0 0)"/><path class="cls-9" d="M420.54,340.6c-.06.26-.13.51-.19.76l-63.87,22.78,31.38,19.42c-.45.24-.91.48-1.37.7L354.88,364.7l-24.95,8.9,1-1.77,48.57-17.32,12.16-25.29,1.43.08L381.3,353.88,420,340.09l.54.51Z" transform="translate(0 0)"/><path class="cls-8" d="M126.88,265.54s39.64-60.87,9.19-104.52C47.13,182.85,68.84,270.26,68.84,270.26Z" transform="translate(0 0)"/><path class="cls-9" d="M136.07,161l-.92.23-27.31,81.12L80.89,196.3c-.33.49-.66,1-1,1.48l27.26,46.6-7.88,23.41,1.73-.14L116.73,221h0l29.86-8.08c.09-.57.17-1.14.24-1.72l-29.49,8,19.29-57.31c-.19-.27-.37-.56-.56-.83" transform="translate(0 0)"/><path class="cls-10" d="M112.83,245.26s-7.08-72.09-54.08-91.84c-48.32,37.73-14.43,98-14.43,98L94.19,290.5Z" transform="translate(0 0)"/><path class="cls-11" d="M98,194.12,76.39,217.89l-16.53-64-1.11-.49-.55.45,8.85,34.27L40.43,174.65l-.39.75-.34.67,27.89,14.12,14.76,57.1L34.87,225.11c.14.66.29,1.32.44,2l47.55,22.21,10.48,40.55.85.66.6-1.45L76.87,219.73l21.88-24.06c-.24-.52-.49-1-.75-1.55" transform="translate(0 0)"/><path class="cls-2" d="M88.2,269.66S48.54,224,10.33,237.76C-6.92,318.87,95,346.54,95,346.54Z" transform="translate(0 0)"/><path class="cls-9" d="M10.33,237.76c-.07.31-.13.62-.19.93l58.31,57.5-44.26,5.26,1.15,1.47,44.57-5.3,22.77,22.45-.22-2.45L48.12,273.9,47.7,240l-1.6-.64.4,32.93L11.18,237.47c-.29.1-.57.18-.85.29Z" transform="translate(0 0)"/><path class="cls-12" d="M95.3,52.92v73.22c0,4.15,4.92,7.53,11.06,7.6l20.41.23c4.5.05,8.12,2.52,8.14,5.57l.36,63.68c0,3.06-3.6,5.55-8.12,5.61l-21.8.28c-6.17.08-11.09,3.49-11,7.66l1,177.38H282.08V52.92Z" transform="translate(0 0)"/><path class="cls-12" d="M323.86,228.66l21.8-.28c6.17-.08,11.09-3.49,11-7.66l-.79-143.07a59.49,59.49,0,0,1-7.12.4c-9.73,0-18.86-6.18-25.15-13.12a30.79,30.79,0,0,1-6.49-11.76H175.84v341H355.71V311.36c0-4.16-4.92-7.54-11.07-7.61l-20.4-.23c-4.5,0-8.12-2.52-8.14-5.56l-.36-63.69c0-3.05,3.6-5.55,8.12-5.61" transform="translate(0 0)"/><path class="cls-13" d="M338.86,228.66l6.8-.28c6.17-.08,11.09-3.49,11-7.66l-.93-167H277.33V394.15h78.38V311.36c0-4.16-4.92-7.54-11.07-7.61l-5.4-.23c-4.5,0-8.12-2.52-8.14-5.56l-.36-63.69c0-3.05,3.6-5.55,8.12-5.61" transform="translate(0 0)"/><rect class="cls-8" x="95.29" y="42.47" width="260.03" height="12.06"/><rect class="cls-10" x="276.4" y="42.47" width="78.93" height="12.06"/></g><g class="cls-14"><rect class="cls-15" x="129.78" y="239.03" width="51.29" height="53.95"/></g><g class="cls-7"><rect class="cls-12" x="152.79" y="239.03" width="7.04" height="53.95"/><rect class="cls-12" x="120.53" y="263.35" width="71.54" height="5.31"/></g><g class="cls-16"><rect class="cls-17" x="200.08" y="239.03" width="51.29" height="53.95"/></g><g class="cls-7"><rect class="cls-12" x="223.1" y="239.03" width="7.04" height="53.95"/><rect class="cls-12" x="190.84" y="263.35" width="64.08" height="5.31"/></g><g class="cls-18"><rect class="cls-19" x="149.31" y="128.67" width="48.93" height="74.91"/></g><g class="cls-18"><rect class="cls-19" x="149.31" y="128.67" width="48.93" height="74.91"/></g><g class="cls-7"><rect class="cls-12" x="170.33" y="122.77" width="6.89" height="86.71"/><rect class="cls-12" x="145.66" y="162.68" width="56.03" height="6.89"/></g><g class="cls-20"><rect class="cls-21" x="217.93" y="128.67" width="48.93" height="74.91"/></g><g class="cls-7"><rect class="cls-12" x="238.96" y="122.77" width="6.89" height="86.71"/><rect class="cls-12" x="213.83" y="162.68" width="56.3" height="6.89"/><path class="cls-10" d="M163.71,79.43h-43a2.34,2.34,0,0,1-2.34-2.34V75.21a2.35,2.35,0,0,1,2.34-2.34h43a2.35,2.35,0,0,1,2.34,2.34v1.88a2.34,2.34,0,0,1-2.34,2.34" transform="translate(0 0)"/><path class="cls-10" d="M192.13,87.86h-43a2.34,2.34,0,0,1-2.34-2.34V83.64a2.34,2.34,0,0,1,2.34-2.34h43a2.34,2.34,0,0,1,2.34,2.34v1.88a2.34,2.34,0,0,1-2.34,2.34" transform="translate(0 0)"/><path class="cls-10" d="M223.3,348.39h-43a2.34,2.34,0,0,1-2.34-2.34v-1.88a2.34,2.34,0,0,1,2.34-2.34h43a2.35,2.35,0,0,1,2.34,2.34v1.88a2.35,2.35,0,0,1-2.34,2.34" transform="translate(0 0)"/><path class="cls-10" d="M258.16,101.17H232.52a1.84,1.84,0,0,1-1.83-1.84V96.44a1.83,1.83,0,0,1,1.83-1.83h25.64A1.83,1.83,0,0,1,260,96.44v2.89a1.84,1.84,0,0,1-1.83,1.84" transform="translate(0 0)"/><path class="cls-10" d="M232.27,338.93H206.63a1.84,1.84,0,0,1-1.83-1.84V334.2a1.83,1.83,0,0,1,1.83-1.83h25.64a1.84,1.84,0,0,1,1.84,1.83v2.89a1.85,1.85,0,0,1-1.84,1.84" transform="translate(0 0)"/><polygon class="cls-22" points="403.31 148.75 406.96 155.92 399.3 154.18 373.12 145.93 403.31 148.75"/><polygon class="cls-8" points="406.96 155.92 393.95 155.12 397.14 153.5 406.96 155.92"/><polygon class="cls-9" points="403.31 148.75 405.59 141.77 373.12 145.93 403.31 148.75"/><polygon class="cls-9" points="373.12 145.93 399.3 154.18 395.4 164.24 373.12 145.93"/><path class="cls-8" d="M404.09,163.14a.65.65,0,0,0,.18-.15.61.61,0,0,0-.06-.86,17.06,17.06,0,0,0-2.57-1.85.61.61,0,0,0-.84.21.62.62,0,0,0,.22.84,15.88,15.88,0,0,1,2.39,1.72.61.61,0,0,0,.68.09" transform="translate(0 0)"/><path class="cls-8" d="M394.57,230a.61.61,0,0,1,.22-.83,17.59,17.59,0,0,0,4.48-3.89.61.61,0,0,1,.86-.08.62.62,0,0,1,.09.86,18.64,18.64,0,0,1-4.81,4.16l0,0a.62.62,0,0,1-.8-.24m7-6.85a.63.63,0,0,1-.23-.84,21.83,21.83,0,0,0,2.22-5.57.61.61,0,0,1,1.19.3,23.18,23.18,0,0,1-2.35,5.88.64.64,0,0,1-.25.24.63.63,0,0,1-.58,0m3.12-9.31a.61.61,0,0,1-.57-.65l0-.28a28.69,28.69,0,0,0-.3-5.74.6.6,0,0,1,.51-.7.62.62,0,0,1,.7.51,29.83,29.83,0,0,1,.31,6l0,.3a.64.64,0,0,1-.33.5.59.59,0,0,1-.32.06m-.85-9.8a.61.61,0,0,1-.75-.43,44.4,44.4,0,0,0-2-5.76.62.62,0,0,1,.33-.8.61.61,0,0,1,.8.32,45.82,45.82,0,0,1,2,5.92.6.6,0,0,1-.31.7l-.12.05m-3.44-9.25a.62.62,0,0,1-.82-.28l-.23-.46q-1,.38-2,.66a.61.61,0,0,1-.32-1.18c.59-.17,1.17-.36,1.74-.58-.64-1.21-1.33-2.48-2.13-3.84a.62.62,0,0,1,.23-.84.61.61,0,0,1,.83.23c.82,1.41,1.54,2.71,2.2,4a19.13,19.13,0,0,0,2.55-1.42.6.6,0,0,1,.85.16.61.61,0,0,1-.17.85,19.89,19.89,0,0,1-2.67,1.5l.2.4a.62.62,0,0,1-.27.81h0m4.83-5.15a.6.6,0,0,1,0-.86,16,16,0,0,0,2.23-2.91,14.76,14.76,0,0,0,1-2,.61.61,0,0,1,1.14.46,17.37,17.37,0,0,1-1.1,2.2,16.7,16.7,0,0,1-2.4,3.13.66.66,0,0,1-.17.12.61.61,0,0,1-.7-.11m-11.61,5.74a19.13,19.13,0,0,1-6.34-.49.61.61,0,0,1,.3-1.19,18,18,0,0,0,5.93.47.61.61,0,0,1,.33,1.15.55.55,0,0,1-.22.06m16.33-14.26a.61.61,0,0,1-.5-.71,18.6,18.6,0,0,0,.06-6,.59.59,0,0,1,.51-.69.61.61,0,0,1,.69.51,19.59,19.59,0,0,1-.06,6.35.59.59,0,0,1-.32.44.63.63,0,0,1-.38.06m-26.26,12.42a14.4,14.4,0,0,1-1.43-.83,13.09,13.09,0,0,1-3.46-3.3.61.61,0,1,1,1-.72,11.86,11.86,0,0,0,3.13,3,13.51,13.51,0,0,0,1.33.77.61.61,0,0,1,.27.82.7.7,0,0,1-.27.27.61.61,0,0,1-.56,0m11.07-7.58a23,23,0,0,0-3.78-4.66.6.6,0,0,1,0-.86.61.61,0,0,1,.86,0,24.5,24.5,0,0,1,4,4.91.62.62,0,0,1-.19.85l-.05,0a.61.61,0,0,1-.79-.22m14.67-14.61a.62.62,0,0,1-.78-.38,18.63,18.63,0,0,0-1.06-2.52,18.21,18.21,0,0,0-1.72-2.76.61.61,0,0,1,1-.73,19.58,19.58,0,0,1,1.83,2.94,19.09,19.09,0,0,1,1.13,2.67.6.6,0,0,1-.3.74l-.08,0m-31.58,15a.61.61,0,0,1-.74-.45,6.76,6.76,0,0,1,.5-4.87,6.45,6.45,0,0,1,1-1.44.62.62,0,0,1,.87,0,.6.6,0,0,1,0,.86,5,5,0,0,0-.84,1.15,5.51,5.51,0,0,0-.39,4,.61.61,0,0,1-.32.69l-.13.05m10.22-7a8.74,8.74,0,0,0-5.63-.53.6.6,0,0,1-.74-.44.61.61,0,0,1,.44-.74,9.82,9.82,0,0,1,6.45.6.62.62,0,0,1,.3.81.61.61,0,0,1-.28.29.64.64,0,0,1-.54,0" transform="translate(0 0)"/><path class="cls-8" d="M391.92,231.71a.59.59,0,0,0,.31-.71.6.6,0,0,0-.75-.42,12.85,12.85,0,0,1-2.88.48.61.61,0,0,0-.57.65.6.6,0,0,0,.64.57,13.92,13.92,0,0,0,3.14-.52l.11,0" transform="translate(0 0)"/></g><g class="cls-23"><rect class="cls-24" x="108.26" y="97.37" width="40.15" height="13.85"/></g><g class="cls-7"><polyline class="cls-22" points="148.41 111.22 108.77 101.03 108.26 98.57"/><polygon class="cls-8" points="107.63 107.83 107.68 107.91 109.35 114.07 148.31 111.22 107.63 107.83"/></g><g class="cls-25"><rect class="cls-26" x="100.06" y="99.63" width="48.09" height="11.52"/></g><g class="cls-7"><path class="cls-8" d="M10.89,182.77a29.09,29.09,0,0,0,3.81-1.66.59.59,0,0,1,.78.25.57.57,0,0,1-.25.78,32.23,32.23,0,0,1-4,1.72c-.49.17-1,.33-1.47.47a.57.57,0,0,1-.51-.08.71.71,0,0,1-.21-.3.58.58,0,0,1,.39-.72c.48-.14.95-.3,1.42-.46" transform="translate(0 0)"/><path class="cls-8" d="M88.48,99.93c1.8.23,3.67.53,5.72.91a.57.57,0,0,1,.46.67A.58.58,0,0,1,94,102c-2-.38-3.88-.67-5.66-.9a.63.63,0,0,1-.27-.1.61.61,0,0,1-.23-.54.58.58,0,0,1,.65-.5" transform="translate(0 0)"/><path class="cls-8" d="M78.87,100.37a.56.56,0,0,1-.23-.46.58.58,0,0,1,.57-.58c1.85,0,3.8.06,5.81.23a.58.58,0,0,1-.1,1.15c-2-.17-3.89-.24-5.7-.23a.54.54,0,0,1-.35-.11" transform="translate(0 0)"/><path class="cls-8" d="M22,175.82a.58.58,0,1,1,.81.83,32.2,32.2,0,0,1-4.55,3.69.57.57,0,0,1-.66,0,.67.67,0,0,1-.14-.15.59.59,0,0,1,.16-.8A29.89,29.89,0,0,0,22,175.82" transform="translate(0 0)"/><path class="cls-8" d="M24.38,174.14a.57.57,0,0,1-.08-.81c.32-.4.64-.8.95-1.22a30.69,30.69,0,0,0,2.21-3.46.57.57,0,0,1,.78-.23.58.58,0,0,1,.23.78,31.77,31.77,0,0,1-2.3,3.6c-.32.43-.64.85-1,1.26a.58.58,0,0,1-.79.1l0,0" transform="translate(0 0)"/><path class="cls-8" d="M29.23,166.34l-.13-.07a.59.59,0,0,1-.19-.68,39.17,39.17,0,0,0,1.76-5.39.57.57,0,0,1,.69-.42.58.58,0,0,1,.42.7A41.54,41.54,0,0,1,30,166a.58.58,0,0,1-.75.31" transform="translate(0 0)"/><path class="cls-8" d="M44.5,117.2c-.48.58-1,1.18-1.4,1.79-.68.91-1.32,1.86-1.92,2.82a.58.58,0,0,1-.8.18l0,0a.57.57,0,0,1-.14-.76c.61-1,1.28-2,2-2.9.46-.62.93-1.24,1.43-1.83a.54.54,0,0,1,.81-.08.58.58,0,0,1,.08.81" transform="translate(0 0)"/><path class="cls-8" d="M39.48,124.76a43.46,43.46,0,0,0-2.29,5.2.56.56,0,0,1-.73.35.53.53,0,0,1-.15-.08.57.57,0,0,1-.2-.66,42,42,0,0,1,2.35-5.34.57.57,0,0,1,1,.53" transform="translate(0 0)"/><path class="cls-8" d="M50.93,110.77a47.87,47.87,0,0,0-4.17,3.87.58.58,0,0,1-.76.07s0,0,0,0a.57.57,0,0,1,0-.81,48.69,48.69,0,0,1,4.27-4A.57.57,0,0,1,51,110a.58.58,0,0,1-.08.81" transform="translate(0 0)"/><path class="cls-8" d="M61.55,104.22a.6.6,0,0,1-.58-.06.58.58,0,0,1-.18-.23.57.57,0,0,1,.29-.76,46.79,46.79,0,0,1,5.47-2,.58.58,0,0,1,.72.39.58.58,0,0,1-.39.72,43.75,43.75,0,0,0-5.33,2" transform="translate(0 0)"/><path class="cls-8" d="M33.17,148.41a.86.86,0,0,1-.28-.11.59.59,0,0,1-.23-.53l.08-.73c.2-1.67.39-3.34.61-5a.57.57,0,0,1,.64-.5.58.58,0,0,1,.5.65c-.22,1.66-.41,3.32-.6,5l-.08.73a.59.59,0,0,1-.64.51" transform="translate(0 0)"/><path class="cls-8" d="M53.64,108.71a.59.59,0,0,1-.67,0,.8.8,0,0,1-.13-.13.59.59,0,0,1,.14-.81,47.92,47.92,0,0,1,5-3.06.58.58,0,1,1,.54,1,45.67,45.67,0,0,0-4.84,3" transform="translate(0 0)"/><path class="cls-8" d="M32.9,150.69a.58.58,0,0,1,.5.65c-.28,2.24-.56,4.06-.87,5.73a.58.58,0,0,1-.68.46.55.55,0,0,1-.23-.11.56.56,0,0,1-.23-.57c.31-1.64.59-3.44.87-5.66a.58.58,0,0,1,.64-.5" transform="translate(0 0)"/><path class="cls-8" d="M6.17,184a.58.58,0,0,1,.68.46.57.57,0,0,1-.46.67,45.69,45.69,0,0,1-5.77.75.58.58,0,1,1-.08-1.15A43.75,43.75,0,0,0,6.17,184" transform="translate(0 0)"/><path class="cls-8" d="M35.77,132.51a.57.57,0,0,1,.41.7c-.45,1.7-.84,3.52-1.19,5.58a.57.57,0,0,1-.66.47.55.55,0,0,1-.25-.1.57.57,0,0,1-.22-.56c.35-2.09.74-3.95,1.21-5.68a.57.57,0,0,1,.7-.41" transform="translate(0 0)"/><path class="cls-8" d="M73.7,99.67c.67-.08,1.35-.14,2-.19a.57.57,0,0,1,.62.53.58.58,0,0,1-.53.62c-.66.05-1.32.11-2,.19-1.22.14-2.45.35-3.66.6a.58.58,0,0,1-.46-.1.57.57,0,0,1-.22-.34.59.59,0,0,1,.45-.69c1.24-.26,2.5-.47,3.75-.62" transform="translate(0 0)"/><path class="cls-12" d="M317.08,154.67H291.44a1.84,1.84,0,0,1-1.83-1.83V150a1.85,1.85,0,0,1,1.83-1.84h25.64a1.85,1.85,0,0,1,1.84,1.84v2.89a1.84,1.84,0,0,1-1.84,1.83" transform="translate(0 0)"/><path class="cls-12" d="M342.75,335.32H317.11a1.85,1.85,0,0,1-1.83-1.84v-2.89a1.84,1.84,0,0,1,1.83-1.83h25.64a1.84,1.84,0,0,1,1.84,1.83v2.89a1.85,1.85,0,0,1-1.84,1.84" transform="translate(0 0)"/><path class="cls-12" d="M345.22,166.06H306.57a2.31,2.31,0,0,1-2.31-2.3v-2.4a2.31,2.31,0,0,1,2.31-2.3h38.65a2.31,2.31,0,0,1,2.31,2.3v2.4a2.31,2.31,0,0,1-2.31,2.3" transform="translate(0 0)"/></g></g></g></svg>