<svg xmlns="http://www.w3.org/2000/svg" xmlns:xlink="http://www.w3.org/1999/xlink" viewBox="0 0 422.75 330.67"><defs><style>.cls-1{fill:#fcbc00;}.cls-2{fill:#ffd247;}.cls-3{fill:#f7a605;}.cls-4{fill:#00666a;}.cls-5{fill:#01898c;}.cls-6{fill:#043c5e;}.cls-7{fill:url(#_ÂÁ_Ï_ÌÌ_È_ËÂÌÚ_3);}.cls-8{fill:#fff;}.cls-9{fill:url(#_ÂÁ_Ï_ÌÌ_È_ËÂÌÚ_3-2);}.cls-10{fill:url(#_ÂÁ_Ï_ÌÌ_È_ËÂÌÚ_3-3);}.cls-11{fill:#b0d9c8;}.cls-12{fill:#63c1c5;}.cls-13{fill:url(#_ÂÁ_Ï_ÌÌ_È_ËÂÌÚ_2);}.cls-14{fill:url(#_ÂÁ_Ï_ÌÌ_È_ËÂÌÚ_2-2);}.cls-15{fill:url(#_ÂÁ_Ï_ÌÌ_È_ËÂÌÚ_3-4);}.cls-16{fill:#acdbe0;}.cls-17{fill:url(#_ÂÁ_Ï_ÌÌ_È_ËÂÌÚ_3-5);}.cls-18{fill:url(#_ÂÁ_Ï_ÌÌ_È_ËÂÌÚ_3-6);}.cls-19{fill:url(#_ÂÁ_Ï_ÌÌ_È_ËÂÌÚ_3-7);}.cls-20{fill:url(#_ÂÁ_Ï_ÌÌ_È_ËÂÌÚ_3-8);}</style><linearGradient id="_ÂÁ_Ï_ÌÌ_È_ËÂÌÚ_3" x1="6380.58" y1="-604.51" x2="6554.36" y2="-604.51" gradientTransform="matrix(0.68, -0.74, -0.74, -0.68, -4502.3, 4567.28)" gradientUnits="userSpaceOnUse"><stop offset="0" stop-color="#e0f0eb"/><stop offset="1" stop-color="#c0e4ef"/></linearGradient><linearGradient id="_ÂÁ_Ï_ÌÌ_È_ËÂÌÚ_3-2" x1="6220.33" y1="-1603.39" x2="6394.12" y2="-1603.39" gradientTransform="matrix(0.54, -0.84, -0.84, -0.54, -4458.43, 4538.4)" xlink:href="#_ÂÁ_Ï_ÌÌ_È_ËÂÌÚ_3"/><linearGradient id="_ÂÁ_Ï_ÌÌ_È_ËÂÌÚ_3-3" x1="6396.5" y1="-432.14" x2="6570.28" y2="-432.14" gradientTransform="matrix(0.07, -1, -1, -0.07, -623.47, 6563.02)" xlink:href="#_ÂÁ_Ï_ÌÌ_È_ËÂÌÚ_3"/><linearGradient id="_ÂÁ_Ï_ÌÌ_È_ËÂÌÚ_2" x1="384.16" y1="89.17" x2="417.32" y2="89.17" gradientUnits="userSpaceOnUse"><stop offset="0" stop-color="#f1f8f8"/><stop offset="1" stop-color="#c0e4ef"/></linearGradient><linearGradient id="_ÂÁ_Ï_ÌÌ_È_ËÂÌÚ_2-2" x1="384.16" y1="99.2" x2="410.9" y2="99.2" xlink:href="#_ÂÁ_Ï_ÌÌ_È_ËÂÌÚ_2"/><linearGradient id="_ÂÁ_Ï_ÌÌ_È_ËÂÌÚ_3-4" x1="170.63" y1="134.13" x2="235.9" y2="280.99" gradientTransform="matrix(1, 0, 0, 1, 0, 0)" xlink:href="#_ÂÁ_Ï_ÌÌ_È_ËÂÌÚ_3"/><linearGradient id="_ÂÁ_Ï_ÌÌ_È_ËÂÌÚ_3-5" x1="222.04" y1="134.13" x2="287.31" y2="280.99" gradientTransform="matrix(1, 0, 0, 1, 0, 0)" xlink:href="#_ÂÁ_Ï_ÌÌ_È_ËÂÌÚ_3"/><linearGradient id="_ÂÁ_Ï_ÌÌ_È_ËÂÌÚ_3-6" x1="268.14" y1="134.13" x2="333.42" y2="280.99" gradientTransform="matrix(1, 0, 0, 1, 0, 0)" xlink:href="#_ÂÁ_Ï_ÌÌ_È_ËÂÌÚ_3"/><linearGradient id="_ÂÁ_Ï_ÌÌ_È_ËÂÌÚ_3-7" x1="218.96" y1="306.32" x2="369.1" y2="306.32" gradientTransform="matrix(1, 0, 0, 1, 0, 0)" xlink:href="#_ÂÁ_Ï_ÌÌ_È_ËÂÌÚ_3"/><linearGradient id="_ÂÁ_Ï_ÌÌ_È_ËÂÌÚ_3-8" x1="202.28" y1="136.65" x2="315.62" y2="136.65" gradientTransform="matrix(1, 0, 0, 1, 0, 0)" xlink:href="#_ÂÁ_Ï_ÌÌ_È_ËÂÌÚ_3"/></defs><title>kredit</title><g id="Layer_2" data-name="Layer 2"><g id="_ÎÓÈ_1" data-name="—ÎÓÈ_1"><circle class="cls-1" cx="182.89" cy="76.65" r="35.67"/><path class="cls-2" d="M180.25,103.95V97.66a27.37,27.37,0,0,1-12.38-3.31l2.34-4.83a23.44,23.44,0,0,0,11.25,2.85c5.74,0,9.63-2.32,9.63-6.09s-3.16-5.89-9.14-7.87C173.7,75.76,168.6,72.71,168.6,67c0-5.49,4.77-9.66,12.22-10.65V49.62h5V56a25.3,25.3,0,0,1,10.52,2.32l-2.42,5.16a22.12,22.12,0,0,0-9.8-1.85c-6.23,0-8.58,1.86-8.58,4.5,0,3.44,3,5.16,10,7.54,8.33,2.78,12.54,6.22,12.54,12.11,0,5.23-4.45,10.52-12.78,11.64v6.49Z"/><rect class="cls-2" x="180.06" y="49.62" width="5.84" height="54.33"/><path class="cls-3" d="M182.89,113.75A37.09,37.09,0,1,1,220,76.65,37.13,37.13,0,0,1,182.89,113.75Zm0-71.34a34.25,34.25,0,1,0,34.25,34.25A34.29,34.29,0,0,0,182.89,42.4Z"/><path class="cls-4" d="M279.17,213.26S250.78,140.35,292.49,101c89,42.59,46.83,130,46.83,130Z"/><path class="cls-5" d="M292.49,101l.92.45L304.34,193l38.56-42.65q.36.89.7,1.78l-39,43.13,3.16,26.41-1.79-.53-6.29-52.66h0L270,153.42c0-.62.08-1.24.13-1.86l29.34,14.9-7.72-64.67.77-.76Z"/><path class="cls-6" d="M382.12,162.82c-4.91-1.75-11.17-6.61-12.9-11.8L366,141.27c-51.19,12-80.79,65.89-80.79,65.89L285,255l66.71-14.31S396.2,209.86,391.38,164A23.77,23.77,0,0,1,382.12,162.82Z"/><path class="cls-4" d="M391.73,169.86v-.81c0-.3,0-.61,0-.91l-32.14.5,11.76-13.79a16.21,16.21,0,0,1-1-1.49l-33.85,39.68-9.72-33.21L325.31,161l9.84,33.62-50,58.66L285,255l1.13-.24,29.27-34.32,56.52.92c.45-.55.91-1.12,1.36-1.7l-56.43-.92,41.22-48.33Z"/><path class="cls-6" d="M312.68,228.45s57.44-28.52,90.45,5.84C381.58,321,269.81,299.67,269.81,299.67Z"/><path class="cls-4" d="M403.13,234.29c-.08.33-.17.66-.26,1L319.3,263.45l40.38,26-1.81.88-40.65-26.15-32.64,11,1.37-2.28,63.56-21.42,16.39-32.62,1.85.14-15.93,31.7,50.64-17.06.69.67Z"/><path class="cls-4" d="M347.16,111.49S253.53,222.85,219,251.11c36,37.74,63.64,58.44,63.64,58.44s134.33-120.91,132-136.17C405.58,159.86,405.81,160.18,347.16,111.49Z"/><path class="cls-7" d="M385.18,157.6c-6.89,8.54-5.37,23.27,2.58,28.74-.51,21.54-92.54,98.24-92.54,98.24l-.13-.14c-7.31-7.34-20.2-6.33-27.15.88l-22.49-20.65c7.05-8,5.9-19.76-1.44-27.12l-.21-.19,90.54-101.43q.62.75,1.32,1.45c7.31,7.34,21.61,7.62,28.55.42l21.26,19.53C385.38,157.41,385.27,157.49,385.18,157.6Z"/><circle class="cls-8" cx="314.01" cy="213" r="23.08" transform="translate(-55.26 300.23) rotate(-47.44)"/><path class="cls-4" d="M304.05,196.74l2.79,3.52a19.56,19.56,0,0,1,8.4-3.64l.83,3.74a16.75,16.75,0,0,0-7.57,3.4c-3.22,2.55-4.36,5.57-2.69,7.69s4.38,1.9,8.62.35c5.8-2.18,10-2.74,12.56.48s1.62,7.53-2.11,11.39l3,3.74L325,229.65l-2.85-3.59a18.08,18.08,0,0,1-6.92,3.37l-.94-4a15.81,15.81,0,0,0,6.31-3.31c3.49-2.77,4-4.85,2.8-6.33-1.53-1.93-4-1.56-9,.23-5.9,2.14-9.79,2.08-12.4-1.21-2.32-2.93-2.18-7.87,2-12.2L301.2,199Z"/><rect class="cls-4" x="312.5" y="193.75" width="4.17" height="38.83" transform="translate(-64.36 241.56) rotate(-38.41)"/><circle class="cls-5" cx="340.3" cy="183.87" r="5.52" transform="matrix(0.68, -0.74, 0.74, 0.68, -25.29, 310.17)"/><circle class="cls-5" cx="351.61" cy="171.56" r="5.52" transform="translate(-12.57 314.51) rotate(-47.44)"/><circle class="cls-6" cx="276.26" cy="253.61" r="5.52" transform="translate(-97.4 285.56) rotate(-47.44)"/><circle class="cls-5" cx="287.32" cy="241.56" r="5.52" transform="translate(-84.94 289.82) rotate(-47.44)"/><path class="cls-5" d="M317.38,0S244,125.62,214.71,159.33c41.92,31.08,72.63,46.8,72.63,46.8S399.23,64.2,394.3,49.56C383.15,37.76,383.44,38,317.38,0Z"/><path class="cls-9" d="M362.67,39c-5.34,9.58-1.34,23.84,7.41,27.89,3.14,21.31-74.54,112.5-74.54,112.5l-.15-.12c-8.45-6-21-2.81-26.6,5.47l-25.67-16.54c5.59-9.1,2.46-20.47-6-26.49l-.24-.15,72-115.31q.74.63,1.54,1.2c8.45,6,22.59,3.85,28.21-4.43l24.27,15.64C362.83,38.77,362.73,38.87,362.67,39Z"/><circle class="cls-8" cx="301.93" cy="105.65" r="23.08" transform="matrix(0.54, -0.84, 0.84, 0.54, 49.57, 302.22)"/><path class="cls-4" d="M288.64,92l3.51,2.81a19.56,19.56,0,0,1,7.38-5.42l1.65,3.46a16.75,16.75,0,0,0-6.62,5c-2.57,3.2-3,6.4-.91,8.09s4.69.88,8.48-1.57c5.17-3.42,9.14-4.9,12.35-2.32s3.25,7,.47,11.58l3.73,3-2.24,2.8-3.58-2.87a18.09,18.09,0,0,1-6,4.83l-1.79-3.66a15.81,15.81,0,0,0,5.42-4.63c2.79-3.47,2.8-5.61,1.33-6.8-1.92-1.54-4.22-.64-8.69,2.22-5.28,3.4-9.08,4.21-12.36,1.57-2.91-2.34-3.87-7.19-.77-12.34l-3.62-2.9Z"/><rect class="cls-4" x="300.49" y="86.22" width="4.17" height="38.83" transform="translate(30.82 275.53) rotate(-51.26)"/><circle class="cls-5" cx="322.89" cy="72.49" r="5.52" transform="translate(87.06 304.65) rotate(-57.2)"/><circle class="cls-5" cx="331.95" cy="58.44" r="5.52" transform="translate(103.02 305.82) rotate(-57.2)"/><circle class="cls-6" cx="271.6" cy="152.09" r="5.52" transform="translate(-3.36 298.02) rotate(-57.2)"/><circle class="cls-5" cx="280.47" cy="138.33" r="5.52" transform="translate(12.27 299.16) rotate(-57.2)"/><path class="cls-4" d="M194.57,24.78s-3.25,145.45-12.49,189.13c51.73,6.84,86.22,5.69,86.22,5.69s29-178.39,17.57-188.8C270.4,25.89,270.79,26,194.57,24.78Z"/><path class="cls-10" d="M253.09,36.91c0,11,10.39,21.5,20,20.79,13.09,17.11-10.6,134.54-10.6,134.54l-.19,0c-10.29-1.14-19.71,7.72-20.61,17.69l-30.47-2c.48-10.67-7.77-19.1-18.11-20.24h-.28l7-135.77q1,.19,1.94.3c10.29,1.14,21.62-7.59,22.52-17.56l28.81,1.9C253.13,36.63,253.09,36.77,253.09,36.91Z"/><circle class="cls-8" cx="232.31" cy="124.66" r="23.08" transform="translate(92.62 348.26) rotate(-86.22)"/><path class="cls-4" d="M214.36,118.23l4.38,1a19.56,19.56,0,0,1,4.27-8.1l3,2.39a16.75,16.75,0,0,0-3.77,7.39c-.91,4,.09,7.08,2.72,7.68s4.6-1.27,6.94-5.12C235,118.13,238,115.06,242,116c3.83.87,6,4.86,5.49,10.2l4.66,1.06-.79,3.5-4.47-1a18.08,18.08,0,0,1-3.28,7l-3.21-2.5a15.81,15.81,0,0,0,2.85-6.54c1-4.34.06-6.27-1.78-6.69-2.4-.55-4.07,1.27-6.85,5.8-3.26,5.37-6.32,7.75-10.43,6.82-3.64-.83-6.63-4.77-6.09-10.76l-4.52-1Z"/><rect class="cls-4" x="230.78" y="105.02" width="4.17" height="38.83" transform="translate(59.9 323.92) rotate(-77.19)"/><circle class="cls-5" cx="234.56" cy="85.49" r="5.52" transform="translate(133.8 313.9) rotate(-86.22)"/><circle class="cls-5" cx="235.66" cy="68.82" r="5.52" transform="translate(151.47 299.43) rotate(-86.22)"/><circle class="cls-6" cx="228.32" cy="179.98" r="5.52" transform="translate(33.69 395.94) rotate(-86.22)"/><circle class="cls-5" cx="229.4" cy="163.65" r="5.52" transform="translate(50.99 381.77) rotate(-86.22)"/><polygon class="cls-11" points="414.99 92.73 418.71 100.05 410.9 98.27 384.17 89.84 414.99 92.73"/><polygon class="cls-12" points="418.71 100.05 405.44 99.23 408.69 97.57 418.71 100.05"/><polygon class="cls-13" points="414.99 92.73 417.32 85.6 384.17 89.84 414.99 92.73"/><polygon class="cls-14" points="384.17 89.84 410.9 98.27 406.92 108.55 384.17 89.84"/><path class="cls-12" d="M415.78,107.42a.62.62,0,0,0,.13-1,17.54,17.54,0,0,0-2.63-1.89.62.62,0,1,0-.63,1.08,16.26,16.26,0,0,1,2.44,1.76A.62.62,0,0,0,415.78,107.42Z"/><path class="cls-12" d="M406.07,175.67a.62.62,0,0,1,.22-.86,17.57,17.57,0,0,0,4.58-4,.62.62,0,0,1,1,.8,18.81,18.81,0,0,1-4.91,4.25l0,0A.62.62,0,0,1,406.07,175.67Zm7.12-7a.62.62,0,0,1-.23-.85,22.35,22.35,0,0,0,2.27-5.69.62.62,0,1,1,1.21.3,23.57,23.57,0,0,1-2.39,6,.61.61,0,0,1-.26.25A.62.62,0,0,1,413.18,168.67Zm3.18-9.5a.63.63,0,0,1-.58-.67l0-.28a28.83,28.83,0,0,0-.31-5.87.62.62,0,0,1,1.23-.19,30.16,30.16,0,0,1,.32,6.12l0,.3a.63.63,0,0,1-.67.58Zm-.87-10a.62.62,0,0,1-.76-.44,45.47,45.47,0,0,0-2-5.88.62.62,0,0,1,1.15-.48,46.56,46.56,0,0,1,2.08,6,.62.62,0,0,1-.32.72ZM412,139.71a.63.63,0,0,1-.84-.29l-.23-.47a21,21,0,0,1-2,.67.62.62,0,1,1-.33-1.2q.91-.25,1.78-.59c-.65-1.24-1.36-2.53-2.17-3.92a.62.62,0,0,1,1.08-.63c.84,1.44,1.58,2.78,2.25,4.06a18.94,18.94,0,0,0,2.6-1.45.62.62,0,0,1,.69,1,20.31,20.31,0,0,1-2.73,1.53l.2.41a.62.62,0,0,1-.28.83Zm4.93-5.26a.62.62,0,0,1,0-.88,15.69,15.69,0,0,0,3.31-5,.62.62,0,0,1,1.16.47,16.93,16.93,0,0,1-3.57,5.44.61.61,0,0,1-.16.12A.62.62,0,0,1,416.92,134.46Zm-11.86,5.86a19.51,19.51,0,0,1-6.47-.51.62.62,0,0,1,.31-1.21,18.26,18.26,0,0,0,6.05.47.62.62,0,0,1,.11,1.24Zm16.67-14.57a.62.62,0,0,1-.51-.72,18.94,18.94,0,0,0,.06-6.08.62.62,0,0,1,1.23-.18,20.2,20.2,0,0,1-.06,6.48.62.62,0,0,1-.72.51Zm-26.81,12.68a16.3,16.3,0,0,1-1.47-.85,13.34,13.34,0,0,1-3.53-3.37.62.62,0,1,1,1-.73,12.1,12.1,0,0,0,3.2,3.05,15.17,15.17,0,0,0,1.36.78.62.62,0,1,1-.57,1.11Zm11.3-7.74a23.17,23.17,0,0,0-3.86-4.76.62.62,0,1,1,.84-.93,24.37,24.37,0,0,1,4.07,5,.63.63,0,0,1-.19.86l-.06,0A.62.62,0,0,1,406.23,130.7Zm15-14.93a.62.62,0,0,1-.79-.39,20,20,0,0,0-1.09-2.57,19.09,19.09,0,0,0-1.76-2.82.62.62,0,0,1,1-.75,20.25,20.25,0,0,1,1.87,3A21.27,21.27,0,0,1,421.6,115a.62.62,0,0,1-.31.76ZM389,131.07a.62.62,0,0,1-.76-.45,6.94,6.94,0,0,1,.51-5,6.34,6.34,0,0,1,1.07-1.47.62.62,0,0,1,.9.87,5.09,5.09,0,0,0-.86,1.18,5.64,5.64,0,0,0-.41,4.1.62.62,0,0,1-.32.71Zm10.44-7.13a8.94,8.94,0,0,0-5.75-.54.62.62,0,1,1-.31-1.21,10.08,10.08,0,0,1,6.58.62.62.62,0,1,1-.52,1.13Z"/><path class="cls-12" d="M403.36,177.44a.62.62,0,0,0-.46-1.16,13.39,13.39,0,0,1-2.94.5A.62.62,0,1,0,400,178a14.66,14.66,0,0,0,3.21-.54Z"/><circle class="cls-1" cx="327.38" cy="235.88" r="45.99"/><path class="cls-2" d="M324,271.07V263a35.28,35.28,0,0,1-16-4.26l3-6.23a30.22,30.22,0,0,0,14.51,3.67c7.41,0,12.41-3,12.41-7.85,0-4.69-4.07-7.59-11.79-10.15-10.64-3.41-17.21-7.34-17.21-14.76,0-7.08,6.15-12.46,15.75-13.74V201h6.47v8.27a32.62,32.62,0,0,1,13.56,3l-3.12,6.65c-2.19-1-6-2.39-12.63-2.39-8,0-11.06,2.39-11.06,5.81,0,4.44,3.86,6.66,12.93,9.73,10.74,3.58,16.17,8,16.17,15.61,0,6.74-5.74,13.56-16.48,15v8.36Z"/><rect class="cls-2" x="323.72" y="201.03" width="7.52" height="70.04"/><path class="cls-3" d="M327.38,283.71a47.82,47.82,0,1,1,47.82-47.82A47.88,47.88,0,0,1,327.38,283.71Zm0-92a44.16,44.16,0,1,0,44.16,44.16A44.21,44.21,0,0,0,327.38,191.73Z"/><rect class="cls-5" x="198.94" y="160.32" width="113.28" height="121.76"/><rect class="cls-4" x="93.92" y="160.32" width="115.03" height="121.76"/><polygon class="cls-15" points="226.47 171.58 226.47 160.96 192.47 160.96 192.47 171.58 198.94 171.58 198.94 271.45 192.47 271.45 192.47 282.08 226.47 282.08 226.47 271.45 218.96 271.45 218.96 171.58 226.47 171.58"/><polygon class="cls-8" points="225.22 171.58 225.22 160.96 206.45 160.96 206.45 282.08 225.22 282.08 225.22 271.45 217.71 271.45 217.71 171.58 225.22 171.58"/><polygon class="cls-12" points="167.45 171.58 167.45 160.96 133.46 160.96 133.46 171.58 139.93 171.58 139.93 271.45 133.46 271.45 133.46 282.08 167.45 282.08 167.45 271.45 159.95 271.45 159.95 171.58 167.45 171.58"/><polygon class="cls-16" points="167.45 171.58 167.45 160.96 150.15 160.96 150.15 282.08 167.45 282.08 167.45 271.45 159.95 271.45 159.95 171.58 167.45 171.58"/><polygon class="cls-12" points="113.94 171.58 113.94 160.96 79.94 160.96 79.94 171.58 86.41 171.58 86.41 271.45 79.94 271.45 79.94 282.08 113.94 282.08 113.94 271.45 106.43 271.45 106.43 171.58 113.94 171.58"/><polygon class="cls-17" points="277.87 171.58 277.87 160.96 243.88 160.96 243.88 171.58 250.35 171.58 250.35 271.45 243.88 271.45 243.88 282.08 277.87 282.08 277.87 271.45 270.37 271.45 270.37 171.58 277.87 171.58"/><polygon class="cls-18" points="323.98 171.58 323.98 160.96 289.99 160.96 289.99 171.58 296.45 171.58 296.45 271.45 289.99 271.45 289.99 282.08 323.98 282.08 323.98 271.45 316.47 271.45 316.47 171.58 323.98 171.58"/><polygon class="cls-8" points="276.51 171.58 276.51 160.96 257.75 160.96 257.75 282.08 276.51 282.08 276.51 271.45 269.01 271.45 269.01 171.58 276.51 171.58"/><polygon class="cls-8" points="321.48 171.58 321.48 160.96 302.71 160.96 302.71 282.08 321.48 282.08 321.48 271.45 313.97 271.45 313.97 171.58 321.48 171.58"/><rect class="cls-5" x="58.81" y="282.08" width="281.52" height="16.31"/><rect class="cls-12" x="198.94" y="282.08" width="141.38" height="16.31"/><rect class="cls-4" x="30.03" y="298.17" width="339.07" height="16.31"/><rect class="cls-19" x="218.96" y="298.17" width="150.14" height="16.31"/><rect class="cls-5" y="314.36" width="395.38" height="16.31"/><rect class="cls-12" x="242.19" y="314.36" width="153.19" height="16.31"/><polygon class="cls-16" points="113.73 171.58 113.73 160.96 96.42 160.96 96.42 282.08 113.73 282.08 113.73 271.45 106.22 271.45 106.22 171.58 113.73 171.58"/><polygon class="cls-5" points="258.37 98.21 145.14 98.21 67.57 161.57 186.43 161.57 258.37 98.21"/><polygon class="cls-12" points="185.18 161.57 329.06 161.57 257.12 98.21 185.18 161.57"/><path class="cls-20" d="M296.33,144.27l-38.59-32.4-55.46,48.62.83.94,54.65-47.91,38,31.9Q296,144.84,296.33,144.27Z"/></g></g></svg>