<svg version="1.1" id="el_yXKcmllds" xmlns="http://www.w3.org/2000/svg" xmlns:xlink="http://www.w3.org/1999/xlink" x="0px" y="0px" viewBox="0 0 183 293" style="enable-background:new 0 0 183.9 293.9;" xml:space="preserve"><style>@-webkit-keyframes kf_el_s7ZLZqqEpbI_an_uA2Cw1mlA {0% {opacity: 1;}4.44% {opacity: 0;}8.89% {opacity: 1;}13.33% {opacity: 0;}17.78% {opacity: 1;}22.22% {opacity: 0;}26.67% {opacity: 1;}31.11% {opacity: 0;}35.56% {opacity: 1;}40% {opacity: 0;}44.44% {opacity: 1;}48.89% {opacity: 0;}53.33% {opacity: 1;}57.78% {opacity: 0;}62.22% {opacity: 1;}66.67% {opacity: 0;}71.11% {opacity: 1;}75.56% {opacity: 0;}80% {opacity: 1;}84.44% {opacity: 0;}88.89% {opacity: 1;}93.33% {opacity: 0;}97.78% {opacity: 1;}100% {opacity: 1;}}@keyframes kf_el_s7ZLZqqEpbI_an_uA2Cw1mlA {0% {opacity: 1;}4.44% {opacity: 0;}8.89% {opacity: 1;}13.33% {opacity: 0;}17.78% {opacity: 1;}22.22% {opacity: 0;}26.67% {opacity: 1;}31.11% {opacity: 0;}35.56% {opacity: 1;}40% {opacity: 0;}44.44% {opacity: 1;}48.89% {opacity: 0;}53.33% {opacity: 1;}57.78% {opacity: 0;}62.22% {opacity: 1;}66.67% {opacity: 0;}71.11% {opacity: 1;}75.56% {opacity: 0;}80% {opacity: 1;}84.44% {opacity: 0;}88.89% {opacity: 1;}93.33% {opacity: 0;}97.78% {opacity: 1;}100% {opacity: 1;}}@-webkit-keyframes kf_el_7y2hhL_g6rY_an_TqdERadj9 {0% {opacity: 1;}2.22% {opacity: 0;}4.44% {opacity: 1;}6.67% {opacity: 0;}8.89% {opacity: 1;}11.11% {opacity: 0;}13.33% {opacity: 1;}15.56% {opacity: 0;}17.78% {opacity: 1;}20% {opacity: 0;}22.22% {opacity: 1;}24.44% {opacity: 0;}26.67% {opacity: 1;}28.89% {opacity: 0;}31.11% {opacity: 1;}33.33% {opacity: 0;}35.56% {opacity: 1;}37.78% {opacity: 0;}40% {opacity: 1;}42.22% {opacity: 0;}44.44% {opacity: 1;}46.67% {opacity: 0;}48.89% {opacity: 1;}51.11% {opacity: 0;}53.33% {opacity: 1;}55.56% {opacity: 0;}57.78% {opacity: 1;}60% {opacity: 0;}62.22% {opacity: 1;}64.44% {opacity: 0;}66.67% {opacity: 1;}68.89% {opacity: 0;}71.11% {opacity: 1;}73.33% {opacity: 0;}75.56% {opacity: 1;}77.78% {opacity: 0;}80% {opacity: 1;}82.22% {opacity: 0;}84.44% {opacity: 1;}86.67% {opacity: 0;}88.89% {opacity: 1;}91.11% {opacity: 0;}93.33% {opacity: 1;}95.56% {opacity: 0;}97.78% {opacity: 1;}100% {opacity: 0;}}@keyframes kf_el_7y2hhL_g6rY_an_TqdERadj9 {0% {opacity: 1;}2.22% {opacity: 0;}4.44% {opacity: 1;}6.67% {opacity: 0;}8.89% {opacity: 1;}11.11% {opacity: 0;}13.33% {opacity: 1;}15.56% {opacity: 0;}17.78% {opacity: 1;}20% {opacity: 0;}22.22% {opacity: 1;}24.44% {opacity: 0;}26.67% {opacity: 1;}28.89% {opacity: 0;}31.11% {opacity: 1;}33.33% {opacity: 0;}35.56% {opacity: 1;}37.78% {opacity: 0;}40% {opacity: 1;}42.22% {opacity: 0;}44.44% {opacity: 1;}46.67% {opacity: 0;}48.89% {opacity: 1;}51.11% {opacity: 0;}53.33% {opacity: 1;}55.56% {opacity: 0;}57.78% {opacity: 1;}60% {opacity: 0;}62.22% {opacity: 1;}64.44% {opacity: 0;}66.67% {opacity: 1;}68.89% {opacity: 0;}71.11% {opacity: 1;}73.33% {opacity: 0;}75.56% {opacity: 1;}77.78% {opacity: 0;}80% {opacity: 1;}82.22% {opacity: 0;}84.44% {opacity: 1;}86.67% {opacity: 0;}88.89% {opacity: 1;}91.11% {opacity: 0;}93.33% {opacity: 1;}95.56% {opacity: 0;}97.78% {opacity: 1;}100% {opacity: 0;}}@-webkit-keyframes kf_el_sqpP7Lvo_q_an_53iGCXNC8 {2.22% {opacity: 1;}4.44% {opacity: 0;}6.67% {opacity: 1;}8.89% {opacity: 0;}11.11% {opacity: 1;}13.33% {opacity: 0;}15.56% {opacity: 1;}17.78% {opacity: 0;}20% {opacity: 1;}22.22% {opacity: 0;}24.44% {opacity: 1;}26.67% {opacity: 0;}28.89% {opacity: 1;}31.11% {opacity: 0;}33.33% {opacity: 1;}35.56% {opacity: 0;}37.78% {opacity: 1;}40% {opacity: 0;}42.22% {opacity: 1;}44.44% {opacity: 0;}46.67% {opacity: 1;}48.89% {opacity: 0;}51.11% {opacity: 1;}53.33% {opacity: 0;}55.56% {opacity: 1;}57.78% {opacity: 0;}60% {opacity: 1;}62.22% {opacity: 0;}64.44% {opacity: 1;}66.67% {opacity: 0;}68.89% {opacity: 1;}71.11% {opacity: 0;}73.33% {opacity: 1;}75.56% {opacity: 0;}77.78% {opacity: 1;}80% {opacity: 0;}82.22% {opacity: 1;}84.44% {opacity: 0;}86.67% {opacity: 1;}88.89% {opacity: 0;}91.11% {opacity: 1;}93.33% {opacity: 0;}95.56% {opacity: 1;}97.78% {opacity: 0;}100% {opacity: 1;}0% {opacity: 1;}}@keyframes kf_el_sqpP7Lvo_q_an_53iGCXNC8 {2.22% {opacity: 1;}4.44% {opacity: 0;}6.67% {opacity: 1;}8.89% {opacity: 0;}11.11% {opacity: 1;}13.33% {opacity: 0;}15.56% {opacity: 1;}17.78% {opacity: 0;}20% {opacity: 1;}22.22% {opacity: 0;}24.44% {opacity: 1;}26.67% {opacity: 0;}28.89% {opacity: 1;}31.11% {opacity: 0;}33.33% {opacity: 1;}35.56% {opacity: 0;}37.78% {opacity: 1;}40% {opacity: 0;}42.22% {opacity: 1;}44.44% {opacity: 0;}46.67% {opacity: 1;}48.89% {opacity: 0;}51.11% {opacity: 1;}53.33% {opacity: 0;}55.56% {opacity: 1;}57.78% {opacity: 0;}60% {opacity: 1;}62.22% {opacity: 0;}64.44% {opacity: 1;}66.67% {opacity: 0;}68.89% {opacity: 1;}71.11% {opacity: 0;}73.33% {opacity: 1;}75.56% {opacity: 0;}77.78% {opacity: 1;}80% {opacity: 0;}82.22% {opacity: 1;}84.44% {opacity: 0;}86.67% {opacity: 1;}88.89% {opacity: 0;}91.11% {opacity: 1;}93.33% {opacity: 0;}95.56% {opacity: 1;}97.78% {opacity: 0;}100% {opacity: 1;}0% {opacity: 1;}}@-webkit-keyframes kf_el_0pxWeppXx9_an_Odn3jhwxX {0% {opacity: 1;}2.22% {opacity: 0;}4.44% {opacity: 1;}6.67% {opacity: 0;}8.89% {opacity: 1;}11.11% {opacity: 0;}13.33% {opacity: 1;}15.56% {opacity: 0;}17.78% {opacity: 1;}20% {opacity: 0;}22.22% {opacity: 1;}24.44% {opacity: 0;}26.67% {opacity: 1;}28.89% {opacity: 0;}31.11% {opacity: 1;}33.33% {opacity: 0;}35.56% {opacity: 1;}37.78% {opacity: 0;}40% {opacity: 1;}42.22% {opacity: 0;}44.44% {opacity: 1;}46.67% {opacity: 0;}48.89% {opacity: 1;}51.11% {opacity: 0;}53.33% {opacity: 1;}55.56% {opacity: 0;}57.78% {opacity: 1;}60% {opacity: 0;}62.22% {opacity: 1;}64.44% {opacity: 0;}66.67% {opacity: 1;}68.89% {opacity: 0;}71.11% {opacity: 1;}73.33% {opacity: 0;}75.56% {opacity: 1;}77.78% {opacity: 0;}80% {opacity: 1;}82.22% {opacity: 0;}84.44% {opacity: 1;}86.67% {opacity: 0;}88.89% {opacity: 1;}91.11% {opacity: 0;}93.33% {opacity: 1;}95.56% {opacity: 0;}97.78% {opacity: 1;}100% {opacity: 1;}}@keyframes kf_el_0pxWeppXx9_an_Odn3jhwxX {0% {opacity: 1;}2.22% {opacity: 0;}4.44% {opacity: 1;}6.67% {opacity: 0;}8.89% {opacity: 1;}11.11% {opacity: 0;}13.33% {opacity: 1;}15.56% {opacity: 0;}17.78% {opacity: 1;}20% {opacity: 0;}22.22% {opacity: 1;}24.44% {opacity: 0;}26.67% {opacity: 1;}28.89% {opacity: 0;}31.11% {opacity: 1;}33.33% {opacity: 0;}35.56% {opacity: 1;}37.78% {opacity: 0;}40% {opacity: 1;}42.22% {opacity: 0;}44.44% {opacity: 1;}46.67% {opacity: 0;}48.89% {opacity: 1;}51.11% {opacity: 0;}53.33% {opacity: 1;}55.56% {opacity: 0;}57.78% {opacity: 1;}60% {opacity: 0;}62.22% {opacity: 1;}64.44% {opacity: 0;}66.67% {opacity: 1;}68.89% {opacity: 0;}71.11% {opacity: 1;}73.33% {opacity: 0;}75.56% {opacity: 1;}77.78% {opacity: 0;}80% {opacity: 1;}82.22% {opacity: 0;}84.44% {opacity: 1;}86.67% {opacity: 0;}88.89% {opacity: 1;}91.11% {opacity: 0;}93.33% {opacity: 1;}95.56% {opacity: 0;}97.78% {opacity: 1;}100% {opacity: 1;}}#el_yXKcmllds * {-webkit-animation-duration: 3s;animation-duration: 3s;-webkit-animation-iteration-count: infinite;animation-iteration-count: infinite;-webkit-animation-play-state: running;animation-play-state: running;-webkit-animation-timing-function: cubic-bezier(0, 0, 1, 1);animation-timing-function: cubic-bezier(0, 0, 1, 1);}#el_mLyU9vMwYp {fill: #F4A086;}#el_0pxWeppXx9 {fill: #F18813;-webkit-animation-fill-mode: backwards;animation-fill-mode: backwards;opacity: 1;-webkit-animation-timing-function: cubic-bezier(0, 0, 1, 1);animation-timing-function: cubic-bezier(0, 0, 1, 1);}.card-grafik-usluge:hover #el_yXKcmllds #el_0pxWeppXx9 {-webkit-animation-name: kf_el_0pxWeppXx9_an_Odn3jhwxX;animation-name: kf_el_0pxWeppXx9_an_Odn3jhwxX;}#el_sqpP7Lvo_q {fill: #F18813;-webkit-animation-fill-mode: backwards;animation-fill-mode: backwards;opacity: 1;-webkit-animation-timing-function: cubic-bezier(0, 0, 1, 1);animation-timing-function: cubic-bezier(0, 0, 1, 1);}.card-grafik-usluge:hover #el_yXKcmllds #el_sqpP7Lvo_q {-webkit-animation-name: kf_el_sqpP7Lvo_q_an_53iGCXNC8;animation-name: kf_el_sqpP7Lvo_q_an_53iGCXNC8;}#el_t5jzTY0jS2 {fill: #FFFFFF;}#el_PBN_Jv5aaC {fill: #043C5E;}#el_HeZcw_moj4 {fill: #F8B68F;}#el_dpgrZCEAxh {fill: #043C5E;}#el_jMz1nRTWvE {fill: #F8B68F;}#el_JrrQRjmWht {fill: #01898C;}#el_LGC3KLOXGM {fill: #FFDB71;}#el_3uXNvzQXil {fill: #F4A086;}#el_Z954TCtYoq {fill: #63C1C5;}#el_I7eKkEQ429 {fill: #FFDB71;}#el_LR2Cuz4hlGV {fill: #212B53;}#el_8igAm0vQsY8 {fill: #F8B68F;}#el_-znI0kvlR5I {fill: #F8B68F;}#el_VtF66-ifuyS {fill: #212B53;}#el_K8FczmzIBwM {fill: #212B53;}#el_eUbBcCVbtXR {fill: #FFD247;}#el_QMIjrKwtycK {fill: #F8B68F;}#el_8dhqgtG2ysA {fill: #F8B68F;}#el_ekDTPJYNhYB {fill: #F8B68F;}#el_tpy8MrsuYkX {fill: #FFD247;}#el_wKx-xM6tpgF {fill: #FFD247;}#el_S1_gK9bF2vM {fill: #F8B68F;}#el_eYeIKNgsdGT {fill: #F8B68F;}#el_go3PmdQvS_F {fill: #F8B68F;}#el_Y7uzCtMuTNG {fill: #212B53;}#el_1jNRgqNZbpy {fill: #F8B68F;}#el_frSsAKbeiTH {fill: #01898C;}#el_AknmJR1qBqO {fill: #212B53;}#el_3PHoV0v2aLX {fill: #212B53;}#el_NLJxUNmiJmc {fill: #FFD247;}#el_DzjsB1WCj8n {fill: #F18813;-webkit-transform: matrix(0.9506, -0.3105, 0.3105, 0.9506, -6.0916, 14.3181);transform: matrix(0.9506, -0.3105, 0.3105, 0.9506, -6.0916, 14.3181);}#el_24nUbj4DcH7 {fill: #F18813;-webkit-transform: matrix(0.9854, -0.1702, 0.1702, 0.9854, -2.4771, 8.515);transform: matrix(0.9854, -0.1702, 0.1702, 0.9854, -2.4771, 8.515);}#el_aaLfFhugRkX {fill: #F18813;}#el_uN4SbIf6YCa {fill: #F18813;-webkit-transform: matrix(0.2731, -0.962, 0.962, 0.2731, 19.8715, 88.9238);transform: matrix(0.2731, -0.962, 0.962, 0.2731, 19.8715, 88.9238);}#el_01CDZJehnHO {fill: #F18813;-webkit-transform: matrix(0.5753, -0.8179, 0.8179, 0.5753, -19.2339, 123.1188);transform: matrix(0.5753, -0.8179, 0.8179, 0.5753, -19.2339, 123.1188);}#el_WfUEL7HE_Ek {fill: #F18813;-webkit-transform: matrix(0.4172, -0.9088, 0.9088, 0.4172, -10.6382, 151.4548);transform: matrix(0.4172, -0.9088, 0.9088, 0.4172, -10.6382, 151.4548);}#el_o-jEJcceEgp {fill: #F8B68F;}#el_wa_rHhRv-11 {fill: none;}#el_7y2hhL_g6rY {-webkit-animation-fill-mode: backwards;animation-fill-mode: backwards;opacity: 1;-webkit-animation-timing-function: cubic-bezier(0, 0, 1, 1);animation-timing-function: cubic-bezier(0, 0, 1, 1);}.card-grafik-usluge:hover #el_yXKcmllds #el_7y2hhL_g6rY {-webkit-animation-name: kf_el_7y2hhL_g6rY_an_TqdERadj9;animation-name: kf_el_7y2hhL_g6rY_an_TqdERadj9;}#el_s7ZLZqqEpbI {-webkit-animation-fill-mode: backwards;animation-fill-mode: backwards;opacity: 1;-webkit-animation-timing-function: cubic-bezier(0, 0, 1, 1);animation-timing-function: cubic-bezier(0, 0, 1, 1);}.card-grafik-usluge:hover #el_yXKcmllds #el_s7ZLZqqEpbI {-webkit-animation-name: kf_el_s7ZLZqqEpbI_an_uA2Cw1mlA;animation-name: kf_el_s7ZLZqqEpbI_an_uA2Cw1mlA;}</style><title>nezgoda</title><g id="el_2sj6Yptmm2"><g id="el_3bZx1b4Na-"><path d="M114.4,110c0-3.6,15.1-11.5,15.1-11.5L129,76.3c0,0-24.4,26.8-25.5,33.9s18.8,20.9,18.8,20.9l-2.2,3.5&#10;&#9;&#9;&#9;c-1.9,2.8-1.8,6.4,0.2,9.1l2.2,2.8l6.1-16.2C128.6,130.3,114.4,113.6,114.4,110z" id="el_mLyU9vMwYp"/><polygon points="155.9,18.6 156.4,58.2 168.9,42.9 170.6,81.7 183.9,15.6 167.5,30.7 171.5,5.5 &#9;&#9;" id="el_0pxWeppXx9"/><polygon points="26.7,38.2 25.8,76 14,61.2 12,98.2 0,35 15.5,49.6 11.9,25.5 &#9;&#9;" id="el_sqpP7Lvo_q"/><polygon points="143.6,74.1 132.9,74.1 128.4,143.5 147.7,143.5 &#9;&#9;" id="el_t5jzTY0jS2"/><path d="M163.4,277.9c0,0,2.6,2.1,2.2,4.8s-1.2,8.9-1.2,8.9h-2.7l0.1-5.8c0-0.4-5.9,5.8-6.8,5.8h-14.4&#10;&#9;&#9;&#9;c0,0-1-3.9,7.5-5.2S163.4,277.9,163.4,277.9z" id="el_PBN_Jv5aaC"/><path d="M157.1,275.2l-2,5.1c-0.5,1.4-1.4,2.6-2.7,3.4c-2.1,1.3-4.4,2.4-6.7,3.1c3.9,3.4,10.2-0.1,13.7-2.6&#10;&#9;&#9;&#9;c1.7-1.2,3-3,3.5-5.1l0.8-3.9L157.1,275.2z" id="el_HeZcw_moj4"/><path d="M135.9,277.9c0,0,2.6,2.1,2.2,4.8s-1.2,8.9-1.2,8.9h-2.7l0.1-5.8c0-0.4-5.9,5.8-6.8,5.8h-14.4&#10;&#9;&#9;&#9;c0,0-1-3.9,7.5-5.2S135.9,277.9,135.9,277.9z" id="el_dpgrZCEAxh"/><path d="M129.6,275.2l-2,5.1c-0.5,1.4-1.4,2.6-2.7,3.4c-2.1,1.3-4.4,2.4-6.7,3.1c3.9,3.4,10.2-0.1,13.7-2.6&#10;&#9;&#9;&#9;c1.7-1.2,3-3,3.5-5.1l0.8-3.9L129.6,275.2z" id="el_jMz1nRTWvE"/><path d="M151.9,143.5c0,0,1.8,10.4-8.6,61.4c8.4,26.6-5.1,71-5.1,71h-9.8l-6.7-132.4L151.9,143.5z" id="el_JrrQRjmWht"/><path d="M134.1,74.1l-3.5,84.2l-11.5-4.9c0,0,5.2-15.8,4.7-37.8c1.8-15.9-7.2-7.5,3.8-38.1&#10;&#9;&#9;&#9;C131.7,74.1,134.1,74.1,134.1,74.1z" id="el_LGC3KLOXGM"/><path d="M133.6,66.7l-0.2,7.2c-0.1,2.5,1.9,4.6,4.4,4.6c0.5,0,1.1-0.1,1.6-0.2l5.3-1.9L140.6,56L133.6,66.7z" id="el_3uXNvzQXil"/><path d="M161.3,143.5c0,0,12.9,10.4,2.5,61.4c8.4,26.6,1,71,1,71H156l-24.8-132.4H161.3z" id="el_Z954TCtYoq"/><path d="M143.6,66.9c0,0,10.9,6.1,14.2,11.5c3.2,5.2,4.3,17,4.6,27.5c0.4,14.4,7.4,52.3,7.4,52.3h-29.1l-0.7-82.5&#10;&#9;&#9;&#9;L143.6,66.9z" id="el_I7eKkEQ429"/><path d="M128.1,43.7c6.8-0.2,11.5,7.7,11.5,7.7l0.5,26.9l11.8-6.7c0,0,0.5-18.3-4.4-30.2c-3.8-7.4-14-7.8-20.4-2.8&#10;&#9;&#9;&#9;c-3.1,2.4-4.5,6.4-5.1,10.2c-0.8,5.1,1.5,32.1,1.5,32.1l9.9-5.5c0.2-2.9,0.2-5.8,0.1-8.7C133.2,57,123.6,43.8,128.1,43.7z" id="el_LR2Cuz4hlGV"/><path d="M141.6,51.4c-1.1-0.5-2.4-0.2-3.1,0.8c-0.8,0.7-0.9,2-0.1,2.8c0.1,0.1,0.1,0.1,0.2,0.2&#10;&#9;&#9;&#9;c1.1,0.5,2.4,0.2,3.1-0.8c0.8-0.7,0.9-2,0.1-2.8C141.8,51.6,141.7,51.5,141.6,51.4z" id="el_8igAm0vQsY8"/><path d="M130.9,67.4c-1.1,0.2-2.2,0.1-3.2-0.3c-4.7-5.3-3.1-21.9-3.1-21.9l5.5-3.7l8.4,3.9l2.2,10.6&#10;&#9;&#9;&#9;c0.6,2.8-0.2,5.8-2.1,7.9l0,0C136.3,65.8,133.7,67,130.9,67.4z" id="el_-znI0kvlR5I"/><path d="M126.7,43c-0.6,5,12.9,8.4,12.9,8.4l2.2-6.4l-7-6.1l-7.1,2.4C127.2,41.8,126.9,42.4,126.7,43z" id="el_VtF66-ifuyS"/><path d="M126.8,44c0,1.9-2.5,4.7-2.5,4.7l-0.7-2.2l0.4-1.7l1.4-1.1C125.5,43.7,126.8,42.1,126.8,44z" id="el_K8FczmzIBwM"/><polygon points="44.1,110 30,118.9 24.1,106.6 42.2,85.8 &#9;&#9;" id="el_eUbBcCVbtXR"/><g id="el_0wlFOtbelId"><polygon points="118.2,27.7 101,72.6 90,64.5 114.6,23.1 &#9;&#9;&#9;" id="el_QMIjrKwtycK"/><path d="M119.2,12.4c-1.4,1.1-2.3,2.7-2.5,4.4l-2.1,6.3l0.7,1.2l3,3.4c0.1-0.9,0.6-1.7,1.2-2.4l4.7-5.2&#10;&#9;&#9;&#9;&#9;c0,0,7.7-9,0.5-12c4.2-8.3,1.2-8.1,1.2-8.1L122,7.1L119.2,12.4z" id="el_8dhqgtG2ysA"/><path d="M120.3,14.1c0,0-1.6-1.5-0.2-4.9s-0.7-3.2-0.7-3.2s-5.7,13.5-3.9,15.1S120.3,14.1,120.3,14.1z" id="el_ekDTPJYNhYB"/><path d="M101,72.6c-0.8,1.5-1.7,3.1-2.5,4.6C92.9,87,86.7,96.5,80,105.6c-5.4-2.8-9.1-8.5-9.1-15.1&#10;&#9;&#9;&#9;&#9;c0-3,0.8-5.8,2.2-8.3l1,0.1l5.8-6.8l11.7-13.6L101,72.6z" id="el_tpy8MrsuYkX"/></g><path d="M80,105.6c-0.1,0.1-0.2,0.3-0.3,0.4c-0.7,3.5-4.5,38.1-4.5,38.1H44.8c0,0,4.8-25.4-3.7-39.6&#10;&#9;&#9;&#9;c-8.5-14.2,27.8-22.6,27.8-22.6l4.1,0.3c-1.4,2.5-2.2,5.3-2.2,8.3C70.9,97,74.6,102.7,80,105.6z" id="el_wKx-xM6tpgF"/><path d="M45.6,216c0,0,0.2,70.7,0.2,70.3s4.6,0,4.6,0s6.7-37,8.2-53.6s0-17.8,0-17.8L45.6,216z" id="el_S1_gK9bF2vM"/><path d="M60.3,216c0,0,0.2,70.7,0.2,70.3s4.6,0,4.6,0s6.7-37,8.2-53.6s0-17.8,0-17.8L60.3,216z" id="el_eYeIKNgsdGT"/><path d="M69.7,46.9l-18.4,6.4l1.8,13.7c0,0.2,0.1,0.4,0.1,0.6c0.3,0.1,0.7,0.1,1.1,0.2h0.2h0.2c4.2,1,7.3,4.6,8.6,8.6&#10;&#9;&#9;&#9;c2.6,0.5,5.4,0.4,8-0.1c1.8-0.4,3.4-0.9,4.2-1.8C79.2,66.2,69.7,46.9,69.7,46.9z" id="el_go3PmdQvS_F"/><path d="M70.2,58.4c-1.7,3.3-1.9,7.2-0.4,10.6c2.5,5.3,2.3,11.2,0.6,14.5c-1.1,2.2-4.1,4.4-6.8,6.1&#10;&#9;&#9;&#9;c-2.8,1.7-4.6,4.6-4.9,7.9c-0.4,4.5-0.8,10-4.7,11.3c-11.1,3.9-15.2,3.5-16.7-5.8c-0.4-3.1-0.1-6.2,1-9.1c1.4-4,1.3-8.3-0.4-12.2&#10;&#9;&#9;&#9;c-1.1-2.5-2.1-5.3-2.1-7.3c0-2.1,1.9-5.1,3.9-7.6c2.5-3.2,3.7-7.2,3.3-11.2c-0.4-4,0.2-9.1,4.3-12.6c7.6-6.5,24.5,3.7,24.5,3.7&#10;&#9;&#9;&#9;S73.5,51.8,70.2,58.4z" id="el_Y7uzCtMuTNG"/><path d="M24.1,106.6l-6.8,7c-4.5,4.6-5.9,11.1-0.5,14.7l22,17.5l-2,3.8c-1.7,3.2-1.4,7.1,0.8,10l2.3,3l5.2-17.7&#10;&#9;&#9;&#9;l-16-20c-1.5-1.5-1.5-3.9,0.1-5.4c0.2-0.2,0.5-0.4,0.8-0.6l0,0L24.1,106.6z" id="el_1jNRgqNZbpy"/><path d="M75.2,144.1c0,0,4.4,11.5,4.4,23.2c0,6.4-5.6,54.8-5.6,54.8H45.2c2-35.7-8.9-40.1-8.9-55.6&#10;&#9;&#9;&#9;c0-10.9,8.5-22.4,8.5-22.4L75.2,144.1z" id="el_frSsAKbeiTH"/><path d="M45.7,280.9c0,0-2.5,2-2.1,4.5s1.1,8.5,1.1,8.5h2.6l-0.1-5.5c0-0.4,5.6,5.5,6.5,5.5h13.7c0,0,0.9-3.7-7.2-4.9&#10;&#9;&#9;&#9;S45.7,280.9,45.7,280.9z" id="el_AknmJR1qBqO"/><path d="M60.4,280.9c0,0-2.5,2-2.1,4.5s1.1,8.5,1.1,8.5h2.6l-0.1-5.5c0-0.4,5.6,5.5,6.5,5.5h13.7c0,0,0.9-3.7-7.2-4.9&#10;&#9;&#9;&#9;S60.4,280.9,60.4,280.9z" id="el_3PHoV0v2aLX"/><path d="M44.1,216" id="el_NLJxUNmiJmc"/><g id="el_7y2hhL_g6rY"><rect x="41.2" y="15.8" width="1.5" height="21" id="el_DzjsB1WCj8n"/><rect x="47.7" y="2" width="1.5" height="33.5" id="el_24nUbj4DcH7"/><rect x="59.6" y="11" width="1.5" height="25.2" id="el_aaLfFhugRkX"/><rect x="62.7" y="30.6" width="12.1" height="1.5" id="el_uN4SbIf6YCa"/></g><g id="el_s7ZLZqqEpbI"><rect x="100.6" y="79.3" width="16.7" height="1.5" id="el_01CDZJehnHO"/><rect x="108.4" y="83.3" width="8.7" height="1.5" id="el_WfUEL7HE_Ek"/></g><path d="M159.4,106c0.4,2.3,0,4.6-0.9,6.7c-1.6,3.6-24.6,19.6-24.6,19.6l-3.4,4.4c-1.4,2.6-3.1,8.3-5.8,9.6&#10;&#9;&#9;&#9;c0,0-7.3,3.8-8.3,0.2c3.9-9.2,13.8-15.3,13.8-15.3l17.9-19.9c-1.4-9.9-6.1-21.3-4-28.6s11.1-6.9,13.1-0.3S159.4,106,159.4,106z" id="el_o-jEJcceEgp"/></g></g><line x1="87.5" y1="111.1" x2="87.8" y2="111.2" id="el_wa_rHhRv-11"/></svg>