<svg xmlns="http://www.w3.org/2000/svg" viewBox="0 0 183.88 293.91"><defs><style>.cls-1{fill:#f4a086;}.cls-2{fill:#f18813;}.cls-3{fill:#fff;}.cls-4{fill:#043c5e;}.cls-5{fill:#f8b68f;}.cls-6{fill:#01898c;}.cls-7{fill:#ffdb71;}.cls-8{fill:#63c1c5;}.cls-9{fill:#212b53;}.cls-10{fill:#ffd247;}</style></defs><title>nezgoda</title><g id="Layer_2" data-name="Layer 2"><g id="_ÎÓÈ_1" data-name="—ÎÓÈ_1"><path class="cls-1" d="M114.37,110c0-3.57,15.13-11.54,15.13-11.54L129,76.33s-24.38,26.77-25.51,33.91,18.84,20.86,18.84,20.86l-2.24,3.47a7.78,7.78,0,0,0,.25,9.11l2.16,2.79,6.14-16.17S114.37,113.55,114.37,110Z"/><polygon class="cls-2" points="155.88 18.61 156.41 58.22 168.92 42.88 170.65 81.67 183.88 15.63 167.53 30.67 171.52 5.52 155.88 18.61"/><polygon class="cls-2" points="26.73 38.15 25.83 75.99 14.03 61.21 11.99 98.25 0 35.03 15.48 49.56 11.91 25.49 26.73 38.15"/><polygon class="cls-3" points="143.64 74.08 132.9 74.06 128.45 143.48 147.7 143.48 143.64 74.08"/><path class="cls-4" d="M163.36,277.86s2.65,2.09,2.17,4.75-1.18,8.89-1.18,8.89h-2.73l.08-5.81c0-.38-5.85,5.81-6.84,5.81H140.42s-1-3.92,7.52-5.18S163.36,277.86,163.36,277.86Z"/><path class="cls-5" d="M157.1,275.21l-2,5.1a6.55,6.55,0,0,1-2.67,3.39,25.64,25.64,0,0,1-6.74,3.06c3.92,3.35,10.17-.15,13.74-2.62a8.74,8.74,0,0,0,3.49-5.06l.82-3.86Z"/><path class="cls-4" d="M135.85,277.86s2.65,2.09,2.17,4.75-1.18,8.89-1.18,8.89h-2.73l.08-5.81c0-.38-5.85,5.81-6.84,5.81H112.91s-1-3.92,7.52-5.18S135.85,277.86,135.85,277.86Z"/><path class="cls-5" d="M129.59,275.21l-2,5.1a6.55,6.55,0,0,1-2.67,3.39,25.64,25.64,0,0,1-6.74,3.06c3.92,3.35,10.17-.15,13.74-2.62a8.74,8.74,0,0,0,3.49-5.06l.82-3.86Z"/><path class="cls-6" d="M151.88,143.48s1.8,10.38-8.57,61.37c8.4,26.58-5.05,71-5.05,71h-9.81l-6.68-132.42Z"/><path class="cls-7" d="M134.08,74.07,130.6,158.3l-11.54-4.94s5.2-15.81,4.71-37.78c1.77-15.89-7.25-7.52,3.79-38.1C131.67,74.06,134.08,74.07,134.08,74.07Z"/><path class="cls-1" d="M133.63,66.71l-.21,7.23a4.52,4.52,0,0,0,6,4.39l5.27-1.88L140.58,56Z"/><path class="cls-8" d="M161.32,143.48s12.85,10.38,2.47,61.37c8.4,26.58,1,71,1,71H156L131.21,143.48Z"/><path class="cls-7" d="M143.64,66.94S154.49,73,157.86,78.47c3.21,5.19,4.32,17,4.63,27.5.42,14.43,7.39,52.33,7.39,52.33H140.81l-.72-82.52Z"/><path class="cls-9" d="M128.13,43.68c6.78-.21,11.5,7.74,11.5,7.74l.52,26.86L152,71.55s.54-18.33-4.37-30.21c-3.76-7.37-14-7.76-20.36-2.8-3.08,2.41-4.48,6.38-5.08,10.18-.8,5.1,1.48,32.12,1.48,32.12l9.88-5.46a70.08,70.08,0,0,0,.07-8.67C133.24,57,123.58,43.82,128.13,43.68Z"/><path class="cls-5" d="M141.65,51.44a2.38,2.38,0,0,0-3.06.82,2,2,0,0,0,.07,3,2.38,2.38,0,0,0,3.06-.82A2,2,0,0,0,141.65,51.44Z"/><path class="cls-5" d="M130.9,67.38a5.24,5.24,0,0,1-3.23-.29c-4.69-5.28-3.14-21.89-3.14-21.89L130,41.49l8.38,3.88L140.58,56a9.07,9.07,0,0,1-2.13,7.91h0A14.56,14.56,0,0,1,130.9,67.38Z"/><path class="cls-9" d="M126.74,43c-.62,5,12.9,8.4,12.9,8.4L141.81,45l-7-6.12-7.11,2.39A4.27,4.27,0,0,0,126.74,43Z"/><path class="cls-9" d="M126.83,44c0,1.92-2.49,4.68-2.49,4.68l-.65-2.19.4-1.69,1.36-1.09S126.78,42.11,126.83,44Z"/><polygon class="cls-10" points="44.07 109.96 30.02 118.92 24.09 106.57 42.24 85.76 44.07 109.96"/><polygon class="cls-5" points="118.23 27.68 101.02 72.63 90.04 64.46 114.58 23.08 118.23 27.68"/><path class="cls-5" d="M119.22,12.42a7.09,7.09,0,0,0-2.53,4.38l-2.11,6.27.67,1.18,3,3.42a4.52,4.52,0,0,1,1.17-2.35l4.68-5.24s7.68-9,.51-12c4.2-8.32,1.19-8.1,1.19-8.1L122,7.13Z"/><path class="cls-5" d="M120.3,14.06s-1.55-1.46-.17-4.93-.71-3.23-.71-3.23-5.74,13.53-3.9,15.06S120.3,14.06,120.3,14.06Z"/><path class="cls-10" d="M68.92,81.87l5.15.4,17.5-20.4L101,72.63A285.65,285.65,0,0,1,79.66,106c-.72,3.45-4.48,38.13-4.48,38.13H44.84s4.83-25.45-3.71-39.61S68.92,81.87,68.92,81.87Z"/><path class="cls-5" d="M45.58,216s.16,70.69.16,70.32,4.58,0,4.58,0,6.73-37,8.22-53.64,0-17.78,0-17.78Z"/><path class="cls-5" d="M60.31,216s.16,70.69.16,70.32,4.58,0,4.58,0,6.73-37,8.22-53.64,0-17.78,0-17.78Z"/><path class="cls-5" d="M69.69,46.87,51.27,53.31l1.82,13.75c0,.19.08.38.11.57.35.06.71.13,1.06.22l.17,0,.17,0c4.25,1,7.26,4.56,8.61,8.62a21.74,21.74,0,0,0,8-.1c1.8-.37,3.43-.94,4.19-1.81C79.25,66.17,69.69,46.87,69.69,46.87Z"/><path class="cls-9" d="M70.16,58.44A12.12,12.12,0,0,0,69.79,69c2.5,5.3,2.28,11.25.62,14.51-1.14,2.22-4.11,4.45-6.75,6.09a10.41,10.41,0,0,0-4.89,7.88c-.41,4.47-.84,10-4.67,11.28C43,112.62,38.91,112.25,37.43,103a18.83,18.83,0,0,1,1-9.08A16.23,16.23,0,0,0,38,81.75c-1.11-2.54-2.1-5.34-2.1-7.26,0-2.1,1.92-5.05,3.94-7.57a15.57,15.57,0,0,0,3.27-11.16c-.36-4,.2-9.13,4.27-12.61,7.6-6.48,24.45,3.72,24.45,3.72S73.5,51.78,70.16,58.44Z"/><path class="cls-5" d="M24.09,106.57l-6.75,7c-4.48,4.64-5.87,11.1-.48,14.65l22.05,17.51-2,3.8a9.25,9.25,0,0,0,.81,10L40,162.55l5.16-17.71-16-20a3.83,3.83,0,0,1,.83-6h0Z"/><path class="cls-6" d="M75.18,144.08s4.45,11.53,4.45,23.21c0,6.42-5.56,54.82-5.56,54.82H45.18c2-35.74-8.88-40.13-8.88-55.58,0-10.9,8.54-22.45,8.54-22.45Z"/><path class="cls-9" d="M45.74,280.93s-2.53,2-2.06,4.52,1.12,8.46,1.12,8.46h2.6l-.08-5.53c0-.36,5.57,5.53,6.51,5.53H67.57s.91-3.73-7.16-4.93S45.74,280.93,45.74,280.93Z"/><path class="cls-9" d="M60.42,280.93s-2.53,2-2.06,4.52,1.12,8.46,1.12,8.46h2.6L62,288.38c0-.36,5.57,5.53,6.51,5.53H82.25s.91-3.73-7.16-4.93S60.42,280.93,60.42,280.93Z"/><path class="cls-10" d="M44.07,216"/><rect class="cls-2" x="41.17" y="15.81" width="1.51" height="20.96" transform="translate(-6.09 14.32) rotate(-18.09)"/><rect class="cls-2" x="47.67" y="1.98" width="1.51" height="33.46" transform="translate(-2.48 8.51) rotate(-9.8)"/><rect class="cls-2" x="59.56" y="11.04" width="1.51" height="25.21"/><rect class="cls-2" x="62.72" y="30.56" width="12.11" height="1.51" transform="translate(19.87 88.92) rotate(-74.15)"/><rect class="cls-2" x="100.58" y="79.33" width="16.73" height="1.51" transform="translate(-19.24 123.12) rotate(-54.88)"/><rect class="cls-2" x="108.44" y="83.28" width="8.67" height="1.51" transform="translate(-10.65 151.45) rotate(-65.34)"/><path class="cls-5" d="M159.41,106a11.79,11.79,0,0,1-.91,6.73c-1.6,3.55-24.58,19.62-24.58,19.62l-3.35,4.41c-1.4,2.64-3.08,8.33-5.78,9.62,0,0-7.35,3.76-8.32.18,3.86-9.22,13.8-15.32,13.8-15.32l17.89-19.87c-1.39-9.91-6.11-21.28-4-28.62s11.1-6.9,13.13-.29S159.41,106,159.41,106Z"/></g></g></svg>