<svg xmlns="http://www.w3.org/2000/svg" xmlns:xlink="http://www.w3.org/1999/xlink" viewBox="0 0 418.63 195.78"><defs><style>.cls-1{fill:url(#_ÂÁ_Ï_ÌÌ_È_ËÂÌÚ_4);}.cls-2{fill:url(#_ÂÁ_Ï_ÌÌ_È_ËÂÌÚ_4-2);}.cls-3{fill:url(#_ÂÁ_Ï_ÌÌ_È_ËÂÌÚ_4-3);}.cls-4{fill:#63c1c5;}.cls-5{fill:#01898c;}.cls-6{fill:url(#_ÂÁ_Ï_ÌÌ_È_ËÂÌÚ_4-4);}.cls-7{fill:#212b53;}.cls-8{fill:#f8b68f;}.cls-9{fill:#043c5e;}.cls-10{fill:#f4a086;}.cls-11{fill:#b0d9c8;}.cls-12{fill:url(#_ÂÁ_Ï_ÌÌ_È_ËÂÌÚ_2);}.cls-13{fill:url(#_ÂÁ_Ï_ÌÌ_È_ËÂÌÚ_2-2);}.cls-14{fill:url(#_ÂÁ_Ï_ÌÌ_È_ËÂÌÚ_2-3);}.cls-15{fill:url(#_ÂÁ_Ï_ÌÌ_È_ËÂÌÚ_2-4);}</style><linearGradient id="_ÂÁ_Ï_ÌÌ_È_ËÂÌÚ_4" x1="299.09" y1="54.97" x2="401.93" y2="54.97" gradientUnits="userSpaceOnUse"><stop offset="0" stop-color="#e0f0eb"/><stop offset="1" stop-color="#c0e4ef"/></linearGradient><linearGradient id="_ÂÁ_Ï_ÌÌ_È_ËÂÌÚ_4-2" x1="369.2" y1="30.63" x2="539.19" y2="30.63" gradientTransform="translate(-369.2)" xlink:href="#_ÂÁ_Ï_ÌÌ_È_ËÂÌÚ_4"/><linearGradient id="_ÂÁ_Ï_ÌÌ_È_ËÂÌÚ_4-3" x1="112.33" y1="117.23" x2="375.17" y2="117.23" gradientTransform="translate(-33.2 73.41) rotate(-18.65)" xlink:href="#_ÂÁ_Ï_ÌÌ_È_ËÂÌÚ_4"/><linearGradient id="_ÂÁ_Ï_ÌÌ_È_ËÂÌÚ_4-4" x1="58.65" y1="124.41" x2="373.48" y2="124.41" gradientTransform="translate(-33.2 73.41) rotate(-18.65)" xlink:href="#_ÂÁ_Ï_ÌÌ_È_ËÂÌÚ_4"/><linearGradient id="_ÂÁ_Ï_ÌÌ_È_ËÂÌÚ_2" x1="754" y1="101.42" x2="786.47" y2="101.42" gradientTransform="matrix(-1, 0, 0, 1, 808.86, 0)" gradientUnits="userSpaceOnUse"><stop offset="0" stop-color="#f1f8f8"/><stop offset="1" stop-color="#c0e4ef"/></linearGradient><linearGradient id="_ÂÁ_Ï_ÌÌ_È_ËÂÌÚ_2-2" x1="754" y1="111.24" x2="780.19" y2="111.24" xlink:href="#_ÂÁ_Ï_ÌÌ_È_ËÂÌÚ_2"/><linearGradient id="_ÂÁ_Ï_ÌÌ_È_ËÂÌÚ_2-3" x1="592.4" y1="23.92" x2="632.54" y2="23.92" gradientTransform="matrix(-1, 0, 0, 1, 902.76, 0)" xlink:href="#_ÂÁ_Ï_ÌÌ_È_ËÂÌÚ_2"/><linearGradient id="_ÂÁ_Ï_ÌÌ_È_ËÂÌÚ_2-4" x1="584.2" y1="25.01" x2="632.29" y2="25.01" gradientTransform="matrix(-1, 0, 0, 1, 902.76, 0)" xlink:href="#_ÂÁ_Ï_ÌÌ_È_ËÂÌÚ_2"/></defs><title>putno</title><g id="Layer_2" data-name="Layer 2"><g id="_ÎÓÈ_1" data-name="—ÎÓÈ_1"><path class="cls-1" d="M299.35,57.11C295.6,73.41,334,75.51,349.87,75.68a62.18,62.18,0,0,0,13.06-1.24c13.39-2.72,42.71-9.85,38.6-19.55-5.3-12.51-21.24-3.79-21.24-3.79s2-9.45-25.12-15.69-27,14.55-27,14.55S304.06,36.64,299.35,57.11Z"/><path class="cls-2" d="M10.52,55.89c26.39,3.88,87.87,10.43,148.19-1.19a14.79,14.79,0,0,0,9.9-6.65c2.64-4.31,1.72-8-4.74-13.53-4.93-4.19-10.73-3.82-15-2.61a5.07,5.07,0,0,1-6.34-3.86c-1-4.7-4.14-10.86-13.11-14.49s-14.41,1.89-17.64,7.5a2.51,2.51,0,0,1-4.53-.46C104.44,11.74,94.68,0,62.64,0,21.86,0,26.41,21.69,30.06,30.69a2.08,2.08,0,0,1-2.36,2.82c-6.29-1.34-18-3.09-23.19,1q-.34.27-.67.56C-3.67,41.86.52,54.41,10.52,55.89Z"/><polygon class="cls-3" points="374.24 107.49 218.46 79.32 146.89 88.53 98.74 113.08 374.24 107.49"/><polyline class="cls-4" points="374.24 107.49 106.99 127.25 98.74 113.08"/><polygon class="cls-5" points="114.21 171.81 114.7 172.22 130.46 195.78 373.63 107.72 114.21 171.81"/><polygon class="cls-6" points="59.7 165.28 85.18 124.97 372.51 107.62 143.66 177.34 59.7 165.28"/><path class="cls-7" d="M180.63,115.85s.08,2.55,5.26,3.95c1.06.29.73.61.94,1l-5.91.16-2.38-2.54-.7.64-1.71-1.59s.71-2.39,2-2.45Z"/><path class="cls-8" d="M181.53,113.62l-.9,2.24h0a2.32,2.32,0,0,1-2.42-.66l-.11-.12.71-2.3Z"/><path class="cls-7" d="M206.67,116.15a14.72,14.72,0,0,0,6.12,2.61c.93.21,1.92-.13,2,1.39l-5.1.14-4.26-.62,0,.73-2.29.06s-.74-3.73.58-4.24Z"/><path class="cls-8" d="M206.14,113.47l.52,2.68h0a2.59,2.59,0,0,1-2.8.17l-.16-.09.15-2.7Z"/><path class="cls-7" d="M195.42,58.55a81.2,81.2,0,0,0-6,23,18.2,18.2,0,0,1-2.86,8c-4.51,6.82-8.21,23.7-8.21,23.7l3.26.83,21.95-37.46-.65-17.77Z"/><path class="cls-9" d="M198,58.68s-1.64,12.11,1.87,23.88a15.59,15.59,0,0,1,.47,6.59c-1.14,8.3,3.17,25.19,3.17,25.19l3.06-.08,3.81-54.93Z"/><path class="cls-8" d="M197.86,36.66s-4.93-.84-4.22-4S203.21,18,203.21,18l7.16-1s-.41,1.75-4.91,2.66S197.86,36.66,197.86,36.66Z"/><path class="cls-10" d="M204.54,20.09c-.45-.68-.89-1.37-1.33-2.07h0l7.16-1s-.41,1.75-4.91,2.66A2.61,2.61,0,0,0,204.54,20.09Z"/><polygon class="cls-10" points="204.83 25.8 204.52 31.02 199.44 29.56 200.62 25.38 204.83 25.8"/><path class="cls-8" d="M204.64,16.78s4,5.7,3,9.12c-1.15,1.74-6.13-.5-6.13-.5l-.22-7.87Z"/><path class="cls-7" d="M205.38,16.93A4.72,4.72,0,0,0,203.21,18c-.91.86,0,4.21,0,4.21l.07,1.19a2.6,2.6,0,0,1-2.53,2.76h-.1s-6.56-6.18-4-9.17C201.2,12.62,205.38,16.93,205.38,16.93Z"/><path class="cls-8" d="M204.26,22.06a1.07,1.07,0,0,0-.77-1.08c-.51-.18-1,0-1.06.42a1.07,1.07,0,0,0,.77,1.08C203.7,22.66,204.17,22.47,204.26,22.06Z"/><path class="cls-7" d="M206.61,15.66c0,.88-.93,1.62-2.13,1.66s-5.39-.57-5.41-1.45,4.12-1.71,5.32-1.74S206.58,14.78,206.61,15.66Z"/><path class="cls-5" d="M195.42,58.55s-6-31.8,7-29.55c12.71,2.19,7.89,30.34,7.89,30.34Z"/><path class="cls-8" d="M201.33,31.73s-8,10.45-6.67,13.27,12.4,14.06,13,14.69c1,1.32-.48,6.52,2.66,4.53s.45-5.54-.3-6.35l-8.38-12.93,4.59-6.56Z"/><path class="cls-4" d="M198.8,35l5.64,6,2.15-2.32a5.49,5.49,0,0,0,1.24-5.57,4.56,4.56,0,0,0-1.17-1.8l-.07-.06a3.71,3.71,0,0,0-5.42.56Z"/><polygon class="cls-11" points="24.66 104.91 21.02 112.08 28.67 110.33 54.86 102.08 24.66 104.91"/><polygon class="cls-4" points="21.02 112.08 34.02 111.27 30.84 109.65 21.02 112.08"/><polygon class="cls-12" points="24.66 104.91 22.39 97.92 54.86 102.08 24.66 104.91"/><polygon class="cls-13" points="54.86 102.08 28.67 110.33 32.58 120.4 54.86 102.08"/><path class="cls-4" d="M23.89,119.29a.61.61,0,0,1-.12-1,17.18,17.18,0,0,1,2.57-1.85.61.61,0,1,1,.62,1.05,15.92,15.92,0,0,0-2.39,1.72A.61.61,0,0,1,23.89,119.29Z"/><path class="cls-4" d="M32.6,186.37l0,0a18.42,18.42,0,0,1-4.81-4.16.61.61,0,0,1,.94-.78,17.21,17.21,0,0,0,4.49,3.89.61.61,0,0,1-.59,1.07Zm-6.75-7.08a.6.6,0,0,1-.25-.24,23.09,23.09,0,0,1-2.34-5.88.61.61,0,1,1,1.19-.29,21.89,21.89,0,0,0,2.22,5.57.61.61,0,0,1-.81.85ZM23,169.91a.61.61,0,0,1-.33-.5l0-.3a29.52,29.52,0,0,1,.31-6,.61.61,0,0,1,1.21.18,28.24,28.24,0,0,0-.3,5.75l0,.28a.61.61,0,0,1-.89.59Zm1-9.78a.61.61,0,0,1-.31-.7,45.6,45.6,0,0,1,2-5.92.61.61,0,0,1,1.13.47,44.54,44.54,0,0,0-2,5.76.61.61,0,0,1-.75.43Zm3.55-9.21a.61.61,0,0,1-.27-.81l.2-.4a19.89,19.89,0,0,1-2.67-1.49.61.61,0,0,1,.68-1,18.56,18.56,0,0,0,2.55,1.42c.66-1.26,1.38-2.57,2.2-4a.61.61,0,0,1,1.06.61c-.79,1.36-1.49,2.63-2.13,3.84q.86.33,1.74.58a.61.61,0,1,1-.33,1.18,20.56,20.56,0,0,1-2-.66l-.23.46a.61.61,0,0,1-.82.28Zm-5.53-5a.59.59,0,0,1-.16-.12,16.59,16.59,0,0,1-3.5-5.33.61.61,0,0,1,1.13-.46,15.37,15.37,0,0,0,3.25,4.94.61.61,0,0,1-.72,1Zm12.09,5.57a.61.61,0,0,1,.33-1.15,17.88,17.88,0,0,0,5.93-.46.61.61,0,1,1,.3,1.19,19.11,19.11,0,0,1-6.33.49A.61.61,0,0,1,34.16,151.45ZM17.68,137.19a.61.61,0,0,1-.33-.44,19.79,19.79,0,0,1-.06-6.35.61.61,0,0,1,1.21.18,18.55,18.55,0,0,0,.06,6,.61.61,0,0,1-.88.65Zm26.08,12.48a.61.61,0,0,1,0-1.09,14.86,14.86,0,0,0,1.33-.77,11.85,11.85,0,0,0,3.13-3,.61.61,0,1,1,1,.71,13.06,13.06,0,0,1-3.46,3.3,16,16,0,0,1-1.44.83A.61.61,0,0,1,43.76,149.67Zm-11.3-7.36-.05,0a.61.61,0,0,1-.18-.85,23.87,23.87,0,0,1,4-4.91.61.61,0,1,1,.82.91,22.7,22.7,0,0,0-3.78,4.66A.61.61,0,0,1,32.46,142.31Zm-14-14.87a.61.61,0,0,1-.3-.74A20.83,20.83,0,0,1,19.33,124a19.84,19.84,0,0,1,1.83-2.94.61.61,0,0,1,1,.74,18.69,18.69,0,0,0-1.72,2.76,19.61,19.61,0,0,0-1.06,2.51.61.61,0,0,1-.78.38ZM50,142.4a.61.61,0,0,1-.32-.69,5.52,5.52,0,0,0-.4-4,5,5,0,0,0-.84-1.15.61.61,0,1,1,.88-.85,6.21,6.21,0,0,1,1,1.44,6.79,6.79,0,0,1,.5,4.88.61.61,0,0,1-.74.45ZM39.4,135.46a.61.61,0,0,1,0-1.1,9.87,9.87,0,0,1,6.45-.61.61.61,0,1,1-.3,1.19,8.75,8.75,0,0,0-5.63.53A.61.61,0,0,1,39.4,135.46Z"/><path class="cls-4" d="M36.05,187.87a.61.61,0,0,1,.45-1.13,13.11,13.11,0,0,0,2.88.49.61.61,0,1,1-.07,1.22,14.35,14.35,0,0,1-3.14-.53Z"/><polygon class="cls-14" points="270.22 30.84 291.39 19.16 302.2 16.99 310.37 18.19 270.22 30.84"/><polyline class="cls-11" points="270.22 30.84 309.86 20.65 310.37 18.19"/><polygon class="cls-4" points="311 27.45 310.94 27.53 309.28 33.69 270.32 30.84 311 27.45"/><polygon class="cls-15" points="318.56 23.84 312.91 19.25 270.48 30.77 307 29.69 318.56 23.84"/><path class="cls-4" d="M407.74,102.39a29.66,29.66,0,0,1-3.81-1.66.58.58,0,1,0-.53,1,30.85,30.85,0,0,0,4,1.72q.73.26,1.47.48a.58.58,0,1,0,.33-1.1Q408.45,102.64,407.74,102.39Z"/><path class="cls-4" d="M330.15,19.55c-1.8.23-3.67.53-5.72.91a.58.58,0,0,0,.21,1.13c2-.38,3.88-.67,5.66-.9a.58.58,0,0,0-.15-1.14Z"/><path class="cls-4" d="M339.76,20a.58.58,0,0,0-.34-1c-1.85,0-3.8.06-5.81.23a.58.58,0,0,0,.1,1.15c2-.16,3.89-.24,5.7-.22A.57.57,0,0,0,339.76,20Z"/><path class="cls-4" d="M396.63,95.45a.57.57,0,0,0-.81,0,.57.57,0,0,0,0,.81,32.09,32.09,0,0,0,4.55,3.69.58.58,0,0,0,.66,0,.55.55,0,0,0,.14-.14A.58.58,0,0,0,401,99,31.11,31.11,0,0,1,396.63,95.45Z"/><path class="cls-4" d="M394.25,93.76a.58.58,0,0,0,.08-.81q-.49-.6-.95-1.22a29.86,29.86,0,0,1-2.21-3.46.58.58,0,0,0-.78-.23.58.58,0,0,0-.23.78,31,31,0,0,0,2.3,3.59q.48.64,1,1.26a.58.58,0,0,0,.79.1Z"/><path class="cls-4" d="M389.4,86l.12-.07a.58.58,0,0,0,.19-.68A39.31,39.31,0,0,1,388,79.82a.58.58,0,1,0-1.12.28,40.12,40.12,0,0,0,1.8,5.55A.58.58,0,0,0,389.4,86Z"/><path class="cls-4" d="M374.13,36.82q.72.88,1.4,1.79c.68.92,1.33,1.87,1.93,2.82a.58.58,0,0,0,.79.18l0,0a.58.58,0,0,0,.14-.77c-.61-1-1.28-2-2-2.9q-.69-.93-1.43-1.83a.55.55,0,0,0-.81-.08A.58.58,0,0,0,374.13,36.82Z"/><path class="cls-4" d="M379.15,44.39a42,42,0,0,1,2.28,5.2.58.58,0,0,0,.74.35l.15-.08a.58.58,0,0,0,.2-.66,43,43,0,0,0-2.35-5.34.58.58,0,1,0-1,.53Z"/><path class="cls-4" d="M367.7,30.4a46.84,46.84,0,0,1,4.17,3.87.58.58,0,0,0,.76.07l.06,0a.58.58,0,0,0,0-.81,48.18,48.18,0,0,0-4.27-4,.58.58,0,0,0-.73.89Z"/><path class="cls-4" d="M357.08,23.84a.58.58,0,0,0,.47-1.05,45.58,45.58,0,0,0-5.47-2,.58.58,0,1,0-.33,1.1A44.49,44.49,0,0,1,357.08,23.84Z"/><path class="cls-4" d="M385.46,68a.58.58,0,0,0,.51-.64l-.08-.72c-.19-1.67-.38-3.34-.6-5a.58.58,0,0,0-1.14.15c.22,1.66.41,3.32.6,5l.08.72A.58.58,0,0,0,385.46,68Z"/><path class="cls-4" d="M365,28.33a.58.58,0,1,0,.66-.94,47.84,47.84,0,0,0-5-3.06.58.58,0,0,0-.54,1A46.5,46.5,0,0,1,365,28.33Z"/><path class="cls-4" d="M385.73,70.32a.57.57,0,0,0-.5.64c.28,2.24.56,4.06.87,5.73a.58.58,0,0,0,1.13-.21c-.31-1.64-.58-3.44-.86-5.66A.58.58,0,0,0,385.73,70.32Z"/><path class="cls-4" d="M412.46,103.66a.58.58,0,0,0-.22,1.13,46.5,46.5,0,0,0,5.78.75.58.58,0,1,0,.08-1.15A45.8,45.8,0,0,1,412.46,103.66Z"/><path class="cls-4" d="M382.86,52.13a.58.58,0,0,0-.41.71c.45,1.69.84,3.52,1.19,5.58a.58.58,0,1,0,1.14-.19c-.35-2.1-.75-4-1.21-5.68A.58.58,0,0,0,382.86,52.13Z"/><path class="cls-4" d="M344.93,19.29q-1-.12-2-.2a.58.58,0,0,0-.09,1.15q1,.07,2,.19c1.22.14,2.45.35,3.65.6a.58.58,0,1,0,.24-1.13C347.44,19.65,346.18,19.44,344.93,19.29Z"/></g></g></svg>