<svg 
 xmlns="http://www.w3.org/2000/svg"
 xmlns:xlink="http://www.w3.org/1999/xlink"
 width="17px" height="15px">
<path fill-rule="evenodd"  fill="rgb(238, 235, 227)"
 d="M0.956,6.084 L0.929,6.090 L12.305,6.090 L8.729,2.283 C8.554,2.097 8.458,1.845 8.458,1.581 C8.458,1.317 8.554,1.067 8.729,0.880 L9.285,0.288 C9.460,0.103 9.693,0.000 9.942,0.000 C10.191,0.000 10.424,0.102 10.599,0.288 L16.729,6.800 C16.905,6.986 17.001,7.235 17.000,7.499 C17.001,7.765 16.905,8.013 16.729,8.200 L10.599,14.712 C10.424,14.897 10.191,15.000 9.942,15.000 C9.693,15.000 9.460,14.897 9.285,14.712 L8.729,14.121 C8.554,13.935 8.458,13.688 8.458,13.423 C8.458,13.159 8.554,12.924 8.729,12.739 L12.345,8.910 L0.943,8.910 C0.431,8.910 0.000,8.441 0.000,7.896 L0.000,7.060 C0.000,6.516 0.443,6.084 0.956,6.084 Z"/>
</svg>