<svg xmlns="http://www.w3.org/2000/svg" xmlns:xlink="http://www.w3.org/1999/xlink" viewBox="0 0 703.18 357.77"><defs><style>.cls-1{fill:#faa525;}.cls-2{fill:#fff;}.cls-3{fill:#118c8c;}.cls-4{fill:#006769;}.cls-5{fill:#ffd052;}.cls-6{fill:url(#_ÂÁ_Ï_ÌÌ_È_ËÂÌÚ_3);}.cls-7{fill:url(#_ÂÁ_Ï_ÌÌ_È_ËÂÌÚ_3-2);}.cls-8{fill:#004060;}.cls-9{fill:url(#_ÂÁ_Ï_ÌÌ_È_ËÂÌÚ_3-3);}.cls-10{fill:url(#_ÂÁ_Ï_ÌÌ_È_ËÂÌÚ_7);}.cls-11{fill:#58c4c5;}.cls-12{fill:url(#_ÂÁ_Ï_ÌÌ_È_ËÂÌÚ_7-2);}.cls-13{fill:url(#_ÂÁ_Ï_ÌÌ_È_ËÂÌÚ_7-3);}.cls-14{fill:url(#_ÂÁ_Ï_ÌÌ_È_ËÂÌÚ_7-4);}.cls-15{fill:url(#_ÂÁ_Ï_ÌÌ_È_ËÂÌÚ_7-5);}.cls-16{fill:#fab08a;}.cls-17{fill:#f79c82;}.cls-18{fill:#1c2c57;}.cls-19{fill:#083b5e;}.cls-20{fill:#ffd874;}.cls-21{fill:url(#_ÂÁ_Ï_ÌÌ_È_ËÂÌÚ_3-4);}.cls-22{fill:#f68b27;}.cls-23{fill:url(#_ÂÁ_Ï_ÌÌ_È_ËÂÌÚ_3-5);}.cls-24{fill:url(#_ÂÁ_Ï_ÌÌ_È_ËÂÌÚ_3-6);}.cls-25{fill:#85cfc5;}.cls-26{fill:url(#_ÂÁ_Ï_ÌÌ_È_ËÂÌÚ_7-6);}.cls-27{fill:#f89b4b;}.cls-28{fill:#fcb44f;}.cls-29{fill:#ef4366;}.cls-30{fill:#a2d7c5;}</style><linearGradient id="_ÂÁ_Ï_ÌÌ_È_ËÂÌÚ_3" x1="245.02" y1="66.63" x2="369.81" y2="66.63" gradientTransform="translate(212.89)" gradientUnits="userSpaceOnUse"><stop offset="0" stop-color="#d6ede5"/><stop offset="1" stop-color="#b1e1ea"/></linearGradient><linearGradient id="_ÂÁ_Ï_ÌÌ_È_ËÂÌÚ_3-2" x1="246.04" y1="55.42" x2="440.62" y2="55.42" gradientTransform="translate(-84.18)" xlink:href="#_ÂÁ_Ï_ÌÌ_È_ËÂÌÚ_3"/><linearGradient id="_ÂÁ_Ï_ÌÌ_È_ËÂÌÚ_3-3" x1="94.38" y1="156.51" x2="259.16" y2="156.51" gradientTransform="matrix(1, 0, 0, 1, 0, 0)" xlink:href="#_ÂÁ_Ï_ÌÌ_È_ËÂÌÚ_3"/><linearGradient id="_ÂÁ_Ï_ÌÌ_È_ËÂÌÚ_7" x1="311.11" y1="82.31" x2="341.83" y2="225.67" gradientUnits="userSpaceOnUse"><stop offset="0" stop-color="#b1e1ea"/><stop offset="1" stop-color="#d6ede5"/></linearGradient><linearGradient id="_ÂÁ_Ï_ÌÌ_È_ËÂÌÚ_7-2" x1="425.95" y1="136.8" x2="456.67" y2="357.44" xlink:href="#_ÂÁ_Ï_ÌÌ_È_ËÂÌÚ_7"/><linearGradient id="_ÂÁ_Ï_ÌÌ_È_ËÂÌÚ_7-3" x1="136.04" y1="293.46" x2="357.6" y2="293.46" xlink:href="#_ÂÁ_Ï_ÌÌ_È_ËÂÌÚ_7"/><linearGradient id="_ÂÁ_Ï_ÌÌ_È_ËÂÌÚ_7-4" x1="534.77" y1="155.22" x2="562.7" y2="328.38" xlink:href="#_ÂÁ_Ï_ÌÌ_È_ËÂÌÚ_7"/><linearGradient id="_ÂÁ_Ï_ÌÌ_È_ËÂÌÚ_7-5" x1="518.66" y1="157.82" x2="546.59" y2="330.97" xlink:href="#_ÂÁ_Ï_ÌÌ_È_ËÂÌÚ_7"/><linearGradient id="_ÂÁ_Ï_ÌÌ_È_ËÂÌÚ_3-4" x1="851.44" y1="256.49" x2="853.12" y2="256.49" gradientTransform="matrix(-1, 0, 0, 1, 1166.56, 0)" xlink:href="#_ÂÁ_Ï_ÌÌ_È_ËÂÌÚ_3"/><linearGradient id="_ÂÁ_Ï_ÌÌ_È_ËÂÌÚ_3-5" x1="70.79" y1="244.5" x2="92.57" y2="244.5" gradientTransform="matrix(-1, 0, 0, 1, 177.02, 0)" xlink:href="#_ÂÁ_Ï_ÌÌ_È_ËÂÌÚ_3"/><linearGradient id="_ÂÁ_Ï_ÌÌ_È_ËÂÌÚ_3-6" x1="88.78" y1="247.37" x2="111" y2="247.37" gradientTransform="matrix(-1, 0, 0, 1, 177.02, 0)" xlink:href="#_ÂÁ_Ï_ÌÌ_È_ËÂÌÚ_3"/><linearGradient id="_ÂÁ_Ï_ÌÌ_È_ËÂÌÚ_7-6" x1="101.17" y1="250.17" x2="121.19" y2="250.17" gradientTransform="matrix(-1, 0, 0, 1, 177.02, 0)" xlink:href="#_ÂÁ_Ï_ÌÌ_È_ËÂÌÚ_7"/></defs><title>imovina</title><g id="Layer_2" data-name="Layer 2"><g id="_ÎÓÈ_1" data-name="—ÎÓÈ_1"><path class="cls-1" d="M155.57,226.48s28.76-89.88-24.38-134.11c-103.93,57.9-46.71,160-46.71,160Z"/><path class="cls-2" d="M131.18,92.37l-1.07.61-6.35,111L74.17,155.52q-.37,1.1-.72,2.2l50.15,49-1.83,32,2.12-.77,3.65-63.86h0l34.65-20.38c-.09-.74-.19-1.49-.3-2.23l-34.21,20.12,4.49-78.43c-.33-.28-.65-.57-1-.86Z"/><path class="cls-3" d="M131,205.9S97.37,118,31.71,109.4c-47.58,63.86,15.57,127.75,15.57,127.75L123.18,269Z"/><path class="cls-4" d="M94.86,146.91l-18.92,37.2L33.26,109.64c-.52-.08-1-.17-1.55-.23l-.54.75L54,150l-38-7.76c-.08.36-.16.72-.23,1.07l-.19,1,39.78,8.12,38.1,66.47L26.4,207.42c.41.78.82,1.56,1.23,2.31l67.21,11.51,27.05,47.2,1.28.54.25-2L77.18,186.26,96.33,148.6Z"/><path class="cls-5" d="M108.52,244.92S43.16,201.36,0,231.69C6.24,339.24,143.47,338.9,143.47,338.9Z"/><path class="cls-2" d="M0,231.69c0,.41.06.82.08,1.23l92.8,52L39.23,306.73q1,.73,1.95,1.45l54-21.94,36.25,20.31-1.12-3L59.76,264,47.6,221.68l-2.23-.25,11.82,41.13L1,231c-.32.22-.64.42-1,.65Z"/><path class="cls-1" d="M547.61,226.48S518.85,136.6,572,92.37c103.93,57.9,46.71,160,46.71,160Z"/><path class="cls-2" d="M572,92.37l1.07.61,6.35,111L629,155.52q.37,1.1.72,2.2l-50.15,49,1.83,32-2.12-.77-3.65-63.86h0L541,153.76c.09-.74.19-1.49.3-2.23l34.21,20.12L571,93.22c.33-.28.65-.57,1-.86Z"/><path class="cls-3" d="M572.18,205.9s33.63-87.9,99.29-96.5C719,173.26,655.9,237.15,655.9,237.15L580,269Z"/><path class="cls-4" d="M608.31,146.91l18.92,37.2,42.69-74.47c.52-.08,1-.17,1.55-.23l.54.75L649.15,150l38-7.76c.08.36.15.72.23,1.07l.19,1-39.78,8.12-38.1,66.47,67.1-11.49c-.41.78-.82,1.56-1.23,2.31l-67.21,11.51-27.05,47.2L580,269l-.25-2L626,186.26,606.85,148.6Z"/><path class="cls-5" d="M594.65,244.92S660,201.36,703.18,231.69C696.94,339.24,559.7,338.9,559.7,338.9Z"/><path class="cls-2" d="M703.18,231.69c0,.41-.06.82-.08,1.23l-92.8,52,53.65,21.79q-1,.73-1.95,1.45l-54-21.94-36.25,20.31,1.12-3L643.42,264l12.16-42.31,2.23-.25L646,262.55,702.21,231c.32.22.64.42,1,.65Z"/><path class="cls-6" d="M458.23,69.23C453.68,89,500.32,91.55,519.54,91.77a75.45,75.45,0,0,0,15.85-1.51c16.25-3.3,51.83-12,46.84-23.72-6.44-15.18-25.78-4.6-25.78-4.6s2.43-11.46-30.48-19S493.2,60.57,493.2,60.57,463.94,44.39,458.23,69.23Z"/><path class="cls-7" d="M161.86,86h190s10.3-13,0-21.81c-5.69-4.84-12.4-4.34-17.28-2.92a5.69,5.69,0,0,1-7-4.45c-1.16-5.36-4.72-12.37-14.94-16.52-10.06-4.08-16.43,2.15-20.11,8.54a2.86,2.86,0,0,1-5.17-.53c-3.19-10.1-14.31-23.48-50.83-23.48-46.45,0-41.29,24.69-37.14,35A2.37,2.37,0,0,1,196.67,63c-7.17-1.53-20.46-3.52-26.43,1.17C161.86,70.77,161.86,86,161.86,86Z"/><rect class="cls-8" x="105.32" y="238.01" width="283.01" height="107.92"/><rect class="cls-4" x="70.64" y="72.43" width="202.02" height="168.14"/><rect class="cls-3" x="271.72" y="72.43" width="250.89" height="168.14"/><rect class="cls-9" x="94.38" y="87.91" width="164.78" height="137.2"/><rect class="cls-2" x="150.51" y="132.23" width="59.04" height="1.86" transform="translate(-40.78 170.42) rotate(-46.07)"/><rect class="cls-2" x="142.13" y="160.38" width="59.04" height="1.86" transform="translate(-63.62 173) rotate(-46.07)"/><rect class="cls-10" x="290.81" y="88.91" width="72.61" height="136.2"/><polygon class="cls-2" points="343.64 122.89 313.88 153.78 315.22 155.07 343.64 125.57 343.64 122.89"/><polygon class="cls-2" points="313.85 173.26 313.85 175.94 343.64 145.02 343.64 142.34 313.85 173.26"/><rect class="cls-11" x="382.74" y="119.29" width="216.91" height="226.64"/><rect class="cls-12" x="405.08" y="139.41" width="71.22" height="206.52"/><rect class="cls-2" x="415.36" y="216.22" width="59.04" height="1.86" transform="translate(-20.17 386.88) rotate(-46.07)"/><rect class="cls-2" x="406.98" y="244.37" width="59.04" height="1.86" transform="translate(-43 389.47) rotate(-46.07)"/><rect class="cls-13" x="136.04" y="254.96" width="221.57" height="77"/><polygon class="cls-2" points="260.95 264.94 229.86 297.21 231.2 298.5 263.54 264.94 260.95 264.94"/><polygon class="cls-2" points="233.84 315.21 263.78 284.13 262.44 282.84 231.26 315.21 233.84 315.21"/><rect class="cls-14" x="507.49" y="150.65" width="63.3" height="63.3"/><rect class="cls-15" x="507.49" y="253.11" width="63.3" height="63.3"/><polygon class="cls-2" points="553.27 157.17 522.18 189.44 523.52 190.73 555.85 157.17 553.27 157.17"/><polygon class="cls-2" points="526.16 207.44 556.1 176.37 554.76 175.07 523.58 207.44 526.16 207.44"/><polygon class="cls-2" points="553.15 259.63 522.05 291.9 523.39 293.19 555.73 259.63 553.15 259.63"/><polygon class="cls-2" points="526.04 309.9 555.98 278.82 554.64 277.53 523.45 309.9 526.04 309.9"/><polygon class="cls-16" points="499.66 235.98 515.52 258.47 510.07 260.33 495 249.39 495.68 241.78 499.66 235.98"/><path class="cls-17" d="M492.57,226.36l2.79-4.08,4.94,2.57-1.68,5.48-.15.07A15.73,15.73,0,0,0,492.57,226.36Z"/><path class="cls-16" d="M495.92,212.42,494.54,220a1.19,1.19,0,0,1,.7,1.72,1.44,1.44,0,0,1,0,.58,8.83,8.83,0,0,0,6.31,3.12c5,.2,4.24-9.64,4.24-9.64Z"/><path class="cls-18" d="M492.21,217.49a4.72,4.72,0,0,0-.71-2.36c-2.14-3,.66-4.08,1.64-4.43s1.3-2.14,2.74-2.81c2.21-1,3.65.91,4.89,1s2.36-1.35,3.9-.11,1,2.56,1.45,3.27,1.82-.64,3.08,1.57c1.93,3.36-3.4,3.36-3.4,3.36a9.41,9.41,0,0,1-6.35-1.8,1.23,1.23,0,0,0-1.5,0c-1.15,1-2.63,7.24-2.63,7.24l-1-1.3S491.78,220,492.21,217.49Z"/><circle class="cls-16" cx="496.08" cy="218.58" r="1.18" transform="translate(-28.25 80.91) rotate(-9.07)"/><path class="cls-4" d="M498.64,229.81c3.33,13.31-.75,47.57-.75,47.57l-27.62.29s-.93-46.46,21.66-51.91A5.54,5.54,0,0,1,498.64,229.81Z"/><path class="cls-18" d="M443.88,320.49s-2.27,2.45-3.7,8c-.31,1.23.11,2.56-1.92,2.56V324.3l1-5.64h-1v-3s5-.85,5.62.93Z"/><path class="cls-16" d="M447.46,319.89l-3.58.6h0a3.45,3.45,0,0,1-.13-3.73l.13-.21,3.58-.88Z"/><path class="cls-18" d="M490.5,347s0,3.8,7.66,6.09c1.57.47,1.06.93,1.35,1.59h-8.79l-3.44-3.87-1.07.92-2.48-2.44s1.16-3.53,3-3.56Z"/><path class="cls-16" d="M491.93,343.67,490.5,347h0a3.45,3.45,0,0,1-3.57-1.09l-.16-.19,1.15-3.39Z"/><path class="cls-18" d="M469.91,276.83s.33,13.22,4.65,23.06a5.18,5.18,0,0,1-3.67,7.19c-15.59,3.26-24.38,8.51-24.38,8.51v5.36l36.36-5a12.78,12.78,0,0,0,11-11.35L495,293.37Z"/><path class="cls-8" d="M496.1,277.13s12.57,23.57,12.57,30.88-16.91,35.83-16.91,35.83h-4.84s.86-18.07,4.13-33a8.55,8.55,0,0,0-2.46-8.07c-10.28-9.65-18.43-25.59-18.43-25.59Z"/><path class="cls-11" d="M469.13,273.85c.64-2.65,7.51-32.78-7.1-44.52-28.45,10-27.35,40.32-25.08,54.64Z"/><path class="cls-3" d="M450.68,279.65l6-25.65,13.85-8.71q-.07-.41-.14-.82l-13.47,8.47,5.45-23.33-.33-.28h0l-.43.16-9,38.51-13.32-16.91-.32.84,13.41,17-2.56,11Z"/><path class="cls-3" d="M543.53,251.64s21.94,12,20.88,26.63c-26.52,13.88-46.05-18.88-46.05-18.88Z"/><path class="cls-4" d="M564.41,278.27l-.31.16-25.66-14.69,2.47,15.9-.62-.26-2.49-16-10-5.74.88-.16,19.51,11.17L560,265.49l.38.5L548.89,269l15.54,8.9c0,.11,0,.21,0,.32Z"/><path class="cls-5" d="M493.59,265.68s28.64,20.25,22.76,45.27c-43.81,6.06-49.65-37-49.65-37Z"/><path class="cls-2" d="M516.35,310.95l-.45.06-26.72-31.54L485.3,305l-.7-.49,3.92-25.77-7.71-9.1.8-.25L497,287.49h0l14.85-1.7.41.73-14.66,1.68,18.88,22.28c0,.16-.06.32-.1.47Z"/><path class="cls-8" d="M520,259.5s7.08-19.66-4.32-29.87c-23.46,12-11.61,35-11.61,35Z"/><path class="cls-18" d="M515.68,229.63l-.24.13-2.29,24.51-10.59-11.12-.18.48,10.7,11.25-.66,7.07.47-.15,1.32-14.1h0l7.83-4.23c0-.17,0-.33,0-.5l-7.73,4.18,1.62-17.32-.21-.2Z"/><path class="cls-19" d="M415.46,292.61h0a2.34,2.34,0,0,1,1.53-2.93l128.78-40.52a2.34,2.34,0,0,1,2.93,1.53h0a2.34,2.34,0,0,1-1.53,2.93L418.39,294.13A2.34,2.34,0,0,1,415.46,292.61Z"/><path class="cls-16" d="M479.09,240l10,6.16-7.18,8.23-1,23.39L477,277s-6.06-18.06-4.85-24.28S479.09,240,479.09,240Z"/><path class="cls-16" d="M480.85,277.78l0,4.64a3.83,3.83,0,0,1-.64,2.09c-.78,1.17-2.16,2.89-3.44,2.64-1.91-.37-4.16-4.78-4.16-4.78L477,277Z"/><polygon class="cls-16" points="319.3 239.24 312.26 251.74 320.01 251.38 320.56 238.84 319.3 239.24"/><polygon class="cls-2" points="330.35 233.71 323.85 233.7 321.15 273.3 332.8 273.3 330.35 233.71"/><path class="cls-8" d="M342.28,350s1.61,1.19,1.31,2.71-.71,5.07-.71,5.07h-1.65l.05-3.31c0-.22-3.54,3.31-4.14,3.31H328.4s-.58-2.24,4.55-3S342.28,350,342.28,350Z"/><path class="cls-16" d="M338.49,348.45l-1.19,2.91a3.78,3.78,0,0,1-1.61,1.93,16,16,0,0,1-4.08,1.75c2.38,1.91,6.15-.08,8.32-1.5a5,5,0,0,0,2.11-2.89l.5-2.2Z"/><path class="cls-8" d="M325.63,350s1.61,1.19,1.31,2.71-.71,5.07-.71,5.07h-1.65l.05-3.31c0-.22-3.54,3.31-4.14,3.31h-8.74s-.58-2.24,4.55-3S325.63,350,325.63,350Z"/><path class="cls-16" d="M321.84,348.45l-1.18,2.91a3.78,3.78,0,0,1-1.61,1.93A16,16,0,0,1,315,355c2.38,1.91,6.15-.08,8.32-1.5a5,5,0,0,0,2.11-2.89l.5-2.2Z"/><path class="cls-18" d="M335.33,273.3s1.09,5.92-5.19,35c5.08,15.16-3.06,40.53-3.06,40.53h-5.93l-4-75.55Z"/><path class="cls-20" d="M324.56,233.71l-2.11,48.05-7-2.82a67,67,0,0,0,2.85-21.55c1.07-9.06-4.39-4.29,2.3-21.74C323.1,233.7,324.56,233.71,324.56,233.71Z"/><path class="cls-17" d="M323.65,228.74l.82,4.05a2.77,2.77,0,0,0,4.14,1.7l2.87-1.69-5.12-10.91Z"/><path class="cls-19" d="M341,273.3s7.77,5.92,1.49,35c5.08,15.16.6,40.53.6,40.53h-5.33l-15-75.55Z"/><path class="cls-20" d="M330.35,229.63s6.56,3.48,8.6,6.58,2.62,9.69,2.8,15.69c.26,8.23,4.47,29.86,4.47,29.86H328.63l-.44-47.08Z"/><path class="cls-8" d="M317.4,216.59c4-1,7.81,2.89,7.81,2.89l3,15.2,4.6-6.69s.26-9.09-4.19-15.11c-3.19-3.64-9.3-2.6-12.39.95a8.57,8.57,0,0,0-1.67,6.29c.2,2.94,1.08,19.82,1.08,19.82l9.11-6.36a38,38,0,0,0-1.09-4.84C322.15,223.37,314.72,217.23,317.4,216.59Z"/><path class="cls-16" d="M326.39,219.25a1.46,1.46,0,0,0-1.7.84,1.13,1.13,0,0,0,.43,1.65,1.46,1.46,0,0,0,1.7-.84A1.13,1.13,0,0,0,326.39,219.25Z"/><path class="cls-16" d="M322.12,229.45a3.35,3.35,0,0,1-1.95.24c-3.46-2.36-4.71-11.81-4.71-11.81l2.74-2.74,5.46,1.13,2.69,5.62a4.91,4.91,0,0,1-.22,4.67h0A8.77,8.77,0,0,1,322.12,229.45Z"/><path class="cls-8" d="M316.48,216.39c.28,2.86,8.72,3.09,8.72,3.09l.44-3.87-4.92-2.55-3.89,2.21A2.34,2.34,0,0,0,316.48,216.39Z"/><path class="cls-8" d="M316.67,216.95c.28,1.06-.86,2.92-.86,2.92l-.67-1.14,0-1,.66-.77S316.39,215.88,316.67,216.95Z"/><path class="cls-16" d="M337.15,236.21c8.51.94,4.49,21.64,2.66,30.14a3.84,3.84,0,0,1-4.88,2.73c-7.41-2.2-18.23-11.35-18.23-11.35l1.72-2,14.37,3.16S327.29,235.13,337.15,236.21Z"/><path class="cls-2" d="M320.13,250.83l2.78,16.22a.79.79,0,0,1-.81.9h-11a.81.81,0,0,1-.81-.65l-2.73-16.22a.79.79,0,0,1,.81-.89h11A.81.81,0,0,1,320.13,250.83Z"/><path class="cls-16" d="M307.91,258a6.69,6.69,0,0,1,.19-2.11c.26-1.53.19-3.94,1.86-2.74a7.63,7.63,0,0,1,1.75,3.83,4.4,4.4,0,0,1-1,3.43l-1.14,2.35A6.56,6.56,0,0,1,307.91,258Z"/><ellipse class="cls-21" cx="314.27" cy="256.49" rx="0.84" ry="0.79"/><path class="cls-16" d="M283.54,220a4.85,4.85,0,0,0-.23,3.65l.71,4.74.86.55,3.21,1.25a3.08,3.08,0,0,1,0-1.9l1.41-4.9s2.19-8.27-3.76-7.92c0-6.74-2-5.62-2-5.62l-.14,5.82Z"/><path class="cls-20" d="M268.72,236.39s4.16,15,7.72,15.25,7.24-23.73,7.24-23.73l4.83.55s1.88,34.52-9,35.14-12.26-7-12.26-7Z"/><path class="cls-1" d="M268.27,277.35H239.93V236.77c8.1-11.65,18.19-8.47,18.19-8.47s9.18.16,10.61,8.09C268.72,242.13,268.27,277.35,268.27,277.35Z"/><path class="cls-17" d="M255.26,223.25l-.37,5,.18.16a4.84,4.84,0,0,0,6.29.08h0l.08-3.78Z"/><path class="cls-16" d="M253.3,212.74l.45,8.31a1.3,1.3,0,0,1,1.22,1.63,1.48,1.48,0,0,1,.15.61A10.58,10.58,0,0,0,263,225c5.58-1,2.21-11.18,2.21-11.18Z"/><path class="cls-18" d="M250.5,219a5,5,0,0,0-1.41-2.3c-3.16-2.58-.33-4.46.67-5.06s.89-2.57,2.33-3.63c2.19-1.62,4.31.06,5.71-.19s2.28-2,4.32-1.07,1.82,2.44,2.47,3.08,1.86-1.12,3.85.89c3,3.06-2.91,4.37-2.91,4.37a11.39,11.39,0,0,1-7.56-.32,1.47,1.47,0,0,0-1.67.38c-1,1.32-1,8.26-1,8.26l-1.44-1.13S250.69,221.78,250.5,219Z"/><path class="cls-16" d="M253.85,219.67a1.38,1.38,0,0,0,1.77.7,1.25,1.25,0,0,0,.74-1.67,1.38,1.38,0,0,0-1.77-.7A1.25,1.25,0,0,0,253.85,219.67Z"/><path class="cls-18" d="M240.4,352.47s1.17,1.53,6.69,2.85c1.21.29,2.52.49,2.52,2.38h-5.45l-5.57-.91v.91h-3s-.84-4.64.92-5.23Z"/><path class="cls-16" d="M240.68,349.14l-.29,3.33h0a3.58,3.58,0,0,1-3.68.12l-.21-.12v-3.33Z"/><path class="cls-18" d="M261.89,352.47s1.17,1.53,6.69,2.85c1.21.29,2.52.49,2.52,2.38h-5.44l-5.57-.91v.91h-3s-.84-4.64.92-5.23Z"/><path class="cls-16" d="M262.17,349.14l-.29,3.33h0a3.58,3.58,0,0,1-3.68.12l-.21-.12v-3.33Z"/><path class="cls-1" d="M239.95,236.77s-8.49,18.48,2.34,27.92,25.55,7.83,25.55,7.83V267.2s-13.3-1.06-17.56-9.44,1.7-15.64,1.7-15.64"/><path class="cls-16" d="M267,271.8l6.78.13c2.75-.14,4.59-4,5-6.9a.61.61,0,0,0-.82-.63c-2.3.75-8.22,2.73-9.76,3.63Z"/><path class="cls-4" d="M268.27,277.35c5.73,26.38-5.83,72.32-5.83,72.32h-5.38s2.48-70.64-7.32-72.32Z"/><path class="cls-20" d="M248.77,252.17a13.74,13.74,0,0,0,1.51,5.59c4.26,8.38,18.25,9.49,18.25,9.49v5.38s-15.41,1.5-26.24-7.94c-3.93-3.42-5.31-8-5.48-12.52Z"/><path class="cls-22" d="M248.84,253l-.89-.38a16.54,16.54,0,0,1,3.38-10.92l.67.5A15.6,15.6,0,0,0,248.84,253Z"/><path class="cls-16" d="M284.85,220.72s-1.56-.44-1.81-3.13-1.59-1.86-1.59-1.86.7,10.6,2.49,11S284.85,220.72,284.85,220.72Z"/><path class="cls-3" d="M257.79,277.35c2.3,27.59-16.38,72.32-16.38,72.32h-5.73s5-28.6,5.13-55.44a135.24,135.24,0,0,0-.88-16.87Z"/><path class="cls-18" d="M86.33,352.07s1.07,1.48,6.09,2.76c1.11.28,2.3.47,2.3,2.3h-5l-5.07-.88v.88H81.95s-.76-4.48.84-5.06Z"/><path class="cls-16" d="M86.59,348.85l-.26,3.22h0a3.1,3.1,0,0,1-3.36.11l-.19-.11v-3.22Z"/><path class="cls-18" d="M60.88,352.71s1.07,1.48,6.09,2.76c1.11.28,2.3.47,2.3,2.3h-5l-5.07-.88v.88H56.5s-.76-4.48.84-5.06Z"/><path class="cls-16" d="M61.14,349.49l-.26,3.22h0a3.1,3.1,0,0,1-3.36.11l-.19-.11v-3.22Z"/><path class="cls-18" d="M88.61,269.75,87.38,350.6H81.49s-9-65.28-7.05-80.85S88.61,269.75,88.61,269.75Z"/><path class="cls-19" d="M82.39,269.73s-2.05,24.84-6.76,38.59S62.41,350.6,62.41,350.6h-6.1S66.5,291,64.17,269.73H82.39Z"/><path class="cls-23" d="M87.69,228.58S95,245.5,96.8,245.5c1.47,0-.55-13.82-.55-13.82h6.08s7.65,23.69,1.57,28-19.44-12.25-19.44-12.25Z"/><path class="cls-16" d="M66,271.88l2.2,5.44c1.06,2.14,5,2.19,7.54,1.51a.54.54,0,0,0,.25-.88,74.68,74.68,0,0,0-6.38-6.44Z"/><path class="cls-24" d="M84.45,225.08s3.79,2.57,3.79,5.52v39.13H66V233.15s.45-8.13,8.41-8.13S84.45,225.08,84.45,225.08Z"/><polygon class="cls-25" points="87.88 269.75 87.88 234.6 88.61 234.63 88.61 269.75 87.88 269.75"/><path class="cls-17" d="M76.4,216.34v9.23a5.64,5.64,0,0,0,4.31,2.11c2.77,0,2.77-2,2.77-2v-5.91l-4.1-1.07Z"/><path class="cls-16" d="M83.83,221.52a3.44,3.44,0,0,0,2.06-.54c2.46-3.92-.34-14.5-.34-14.5l-8.93,1.6-.28,7.09a6,6,0,0,0,2.23,4.89h0A9.54,9.54,0,0,0,83.83,221.52Z"/><path class="cls-18" d="M80.82,208.27a19.11,19.11,0,0,0,6.08,0c3.12-.55,1.12-4,1.12-4a12.27,12.27,0,0,1-6.41.45c-2.77-.41-3.51-.95-5.29,0-2.41,1.29-1.83,5.65-1.83,5.65l1.33,9.22h.5s.12-5.48.12-7.35c.52-.85,1.09-.85,1.52-.64a1.4,1.4,0,0,1,.74,1.27v9.58s6.1,2.63,7.65,2.15.51-7.57.51-7.57a2.85,2.85,0,0,0-3.18.78c-1.37,1.54-3-.06-3-.06Z"/><path class="cls-16" d="M101.16,231.68l-.21-1.17c-.47-2.59-2.95-5.8-5.43-6.64H92.93l.8,5.51,3.64,2.3Z"/><path class="cls-16" d="M77.19,211.37a1.56,1.56,0,0,1,1.47,1.47,1.34,1.34,0,0,1-1,1.67A1.56,1.56,0,0,1,76.18,213,1.34,1.34,0,0,1,77.19,211.37Z"/><path class="cls-16" d="M94.79,228.77l5,2.91s-3.16,0-3.21,0l-5.32-4.45s.39-.78,1.59-.12A6.12,6.12,0,0,1,94.79,228.77Z"/><path class="cls-26" d="M68.39,227.46s-12.56,14-12.56,22.32S66,272.88,66,272.88l5-1.47s-4.54-18.24-4.54-23.09,9.33-12,9.33-12"/><path class="cls-25" d="M66.89,248.31c0,4.18,3.7,19.45,4.57,23l-.75.19c-1.07-4.4-4.56-19.09-4.56-23.2,0-5,9.09-12,9.48-12.26l.45.59C76,236.71,66.89,243.7,66.89,248.31Z"/><path class="cls-27" d="M91.43,219.64a13.33,13.33,0,0,0,2.3,9.75,1.45,1.45,0,0,0,.94.52,3.7,3.7,0,0,0,1.74-.29,1.62,1.62,0,0,0,1.05-.75.7.7,0,0,0-.07-.73c-.68-1-2.77-4.47-1.82-7.54A5.46,5.46,0,0,0,91.43,219.64Z"/><path class="cls-28" d="M96.87,229.43a1.07,1.07,0,0,0,.59-.56.7.7,0,0,0-.07-.73c-.68-1-2.77-4.47-1.82-7.54a4.61,4.61,0,0,0-2-.91C93.48,223.05,94.21,225.31,96.87,229.43Z"/><ellipse class="cls-27" cx="94.96" cy="223.98" rx="0.56" ry="1.43" transform="translate(-43.13 23.69) rotate(-11.61)"/><polygon class="cls-27" points="94.61 222.6 94.93 222.53 94.91 222.69 94.69 222.77 94.61 222.6"/><polygon class="cls-29" points="95.17 225.38 95.56 225.31 95.12 225.25 95.17 225.38"/><ellipse class="cls-5" cx="95.22" cy="223.93" rx="0.56" ry="1.43" transform="translate(-43.11 23.74) rotate(-11.61)"/><path class="cls-5" d="M90.07,215.08h-.6a2,2,0,0,0-2.07,2v1.57a2,2,0,0,0,2.07,2h.6Z"/><ellipse class="cls-18" cx="106.08" cy="216.63" rx="2.19" ry="7.74"/><polygon class="cls-2" points="103.79 213.78 105.52 214.91 105.52 217.41 103.73 219.03 103.11 215.78 103.79 213.78"/><path class="cls-1" d="M103.88,216.63c0-3.59.69-6.6,1.64-7.47h0a35.37,35.37,0,0,1-15.79,6v5.46s11.52-.65,15.79,3.51h0C104.58,223.24,103.88,220.23,103.88,216.63Z"/><ellipse class="cls-5" cx="105.52" cy="216.16" rx="0.24" ry="1.26"/><path class="cls-16" d="M98.36,227.68a5.93,5.93,0,0,1-2.81.46c-1.46,0-2.12-1.8-2.37-2.77-.09-.34-.17-.83.26-1.05L95.8,224Z"/><path class="cls-18" d="M596.65,353.78h-9c-1.2.13-2.53.47-2.76,1.5a6,6,0,0,0-.13,1.37c.32.37,12.26,0,12.26,0l.05,0A1.89,1.89,0,0,0,596.65,353.78Z"/><polygon class="cls-18" points="584.75 356.65 597.02 356.6 596.91 357.08 584.74 357.08 584.75 356.65"/><polygon class="cls-2" points="593.08 353.77 592.27 353.78 592.53 354.88 593.31 354.88 593.08 353.77"/><polygon class="cls-2" points="591.35 353.77 590.53 353.78 590.79 354.88 591.57 354.88 591.35 353.77"/><path class="cls-16" d="M597.27,350.78l-.62,3h0a2.92,2.92,0,0,1-2.42.06l-.14-.06-.43-3Z"/><path class="cls-18" d="M624,353.78h-9c-1.2.13-2.53.47-2.76,1.5a6,6,0,0,0-.13,1.37c.32.37,12.26,0,12.26,0l.05,0A1.89,1.89,0,0,0,624,353.78Z"/><polygon class="cls-18" points="612.1 356.65 624.36 356.6 624.25 357.08 612.08 357.08 612.1 356.65"/><polygon class="cls-2" points="620.43 353.77 619.62 353.78 619.87 354.88 620.65 354.88 620.43 353.77"/><polygon class="cls-2" points="618.69 353.77 617.88 353.78 618.13 354.88 618.92 354.88 618.69 353.77"/><path class="cls-16" d="M624.38,350.56l-.22,3.06h0a2.92,2.92,0,0,1-2.39.38l-.14,0-.83-2.91Z"/><path class="cls-16" d="M607.07,219.93l8.78,5.73-2.71,6.94c0,.1-.09.19-.13.28l-.58,0h-.19a6.78,6.78,0,0,0-5.6,3.39,11.68,11.68,0,0,1-4.15-1.08,4.29,4.29,0,0,1-2-1.48C599.61,228.77,607.07,219.93,607.07,219.93Z"/><path class="cls-16" d="M594.43,219.48s-1.2,11.38,1.22,18.63c-1.12,1-5.24,5.39-6.54-.33s1.45-20.3,1.45-20.3Z"/><polygon class="cls-18" points="600.31 218.67 602.62 220.16 601.79 221.88 599.32 220.79 600.31 218.67"/><ellipse class="cls-18" cx="602.05" cy="220.91" rx="1.04" ry="0.42" transform="translate(157.76 683.38) rotate(-66.3)"/><path class="cls-8" d="M572.47,210.28v-.07a23.09,23.09,0,0,1,2.23-4,20.12,20.12,0,0,0,2.14-3.5l23.82,15.59-1.54,2.91-26.65-9.85A7.37,7.37,0,0,0,572.47,210.28Z"/><polygon class="cls-17" points="609.01 236.26 609.78 241.05 602.99 241.05 602.5 235.18 609.01 236.26"/><path class="cls-16" d="M589.48,249s-9-2.85-11.76-6.69,1.94-24.82,1.94-24.82l-.61-3.78a3.52,3.52,0,0,1,3.44-4.08l2.39,0a1.37,1.37,0,0,1,1.26,1.92L583,218.6s-2.36,15.89.95,17.1a37.27,37.27,0,0,0,8.41,1.74Z"/><path class="cls-18" d="M606.54,236.26l2.06-4.58-1.34-.84a2.52,2.52,0,0,1-1-2.95l1.47-4.31s-4.18-.51-4.05-4.41c0-2,2.76-2,2.76-2a4,4,0,0,0,3.38,2c1.1-.14,4.12.27,6.15,3.82,1.37,2.39.77,6.13-.42,8.94-1.07,2.52-3.79,3.92-6.5,4.34Z"/><path class="cls-18" d="M615.41,278.61a168.44,168.44,0,0,1-2.83,22.7,20.29,20.29,0,0,0,.7,10.44c5.35,15.88,11.77,39.77,11.77,39.77h-4.53s-16.17-28.23-20.07-42.23-4.56-18.45-4.56-18.45l4.63-12.22Z"/><path class="cls-16" d="M609.72,229.55a1.94,1.94,0,0,1-1.11,2.13c-.86.46-1.75.24-2-.48a1.94,1.94,0,0,1,1.11-2.13C608.57,228.61,609.47,228.83,609.72,229.55Z"/><path class="cls-4" d="M593.67,278.61h21.74V250.72a11.83,11.83,0,0,0-10.73-11.78l-15.12-1.83s-1.78,2.72-6.73,9a51,51,0,0,0,12.84,5.37Z"/><path class="cls-19" d="M615.41,278.61s-3.07,11.11-14.4,23.57a14.57,14.57,0,0,0-4.23,11.33l1.27,38h-4.63s-9.31-31.56-7.53-47.12,7.78-25.78,7.78-25.78Z"/><ellipse class="cls-2" cx="574.7" cy="207.01" rx="4.88" ry="1.58" transform="translate(138.67 634.8) rotate(-64.26)"/><path class="cls-16" d="M595.37,214.84l-.2.1a3,3,0,0,1-2.27.14l-.13,0a4,4,0,0,1-2.58-2.61h0a.75.75,0,0,1,.87-1l1.51.32a2.27,2.27,0,0,1,1.43,1Z"/><path class="cls-8" d="M470.94,129.48l12.29-1.88c1.66-.08,3.55.11,4.07,1.48a8.33,8.33,0,0,1,.46,1.85c-.36.58-16.74,2.47-16.74,2.47l-.08,0C468.9,131.53,470.94,129.48,470.94,129.48Z"/><polygon class="cls-2" points="487.76 130.92 471.02 133.39 471.26 134.02 487.88 131.5 487.76 130.92"/><polygon class="cls-2" points="475.8 128.72 476.91 128.56 476.8 130.12 475.72 130.28 475.8 128.72"/><polygon class="cls-2" points="478.18 128.36 479.28 128.2 479.17 129.76 478.09 129.92 478.18 128.36"/><path class="cls-16" d="M469.47,125.51l1.47,4h0a4,4,0,0,0,3.31-.42l.17-.11,0-4.18Z"/><path class="cls-8" d="M509.95,123l2.31-12.22c.48-1.59,1.28-3.31,2.75-3.35a8.32,8.32,0,0,1,1.89.18c.43.53-3.23,16.61-3.23,16.61l-.07.06C511.21,125.65,509.95,123,509.95,123Z"/><polygon class="cls-2" points="516.9 107.66 513.67 124.27 514.34 124.25 517.49 107.74 516.9 107.66"/><polygon class="cls-2" points="510.86 118.21 511.07 117.11 512.5 117.74 512.3 118.8 510.86 118.21"/><polygon class="cls-2" points="511.3 115.85 511.52 114.75 512.95 115.38 512.75 116.44 511.3 115.85"/><path class="cls-16" d="M505.72,123.11l4.23-.06h0a4,4,0,0,0,.7-3.26l0-.2-4-1.36Z"/><path class="cls-18" d="M434.43,117s13.37,4.55,33,3.31a24.29,24.29,0,0,1,9.54,1.32c11.87,4.15,29.47,1.93,29.47,1.93l1.26-5.52L449,102.74Z"/><polygon class="cls-17" points="427.38 56.57 424.98 62.27 429.85 63.73 431.73 59.11 427.38 56.57"/><path class="cls-16" d="M428,46.54l-1.46,7.71a1.21,1.21,0,0,1,.7,1.75,1.46,1.46,0,0,1,0,.59,9,9,0,0,0,6.4,3.22c5,.25,4.39-9.78,4.39-9.78Z"/><path class="cls-18" d="M424.22,51.67a4.8,4.8,0,0,0-.71-2.41c-2.16-3,.7-4.15,1.7-4.5s1.34-2.17,2.81-2.84c2.25-1,3.7,1,5,1s2.41-1.36,4-.08,1,2.62,1.45,3.34,1.85-.64,3.12,1.62c1.94,3.44-3.48,3.39-3.48,3.39a9.58,9.58,0,0,1-6.45-1.88,1.25,1.25,0,0,0-1.52,0c-1.18,1-2.73,7.35-2.73,7.35l-1-1.33S423.77,54.27,424.22,51.67Z"/><circle class="cls-16" cx="428.15" cy="52.82" r="1.2" transform="translate(-3.08 64.92) rotate(-8.64)"/><path class="cls-19" d="M414.89,100.15s1.39,15.74,15.65,16.92,31.7-14.46,31.7-14.46l7,23.8,5.53-.84s2.54-35.16-5-37.34-36.55,9.15-36.55,9.15Z"/><path class="cls-5" d="M414.89,100.15l23.43-3.56a49.63,49.63,0,0,1-1.88-10.47,19.47,19.47,0,0,1,1.3-7.67c-1.28-9-4.54-17.67-12.46-16.73C411.76,65,414.89,100.15,414.89,100.15Z"/><polygon class="cls-2" points="480.4 66.9 472.26 87.62 451.58 85.17 451.39 86.82 473.33 89.42 481.95 67.51 480.4 66.9"/><path class="cls-16" d="M428.46,79.66l9.26-1.41,1,10.35L455,83.48l3.62-2.41a4.56,4.56,0,0,1,3.18-.71l4.49.65a1.06,1.06,0,0,1,.9.89l1.63,4.78s-1.07.79-2.8-3.24c-.81,4.76-7.57,1.6-7.57,1.6l-2.27,1.6s-17.46,12.91-21.86,10.54S428.46,79.66,428.46,79.66Z"/><path class="cls-16" d="M467.18,81.9a1.06,1.06,0,0,0-.9-.89l-4.49-.65a4.56,4.56,0,0,0-3.18.71L455,83.48l-.53.17.58,3.82,1.13-.82,2.27-1.6s6.76,3.16,7.57-1.6c1.73,4,2.8,3.24,2.8,3.24Z"/><path class="cls-16" d="M241.77,121.35l.64,3.79h0a3.65,3.65,0,0,1-4,.13l-.22-.13-.94-3.79Z"/><path class="cls-30" d="M211.36,33.57C214.73,44.69,226,61.77,226,61.77l-8.93-3.66-6.31-14.59S208,22.44,211.36,33.57Z"/><path class="cls-18" d="M235.64,78.24l7,43.45h-6.26S222.35,82.59,220.88,71.1c0-6.51,14.22,0,14.22,0Z"/><polygon class="cls-17" points="212.31 16.01 209.97 22.06 204.91 18.4 208.32 11.26 212.31 16.01"/><path class="cls-16" d="M214.21,17a3.44,3.44,0,0,0,2-.05c2.93-2.8,2.22-12.16,2.22-12.16l-3.28-2.27L210,4.43l-1.5,5.86a4.9,4.9,0,0,0,1.19,4.5h0A9.56,9.56,0,0,0,214.21,17Z"/><path class="cls-18" d="M210.87,6.4a2,2,0,0,1,2.54-1,16.07,16.07,0,0,0,2.42.74c2,.42,5.81.39,6.45-2.7S218.92.62,218.92.62L213.59,1A9.82,9.82,0,0,1,209,.14c-1.28-.56-2.42.63-2.69,1.42-.6,1.74,0,4.72.55,6.62a9.67,9.67,0,0,0,1.47,3.07h0Z"/><path class="cls-16" d="M207.88,7.72a1.56,1.56,0,0,1,1.85.56c.49.62.45,1.36-.09,1.67a1.56,1.56,0,0,1-1.85-.56C207.31,8.77,207.34,8,207.88,7.72Z"/><path class="cls-18" d="M242.52,124.74s0,4,8.12,6.46c1.66.5,1.12,1,1.43,1.69h-9.32l-3.65-4.1-1.14,1-2.63-2.59s.46-3.74,2.46-3.78C239.45,124,242.52,124.74,242.52,124.74Z"/><path class="cls-16" d="M219.5,120.16,218,123.66h0a3.65,3.65,0,0,1-3.79-1.15l-.17-.2,1.22-3.59Z"/><path class="cls-11" d="M211.08,20.37s.64-1-5.09-4c-8.64,8.64-11.47,41.7-11.47,41.7h22.58C217.87,39.24,211.08,20.37,211.08,20.37Z"/><path class="cls-16" d="M233.4,57.22a1,1,0,0,0-.47-1.09L229.25,54a4.28,4.28,0,0,0-3-.49l-4,.16-.52.63-.83,3.53,1.27-.32,2.53.07s4.78,4.44,7.15.58c.1,4.11,1.3,3.79,1.3,3.79Z"/><path class="cls-8" d="M194.52,58.11l-.34,2.8V61a11,11,0,0,0,8.1,11.76,99.52,99.52,0,0,0,23.26,4.11c-8.52,10.94-10.87,41.62-10.87,41.62l5.49,2L241.33,70a5.58,5.58,0,0,0-4-7.61l-20.24-4.31Z"/><path class="cls-11" d="M208.64,31.17A45.37,45.37,0,0,0,202,39a3,3,0,0,0,.26,3.5c4.7,5.42,21.46,10.62,21.46,10.62l-1.08,6.11s-23.78-4.68-32.21-13.13c-8.64-8.67,13.7-26.78,13.7-26.78"/><path class="cls-30" d="M202.25,39.14a2.59,2.59,0,0,0,.23,3.1c2.15,2.47,7.87,5.11,12.87,7,0,.31,0,.33,0,.69-5.25-2-11-4.58-13.37-7.28a3.26,3.26,0,0,1-.3-3.89,46.1,46.1,0,0,1,6.74-7.87l.45.49A45.33,45.33,0,0,0,202.25,39.14Z"/><path class="cls-30" d="M195.36,49.46c9.13,4.93,22.52,8.46,27.3,9.46a5,5,0,0,1-.14.65c-4.6-.94-17.86-4.34-27.24-9.33A6.47,6.47,0,0,1,195.36,49.46Z"/><polygon class="cls-3" points="242.28 64.59 249.32 39.42 248.03 39.06 241.32 63.06 221.11 59.55 220.88 60.87 242.28 64.59"/><path class="cls-18" d="M218.32,122.88s-.32,4.07,7.78,6.49c1.66.5,1.12,1,1.43,1.69h-9.32l-3.65-4.1-1.14,1-2.63-2.59s1.23-3.74,3.23-3.78C215.68,122.13,218.32,122.88,218.32,122.88Z"/></g></g></svg>