<svg xmlns="http://www.w3.org/2000/svg" xmlns:xlink="http://www.w3.org/1999/xlink" viewBox="0 0 451.31 435.69"><defs><style>.cls-1{fill:#ffd247;}.cls-2{fill:#fff;}.cls-3{fill:#01898c;}.cls-4{fill:#00666a;}.cls-5{fill:#212b53;}.cls-6{fill:#63c1c5;}.cls-7{fill:url(#_ÂÁ_Ï_ÌÌ_È_ËÂÌÚ_8);}.cls-8{fill:url(#_ÂÁ_Ï_ÌÌ_È_ËÂÌÚ_8-2);}.cls-9{fill:url(#_ÂÁ_Ï_ÌÌ_È_ËÂÌÚ_3);}.cls-10{fill:#f7a605;}.cls-11{fill:none;}.cls-12{fill:#043c5e;}.cls-13{fill:url(#_ÂÁ_Ï_ÌÌ_È_ËÂÌÚ_3-2);}.cls-14{fill:#f18813;}.cls-15{fill:#f8b68f;}.cls-16{fill:#f4a086;}.cls-17{fill:url(#_ÂÁ_Ï_ÌÌ_È_ËÂÌÚ_8-3);}.cls-18{fill:url(#_ÂÁ_Ï_ÌÌ_È_ËÂÌÚ_8-4);}.cls-19{fill:url(#_ÂÁ_Ï_ÌÌ_È_ËÂÌÚ_8-5);}.cls-20{fill:#b0d9c8;}.cls-21{fill:url(#_ÂÁ_Ï_ÌÌ_È_ËÂÌÚ_3-3);}.cls-22{fill:url(#_ÂÁ_Ï_ÌÌ_È_ËÂÌÚ_3-4);}.cls-23{fill:#11375b;}.cls-24{fill:url(#_ÂÁ_Ï_ÌÌ_È_ËÂÌÚ_8-6);}.cls-25{fill:url(#_ÂÁ_Ï_ÌÌ_È_ËÂÌÚ_8-7);}.cls-26{fill:#93cfc7;}.cls-27{fill:url(#_ÂÁ_Ï_ÌÌ_È_ËÂÌÚ_7);}.cls-28{fill:#e8375e;}</style><linearGradient id="_ÂÁ_Ï_ÌÌ_È_ËÂÌÚ_8" x1="586.76" y1="139.42" x2="729.39" y2="139.42" gradientTransform="matrix(-1, 0, 0, 1, 1030.03, 0)" gradientUnits="userSpaceOnUse"><stop offset="0" stop-color="#e0f0eb"/><stop offset="1" stop-color="#c0e4ef"/></linearGradient><linearGradient id="_ÂÁ_Ï_ÌÌ_È_ËÂÌÚ_8-2" x1="402.31" y1="61" x2="533.96" y2="61" gradientTransform="matrix(-1, 0, 0, 1, 589.89, 0)" xlink:href="#_ÂÁ_Ï_ÌÌ_È_ËÂÌÚ_8"/><linearGradient id="_ÂÁ_Ï_ÌÌ_È_ËÂÌÚ_3" x1="116.01" y1="108.32" x2="500.52" y2="596.88" gradientUnits="userSpaceOnUse"><stop offset="0" stop-color="#f1f8f8"/><stop offset="1" stop-color="#c0e4ef"/></linearGradient><linearGradient id="_ÂÁ_Ï_ÌÌ_È_ËÂÌÚ_3-2" x1="405.17" y1="412.62" x2="421.42" y2="412.62" gradientTransform="translate(822.91 -3.66) rotate(89.58)" xlink:href="#_ÂÁ_Ï_ÌÌ_È_ËÂÌÚ_3"/><linearGradient id="_ÂÁ_Ï_ÌÌ_È_ËÂÌÚ_8-3" x1="369.31" y1="256.99" x2="407.17" y2="256.99" gradientTransform="translate(34.7 -50.85) rotate(10)" xlink:href="#_ÂÁ_Ï_ÌÌ_È_ËÂÌÚ_8"/><linearGradient id="_ÂÁ_Ï_ÌÌ_È_ËÂÌÚ_8-4" x1="383.26" y1="280.67" x2="409.92" y2="280.67" gradientTransform="matrix(1, 0, 0, 1, 0, 0)" xlink:href="#_ÂÁ_Ï_ÌÌ_È_ËÂÌÚ_8"/><linearGradient id="_ÂÁ_Ï_ÌÌ_È_ËÂÌÚ_8-5" x1="385.9" y1="282.91" x2="416.14" y2="282.91" gradientTransform="matrix(1, 0, 0, 1, 0, 0)" xlink:href="#_ÂÁ_Ï_ÌÌ_È_ËÂÌÚ_8"/><linearGradient id="_ÂÁ_Ï_ÌÌ_È_ËÂÌÚ_3-3" x1="342.18" y1="35.89" x2="364" y2="35.89" xlink:href="#_ÂÁ_Ï_ÌÌ_È_ËÂÌÚ_3"/><linearGradient id="_ÂÁ_Ï_ÌÌ_È_ËÂÌÚ_3-4" x1="336.3" y1="37.8" x2="370.28" y2="37.8" xlink:href="#_ÂÁ_Ï_ÌÌ_È_ËÂÌÚ_3"/><linearGradient id="_ÂÁ_Ï_ÌÌ_È_ËÂÌÚ_8-6" x1="-972.27" y1="327.31" x2="-951.7" y2="327.31" gradientTransform="matrix(-1, 0, 0, 1, -886.54, 0)" xlink:href="#_ÂÁ_Ï_ÌÌ_È_ËÂÌÚ_8"/><linearGradient id="_ÂÁ_Ï_ÌÌ_È_ËÂÌÚ_8-7" x1="-955.28" y1="330.02" x2="-934.31" y2="330.02" gradientTransform="matrix(-1, 0, 0, 1, -886.54, 0)" xlink:href="#_ÂÁ_Ï_ÌÌ_È_ËÂÌÚ_8"/><linearGradient id="_ÂÁ_Ï_ÌÌ_È_ËÂÌÚ_7" x1="-943.58" y1="332.66" x2="-924.68" y2="332.66" gradientTransform="matrix(-1, 0, 0, 1, -886.54, 0)" gradientUnits="userSpaceOnUse"><stop offset="0" stop-color="#c0e4ef"/><stop offset="1" stop-color="#e0f0eb"/></linearGradient></defs><title>ostalo</title><g id="Layer_2" data-name="Layer 2"><g id="_ÎÓÈ_1" data-name="—ÎÓÈ_1"><path class="cls-1" d="M113.88,188.05s-5-66.18-51.3-81c-52.46,65.18,11.78,116.6,11.78,116.6Z"/><path class="cls-2" d="M62.57,107.07l-.54.68,25.17,74L42.08,163.29q0,.81.11,1.62l45.64,18.71L95.09,205l1.18-1.06L81.79,161.33h0L99,138.9c-.26-.46-.52-.92-.78-1.37l-17,22.15L63.44,107.37l-.87-.3Z"/><path class="cls-3" d="M92.42,181.13S47.3,132.71,2.23,144.44C-11.93,198.62,46.1,223.6,46.1,223.6l57.88.71Z"/><path class="cls-4" d="M53.29,152.21l-2.51,29.24L3.3,144.18l-1.07.26c-.06.21-.1.42-.15.63l25.43,20L.7,170c0,.26.09.51.13.76l.12.67L29,166.23,71.42,199.5,24.64,209.73l1.41,1.18L72.9,200.67,103,224.3h1l-.37-1.39L52.16,182.53l2.54-29.61Z"/><path class="cls-5" d="M88.08,212.5s-54.11-11.14-74.24,20c32.46,68.46,121.83,32,121.83,32Z"/><path class="cls-4" d="M13.84,232.53l.38.78,74.22,9.4L59.23,271.08l1.65.43L90.3,242.94l29,3.67L117.77,245,61.32,237.8l-19.1-24.37-1.52.42,18.56,23.69-45-5.7c-.15.23-.31.45-.46.68Z"/><path class="cls-1" d="M310.64,279.69s23.38-75.15,80.85-79.92c43.27,89.29-44.66,131.6-44.66,131.6Z"/><path class="cls-2" d="M391.49,199.77l.44.93-48.8,78.86,57.07-9.37q-.27.93-.56,1.84l-57.72,9.47-14.08,22.76-1.08-1.54,28.07-45.36h0l-13.91-30.5,1.27-1.38,13.73,30.12,34.47-55.71,1.08-.11Z"/><path class="cls-4" d="M324.23,287.51S395,231.09,451.28,259c1.93,66.39-71.78,79.8-71.78,79.8l-67.07-14.59Z"/><path class="cls-3" d="M390.19,254.41l-4.89,34.46,64.8-30.43,1.17.58c0,.26,0,.51,0,.77l-34.71,16.3L446.23,289c-.11.29-.24.56-.35.85l-.32.74L414.5,277.07l-57.84,27.16L408,328.5l-1.95,1-51.41-24.31-41.07,19.29-1.13-.25.8-1.51,70.21-33,4.95-34.89Z"/><path class="cls-6" d="M324.62,310.26s74.82,6.08,89.78,47.45c-55.74,70.47-149.3,4.54-149.3,4.54Z"/><path class="cls-3" d="M414.4,357.72l-.65.8-88.27-8.9,26.21,40.56-2,.06L323.28,349.4l-34.48-3.48,2.2-1.52,67.13,6.77,28.56-23.08,1.64.89-27.75,22.43,53.48,5.39c.12.3.24.6.35.9Z"/><path class="cls-7" d="M443.27,152.22S342,162.25,309,153.3c-6.29-1.7-10.11-8.6-7.58-14.61,1.34-3.19,4.36-5.9,11.05-7.78,7.78-2.19,14.57,1.72,18.88,5.38a3.28,3.28,0,0,0,5.24-1.65c.92-2.92,3.13-6.08,8.15-7.9,7.43-2.7,18,3.54,24.14,8a2.39,2.39,0,0,0,3.79-2.14c-.35-5.58,1.83-12.61,15.95-10.34,14,2.25,19.6,10.3,21.88,16.11a3.83,3.83,0,0,0,5.88,1.65c3.46-2.7,8.78-4.88,15.24-1C443.27,145.95,443.27,152.22,443.27,152.22Z"/><path class="cls-8" d="M187.58,81.69H59s-7-8.82,0-14.75c3.85-3.28,8.39-2.94,11.69-2a3.85,3.85,0,0,0,4.77-3c.78-3.63,3.19-8.37,10.11-11.17s11.11,1.45,13.61,5.78a1.93,1.93,0,0,0,3.5-.36c2.16-6.83,9.68-15.89,34.39-15.89C168.52,40.31,165,57,162.22,64A1.6,1.6,0,0,0,164,66.14c4.85-1,13.85-2.38,17.88.79C187.58,71.38,187.58,81.69,187.58,81.69Z"/><rect class="cls-3" x="81.13" y="70.47" width="290.83" height="357.79"/><polygon class="cls-9" points="95.64 83.17 95.11 417.21 357.59 417.21 359.78 82.61 95.64 83.17"/><polygon class="cls-10" points="95.64 83.17 95.11 103.45 359.96 103.45 359.78 82.61 95.64 83.17"/><line class="cls-11" x1="111.7" y1="87.69" x2="111.7" y2="87.69"/><line class="cls-11" x1="108.37" y1="98.55" x2="110.05" y2="98.55"/><polygon class="cls-6" points="123.37 122.66 122.66 129.72 259.19 129.72 261.97 123.48 123.37 122.66"/><polygon class="cls-6" points="123.08 139.72 123.18 145.11 331.05 145.11 333.17 140.35 123.08 139.72"/><polygon class="cls-4" points="123.37 155.02 122.66 162.07 259.19 162.07 261.97 155.84 123.37 155.02"/><polygon class="cls-3" points="123.08 172.09 123.18 177.47 331.05 177.47 333.17 172.71 123.08 172.09"/><polygon class="cls-6" points="123.17 198.06 122.66 205.11 220.3 205.11 222.3 198.88 123.17 198.06"/><polygon class="cls-6" points="122.96 215.12 123.03 220.5 271.7 220.5 273.22 215.75 122.96 215.12"/><polygon class="cls-4" points="123.17 230.42 122.66 237.47 220.3 237.47 222.3 231.24 123.17 230.42"/><polygon class="cls-3" points="122.96 247.48 123.03 252.87 271.7 252.87 273.22 248.11 122.96 247.48"/><polygon class="cls-6" points="123.08 275.76 122.66 282.81 202.28 282.81 203.91 276.58 123.08 275.76"/><polygon class="cls-6" points="122.9 292.82 122.97 298.2 244.19 298.2 245.43 293.45 122.9 292.82"/><polygon class="cls-3" points="123.08 308.12 122.66 315.17 202.28 315.17 203.91 308.94 123.08 308.12"/><polygon class="cls-3" points="122.9 325.18 122.97 330.56 244.19 330.56 245.43 325.81 122.9 325.18"/><path class="cls-6" d="M228.68,364.59H124.76c-2.24,0-3.51-1.83-2.82-4.07h0a6,6,0,0,1,5.32-4.07H231.18c2.24,0,3.51,1.83,2.82,4.07h0A6,6,0,0,1,228.68,364.59Z"/><path class="cls-4" d="M187,356.46h-59.7a6,6,0,0,0-5.32,4.07c-.69,2.24.58,4.07,2.82,4.07H179Z"/><path class="cls-6" d="M230.63,380.11H126.71c-2.24,0-3.51-1.83-2.82-4.07h0a6,6,0,0,1,5.32-4.07H233.13c2.24,0,3.51,1.83,2.82,4.07h0A6,6,0,0,1,230.63,380.11Z"/><path class="cls-3" d="M204.25,372h-75a6,6,0,0,0-5.32,4.07c-.69,2.24.58,4.07,2.82,4.07h69.92Z"/><polygon class="cls-3" points="340.4 312.66 340.25 370.86 276.77 370.86 279.09 312.66 340.4 312.66"/><polygon class="cls-2" points="286.46 359.4 289.37 359.4 289.4 358 287.66 358.01 287.7 355.91 286.54 355.91 286.46 359.4"/><path class="cls-2" d="M293.56,358h4.18l0,1.41h-4.18Zm8.39,0h4.23l0,1.42h-4.23Zm8.49,0h4.28l0,1.43h-4.29Zm8.59,0h4.34v1.43H319Z"/><polygon class="cls-2" points="327.72 359.4 330.81 359.4 330.83 355.8 329.59 355.81 329.58 357.96 327.73 357.97 327.72 359.4"/><path class="cls-2" d="M329.66,344h1.23l0,5.88h-1.23Zm.07-11.67,1.22,0,0,5.83-1.23,0Z"/><polygon class="cls-2" points="329.77 326.56 330.99 326.54 331.01 323.03 327.97 323.11 327.96 324.5 329.78 324.46 329.77 326.56"/><path class="cls-2" d="M294.26,324l4.13-.11,0,1.37-4.13.1Zm8.28-.21,4.18-.11,0,1.38-4.18.1Zm8.38-.21,4.23-.11,0,1.39-4.23.1Zm8.48-.22,4.28-.11v1.39l-4.28.1Z"/><polygon class="cls-2" points="287.21 327.54 288.35 327.52 288.4 325.47 290.13 325.43 290.16 324.07 287.29 324.14 287.21 327.54"/><path class="cls-2" d="M286.81,344.49H288l-.13,5.7h-1.16Zm.26-11.32,1.15,0-.13,5.65-1.15,0Z"/><path class="cls-1" d="M333.66,304.41a81.73,81.73,0,0,0-6.35-5.25c-3.21,17.75-13.37,38.75-17.41,37.82-3.53-.82-8.89-6.1-13.81-16.59-2.32,1.83-4.59,3.84-6.66,5.71-.69,14.5,15.52,27.94,20.66,29.13C315.46,356.48,337.82,323.33,333.66,304.41Z"/><circle class="cls-2" cx="346.36" cy="92.66" r="5.9"/><circle class="cls-12" cx="329.67" cy="92.66" r="5.9"/><rect class="cls-4" x="187.58" y="51.02" width="85.63" height="37.14"/><polygon class="cls-4" points="267.29 69.16 261.3 43.7 199.43 43.7 193.49 64.57 189.65 63.48 196.41 39.7 264.47 39.7 271.18 68.24 267.29 69.16"/><rect class="cls-10" x="301.12" y="324.89" width="46.02" height="174.16" transform="translate(-90.19 733.11) rotate(-89.59)"/><rect class="cls-13" x="390.29" y="404.67" width="46.02" height="15.91" transform="translate(-2.31 822.91) rotate(-89.58)"/><path class="cls-5" d="M417.73,435.65c12.74,0,23.16-2.3,23.31-23.12.16-22.73-10.23-23.27-23-23.45Z"/><polygon class="cls-1" points="236.88 434.35 200.99 419.05 201.11 402.31 237.22 388.33 236.88 434.35"/><polygon class="cls-12" points="200.99 419.05 185.14 410.68 201.11 402.31 200.99 419.05"/><rect class="cls-14" x="315.88" y="338.5" width="10.47" height="168.3" transform="translate(-103.81 740.73) rotate(-89.59)"/><rect class="cls-14" x="316.04" y="316.31" width="10.47" height="168.3" transform="translate(-81.47 718.86) rotate(-89.59)"/><path class="cls-5" d="M381.4,385.27s-2,1.9-6.71,3.08c-1,.26-2.13-.09-2.13,1.61h5.66l4.71-.81V390h2.54s.71-4.16-.78-4.69Z"/><path class="cls-15" d="M381.68,382.28l-.29,3h0a2.88,2.88,0,0,0,3.11.1l.17-.1.53-3Z"/><path class="cls-5" d="M401.89,385.27s-2,1.9-6.71,3.08c-1,.26-2.13-.09-2.13,1.61h5.66l4.71-.81V390H406s.71-4.16-.78-4.69Z"/><path class="cls-15" d="M402.18,382.28l-.29,3h0a2.88,2.88,0,0,0,3.11.1l.17-.1.53-3Z"/><path class="cls-15" d="M351.08,271.87a6.1,6.1,0,0,1-3.54-.45c-1.9-.67-5.39-3.29-5.53-1,1.29,1.8,2.58,4.1,2.58,4.1.89,1,3.09,1.39,4.53,1.35l4.42-.67s1.23-1.91,1.3-2l-.62-.69A9.75,9.75,0,0,1,351.08,271.87Z"/><path class="cls-15" d="M350.06,272.44a1.69,1.69,0,0,1-.31.14c.19.21.37.44.55.67.94.46,1.87,1,2.81,1.43.21-.62.51-1.48.54-1.54l-5.48-4.41s-.82.47,0,1.74A6.67,6.67,0,0,0,350.06,272.44Z"/><polygon class="cls-16" points="393.66 255.68 393.07 261.52 399.33 261.77 398.07 252.71 393.66 255.68"/><path class="cls-15" d="M391.74,256.74a3.14,3.14,0,0,1-1.75-.42c-2.1-3.05.29-11.28.29-11.28l3.35-1.41,4.26,2.66.24,5.51a4.47,4.47,0,0,1-1.9,3.8h0A8.73,8.73,0,0,1,391.74,256.74Z"/><path class="cls-5" d="M397.22,249.42c-.23-.93-.11-3.06-1.05-2.91-.69.11-3,.21-3.84.21-1.89,0-5.26-.74-5.26-3.62a3.71,3.71,0,0,1,5-3.08c2.08.73,4.84,2.33,5.94,2.11,1.85-.37,3.7.71,3.67,2.29a15.74,15.74,0,0,1-1.73,5.82,8.83,8.83,0,0,1-1.89,2.47h0Z"/><path class="cls-15" d="M399.13,249.63a1.42,1.42,0,0,0-1.76.16c-.55.46-.66,1.13-.24,1.5a1.42,1.42,0,0,0,1.76-.16C399.45,250.67,399.56,250,399.13,249.63Z"/><path class="cls-17" d="M387.67,264.15c-11.8,9.18-34.69,6.75-34.69,6.75l-1.06,6s29,8.58,32.66,1.72S399.47,255,387.67,264.15Z"/><path class="cls-18" d="M396.2,259.82h-.63c-6.91.25-12.3,9.78-12.3,16.69v25h26.66v-28.6A13,13,0,0,0,399.08,260,19,19,0,0,0,396.2,259.82Z"/><path class="cls-15" d="M387.69,296.69l-5.9.68c-2.41.09-4.35-3.34-5-6a.54.54,0,0,1,.66-.65,75.57,75.57,0,0,1,8.81,2.55Z"/><path class="cls-19" d="M408.35,266.68s13.44,18,5,26.66-27.45,5-27.45,5v-5.54s17.95,0,19-6-4.27-12.69-4.27-12.69"/><path class="cls-6" d="M409.92,295.65c-8.51,4.9-21.9,2.81-23.75,2.49v-5.06c2.33,0,18-.37,19-6.27,1.06-6.14-4.1-12.63-4.32-12.9l-.41.33c.05.06,5.24,6.57,4.21,12.48s-18.38,5.83-18.74,5.83h-.27v6l.21,0a54.05,54.05,0,0,0,9.13.76c4.74,0,10.45-.65,14.94-3.13Z"/><path class="cls-12" d="M383.26,301.52c-3,14.78-3.52,30.7-3.58,44.05a353.39,353.39,0,0,0,1.65,37.23h4.4l9.18-61.49s1,9.15,2.36,24.65c1.06,12.17,1.57,22.46,4.42,36.84h4.41s3.81-44.4,3.81-81.28Z"/><polygon class="cls-2" points="393.35 258.25 398.91 258.25 399.8 260.3 392.63 260.3 393.35 258.25"/><path class="cls-15" d="M387.69,116.88l.61,3.66h0a3.52,3.52,0,0,1-3.81.13l-.21-.13-.9-3.66Z"/><path class="cls-20" d="M358.4,32.33C361.65,43,372.54,59.5,372.54,59.5L363.94,56l-6.08-14.05S355.16,21.62,358.4,32.33Z"/><path class="cls-5" d="M381.79,75.36l6.79,41.85h-6s-13.55-37.65-15-48.72c0-6.27,13.7,0,13.7,0Z"/><polygon class="cls-16" points="359.31 15.42 357.06 21.25 352.19 17.72 355.48 10.85 359.31 15.42"/><path class="cls-15" d="M361.15,16.39a3.32,3.32,0,0,0,1.9-.05c2.83-2.7,2.14-11.71,2.14-11.71L362,2.44l-5,1.82-1.44,5.64a4.72,4.72,0,0,0,1.14,4.34h0A9.21,9.21,0,0,0,361.15,16.39Z"/><path class="cls-5" d="M357.93,6.16a1.94,1.94,0,0,1,2.44-1,15.48,15.48,0,0,0,2.33.71c2,.41,5.59.37,6.21-2.6S365.68.6,365.68.6l-5.13.35a9.46,9.46,0,0,1-4.43-.81c-1.23-.54-2.33.61-2.59,1.37-.58,1.68,0,4.54.53,6.38a9.32,9.32,0,0,0,1.42,3h0Z"/><path class="cls-15" d="M355,7.44a1.5,1.5,0,0,1,1.78.54c.47.59.43,1.31-.08,1.6A1.5,1.5,0,0,1,355,9C354.5,8.45,354.53,7.73,355,7.44Z"/><path class="cls-5" d="M388.42,120.15s0,3.89,7.82,6.22c1.6.48,1.08,1,1.38,1.63h-9l-3.52-4L384,125l-2.54-2.49s.44-3.61,2.37-3.64C385.46,119.4,388.42,120.15,388.42,120.15Z"/><path class="cls-15" d="M366.24,115.74l-1.46,3.36h0a3.52,3.52,0,0,1-3.65-1.11l-.16-.19,1.18-3.46Z"/><path class="cls-21" d="M358.13,19.62s.62-1-4.9-3.81C344.91,24.13,342.18,56,342.18,56h21.75C364.67,37.8,358.13,19.62,358.13,19.62Z"/><path class="cls-15" d="M379.63,55.11a1,1,0,0,0-.45-1L375.63,52a4.12,4.12,0,0,0-2.9-.47l-3.84.15-.5.61-.8,3.4,1.22-.3,2.44.07s4.61,4.28,6.89.56c.09,4,1.25,3.66,1.25,3.66Z"/><path class="cls-12" d="M342.18,56l-.33,2.7v.11a10.64,10.64,0,0,0,7.8,11.33,95.87,95.87,0,0,0,22.4,4c-8.2,10.53-10.47,40.09-10.47,40.09l5.29,1.92,20.41-48.62a5.37,5.37,0,0,0-3.83-7.33L363.94,56Z"/><path class="cls-22" d="M355.78,30a43.71,43.71,0,0,0-6.43,7.51,2.84,2.84,0,0,0,.25,3.37c4.53,5.22,20.67,10.23,20.67,10.23l-1,5.89s-22.91-4.51-31-12.64c-8.33-8.35,13.2-25.79,13.2-25.79"/><path class="cls-20" d="M349.62,37.71a2.5,2.5,0,0,0,.23,3c2.07,2.38,7.58,4.92,12.39,6.77,0,.3,0,.31,0,.67-5.05-1.9-10.62-4.41-12.88-7a3.14,3.14,0,0,1-.29-3.75,44.41,44.41,0,0,1,6.49-7.58l.44.48A43.66,43.66,0,0,0,349.62,37.71Z"/><path class="cls-20" d="M343,47.64c8.8,4.75,21.69,8.15,26.29,9.11a4.84,4.84,0,0,1-.14.62c-4.43-.91-17.2-4.18-26.24-9A6.22,6.22,0,0,1,343,47.64Z"/><polygon class="cls-3" points="388.19 62.22 394.97 37.97 393.72 37.63 387.26 60.74 367.79 57.36 367.57 58.63 388.19 62.22"/><path class="cls-5" d="M365.1,118.36s-.31,3.92,7.5,6.25c1.6.48,1.08,1,1.38,1.63h-9l-3.52-4-1.09.94-2.54-2.49s1.18-3.61,3.11-3.64C362.56,117.64,365.1,118.36,365.1,118.36Z"/><path class="cls-4" d="M208.82,365.58l2.52,6.66c.21.93.25,2-.72,2.6a8.42,8.42,0,0,1-1.32.61c-.46-.1-3.36-9.09-3.36-9.09l0-.05A2.39,2.39,0,0,1,208.82,365.58Z"/><polygon class="cls-5" points="209.3 375.44 205.94 366.35 205.49 366.6 208.88 375.61 209.3 375.44"/><polygon class="cls-2" points="209.82 368.21 210.04 368.81 208.88 369.03 208.66 368.45 209.82 368.21"/><polygon class="cls-2" points="210.3 369.5 210.52 370.1 209.36 370.32 209.14 369.74 210.3 369.5"/><path class="cls-15" d="M211.61,364l-2.79,1.57h0a1.79,1.79,0,0,0,.62,1.81l.1.08,3.08-.79Z"/><path class="cls-5" d="M233.89,322a16,16,0,0,0-3.48,8.23c-.47,3.49.83,9,1,13.36a11.2,11.2,0,0,1-4.81,9.55l-15,10.88,1,2.67s20.49-3.07,25.87-12.25,6.65-29.95,6.65-29.95Z"/><path class="cls-15" d="M222,310.68l-7.7,17.19s-3.16.37-4.54,1.58c-.72.63-.68,1.9-.49,3A1.06,1.06,0,0,0,211,333a7.31,7.31,0,0,1,2.65-1.68,3.19,3.19,0,0,0,2.47-1.66l11-17.32Z"/><path class="cls-15" d="M260.79,276.11l3.94-3.37-3.06-16.66-4.75-2.43a1.37,1.37,0,0,1,1.69-.53,4.35,4.35,0,0,0,2.16.16s.89-1.1-.79-1.84c-.95-.64-1.58,0-4.32-.11,0-.42,3.61-1.42,3.61-1.42,1.13-.36,4,1.87,4,1.87a2,2,0,0,1,.37.9l.45,3.09s6.12,16.77,6.12,18.56-3.43,4.24-3.43,4.24Z"/><path class="cls-12" d="M239.58,323.72s-2.37,2.86-.95,9.5c.91,4.24,4.9,9.58,7.58,13.25,1.92,2.64,2,6,1.38,9.16-2.2,12.2,1.32,27.1,1.32,27.1h2.85s4.27-21.83,5.54-37.18a44.27,44.27,0,0,0-4.9-24.2Z"/><rect class="cls-10" x="258.82" y="248" width="2.39" height="9.04" transform="translate(-27.58 473.12) rotate(-81.65)"/><rect class="cls-2" x="263.4" y="252.78" width="2.39" height="0.83" transform="translate(-24.33 478.23) rotate(-81.65)"/><path class="cls-5" d="M264.65,254.41c.65.09,1.21,0,1.36-1s-.36-1.27-1-1.37Z"/><polygon class="cls-2" points="255.37 253.05 253.63 252 253.76 251.15 255.71 250.69 255.37 253.05"/><polygon class="cls-12" points="253.63 252 252.88 251.46 253.76 251.15 253.63 252"/><rect class="cls-14" x="259.51" y="248.68" width="0.54" height="8.73" transform="translate(-28.28 473.38) rotate(-81.66)"/><rect class="cls-14" x="259.68" y="247.54" width="0.54" height="8.73" transform="translate(-27.01 472.56) rotate(-81.66)"/><path class="cls-4" d="M232.59,290c-5.09,3.74-11.08,21.71-11.08,21.71L226,314.2l7.27-10s.71,11.55-1,20.41c.79,3.32,4.56,2.95,10.68,1.79a30.35,30.35,0,0,0,10.12-3.8s.26-16,1.05-24.52-.77-9.4,1.37-9.12c4.78-2.71,12.61-11.45,12.61-11.45l-7.27-1.41-15.66,9.18S237.47,287.31,232.59,290Z"/><path class="cls-15" d="M241.47,268.73l3.78,3.73a6.55,6.55,0,0,1,1.79,6.08l-.44,2Z"/><path class="cls-5" d="M236.89,267.32c-9.18,0-5.27,17.61-5.27,17.61s1.63,11.43,5.27,16c3.15,4,9.38,2.78,12.33.87a11.28,11.28,0,0,1,4.76-1.76c2.5-.3,5.47-1.4,5.47-5.91,0-4.24-5.07-7.53-8.4-9.87a11,11,0,0,1-4.32-6.39C245.67,273.53,243.06,267.32,236.89,267.32Z"/><path class="cls-4" d="M249.4,385.9h7.12c.94.13,2,.49,2.18,1.58a8.4,8.4,0,0,1,.1,1.45c-.25.39-9.69-.05-9.69-.05l0,0A2.39,2.39,0,0,1,249.4,385.9Z"/><polygon class="cls-12" points="258.8 388.93 249.11 388.87 249.2 389.38 258.82 389.38 258.8 388.93"/><polygon class="cls-2" points="252.22 385.89 252.86 385.9 252.66 387.06 252.04 387.06 252.22 385.89"/><polygon class="cls-2" points="253.6 385.89 254.24 385.9 254.04 387.06 253.42 387.06 253.6 385.89"/><path class="cls-15" d="M248.92,382.74l.49,3.17h0a1.79,1.79,0,0,0,1.91.06l.11-.06.34-3.16Z"/><path class="cls-15" d="M258.62,253.12a1.37,1.37,0,0,0-1.69.53l3.16,1.61.13-.06a14.92,14.92,0,0,1,2.09-.76A26.25,26.25,0,0,0,258.62,253.12Z"/><path class="cls-5" d="M66.93,428.86s1,1.39,5.75,2.6c1,.27,2.17.45,2.17,2.17H70.17l-4.79-.83v.83H62.79s-.72-4.23.79-4.77Z"/><path class="cls-15" d="M67.18,425.82l-.25,3h0a2.93,2.93,0,0,1-3.17.11l-.18-.11v-3Z"/><path class="cls-5" d="M42.9,429.46s1,1.39,5.75,2.6c1,.27,2.17.45,2.17,2.17H46.14l-4.79-.83v.83H38.77s-.72-4.23.79-4.77Z"/><path class="cls-15" d="M43.15,426.43l-.25,3h0a2.93,2.93,0,0,1-3.17.11l-.18-.11v-3Z"/><path class="cls-5" d="M69.09,351.14l-1.17,76.33H62.36s-8.46-61.62-6.66-76.33S69.09,351.14,69.09,351.14Z"/><path class="cls-23" d="M63.21,351.13s-1.94,23.45-6.38,36.43-12.48,39.92-12.48,39.92H38.6s9.61-56.29,7.41-76.34h17.2Z"/><path class="cls-24" d="M68.22,312.28s6.85,16,8.59,16c1.39,0-.52-13.05-.52-13.05H82s7.22,22.37,1.48,26.45S65.16,330.1,65.16,330.1Z"/><path class="cls-15" d="M47.78,353.16l2.08,5.13c1,2,4.68,2.07,7.12,1.43a.51.51,0,0,0,.24-.83,70.5,70.5,0,0,0-6-6.08Z"/><path class="cls-25" d="M65.16,309s3.58,2.43,3.58,5.21v36.94h-21V316.59s.43-7.68,7.94-7.68S65.16,309,65.16,309Z"/><polygon class="cls-26" points="68.39 351.14 68.39 317.97 69.08 317.99 69.08 351.14 68.39 351.14"/><path class="cls-16" d="M55.43,301.66l1.69,8.55a5.32,5.32,0,0,0,4.37,1.16c2.57-.51,2.2-2.36,2.2-2.36l-1.08-5.48-4-.24Z"/><path class="cls-15" d="M63.26,305.09a3.24,3.24,0,0,0,1.81-.87c1.56-4.08-3-13.36-3-13.36l-8,3.12,1,6.61a5.62,5.62,0,0,0,3,4.12h0A9,9,0,0,0,63.26,305.09Z"/><path class="cls-23" d="M58,293.38a18,18,0,0,0,5.63-1.11c2.79-1.08.31-3.9.31-3.9A11.58,11.58,0,0,1,58.13,290c-2.64.13-3.43-.23-4.9,1-2,1.63-.66,5.56-.66,5.56l2.92,8.3.46-.09s-.89-5.1-1.23-6.83c.33-.88.85-1,1.29-.87a1.32,1.32,0,0,1,.92,1l1.75,8.87s6.13,1.32,7.48.59-.91-7.11-.91-7.11a2.69,2.69,0,0,0-2.8,1.3c-1,1.68-2.83.5-2.83.5Z"/><path class="cls-15" d="M80.93,315.21l-.2-1.1c-.45-2.44-2.78-5.48-5.13-6.27H73.16l.75,5.21,3.44,2.17Z"/><path class="cls-15" d="M55.26,296.91A1.47,1.47,0,0,1,56.89,298a1.27,1.27,0,0,1-.63,1.73,1.47,1.47,0,0,1-1.63-1.09A1.27,1.27,0,0,1,55.26,296.91Z"/><path class="cls-15" d="M74.92,312.46l4.75,2.75s-3,0-3,0l-5-4.2s.36-.73,1.5-.11A5.78,5.78,0,0,1,74.92,312.46Z"/><path class="cls-27" d="M50,311.22s-11.86,13.17-11.86,21.07,9.62,21.81,9.62,21.81l4.75-1.39s-4.29-17.22-4.29-21.8S57,319.61,57,319.61"/><path class="cls-26" d="M48.58,330.91c0,3.94,3.49,18.36,4.31,21.72l-.7.18c-1-4.15-4.3-18-4.3-21.9,0-4.7,8.58-11.29,8.95-11.57l.42.55C57.17,320,48.58,326.55,48.58,330.91Z"/><path class="cls-1" d="M71.74,303.84a12.58,12.58,0,0,0,2.17,9.2,1.37,1.37,0,0,0,.89.49,3.49,3.49,0,0,0,1.64-.27,1.52,1.52,0,0,0,1-.71.66.66,0,0,0-.07-.69c-.64-1-2.61-4.22-1.71-7.12A5.15,5.15,0,0,0,71.74,303.84Z"/><path class="cls-10" d="M76.88,313.08a1,1,0,0,0,.56-.53.66.66,0,0,0-.07-.69c-.64-1-2.61-4.22-1.71-7.12a4.35,4.35,0,0,0-1.86-.86C73.68,307.06,74.37,309.19,76.88,313.08Z"/><ellipse class="cls-5" cx="75.08" cy="307.94" rx="0.53" ry="1.35" transform="translate(-60.43 21.41) rotate(-11.61)"/><polygon class="cls-5" points="74.75 306.64 75.05 306.57 75.03 306.72 74.83 306.8 74.75 306.64"/><polygon class="cls-28" points="75.28 309.26 75.64 309.19 75.23 309.13 75.28 309.26"/><ellipse class="cls-1" cx="75.32" cy="307.89" rx="0.53" ry="1.35" transform="translate(-60.39 21.44) rotate(-11.6)"/><path class="cls-5" d="M70.46,299.54H69.9a1.91,1.91,0,0,0-2,1.86v1.48a1.91,1.91,0,0,0,2,1.86h.56Z"/><ellipse class="cls-5" cx="85.57" cy="301" rx="2.07" ry="7.3"/><polygon class="cls-2" points="83.41 298.31 85.05 299.38 85.05 301.74 83.36 303.27 82.78 300.2 83.41 298.31"/><path class="cls-10" d="M83.5,301c0-3.39.66-6.23,1.54-7.06h0a33.39,33.39,0,0,1-14.91,5.65v5.16S81,304.14,85,308.06h0C84.16,307.24,83.5,304.4,83.5,301Z"/><ellipse class="cls-1" cx="85.05" cy="300.55" rx="0.22" ry="1.19"/><path class="cls-15" d="M78.29,311.43a5.6,5.6,0,0,1-2.65.43c-1.38,0-2-1.7-2.24-2.62-.08-.32-.16-.79.25-1l2.22-.31Z"/></g></g></svg>