<svg xmlns="http://www.w3.org/2000/svg" xmlns:xlink="http://www.w3.org/1999/xlink" viewBox="0 0 441.88 344.22"><defs><style>.cls-1{fill:url(#_ÂÁ_Ï_ÌÌ_È_ËÂÌÚ_4);}.cls-2{fill:#043c5e;}.cls-3{fill:#00666a;}.cls-4{fill:#01898c;}.cls-5{fill:#ffd247;}.cls-6{fill:#fff;}.cls-7{fill:url(#_ÂÁ_Ï_ÌÌ_È_ËÂÌÚ_4-2);}.cls-8{fill:url(#_ÂÁ_Ï_ÌÌ_È_ËÂÌÚ_4-3);}.cls-9{fill:url(#_ÂÁ_Ï_ÌÌ_È_ËÂÌÚ_4-4);}.cls-10{fill:#63c1c5;}.cls-11{fill:url(#_ÂÁ_Ï_ÌÌ_È_ËÂÌÚ_4-5);}.cls-12{fill:#212b53;}.cls-13{fill:#f8b68f;}.cls-14{fill:#f4a086;}.cls-15{fill:#11375b;}.cls-16{fill:url(#_ÂÁ_Ï_ÌÌ_È_ËÂÌÚ_4-6);}.cls-17{fill:url(#_ÂÁ_Ï_ÌÌ_È_ËÂÌÚ_4-7);}.cls-18{fill:#93cfc7;}.cls-19{fill:url(#_ÂÁ_Ï_ÌÌ_È_ËÂÌÚ_7);}.cls-20{fill:#f59c42;}.cls-21{fill:#fab746;}.cls-22{fill:#e8375e;}.cls-23{fill:#f7a605;}.cls-24{fill:#b0d9c8;}.cls-25{fill:#32a6a6;}.cls-26{fill:url(#_ÂÁ_Ï_ÌÌ_È_ËÂÌÚ_4-8);}.cls-27{fill:url(#_ÂÁ_Ï_ÌÌ_È_ËÂÌÚ_4-9);}.cls-28{fill:url(#_ÂÁ_Ï_ÌÌ_È_ËÂÌÚ_2);}.cls-29{fill:url(#_ÂÁ_Ï_ÌÌ_È_ËÂÌÚ_2-2);}.cls-30{fill:url(#_ÂÁ_Ï_ÌÌ_È_ËÂÌÚ_2-3);}.cls-31{fill:url(#_ÂÁ_Ï_ÌÌ_È_ËÂÌÚ_2-4);}</style><linearGradient id="_ÂÁ_Ï_ÌÌ_È_ËÂÌÚ_4" x1="322.34" y1="54.97" x2="425.18" y2="54.97" gradientUnits="userSpaceOnUse"><stop offset="0" stop-color="#e0f0eb"/><stop offset="1" stop-color="#c0e4ef"/></linearGradient><linearGradient id="_ÂÁ_Ï_ÌÌ_È_ËÂÌÚ_4-2" x1="173.73" y1="206.51" x2="368.51" y2="206.51" gradientTransform="matrix(-1, 0, 0, 1, 590.29, 0)" xlink:href="#_ÂÁ_Ï_ÌÌ_È_ËÂÌÚ_4"/><linearGradient id="_ÂÁ_Ï_ÌÌ_È_ËÂÌÚ_4-3" x1="392.45" y1="30.63" x2="562.44" y2="30.63" gradientTransform="translate(-369.2)" xlink:href="#_ÂÁ_Ï_ÌÌ_È_ËÂÌÚ_4"/><linearGradient id="_ÂÁ_Ï_ÌÌ_È_ËÂÌÚ_4-4" x1="135.58" y1="117.23" x2="398.42" y2="117.23" gradientTransform="translate(-31.98 80.84) rotate(-18.65)" xlink:href="#_ÂÁ_Ï_ÌÌ_È_ËÂÌÚ_4"/><linearGradient id="_ÂÁ_Ï_ÌÌ_È_ËÂÌÚ_4-5" x1="81.91" y1="124.41" x2="396.73" y2="124.41" gradientTransform="translate(-31.98 80.84) rotate(-18.65)" xlink:href="#_ÂÁ_Ï_ÌÌ_È_ËÂÌÚ_4"/><linearGradient id="_ÂÁ_Ï_ÌÌ_È_ËÂÌÚ_4-6" x1="-286.19" y1="267.64" x2="-271.53" y2="267.64" gradientTransform="matrix(-1, 0, 0, 1, -80.68, 0)" xlink:href="#_ÂÁ_Ï_ÌÌ_È_ËÂÌÚ_4"/><linearGradient id="_ÂÁ_Ï_ÌÌ_È_ËÂÌÚ_4-7" x1="-274.08" y1="269.57" x2="-259.14" y2="269.57" gradientTransform="matrix(-1, 0, 0, 1, -80.68, 0)" xlink:href="#_ÂÁ_Ï_ÌÌ_È_ËÂÌÚ_4"/><linearGradient id="_ÂÁ_Ï_ÌÌ_È_ËÂÌÚ_7" x1="-265.75" y1="271.45" x2="-252.28" y2="271.45" gradientTransform="matrix(-1, 0, 0, 1, -80.68, 0)" gradientUnits="userSpaceOnUse"><stop offset="0" stop-color="#c0e4ef"/><stop offset="1" stop-color="#e0f0eb"/></linearGradient><linearGradient id="_ÂÁ_Ï_ÌÌ_È_ËÂÌÚ_4-8" x1="321.82" y1="323.04" x2="327.76" y2="323.04" gradientTransform="translate(155.22 -126.72) rotate(11.54)" xlink:href="#_ÂÁ_Ï_ÌÌ_È_ËÂÌÚ_4"/><linearGradient id="_ÂÁ_Ï_ÌÌ_È_ËÂÌÚ_4-9" x1="56.14" y1="273.45" x2="78.9" y2="273.45" xlink:href="#_ÂÁ_Ï_ÌÌ_È_ËÂÌÚ_4"/><linearGradient id="_ÂÁ_Ï_ÌÌ_È_ËÂÌÚ_2" x1="777.26" y1="101.42" x2="809.72" y2="101.42" gradientTransform="matrix(-1, 0, 0, 1, 855.37, 0)" gradientUnits="userSpaceOnUse"><stop offset="0" stop-color="#f1f8f8"/><stop offset="1" stop-color="#c0e4ef"/></linearGradient><linearGradient id="_ÂÁ_Ï_ÌÌ_È_ËÂÌÚ_2-2" x1="777.26" y1="111.24" x2="803.44" y2="111.24" xlink:href="#_ÂÁ_Ï_ÌÌ_È_ËÂÌÚ_2"/><linearGradient id="_ÂÁ_Ï_ÌÌ_È_ËÂÌÚ_2-3" x1="615.65" y1="23.92" x2="655.8" y2="23.92" gradientTransform="matrix(-1, 0, 0, 1, 949.27, 0)" xlink:href="#_ÂÁ_Ï_ÌÌ_È_ËÂÌÚ_2"/><linearGradient id="_ÂÁ_Ï_ÌÌ_È_ËÂÌÚ_2-4" x1="607.45" y1="25.01" x2="655.54" y2="25.01" gradientTransform="matrix(-1, 0, 0, 1, 949.27, 0)" xlink:href="#_ÂÁ_Ï_ÌÌ_È_ËÂÌÚ_2"/></defs><title>putovanja</title><g id="Layer_2" data-name="Layer 2"><g id="_ÎÓÈ_1" data-name="—ÎÓÈ_1"><path class="cls-1" d="M322.6,57.11c-3.75,16.3,34.69,18.39,50.53,18.57a62.18,62.18,0,0,0,13.06-1.24c13.39-2.72,42.71-9.85,38.6-19.55-5.3-12.51-21.24-3.79-21.24-3.79s2-9.45-25.12-15.69-27,14.55-27,14.55S327.31,36.64,322.6,57.11Z"/><path class="cls-2" d="M313.8,202.31S268,148.9,291.71,103.13c88.15,9.67,78.4,96.34,78.4,96.34Z"/><path class="cls-3" d="M291.71,103.13l.91.11,36.51,74.41,20-47.66q.57.65,1.13,1.3L330,179.49,340.57,201l-1.68.08-21-42.8h0l-29.7-4c-.15-.54-.3-1.08-.44-1.62l29.32,3.92L291.28,104c.14-.29.28-.58.43-.87Z"/><path class="cls-4" d="M324.72,181.06S322.36,110.95,365,86c51.18,30.08,26.3,92.26,26.3,92.26l-42.91,43.84Z"/><path class="cls-3" d="M332.46,130.07l23.77,20.07L364,86.63l1-.61.59.36-4.15,34,23.84-16.33.47.67.41.6-25,17.1-6.92,56.69L397,151.81c-.05.66-.11,1.31-.18,1.94L354,181.12l-4.91,40.25-.73.74-.76-1.32L356,152l-24.06-20.32Q332.19,130.87,332.46,130.07Z"/><path class="cls-5" d="M398.62,225a29.07,29.07,0,0,1,14.7,4.46c12.19-17.88,18.72-40.82,8.84-68.65-38.43-8.34-70.71,40.51-70.71,40.51l1.1,25.68C367.63,224.13,383.36,225,398.62,225Z"/><path class="cls-6" d="M371.25,225.05c9.13-.35,18.34,0,27.37,0a24.37,24.37,0,0,1,4.42.44l13-.17q.47-.77.92-1.56l-43.16.57,48.68-62.6-.3-.87h0l-.85-.17L391.82,198.6,388,166.93l-1.46.82,3.9,32.58Z"/><path class="cls-2" d="M84.37,261.28c6.94-5.74,14.91-7.84,23.53-8.19,8.16-17.79,18.68-50.75.5-76.45C32.66,195.77,51.67,270.2,51.67,270.2l26.6-2.34A36.09,36.09,0,0,1,84.37,261.28Z"/><path class="cls-3" d="M77.63,267.92l.64-.06c.45-.62.92-1.23,1.41-1.81L92.24,227.9h0l25.43-7.06c.07-.49.13-1,.19-1.46l-25.11,7,16.13-49-.48-.71h0l-.78.2L84.78,246.19,61.53,207q-.42.63-.83,1.27l23.51,39.59Z"/><path class="cls-5" d="M83.7,261.86,89,248.63s-6.45-61.46-46.64-78C1.4,203,30.65,254.28,30.65,254.28L71.31,285.7C71.9,277,77.2,267.56,83.7,261.86Z"/><path class="cls-6" d="M72.3,280l-14.07-53,18.53-20.65-.65-1.32-18.3,20.39L43.35,171l-.94-.41-.47.39,7.75,29.18L26.9,188.81l-.33.64-.28.57,23.86,11.89,12.91,48.62L22.44,231.88c.13.56.25,1.13.39,1.68l40.69,18.68,8.13,30.62C71.81,281.92,72,281,72.3,280Z"/><path class="cls-4" d="M68.18,269.58S34.1,230.87,1.58,242.81c-14.26,69.28,72.86,92.31,72.86,92.31Z"/><path class="cls-3" d="M1.58,242.81c-.05.27-.1.53-.16.8l50.06,48.71-37.72,4.74,1,1.25,38-4.77,19.55,19-.2-2.09L34,273.42l-.55-28.9L32.1,244l.53,28.09L2.3,242.56l-.72.25Z"/><path class="cls-7" d="M404.51,235.45c-30.24,4.45-100.69,12-169.8-1.36a17,17,0,0,1-11.34-7.62c-3-4.94-2-9.2,5.43-15.5,5.65-4.81,12.3-4.37,17.19-3a5.81,5.81,0,0,0,7.27-4.42c1.16-5.39,4.74-12.44,15-16.61,10.12-4.1,16.52,2.16,20.22,8.59a2.87,2.87,0,0,0,5.2-.53c3.21-10.15,14.38-23.61,51.1-23.61,46.73,0,41.51,24.85,37.33,35.16a2.38,2.38,0,0,0,2.7,3.23c7.2-1.54,20.58-3.54,26.58,1.17q.39.31.77.64C420.77,219.38,416,233.76,404.51,235.45Z"/><path class="cls-8" d="M33.77,55.89C60.16,59.77,121.65,66.32,182,54.7a14.79,14.79,0,0,0,9.9-6.65c2.64-4.31,1.72-8-4.74-13.53-4.93-4.19-10.73-3.82-15-2.61a5.07,5.07,0,0,1-6.34-3.86c-1-4.7-4.14-10.86-13.11-14.49s-14.41,1.89-17.64,7.5a2.51,2.51,0,0,1-4.53-.46C127.69,11.74,117.94,0,85.89,0,45.11,0,49.67,21.69,53.31,30.69A2.08,2.08,0,0,1,51,33.51c-6.29-1.34-18-3.09-23.19,1q-.34.27-.67.56C19.58,41.86,23.77,54.41,33.77,55.89Z"/><polygon class="cls-9" points="397.5 107.49 241.71 79.32 170.14 88.53 121.99 113.08 397.5 107.49"/><polyline class="cls-10" points="397.5 107.49 130.25 127.25 121.99 113.08"/><polygon class="cls-4" points="137.47 171.81 137.96 172.22 153.71 195.78 396.88 107.72 137.47 171.81"/><polygon class="cls-11" points="82.96 165.28 108.44 124.97 395.76 107.62 166.91 177.34 82.96 165.28"/><path class="cls-12" d="M203.89,115.85s.08,2.55,5.26,3.95c1.06.29.73.61.94,1l-5.91.16-2.38-2.54-.7.64-1.71-1.59s.71-2.39,2-2.45Z"/><path class="cls-13" d="M204.78,113.62l-.9,2.24h0a2.32,2.32,0,0,1-2.42-.66l-.11-.12.71-2.3Z"/><path class="cls-12" d="M229.92,116.15a14.72,14.72,0,0,0,6.12,2.61c.93.21,1.92-.13,2,1.39l-5.1.14-4.26-.62,0,.73-2.29.06s-.74-3.73.58-4.24Z"/><path class="cls-13" d="M229.4,113.47l.52,2.68h0a2.59,2.59,0,0,1-2.8.17l-.16-.09.15-2.7Z"/><path class="cls-12" d="M218.67,58.55a81.2,81.2,0,0,0-6,23,18.2,18.2,0,0,1-2.86,8c-4.51,6.82-8.21,23.7-8.21,23.7l3.26.83L226.8,76.69l-.65-17.77Z"/><path class="cls-2" d="M221.22,58.68s-1.64,12.11,1.87,23.88a15.59,15.59,0,0,1,.47,6.59c-1.14,8.3,3.17,25.19,3.17,25.19l3.06-.08,3.81-54.93Z"/><path class="cls-13" d="M221.11,36.66s-4.93-.84-4.22-4S226.47,18,226.47,18l7.16-1s-.41,1.75-4.91,2.66S221.11,36.66,221.11,36.66Z"/><path class="cls-14" d="M227.79,20.09c-.45-.68-.89-1.37-1.33-2.07h0l7.16-1s-.41,1.75-4.91,2.66A2.61,2.61,0,0,0,227.79,20.09Z"/><polygon class="cls-14" points="228.08 25.8 227.77 31.02 222.69 29.56 223.87 25.38 228.08 25.8"/><path class="cls-13" d="M227.89,16.78s4,5.7,3,9.12c-1.15,1.74-6.13-.5-6.13-.5l-.22-7.87Z"/><path class="cls-12" d="M228.63,16.93A4.72,4.72,0,0,0,226.47,18c-.91.86,0,4.21,0,4.21l.07,1.19A2.6,2.6,0,0,1,224,26.17h-.1s-6.56-6.18-4-9.17C224.45,12.62,228.63,16.93,228.63,16.93Z"/><path class="cls-13" d="M227.51,22.06a1.07,1.07,0,0,0-.77-1.08c-.51-.18-1,0-1.06.42a1.07,1.07,0,0,0,.77,1.08C227,22.66,227.43,22.47,227.51,22.06Z"/><path class="cls-12" d="M229.86,15.66c0,.88-.93,1.62-2.13,1.66s-5.39-.57-5.41-1.45,4.12-1.71,5.32-1.74S229.84,14.78,229.86,15.66Z"/><path class="cls-4" d="M218.67,58.55s-6-31.8,7-29.55c12.71,2.19,7.89,30.34,7.89,30.34Z"/><path class="cls-13" d="M224.58,31.73s-8,10.45-6.67,13.27,12.4,14.06,13,14.69c1,1.32-.48,6.52,2.66,4.53s.45-5.54-.3-6.35l-8.38-12.93,4.59-6.56Z"/><path class="cls-10" d="M222.05,35l5.64,6,2.15-2.32a5.49,5.49,0,0,0,1.24-5.57,4.56,4.56,0,0,0-1.17-1.8l-.07-.06a3.71,3.71,0,0,0-5.42.56Z"/><path class="cls-12" d="M192.12,340s.72,1,4.1,1.85c.74.19,1.55.32,1.55,1.55h-3.34L191,342.8v.59h-1.84s-.51-3,.56-3.4Z"/><path class="cls-13" d="M192.29,337.82l-.18,2.17h0a2.08,2.08,0,0,1-2.26.08l-.13-.08v-2.17Z"/><path class="cls-12" d="M175,340.42s.72,1,4.1,1.85c.74.19,1.55.32,1.55,1.55h-3.34l-3.41-.59v.59h-1.84s-.51-3,.56-3.4Z"/><path class="cls-13" d="M175.17,338.25l-.18,2.17h0a2.08,2.08,0,0,1-2.26.08l-.13-.08v-2.17Z"/><path class="cls-12" d="M193.65,284.62,192.82,339h-4s-6-43.91-4.74-54.38S193.65,284.62,193.65,284.62Z"/><path class="cls-15" d="M189.46,284.61s-1.38,16.71-4.55,26S176,339,176,339h-4.1s6.85-40.11,5.28-54.39h12.25Z"/><path class="cls-16" d="M193,256.93s4.88,11.39,6.12,11.39c1,0-.37-9.3-.37-9.3h4.09S208,275,203.93,277.86s-13.07-8.24-13.07-8.24Z"/><path class="cls-13" d="M178.47,286.05l1.48,3.66c.71,1.44,3.33,1.47,5.07,1a.36.36,0,0,0,.17-.59,50.24,50.24,0,0,0-4.29-4.33Z"/><path class="cls-17" d="M190.85,254.57s2.55,1.73,2.55,3.71v26.32H178.46V260s.31-5.47,5.65-5.47S190.85,254.57,190.85,254.57Z"/><polygon class="cls-18" points="193.16 284.62 193.16 260.98 193.65 261 193.65 284.62 193.16 284.62"/><path class="cls-14" d="M185.44,248.7v6.21a3.79,3.79,0,0,0,2.9,1.42c1.86,0,1.86-1.34,1.86-1.34v-4l-2.76-.72Z"/><path class="cls-13" d="M190.44,252.18a2.31,2.31,0,0,0,1.38-.36c1.66-2.64-.23-9.75-.23-9.75l-6,1.08-.19,4.77a4,4,0,0,0,1.5,3.29h0A6.42,6.42,0,0,0,190.44,252.18Z"/><path class="cls-12" d="M188.41,243.27a12.85,12.85,0,0,0,4.09,0c2.1-.37.76-2.68.76-2.68a8.25,8.25,0,0,1-4.31.3c-1.86-.28-2.36-.64-3.56,0-1.62.86-1.23,3.8-1.23,3.8l.89,6.2h.34s.08-3.69.08-4.94c.35-.57.73-.57,1-.43a.94.94,0,0,1,.5.85v6.44s4.1,1.77,5.15,1.45.35-5.09.35-5.09a1.92,1.92,0,0,0-2.14.52c-.92,1-2,0-2,0Z"/><path class="cls-13" d="M202.09,259l-.14-.79a6.54,6.54,0,0,0-3.65-4.47h-1.74l.54,3.71,2.45,1.55Z"/><path class="cls-13" d="M186,245.35a1,1,0,0,1,1,1,.9.9,0,0,1-.68,1.12,1,1,0,0,1-1-1A.9.9,0,0,1,186,245.35Z"/><path class="cls-13" d="M197.81,257.06l3.38,2s-2.12,0-2.16,0l-3.58-3s.26-.52,1.07-.08A4.12,4.12,0,0,1,197.81,257.06Z"/><path class="cls-19" d="M180.05,256.17s-8.45,9.38-8.45,15,6.86,15.54,6.86,15.54l3.39-1s-3.06-12.27-3.06-15.53,6.28-8,6.28-8"/><path class="cls-18" d="M179,270.2c0,2.81,2.49,13.08,3.07,15.48l-.5.13c-.72-3-3.07-12.84-3.07-15.6,0-3.35,6.12-8,6.38-8.25l.3.39C185.16,262.4,179,267.1,179,270.2Z"/><path class="cls-20" d="M195.54,250.91a9,9,0,0,0,1.55,6.55,1,1,0,0,0,.63.35,2.49,2.49,0,0,0,1.17-.19,1.09,1.09,0,0,0,.71-.51.47.47,0,0,0,0-.49c-.46-.68-1.86-3-1.22-5.07A3.67,3.67,0,0,0,195.54,250.91Z"/><path class="cls-21" d="M199.2,257.5a.72.72,0,0,0,.4-.38.47.47,0,0,0,0-.49c-.46-.68-1.86-3-1.22-5.07a3.1,3.1,0,0,0-1.33-.61C196.93,253.21,197.41,254.73,199.2,257.5Z"/><ellipse class="cls-20" cx="197.92" cy="253.84" rx="0.38" ry="0.96" transform="matrix(0.98, -0.2, 0.2, 0.98, -47.03, 45.02)"/><polygon class="cls-20" points="197.69 252.91 197.9 252.86 197.88 252.97 197.74 253.02 197.69 252.91"/><polygon class="cls-22" points="198.06 254.78 198.32 254.73 198.03 254.69 198.06 254.78"/><ellipse class="cls-5" cx="198.09" cy="253.8" rx="0.38" ry="0.96" transform="translate(-47 45.03) rotate(-11.6)"/><path class="cls-5" d="M194.63,247.85h-.4a1.36,1.36,0,0,0-1.39,1.33v1.05a1.36,1.36,0,0,0,1.39,1.33h.4Z"/><ellipse class="cls-12" cx="205.4" cy="248.89" rx="1.48" ry="5.2"/><polygon class="cls-6" points="203.86 246.97 205.02 247.73 205.02 249.42 203.82 250.51 203.41 248.32 203.86 246.97"/><path class="cls-23" d="M203.92,248.89c0-2.42.47-4.44,1.1-5h0a23.79,23.79,0,0,1-10.62,4v3.67s7.75-.44,10.62,2.36h0C204.39,253.34,203.92,251.31,203.92,248.89Z"/><ellipse class="cls-5" cx="205.02" cy="248.57" rx="0.16" ry="0.85"/><path class="cls-13" d="M200.21,256.32a4,4,0,0,1-1.89.31c-1,0-1.43-1.21-1.59-1.87-.06-.23-.11-.56.18-.71l1.58-.22Z"/><polygon class="cls-4" points="341.75 341.73 305.26 228.3 307.34 228.3 343.83 341.73 341.75 341.73"/><polygon class="cls-4" points="322.89 341.73 286.4 228.3 288.48 228.3 324.96 341.73 322.89 341.73"/><polygon class="cls-4" points="316.8 257.76 316.8 259.45 297.25 259.44 296.91 257.75 316.8 257.76"/><polygon class="cls-4" points="312.75 246.77 312.75 248.46 293.2 248.45 292.87 246.75 312.75 246.77"/><polygon class="cls-4" points="309.41 235.78 309.41 237.47 289.86 237.46 289.53 235.76 309.41 235.78"/><polygon class="cls-4" points="320.36 268.89 320.36 270.58 300.81 270.57 300.47 268.88 320.36 268.89"/><polygon class="cls-4" points="323.7 280.02 323.7 281.71 304.15 281.7 303.81 280.01 323.7 280.02"/><polygon class="cls-4" points="327.16 291.59 327.95 293.28 308.4 293.27 308.06 291.58 327.16 291.59"/><polygon class="cls-4" points="330.82 303.15 331.61 304.85 312.06 304.83 311.73 303.14 330.82 303.15"/><polygon class="cls-4" points="334.25 314.46 335.04 316.15 315.49 316.14 315.16 314.45 334.25 314.46"/><polygon class="cls-4" points="337.1 326.02 337.89 327.71 318.34 327.7 318 326.01 337.1 326.02"/><path class="cls-14" d="M361.44,308.08c2.2,15.72-.21,32-.21,31.86a7.25,7.25,0,0,0-1.75,0s-2.43-19.11-3-25.48,0-6.8,0-6.8S359.24,292.36,361.44,308.08Z"/><polygon class="cls-24" points="362.02 267.52 367.39 270.94 369.66 266.22 362.71 258.26 362.02 267.52"/><polygon class="cls-13" points="333.65 236.04 340.23 253.24 344.43 250.11 335.04 234.28 333.65 236.04"/><path class="cls-13" d="M333.27,230.2a2.71,2.71,0,0,1,1,1.68l.81,2.4-.26.45L333.65,236a1.73,1.73,0,0,0-.45-.9l-1.79-2s-2.94-3.42-.2-4.59c-1.61-3.18-.46-3.1-.46-3.1l1.44,2.73Z"/><path class="cls-13" d="M332.85,230.83s.59-.56.07-1.89.27-1.23.27-1.23,2.2,5.17,1.49,5.76S332.85,230.83,332.85,230.83Z"/><path class="cls-24" d="M352.51,256.77l-2,.15-6.7-7.8-3.62,4.12A109.28,109.28,0,0,0,348.4,266c.28,1.32,1.71,14.58,1.71,14.58h11.61s-1.85-9.73,1.42-15.15S352.51,256.77,352.51,256.77Z"/><path class="cls-13" d="M356.32,308.08c2.2,15.72-.21,32-.21,31.86a7.25,7.25,0,0,0-1.75,0s-2.43-19.11-3-25.48,0-6.8,0-6.8S354.12,292.36,356.32,308.08Z"/><path class="cls-13" d="M352.09,244.63l6.69,2.34-.66,5c0,.07,0,.14,0,.21l-.38.08-.06,0h-.06a4.58,4.58,0,0,0-3.13,3.13,7.89,7.89,0,0,1-2.89,0,2.9,2.9,0,0,1-1.52-.66C348.62,251.64,352.09,244.63,352.09,244.63Z"/><path class="cls-12" d="M351.92,248.84a4.4,4.4,0,0,1,.14,3.84,6.46,6.46,0,0,0-.22,5.27,7,7,0,0,0,2.45,2.21,3.78,3.78,0,0,1,1.78,2.86c.15,1.62.3,3.62,1.69,4.1,4,1.39,5.52,1.26,6.05-2.11a6.84,6.84,0,0,0-.35-3.3,5.89,5.89,0,0,1,.12-4.42,7.7,7.7,0,0,0,.76-2.64,5.56,5.56,0,0,0-1.43-2.75,5.65,5.65,0,0,1-1.19-4.05,5.2,5.2,0,0,0-1.55-4.58c-2.76-2.35-8.88,1.35-8.88,1.35A5.9,5.9,0,0,0,351.92,248.84Z"/><path class="cls-13" d="M369.66,266.22l2.58,2.67c1.71,1.78,2.25,4.25.18,5.61L364,281.2l.78,1.45a3.54,3.54,0,0,1-.31,3.82l-.89,1.17-2-6.77,6.12-7.64a1.47,1.47,0,0,0-.32-2.28h0Z"/><path class="cls-2" d="M350.12,280.57a28.32,28.32,0,0,0-1.7,8.88c0,2.45,2.13,21,2.13,21h11.05c-.75-13.67,3.4-15.35,3.4-21.26,0-4.17-3.27-8.59-3.27-8.59Z"/><path class="cls-12" d="M361.23,337.89a2,2,0,0,1,.79,1.73c-.18,1-.43,3.24-.43,3.24h-1l0-2.12c0-.14-2.13,2.12-2.49,2.12h-5.26s-.35-1.43,2.74-1.89A11.39,11.39,0,0,0,361.23,337.89Z"/><path class="cls-15" d="M355.62,337.89a2,2,0,0,1,.79,1.73c-.18,1-.43,3.24-.43,3.24h-1l0-2.12c0-.14-2.13,2.12-2.49,2.12h-5.26s-.35-1.43,2.74-1.89A11.39,11.39,0,0,0,355.62,337.89Z"/><path class="cls-5" d="M362,308.08"/><path class="cls-12" d="M406.29,338.68a14.12,14.12,0,0,1-5.8,2.67c-.89.23-1.84-.08-1.84,1.39h4.89l4.07-.7v.7h2.2s.61-3.59-.67-4.05Z"/><path class="cls-13" d="M406.72,336.1l-.43,2.58h0a2.49,2.49,0,0,0,2.69.09l.15-.09-.22-2.58Z"/><path class="cls-12" d="M422.5,338.68a14.12,14.12,0,0,1-5.8,2.67c-.89.23-1.84-.08-1.84,1.39h4.89l4.07-.7v.7H426s.61-3.59-.67-4.05Z"/><path class="cls-13" d="M422.94,336.1l-.43,2.58h0a2.49,2.49,0,0,0,2.69.09l.15-.09-.22-2.58Z"/><path class="cls-12" d="M402.93,282.49s-2.2,20.54-2.59,23.62,5.5,31.48,5.5,31.48l3.77.11s1-16.58.82-26a18.18,18.18,0,0,1,3.34-9.88c8-11.84,7.33-19.86,7.33-19.86Z"/><path class="cls-2" d="M405.77,282.81s1.08,14.15,3.09,21.75c.84,3.19,13.45,32.78,13.45,32.78l3.39-.06s-.51-14.5-4.16-24.31c-1.29-3.46-.89-5.23-.68-8.13a188.59,188.59,0,0,0,.24-23.49Z"/><path class="cls-13" d="M396,241.46l.92-2.8a.74.74,0,0,1,.54-.49l.6-.13a.74.74,0,0,1,.56.1l2.46,1.55a.74.74,0,0,1,.31.87l-.12.34a.74.74,0,0,1-.36.42L397.63,243Z"/><path class="cls-14" d="M397.63,243l2.55-.57a.71.71,0,0,0,.49-1l-.49-1c-.13-.27-1.76-.38-1.76-.38s-.4,1.13,1.1,1.07a1.12,1.12,0,0,0,.11.56,3.2,3.2,0,0,0-3.18.23Z"/><path class="cls-4" d="M395.75,241s-7.14,8.32-4.31,13.59,11.81,13.92,11.81,13.92l4.53-11.49s-6.46.38-10.44-4,.88-10.05.88-10.05Z"/><path class="cls-13" d="M418.21,239.69,417,237a.74.74,0,0,0-.59-.42l-.61-.06a.74.74,0,0,0-.54.16L413,238.5a.74.74,0,0,0-.21.9l.16.33a.74.74,0,0,0,.41.38l3.43,1.29Z"/><path class="cls-13" d="M416.74,241.4l-2.59-.28a.71.71,0,0,1-.6-.94l.37-1.07c.1-.28,1.71-.57,1.71-.57s.52,1.08-1,1.19a1.12,1.12,0,0,1,0,.57,3.2,3.2,0,0,1,3.19-.13Z"/><path class="cls-4" d="M406.79,255.08c-6,3.79-3.86,28-3.86,28l18.17-1.75-1.56-17.91s8.47-9.86,10.21-17.17-11.2-7.26-11.2-7.26l-2.09,2.6s8.67.72,6.22,4.5-10.42,9-10.42,9Z"/><path class="cls-25" d="M403.1,282.71c-.2-2.61-1.32-18.95,2-25.36l-.2-.44c-3.74,6.64-2.35,24.22-2.2,26.07Z"/><path class="cls-14" d="M410.77,254.8l-.72-3.4-3.89.35-.38,4,.08.08A11,11,0,0,1,410.77,254.8Z"/><path class="cls-13" d="M412.33,244.86l-1.14,5.29c-.53-.11-.93.41-.91.93a1,1,0,0,0-.15.38,6.2,6.2,0,0,1-4.93.33c-3.27-1.19-.17-7.39-.17-7.39Z"/><path class="cls-12" d="M413.27,247.8a3.56,3.56,0,0,0-.31-4.67c-1.16-1.25-2.74-2.36-4.13-2.39-2.45-.06-3.42.23-4.84,1.32-2.15,1.67.7,3.09.7,3.09a6.6,6.6,0,0,0,4.6.53.87.87,0,0,1,1,.41c.48,1-.23,5.4-.23,5.4A15.31,15.31,0,0,0,413.27,247.8Z"/><circle class="cls-13" cx="410.57" cy="248.81" r="0.83" transform="matrix(0.52, -0.85, 0.85, 0.52, -16.09, 468.91)"/><polygon class="cls-26" points="405.89 254.33 405.77 256.16 411.8 255.1 410.59 253.07 405.89 254.33"/><path class="cls-12" d="M259.44,340.11a11.53,11.53,0,0,1-4.73,2.18c-.72.18-1.51-.06-1.51,1.13h4l3.32-.57v.57h1.79s.5-2.93-.55-3.31Z"/><path class="cls-13" d="M259.64,338l-.2,2.11h0a2,2,0,0,0,2.2.07l.12-.07.37-2.11Z"/><path class="cls-12" d="M273.9,340.11a11.53,11.53,0,0,1-4.73,2.18c-.72.18-1.5-.06-1.5,1.13h4l3.32-.57v.57h1.79s.5-2.93-.55-3.31Z"/><path class="cls-13" d="M274.1,338l-.2,2.11h0a2,2,0,0,0,2.2.07l.12-.07.37-2.11Z"/><path class="cls-13" d="M238,260.1a4.3,4.3,0,0,1-2.49-.32c-1.34-.47-3.81-2.32-3.9-.72.91,1.27,1.82,2.89,1.82,2.89a4.68,4.68,0,0,0,3.19,1l3.12-.47s.86-1.35.92-1.41l-.44-.49A6.88,6.88,0,0,1,238,260.1Z"/><path class="cls-13" d="M237.33,260.5a1.2,1.2,0,0,1-.22.1c.14.15.26.31.39.47.66.33,1.32.68,2,1,.15-.43.36-1,.38-1.08L236,257.89s-.58.33,0,1.23A4.7,4.7,0,0,0,237.33,260.5Z"/><polygon class="cls-14" points="268.09 248.68 267.67 252.8 272.09 252.97 271.2 246.58 268.09 248.68"/><path class="cls-13" d="M266.73,249.43a2.22,2.22,0,0,1-1.24-.29c-1.48-2.15.21-8,.21-8l2.37-1,3,1.88.17,3.89a3.16,3.16,0,0,1-1.34,2.68h0A6.16,6.16,0,0,1,266.73,249.43Z"/><path class="cls-12" d="M270.6,244.26c-.17-.65-.08-2.16-.74-2.05-.49.08-2.15.15-2.71.15-1.33,0-3.71-.52-3.71-2.55a2.62,2.62,0,0,1,3.54-2.17c1.47.51,3.42,1.65,4.19,1.49,1.31-.26,2.61.5,2.59,1.61a11.11,11.11,0,0,1-1.22,4.1,6.24,6.24,0,0,1-1.33,1.74h0Z"/><path class="cls-13" d="M272,244.41a1,1,0,0,0-1.24.11c-.39.32-.46.8-.17,1.06a1,1,0,0,0,1.24-.11C272.17,245.15,272.25,244.67,272,244.41Z"/><path class="cls-10" d="M263.86,254.66c-8.33,6.47-24.47,4.76-24.47,4.76l-.75,4.23s20.49,6.05,23,1.21S272.19,248.18,263.86,254.66Z"/><path class="cls-10" d="M269.88,251.6h-.45c-4.87.18-8.68,6.9-8.68,11.78V281h18.81V260.84a9.14,9.14,0,0,0-7.65-9.09A13.39,13.39,0,0,0,269.88,251.6Z"/><path class="cls-13" d="M263.88,277.61l-4.16.48c-1.7.07-3.07-2.36-3.52-4.21a.38.38,0,0,1,.47-.46,53.32,53.32,0,0,1,6.22,1.8Z"/><path class="cls-10" d="M278.46,256.44s9.48,12.67,3.53,18.81-19.37,3.54-19.37,3.54v-3.91s12.66,0,13.41-4.27-3-9-3-9"/><path class="cls-4" d="M279.56,276.88c-6,3.46-15.45,2-16.76,1.75v-3.57c1.64,0,12.68-.26,13.4-4.42.75-4.33-2.89-8.91-3-9.1l-.29.23s3.69,4.64,3,8.8-13,4.11-13.22,4.11h-.19v4.25l.15,0a38.14,38.14,0,0,0,6.44.54c3.34,0,7.37-.46,10.54-2.21Z"/><path class="cls-12" d="M260.75,281c-2.15,10.43-2.48,21.66-2.53,31.08a249.32,249.32,0,0,0,1.17,26.27h3.1L269,295s.71,6.45,1.66,17.39c.75,8.59,1.1,15.84,3.12,26h3.11S279.56,307,279.56,281Z"/><polygon class="cls-6" points="267.87 250.49 271.8 250.49 272.42 251.94 267.36 251.94 267.87 250.49"/><path class="cls-10" d="M150.24,243.31c-1.26-.58-6.38.84-11.67,3.5a51.51,51.51,0,0,0-11.69-9.47c1.73-4.88,3-10.21,1.5-12.26-3.14-4.15-17.06-6.71-19.13-5.94-1.32.49-4,5.27-5.87,11a51.5,51.5,0,0,0-14.85,1.3c-2.23-4.69-5.08-9.41-7.63-9.76C75.75,221,64.09,229,63.18,231c-.57,1.26.83,6.34,3.47,11.62a51.46,51.46,0,0,0-10,11.56c-4.73-1.64-9.76-2.8-11.73-1.31C40.8,256,38.24,270,39,272c.46,1.23,4.62,3.64,9.84,5.47a51.52,51.52,0,0,0,1.1,15.93c-4.19,2.11-8,4.65-8.37,6.94-.71,5.16,7.32,16.81,9.32,17.73,1.13.52,5.35-.56,10-2.71a51.49,51.49,0,0,0,12.62,10.79c-1.34,4.23-2.11,8.4-.79,10.15,3.14,4.15,17.06,6.71,19.13,5.94,1.14-.42,3.28-4,5-8.68a51.49,51.49,0,0,0,16.7-1.59c2,3.92,4.43,7.4,6.6,7.7,5.16.71,16.81-7.32,17.73-9.32.52-1.13-.57-5.38-2.73-10.06a51.51,51.51,0,0,0,10.23-12.77c4.42,1.45,8.9,2.36,10.73,1,4.15-3.14,6.71-17.06,5.94-19.13-.46-1.24-4.66-3.67-9.92-5.5a51.45,51.45,0,0,0-1.76-15.54c4.46-2.18,8.77-4.89,9.11-7.31C160.28,255.89,152.25,244.23,150.24,243.31Zm-39,59.1A23.17,23.17,0,1,1,121,271.12,23.17,23.17,0,0,1,111.24,302.41Z"/><path class="cls-6" d="M124.17,304.57a33.23,33.23,0,1,1,5.61-38.66h0a33.27,33.27,0,0,1-5.61,38.66ZM77.28,258.84a32.26,32.26,0,1,0,51.65,7.52h0a32.3,32.3,0,0,0-51.65-7.52Z"/><path class="cls-6" d="M137.35,251.15l-.62.22a47.26,47.26,0,0,1-60.34,71.08h0l-.51.4a47.87,47.87,0,0,0,61.48-71.71Z"/><path class="cls-6" d="M57.7,262.29a47,47,0,0,1,21-22.22l.57-.28c-.16-.14-.32-.3-.47-.45l-.39.19a47.63,47.63,0,0,0-21.19,22.39Z"/><path class="cls-15" d="M68.75,341.18h8.32c1.1.12,2.34.43,2.55,1.39a5.57,5.57,0,0,1,.12,1.27c-.29.35-11.32,0-11.32,0l0,0A1.75,1.75,0,0,1,68.75,341.18Z"/><polygon class="cls-12" points="79.73 343.82 68.41 343.78 68.51 344.22 79.75 344.22 79.73 343.82"/><polygon class="cls-6" points="72.04 341.17 72.79 341.18 72.56 342.19 71.83 342.19 72.04 341.17"/><polygon class="cls-6" points="73.65 341.17 74.4 341.18 74.17 342.19 73.44 342.19 73.65 341.17"/><path class="cls-13" d="M68.18,338.41l.57,2.77h0a2.7,2.7,0,0,0,2.23.05l.13-.06.4-2.77Z"/><path class="cls-12" d="M49.31,341.18h8.32c1.1.12,2.34.43,2.55,1.39a5.57,5.57,0,0,1,.12,1.27c-.29.35-11.32,0-11.32,0l0,0A1.75,1.75,0,0,1,49.31,341.18Z"/><polygon class="cls-12" points="60.29 343.82 48.97 343.78 49.07 344.22 60.31 344.22 60.29 343.82"/><polygon class="cls-6" points="52.6 341.17 53.35 341.18 53.12 342.19 52.39 342.19 52.6 341.17"/><polygon class="cls-6" points="54.21 341.17 54.96 341.18 54.73 342.19 54 342.19 54.21 341.17"/><path class="cls-13" d="M49.67,338.41l-.36,2.77h0a2.7,2.7,0,0,0,2.23.05l.13-.06L53,338.41Z"/><path class="cls-13" d="M62.08,245.24l-6.85,4.47,2.11,5.41c0,.08.07.15.1.22l.45,0h.15A5.28,5.28,0,0,1,62.42,258a9.11,9.11,0,0,0,3.23-.84A3.35,3.35,0,0,0,67.17,256C67.91,252.14,62.08,245.24,62.08,245.24Z"/><path class="cls-13" d="M70.8,246.64s.84,8-.85,13c.78.68,3.66,3.77,4.57-.23s-1-14.18-1-14.18Z"/><polygon class="cls-12" points="66.69 246.08 65.08 247.11 65.65 248.32 67.38 247.56 66.69 246.08"/><ellipse class="cls-12" cx="65.47" cy="247.64" rx="0.29" ry="0.73" transform="translate(-94.01 47.2) rotate(-23.7)"/><path class="cls-2" d="M86.13,240.21v0a16.13,16.13,0,0,0-1.56-2.8,14.06,14.06,0,0,1-1.5-2.45L66.44,245.82l1.08,2L86.13,241A5.13,5.13,0,0,1,86.13,240.21Z"/><polygon class="cls-14" points="60.57 257.97 59.97 261.71 65.27 261.71 65.65 257.13 60.57 257.97"/><path class="cls-13" d="M74.25,267.25s6.25-2,8.21-4.67-1.36-17.34-1.36-17.34l.43-2.64a2.46,2.46,0,0,0-2.4-2.85H77.46a1,1,0,0,0-.88,1.34l2.2,4.95s1.65,11.1-.66,11.95a26,26,0,0,1-5.87,1.22Z"/><path class="cls-15" d="M62.5,258l-1.61-3.57,1-.66a2,2,0,0,0,.82-2.3l-1.15-3.36s3.26-.4,3.16-3.44c0-1.56-2.15-1.57-2.15-1.57A3.13,3.13,0,0,1,60,244.64c-.86-.11-3.21.21-4.8,3-1.07,1.86-.6,4.78.33,7,.83,2,3,3.06,5.07,3.38Z"/><path class="cls-12" d="M56.14,287.95a117.68,117.68,0,0,0,2,15.85,14.17,14.17,0,0,1-.49,7.29c-3.73,11.1-9,27.78-9,27.78h4.66s10.55-19.72,13.27-29.5,3.19-12.89,3.19-12.89l-3.24-8.54Z"/><path class="cls-13" d="M60,252.74a1.52,1.52,0,0,0,.87,1.66c.67.36,1.37.19,1.56-.37a1.52,1.52,0,0,0-.87-1.66C60.91,252,60.21,252.18,60,252.74Z"/><path class="cls-27" d="M71.33,287.95H56.14V268.46a8.27,8.27,0,0,1,7.5-8.23L74.2,259s1.24,1.9,4.7,6.32a35.66,35.66,0,0,1-9,3.75Z"/><path class="cls-2" d="M56.14,287.95s2.15,7.76,10.06,16.46a10.18,10.18,0,0,1,3,7.91l-1.63,26.55h4.72s5.76-22,4.52-32.92a49.88,49.88,0,0,0-5.43-18Z"/><ellipse class="cls-6" cx="84.58" cy="237.93" rx="1.11" ry="3.41" transform="translate(-94.92 60.33) rotate(-25.74)"/><path class="cls-13" d="M70.14,243.4l.14.07a2.12,2.12,0,0,0,1.58.1l.09,0a2.83,2.83,0,0,0,1.8-1.83h0a.52.52,0,0,0-.61-.67l-1.05.22a1.58,1.58,0,0,0-1,.68Z"/><polygon class="cls-14" points="121.41 238.49 121.65 255.62 117 254.38 119.62 237.68 121.41 238.49"/><path class="cls-14" d="M118.91,234.27A2.49,2.49,0,0,0,119,236l.6,2.25.43.22,1.36.49c-.21-.43-.09,0-.09,0l.49-3.46s1.46-2-1.75-2.9a.76.76,0,0,0-.83.27A2,2,0,0,0,118.91,234.27Z"/><path class="cls-3" d="M119.06,269.1a100.61,100.61,0,0,0,2.59-13.48l-4.49-2.28-2,5.92Z"/><path class="cls-14" d="M109.9,338.41l2,.34c.4-2.42,6.47-13.89,7-19.84a134.56,134.56,0,0,1,2.08-14L114.37,303s-1.65,0,.16,13.48C110.45,321.82,109.36,334,109.9,338.41Z"/><path class="cls-13" d="M114.7,298.09s1.53,9.22,3.66,19.08c-2.23,6,1.17,22.57,1.23,22.51.26-.24,1.43,1.2,1.43,1.2s2.47-14.66,3-21.28.68-14.68.68-14.68Z"/><path class="cls-2" d="M119.32,338.75a2.18,2.18,0,0,0-.76,1.79c.17,1,.41,3.35.41,3.35h1l0-2.19c0-.14,2,2.19,2.39,2.19h5.05s.34-1.48-2.63-2S119.32,338.75,119.32,338.75Z"/><path class="cls-14" d="M112.07,337.08l-.13,2.09a2,2,0,0,0,.34,1.24A7.85,7.85,0,0,0,113.8,342c-1.46.47-2.8-1.17-3.5-2.26a2.61,2.61,0,0,1-.38-1.79l.25-1.65Z"/><path class="cls-12" d="M109.9,338.23s-1.29.12-1.5,1.1-.82,3-.82,3l.7.56,1-2a29.28,29.28,0,0,0,2.47,3h5.52s0-1.83-3.45-1.91C110.62,341.91,109.9,338.23,109.9,338.23Z"/><polygon class="cls-13" points="137.9 240.7 131.77 256.71 127.91 253.84 136.54 239.29 137.9 240.7"/><path class="cls-13" d="M137.14,235.86a2.49,2.49,0,0,0-.55,1.69l-.27,2.31.32.36,1.08,1c0-.48-.09,0-.09,0l1.74-3s2.11-1.35-.55-3.34a.76.76,0,0,0-.87-.06A2,2,0,0,0,137.14,235.86Z"/><polygon class="cls-14" points="120.89 260.63 116.95 260.63 118.52 255.99 121.61 257.89 120.89 260.63"/><path class="cls-4" d="M126.14,265.62c0-.12,0-.21-.07-.32a59.65,59.65,0,0,0,5.7-8.59l-3.32-3.78-6,7.17h-2.22a4.44,4.44,0,0,0-5.61.72c-1,1-1.59,3.66-1,6.48,1.76,7.78.38,11.9.38,11.9l10.18,3.8s.23-6.77.39-11.52v0a5.29,5.29,0,0,1,.83-2.6A4.64,4.64,0,0,0,126.14,265.62Z"/><path class="cls-13" d="M122.28,247.65l-6.47,2.27.64,4.83c0,.07,0,.13,0,.2l.37.08.06,0H117a4.43,4.43,0,0,1,3,3,7.64,7.64,0,0,0,2.8,0,2.81,2.81,0,0,0,1.47-.63C125.64,254.44,122.28,247.65,122.28,247.65Z"/><path class="cls-12" d="M122.13,251.77c-1.74.85-1.33,9.83-1.63,15.95a7,7,0,0,1-5.88,6.5c-2.31.37-4.84.44-6.37-.43,1-.83,6.46-8.84,4.71-19.45-.23-1.4-.26-5.28,2.09-7.39,2.61-2.34,8,.71,8,.71S124.53,250.59,122.13,251.77Z"/><path class="cls-2" d="M124.42,279a75.62,75.62,0,0,1,1.36,11c0,2.26-.55,16.46-.55,16.46s-9.68.7-11.55.7c-.47-11.64-3.12-12-3.12-17.43a15.49,15.49,0,0,1,2.14-6.73,9.84,9.84,0,0,0,1.34-3.78l.06-.22Z"/><path class="cls-5" d="M113.2,305"/><polygon class="cls-24" points="47.92 104.91 44.27 112.08 51.93 110.33 78.11 102.08 47.92 104.91"/><polygon class="cls-10" points="44.27 112.08 57.27 111.27 54.09 109.65 44.27 112.08"/><polygon class="cls-28" points="47.92 104.91 45.64 97.92 78.11 102.08 47.92 104.91"/><polygon class="cls-29" points="78.11 102.08 51.93 110.33 55.83 120.4 78.11 102.08"/><path class="cls-10" d="M47.14,119.29a.61.61,0,0,1-.12-1,17.18,17.18,0,0,1,2.57-1.85.61.61,0,1,1,.62,1.05,15.92,15.92,0,0,0-2.39,1.72A.61.61,0,0,1,47.14,119.29Z"/><path class="cls-10" d="M55.86,186.37l0,0A18.42,18.42,0,0,1,51,182.19a.61.61,0,0,1,.94-.78,17.21,17.21,0,0,0,4.49,3.89.61.61,0,0,1-.59,1.07Zm-6.75-7.08a.6.6,0,0,1-.25-.24,23.09,23.09,0,0,1-2.34-5.88.61.61,0,1,1,1.19-.29,21.89,21.89,0,0,0,2.22,5.57.61.61,0,0,1-.81.85Zm-2.86-9.38a.61.61,0,0,1-.33-.5l0-.3a29.52,29.52,0,0,1,.31-6,.61.61,0,0,1,1.21.18,28.24,28.24,0,0,0-.3,5.75l0,.28a.61.61,0,0,1-.89.59Zm1-9.78a.61.61,0,0,1-.31-.7,45.6,45.6,0,0,1,2-5.92.61.61,0,0,1,1.13.47,44.54,44.54,0,0,0-2,5.76.61.61,0,0,1-.75.43Zm3.55-9.21a.61.61,0,0,1-.27-.81l.2-.4a19.89,19.89,0,0,1-2.67-1.49.61.61,0,0,1,.68-1,18.56,18.56,0,0,0,2.55,1.42c.66-1.26,1.38-2.57,2.2-4a.61.61,0,0,1,1.06.61c-.79,1.36-1.49,2.63-2.13,3.84q.86.33,1.74.58a.61.61,0,1,1-.33,1.18,20.56,20.56,0,0,1-2-.66l-.23.46a.61.61,0,0,1-.82.28Zm-5.53-5a.59.59,0,0,1-.16-.12,16.59,16.59,0,0,1-3.5-5.33A.61.61,0,0,1,42.8,140,15.37,15.37,0,0,0,46,144.91a.61.61,0,0,1-.72,1Zm12.09,5.57a.61.61,0,0,1,.33-1.15,17.88,17.88,0,0,0,5.93-.46A.61.61,0,1,1,64,151a19.11,19.11,0,0,1-6.33.49A.61.61,0,0,1,57.42,151.45ZM40.93,137.19a.61.61,0,0,1-.33-.44,19.79,19.79,0,0,1-.06-6.35.61.61,0,0,1,1.21.18,18.55,18.55,0,0,0,.06,6,.61.61,0,0,1-.88.65ZM67,149.67a.61.61,0,0,1,0-1.09,14.86,14.86,0,0,0,1.33-.77,11.85,11.85,0,0,0,3.13-3,.61.61,0,1,1,1,.71,13.06,13.06,0,0,1-3.46,3.3,16,16,0,0,1-1.44.83A.61.61,0,0,1,67,149.67Zm-11.3-7.36-.05,0a.61.61,0,0,1-.18-.85,23.87,23.87,0,0,1,4-4.91.61.61,0,1,1,.82.91,22.7,22.7,0,0,0-3.78,4.66A.61.61,0,0,1,55.71,142.31Zm-14-14.87a.61.61,0,0,1-.3-.74A20.83,20.83,0,0,1,42.58,124a19.84,19.84,0,0,1,1.83-2.94.61.61,0,0,1,1,.74,18.69,18.69,0,0,0-1.72,2.76,19.61,19.61,0,0,0-1.06,2.51.61.61,0,0,1-.78.38Zm31.53,15a.61.61,0,0,1-.32-.69,5.52,5.52,0,0,0-.4-4,5,5,0,0,0-.84-1.15.61.61,0,1,1,.88-.85,6.21,6.21,0,0,1,1,1.44,6.79,6.79,0,0,1,.5,4.88.61.61,0,0,1-.74.45Zm-10.63-6.95a.61.61,0,0,1,0-1.1,9.87,9.87,0,0,1,6.45-.61.61.61,0,1,1-.3,1.19,8.75,8.75,0,0,0-5.63.53A.61.61,0,0,1,62.65,135.46Z"/><path class="cls-10" d="M59.31,187.87a.61.61,0,0,1,.45-1.13,13.11,13.11,0,0,0,2.88.49.61.61,0,1,1-.07,1.22,14.35,14.35,0,0,1-3.14-.53Z"/><polygon class="cls-30" points="293.47 30.84 314.64 19.16 325.45 16.99 333.62 18.19 293.47 30.84"/><polyline class="cls-24" points="293.47 30.84 333.12 20.65 333.62 18.19"/><polygon class="cls-10" points="334.25 27.45 334.2 27.53 332.53 33.69 293.57 30.84 334.25 27.45"/><polygon class="cls-31" points="341.82 23.84 336.16 19.25 293.73 30.77 330.26 29.69 341.82 23.84"/><path class="cls-10" d="M431,102.39a29.66,29.66,0,0,1-3.81-1.66.58.58,0,1,0-.53,1,30.85,30.85,0,0,0,4,1.72q.73.26,1.47.48a.58.58,0,1,0,.33-1.1Q431.7,102.64,431,102.39Z"/><path class="cls-10" d="M353.4,19.55c-1.8.23-3.67.53-5.72.91a.58.58,0,1,0,.21,1.13c2-.38,3.88-.67,5.66-.9a.58.58,0,0,0-.15-1.14Z"/><path class="cls-10" d="M363,20a.58.58,0,0,0-.34-1c-1.85,0-3.8.06-5.81.23a.58.58,0,0,0,.1,1.15c2-.16,3.89-.24,5.7-.22A.57.57,0,0,0,363,20Z"/><path class="cls-10" d="M419.88,95.45a.57.57,0,0,0-.81,0,.57.57,0,0,0,0,.81,32.09,32.09,0,0,0,4.55,3.69.58.58,0,0,0,.66,0,.55.55,0,0,0,.14-.14.58.58,0,0,0-.16-.8A31.11,31.11,0,0,1,419.88,95.45Z"/><path class="cls-10" d="M417.5,93.76a.58.58,0,0,0,.08-.81q-.49-.6-.95-1.22a29.86,29.86,0,0,1-2.21-3.46.58.58,0,0,0-.78-.23.58.58,0,0,0-.23.78,31,31,0,0,0,2.3,3.59q.48.64,1,1.26a.58.58,0,0,0,.79.1Z"/><path class="cls-10" d="M412.66,86l.12-.07a.58.58,0,0,0,.19-.68,39.31,39.31,0,0,1-1.75-5.39.58.58,0,1,0-1.12.28,40.12,40.12,0,0,0,1.8,5.55A.58.58,0,0,0,412.66,86Z"/><path class="cls-10" d="M397.38,36.82q.72.88,1.4,1.79c.68.92,1.33,1.87,1.93,2.82a.58.58,0,0,0,.79.18l0,0a.58.58,0,0,0,.14-.77c-.61-1-1.28-2-2-2.9q-.69-.93-1.43-1.83a.55.55,0,0,0-.81-.08A.58.58,0,0,0,397.38,36.82Z"/><path class="cls-10" d="M402.4,44.39a42,42,0,0,1,2.28,5.2.58.58,0,0,0,.74.35l.15-.08a.58.58,0,0,0,.2-.66,43,43,0,0,0-2.35-5.34.58.58,0,1,0-1,.53Z"/><path class="cls-10" d="M391,30.4a46.84,46.84,0,0,1,4.17,3.87.58.58,0,0,0,.76.07l.06,0a.58.58,0,0,0,0-.81,48.18,48.18,0,0,0-4.27-4,.58.58,0,0,0-.73.89Z"/><path class="cls-10" d="M380.33,23.84a.58.58,0,0,0,.47-1.05,45.58,45.58,0,0,0-5.47-2,.58.58,0,1,0-.33,1.1A44.49,44.49,0,0,1,380.33,23.84Z"/><path class="cls-10" d="M408.71,68a.58.58,0,0,0,.51-.64l-.08-.72c-.19-1.67-.38-3.34-.6-5a.58.58,0,0,0-1.14.15c.22,1.66.41,3.32.6,5l.08.72A.58.58,0,0,0,408.71,68Z"/><path class="cls-10" d="M388.24,28.33a.58.58,0,1,0,.66-.94,47.84,47.84,0,0,0-5-3.06.58.58,0,1,0-.54,1A46.5,46.5,0,0,1,388.24,28.33Z"/><path class="cls-10" d="M409,70.32a.57.57,0,0,0-.5.64c.28,2.24.56,4.06.87,5.73a.58.58,0,0,0,1.13-.21c-.31-1.64-.58-3.44-.86-5.66A.58.58,0,0,0,409,70.32Z"/><path class="cls-10" d="M435.71,103.66a.58.58,0,0,0-.22,1.13,46.5,46.5,0,0,0,5.78.75.58.58,0,1,0,.08-1.15A45.8,45.8,0,0,1,435.71,103.66Z"/><path class="cls-10" d="M406.11,52.13a.58.58,0,0,0-.41.71c.45,1.69.84,3.52,1.19,5.58a.58.58,0,1,0,1.14-.19c-.35-2.1-.75-4-1.21-5.68A.58.58,0,0,0,406.11,52.13Z"/><path class="cls-10" d="M368.18,19.29q-1-.12-2-.2a.58.58,0,0,0-.09,1.15q1,.07,2,.19c1.22.14,2.45.35,3.65.6a.58.58,0,1,0,.24-1.13C370.7,19.65,369.43,19.44,368.18,19.29Z"/></g></g></svg>